<svg version="1.1" xmlns="http://www.w3.org/2000/svg" xmlns:xlink="http://www.w3.org/1999/xlink" x="0px" y="0px" width="220px" height="160px" viewBox="0 0 220 160" style="enable-background:new 0 0 220 160;" xml:space="preserve">
<defs>
  <style type="text/css">
    
	  .st0{fill:#273246;}
    .st1{fill:#fff;stroke:#fff;}
    .st2{fill:#fff;}
    .st3{fill:#fff;stroke:#fff;}
    .st4{fill:#273246;stroke:#273246;stroke-width:2;}
    
  </style>
</defs>
      <g id="text" class="logo__text">
        <g>
          <path class="st0 logo__path-class" d="M22.255,145.075l-4.139,0.121c-0.028-1.051-0.048-2.095-0.062-3.13c-0.014-1.035-0.035-2.078-0.062-3.13
			l-3.911,0.218c-0.014,0.162-0.021,0.319-0.021,0.474c0,0.153,0,0.303,0,0.448c0,0.906,0.031,1.808,0.093,2.706
			c0.062,0.897,0.128,1.792,0.198,2.681c-0.277,0.017-0.558,0.028-0.842,0.037c-0.284,0.008-0.565,0.012-0.842,0.012
			c-0.541,0-1.085-0.012-1.633-0.036c-0.548-0.024-1.092-0.037-1.633-0.037c0.027-1.504,0.062-2.992,0.104-4.464
			c0.042-1.473,0.076-2.961,0.104-4.466c0.028-1.472,0.045-2.927,0.052-4.367c0.007-1.439,0.017-2.888,0.031-4.344h3.474
			c0.111,1.214,0.187,2.423,0.229,3.628c0.042,1.205,0.104,2.414,0.187,3.628c0.666-0.017,1.324-0.024,1.976-0.024
			c0.651,0,1.317-0.008,1.997-0.024l0.208-7.862c0.194-0.016,0.385-0.024,0.572-0.024c0.187,0,0.377,0,0.572,0
			c0.555,0,1.099,0.017,1.633,0.049c0.534,0.033,1.071,0.105,1.612,0.219c0.069,2.961,0.097,5.908,0.083,8.845
			C22.221,139.166,22.228,142.114,22.255,145.075z"></path>
          <path class="st0 logo__path-class" d="M28.017,128.914c0,0.324-0.059,0.627-0.177,0.91s-0.277,0.53-0.479,0.74
			c-0.201,0.211-0.426,0.376-0.676,0.497c-0.25,0.122-0.499,0.183-0.749,0.183c-0.277,0-0.537-0.073-0.78-0.219
			s-0.454-0.331-0.634-0.559c-0.181-0.226-0.319-0.488-0.416-0.788c-0.097-0.299-0.146-0.603-0.146-0.91
			c0-0.307,0.052-0.595,0.156-0.861s0.243-0.497,0.416-0.691s0.375-0.348,0.603-0.461c0.229-0.113,0.475-0.17,0.739-0.17
			c0.263,0,0.523,0.061,0.78,0.182c0.256,0.121,0.485,0.292,0.687,0.51c0.201,0.219,0.364,0.47,0.489,0.752
			C27.955,128.312,28.017,128.607,28.017,128.914z M28.87,133.039c-0.07,0.858-0.125,1.707-0.167,2.548
			c-0.042,0.842-0.083,1.684-0.125,2.523c-0.056,0.988-0.149,1.966-0.281,2.937s-0.281,1.941-0.447,2.912l-3.183,0.388
			c0-0.518,0.003-1.026,0.011-1.528c0.007-0.501,0.01-1.011,0.01-1.528c0-1.327-0.021-2.653-0.062-3.979s-0.083-2.653-0.125-3.979
			c0.735-0.032,1.459-0.081,2.174-0.146C27.389,133.121,28.121,133.072,28.87,133.039z"></path>
          <path class="st0 logo__path-class" d="M44.448,131.777l-5.345,4.514c0.042,0.194,0.125,0.506,0.25,0.935c0.125,0.429,0.263,0.873,0.416,1.334
			c0.152,0.461,0.315,0.89,0.489,1.286s0.336,0.651,0.489,0.765c0.097,0.081,0.222,0.146,0.375,0.194
			c0.152,0.048,0.308,0.089,0.468,0.121c0.159,0.032,0.319,0.053,0.479,0.061c0.159,0.008,0.294,0.013,0.406,0.013
			c0.194,0,0.395-0.009,0.603-0.024c0.208-0.017,0.409-0.04,0.603-0.073c-0.028,0.211-0.048,0.425-0.062,0.643
			c-0.014,0.219-0.021,0.441-0.021,0.668c0,0.389,0.007,0.776,0.021,1.164c0.014,0.389,0.021,0.77,0.021,1.141
			c-0.097,0.017-0.267,0.037-0.51,0.062c-0.243,0.023-0.52,0.048-0.832,0.072c-0.312,0.024-0.642,0.053-0.988,0.085
			s-0.669,0.061-0.967,0.085s-0.555,0.036-0.77,0.036s-0.35-0.016-0.405-0.049c-0.236-0.129-0.465-0.267-0.687-0.412
			c-0.222-0.146-0.409-0.348-0.562-0.606c-0.069-0.113-0.184-0.421-0.343-0.922c-0.16-0.502-0.326-1.052-0.5-1.65
			s-0.333-1.156-0.478-1.674s-0.239-0.85-0.281-0.995l-1.997,1.504v4.223l-4.119,0.412c0.083-2.265,0.173-4.517,0.271-6.758
			c0.097-2.24,0.146-4.501,0.146-6.781c0-0.696-0.003-1.384-0.01-2.062c-0.007-0.681-0.018-1.376-0.031-2.088
			c0.568,0.13,1.133,0.211,1.695,0.243c0.562,0.032,1.126,0.081,1.695,0.146v9.075c1.082-0.776,2.139-1.569,3.172-2.378
			s2.035-1.698,3.006-2.669c0.735,0.097,1.452,0.169,2.153,0.218C42.995,131.681,43.713,131.729,44.448,131.777z"></path>
          <path class="st0 logo__path-class" d="M58.904,136.146c-1.817,0.113-3.626,0.206-5.429,0.278c-1.802,0.073-3.612,0.15-5.428,0.23
			c-0.014,0.065-0.021,0.131-0.021,0.194c0,0.065,0,0.13,0,0.194c0,0.55,0.107,0.971,0.322,1.262
			c0.215,0.292,0.482,0.498,0.801,0.619c0.318,0.121,0.672,0.19,1.061,0.206c0.388,0.017,0.749,0.024,1.082,0.024
			c0.929,0,1.858-0.036,2.787-0.109c0.929-0.072,1.865-0.149,2.808-0.23l0.167,3.858c-0.915,0.049-1.827,0.089-2.735,0.121
			c-0.909,0.032-1.82,0.049-2.735,0.049c-0.195,0-0.551-0.004-1.071-0.012c-0.52-0.009-1.075-0.032-1.665-0.073
			s-1.14-0.093-1.653-0.157c-0.513-0.065-0.853-0.154-1.019-0.268c-0.43-0.291-0.766-0.663-1.009-1.116s-0.43-0.946-0.562-1.479
			c-0.132-0.534-0.222-1.08-0.271-1.639c-0.049-0.558-0.08-1.096-0.093-1.613c-0.014-0.081-0.018-0.166-0.011-0.255
			c0.007-0.089,0.011-0.174,0.011-0.255c0-0.857,0.08-1.654,0.239-2.391c0.16-0.735,0.454-1.451,0.884-2.146
			c0.292-0.485,0.721-0.89,1.29-1.214c0.568-0.323,1.186-0.578,1.851-0.765c0.666-0.186,1.331-0.315,1.997-0.388
			c0.665-0.073,1.24-0.109,1.726-0.109c0.43,0,0.957,0.045,1.581,0.134c0.624,0.089,1.244,0.238,1.861,0.449
			c0.617,0.21,1.175,0.48,1.674,0.812c0.499,0.331,0.839,0.74,1.019,1.225c0.028,0.098,0.059,0.264,0.094,0.498
			c0.034,0.234,0.073,0.501,0.114,0.801c0.042,0.3,0.08,0.618,0.114,0.958s0.066,0.664,0.094,0.971
			c0.028,0.308,0.052,0.582,0.073,0.825S58.89,136.048,58.904,136.146z M56.075,134.374c-0.083-0.712-0.239-1.273-0.468-1.687
			c-0.229-0.412-0.513-0.72-0.853-0.922c-0.34-0.202-0.729-0.331-1.165-0.388c-0.437-0.058-0.905-0.085-1.404-0.085
			c-0.167,0-0.375,0.003-0.624,0.012c-0.25,0.008-0.5,0.032-0.749,0.073c-0.25,0.04-0.485,0.101-0.707,0.182
			c-0.222,0.081-0.395,0.194-0.52,0.34c-0.097,0.097-0.177,0.23-0.239,0.399c-0.062,0.17-0.114,0.353-0.156,0.547
			c-0.041,0.193-0.073,0.385-0.093,0.569c-0.021,0.187-0.031,0.345-0.031,0.474c0,0.259,0.021,0.51,0.062,0.752L56.075,134.374z"></path>
          <path class="st0 logo__path-class" d="M83.237,128.599c-0.402,2.281-0.787,4.554-1.154,6.819c-0.367,2.265-0.759,4.537-1.175,6.818l-4.326,0.048
			l-1.581-6.551l-3.62,6.551l-4.721,0.413c-0.111-1.116-0.229-2.24-0.354-3.373c-0.125-1.132-0.264-2.257-0.416-3.373
			c-0.153-1.165-0.305-2.317-0.458-3.458c-0.153-1.141-0.305-2.284-0.458-3.434l4.285-0.146l1.373,7.595
			c0.277-0.728,0.562-1.447,0.853-2.159c0.291-0.712,0.582-1.432,0.874-2.159c0.305-0.809,0.638-1.577,0.998-2.306l2.351,0.049
			c0.402,1.182,0.793,2.357,1.175,3.53c0.381,1.174,0.793,2.334,1.237,3.482c0.25-0.777,0.468-1.5,0.655-2.172
			c0.187-0.671,0.357-1.334,0.51-1.989c0.152-0.655,0.298-1.327,0.437-2.015c0.138-0.688,0.277-1.436,0.416-2.245L83.237,128.599z"></path>
          <path class="st0 logo__path-class" d="M88.042,128.914c0,0.324-0.059,0.627-0.176,0.91c-0.118,0.283-0.278,0.53-0.479,0.74
			c-0.202,0.211-0.426,0.376-0.676,0.497c-0.25,0.122-0.5,0.183-0.749,0.183c-0.278,0-0.538-0.073-0.78-0.219
			s-0.454-0.331-0.634-0.559c-0.18-0.226-0.319-0.488-0.416-0.788c-0.097-0.299-0.146-0.603-0.146-0.91
			c0-0.307,0.052-0.595,0.156-0.861s0.243-0.497,0.416-0.691s0.375-0.348,0.604-0.461c0.229-0.113,0.475-0.17,0.738-0.17
			c0.263,0,0.523,0.061,0.78,0.182c0.256,0.121,0.485,0.292,0.687,0.51c0.201,0.219,0.364,0.47,0.489,0.752
			C87.979,128.312,88.042,128.607,88.042,128.914z M88.895,133.039c-0.069,0.858-0.125,1.707-0.167,2.548
			c-0.042,0.842-0.083,1.684-0.125,2.523c-0.055,0.988-0.149,1.966-0.28,2.937c-0.132,0.971-0.281,1.941-0.447,2.912l-3.183,0.388
			c0-0.518,0.003-1.026,0.01-1.528c0.007-0.501,0.011-1.011,0.011-1.528c0-1.327-0.021-2.653-0.062-3.979s-0.083-2.653-0.125-3.979
			c0.734-0.032,1.459-0.081,2.173-0.146C87.415,133.121,88.146,133.072,88.895,133.039z"></path>
          <path class="st0 logo__path-class" d="M100.833,140.853l-0.354,4.271c-0.444,0.031-0.888,0.061-1.331,0.084c-0.444,0.024-0.888,0.037-1.332,0.037
			c-0.236,0-0.547-0.009-0.936-0.024c-0.389-0.017-0.791-0.045-1.207-0.085s-0.811-0.097-1.186-0.17
			c-0.375-0.072-0.673-0.166-0.895-0.279c-0.333-0.178-0.606-0.412-0.821-0.703c-0.215-0.292-0.392-0.61-0.53-0.959
			c-0.139-0.348-0.25-0.72-0.333-1.115c-0.083-0.397-0.146-0.789-0.187-1.178c-0.042-0.372-0.073-0.772-0.094-1.201
			c-0.021-0.429-0.035-0.869-0.042-1.322c-0.007-0.453-0.01-0.894-0.01-1.322s0-0.829,0-1.201v-0.729h-1.29
			c0.055-0.728,0.086-1.447,0.094-2.159c0.007-0.712,0.038-1.432,0.094-2.159l1.248,0.049v-3.592c0.79,0.178,1.577,0.271,2.36,0.278
			c0.784,0.009,1.57,0.045,2.361,0.109l-0.042,3.713l1.747,0.121c0,0.113,0.003,0.219,0.011,0.315
			c0.007,0.098,0.01,0.203,0.01,0.315c0,0.453-0.031,0.895-0.094,1.323c-0.062,0.428-0.143,0.861-0.239,1.298H96.32
			c-0.028,0.744-0.049,1.488-0.062,2.232c-0.014,0.744-0.021,1.488-0.021,2.232c0,0.356,0.01,0.675,0.031,0.958
			s0.076,0.521,0.167,0.716c0.09,0.194,0.239,0.34,0.447,0.438c0.208,0.097,0.499,0.146,0.874,0.146c0.513,0,1.026-0.04,1.539-0.122
			C99.807,141.088,100.32,140.982,100.833,140.853z"></path>
          <path class="st0 logo__path-class" d="M114.915,135.685c0,0.599-0.031,1.201-0.094,1.808s-0.128,1.209-0.197,1.808
			c-0.111,1.052-0.236,2.092-0.375,3.118c-0.139,1.027-0.277,2.067-0.416,3.118c-0.679,0.016-1.345,0.049-1.996,0.097
			c-0.652,0.049-1.311,0.105-1.976,0.17c0-1.181,0-2.349,0-3.506c0-1.156-0.021-2.317-0.062-3.482c0-0.227-0.003-0.518-0.011-0.873
			c-0.007-0.355-0.038-0.647-0.093-0.874c-0.083-0.371-0.188-0.627-0.312-0.764c-0.125-0.138-0.367-0.207-0.728-0.207
			c-0.25,0-0.542,0.032-0.874,0.098c-0.333,0.064-0.673,0.146-1.02,0.242c-0.347,0.098-0.676,0.206-0.987,0.328
			c-0.312,0.121-0.572,0.246-0.78,0.376c-0.111,1.31-0.247,2.612-0.406,3.906c-0.16,1.295-0.26,2.604-0.302,3.931l-2.933-0.17
			c-0.152-2.911-0.298-5.812-0.437-8.698c-0.139-2.889-0.271-5.787-0.396-8.699l4.576-0.34c-0.028,1.067-0.056,2.132-0.083,3.19
			c-0.028,1.06-0.056,2.124-0.083,3.191c0.264-0.259,0.562-0.457,0.895-0.595c0.333-0.138,0.676-0.23,1.03-0.279
			c0.354-0.049,0.71-0.072,1.071-0.072c0.36,0,0.707,0,1.04,0c0.5,0,1.064,0.021,1.695,0.061c0.63,0.04,1.234,0.153,1.809,0.34
			c0.576,0.187,1.085,0.481,1.529,0.886c0.443,0.404,0.741,0.97,0.895,1.698c0.014,0.033,0.021,0.064,0.021,0.097
			C114.915,135.62,114.915,135.652,114.915,135.685z"></path>
          <path class="st0 logo__path-class" d="M135.608,145.536c-1.678-0.033-3.394-0.081-5.147-0.146c-1.755-0.065-3.471-0.21-5.148-0.437
			c-0.194-0.033-0.413-0.061-0.655-0.086c-0.242-0.023-0.461-0.076-0.654-0.157c-0.403-0.178-0.718-0.376-0.947-0.595
			c-0.229-0.218-0.405-0.469-0.53-0.752c-0.124-0.282-0.215-0.598-0.271-0.946c-0.056-0.348-0.104-0.74-0.146-1.177
			c-0.125-1.132-0.222-2.269-0.291-3.409s-0.104-2.285-0.104-3.434c0-0.21,0.003-0.465,0.01-0.765
			c0.007-0.299,0.021-0.61,0.042-0.934c0.021-0.323,0.052-0.631,0.094-0.923c0.041-0.291,0.097-0.533,0.166-0.728
			c0.333-0.841,0.821-1.517,1.467-2.026c0.645-0.51,1.354-0.905,2.132-1.189c0.776-0.282,1.577-0.469,2.402-0.558
			c0.824-0.089,1.584-0.134,2.277-0.134c1.483,0,2.967,0.17,4.451,0.51l0.166,5.193c-1.414-0.518-2.877-0.776-4.389-0.776
			c-0.277,0-0.645,0.016-1.103,0.048c-0.457,0.033-0.926,0.093-1.403,0.182c-0.479,0.09-0.926,0.219-1.342,0.389
			s-0.707,0.4-0.874,0.691c-0.083,0.146-0.155,0.349-0.218,0.606c-0.062,0.26-0.111,0.53-0.146,0.813
			c-0.035,0.283-0.06,0.562-0.073,0.837c-0.014,0.275-0.021,0.502-0.021,0.68c0,0.372,0.024,0.812,0.073,1.322
			c0.048,0.51,0.106,1.031,0.176,1.565s0.152,1.043,0.25,1.528c0.097,0.485,0.201,0.882,0.312,1.189h3.682l-0.188-4.684
			c0.957,0.081,1.917,0.117,2.881,0.109s1.925-0.012,2.881-0.012c0.098,1.375,0.152,2.741,0.167,4.101
			C135.602,142.794,135.608,144.161,135.608,145.536z"></path>
          <path class="st0 logo__path-class" d="M148.753,134.907v0.559l-4.015,0.219c0.042-0.21,0.062-0.453,0.062-0.729c0-0.404-0.049-0.667-0.146-0.788
			s-0.312-0.183-0.645-0.183c-0.472,0-0.991,0.098-1.56,0.292c-0.569,0.193-1.068,0.38-1.498,0.558
			c-0.069,0.712-0.125,1.424-0.166,2.136c-0.042,0.712-0.062,1.424-0.062,2.135c0,0.793,0.003,1.582,0.01,2.366
			s0.018,1.573,0.032,2.365l-3.578,0.268c-0.069-1.035-0.139-2.066-0.208-3.094s-0.132-2.059-0.188-3.095
			c-0.069-1.374-0.159-2.745-0.271-4.112c-0.11-1.367-0.222-2.745-0.332-4.138c0.79,0.065,1.577,0.158,2.36,0.279
			s1.57,0.271,2.36,0.449l-0.104,2.038c0.416-0.388,0.814-0.724,1.196-1.007c0.381-0.283,0.77-0.521,1.165-0.716
			c0.395-0.194,0.813-0.336,1.258-0.425c0.443-0.089,0.936-0.133,1.477-0.133c0.36,0,0.735,0.044,1.123,0.133
			c0.389,0.089,0.721,0.296,0.999,0.619c0.138,0.178,0.256,0.445,0.354,0.801c0.097,0.356,0.173,0.731,0.229,1.128
			c0.056,0.397,0.094,0.785,0.114,1.165S148.753,134.682,148.753,134.907z"></path>
          <path class="st0 logo__path-class" d="M164.561,134.204c0,1.358-0.041,2.71-0.124,4.053c-0.084,1.343-0.167,2.685-0.25,4.027
			c-1.554,0.162-3.099,0.3-4.639,0.413c-1.539,0.113-3.085,0.17-4.638,0.17c-0.14,0-0.396-0.004-0.77-0.013
			c-0.375-0.008-0.77-0.023-1.186-0.049c-0.416-0.023-0.812-0.056-1.186-0.097c-0.375-0.04-0.624-0.101-0.749-0.182
			c-0.458-0.291-0.777-0.659-0.957-1.104c-0.181-0.444-0.271-0.949-0.271-1.517c0-0.194,0.007-0.452,0.021-0.776
			c0.014-0.323,0.042-0.663,0.084-1.02c0.041-0.355,0.097-0.687,0.166-0.995c0.069-0.306,0.152-0.533,0.25-0.679
			c0.124-0.194,0.408-0.359,0.853-0.497c0.443-0.138,0.974-0.247,1.591-0.327c0.617-0.082,1.282-0.146,1.997-0.194
			c0.714-0.049,1.396-0.085,2.049-0.109c0.651-0.024,1.233-0.036,1.747-0.036c0.513,0,0.88,0,1.103,0
			c0.042-0.356,0.062-0.704,0.062-1.044c0-0.032,0-0.117,0-0.255c0-0.137-0.008-0.222-0.021-0.255
			c-0.042-0.097-0.174-0.178-0.396-0.242s-0.496-0.113-0.822-0.146c-0.325-0.032-0.68-0.061-1.061-0.085
			c-0.382-0.025-0.752-0.037-1.112-0.037c-0.361,0-0.68,0-0.957,0s-0.479,0-0.604,0c-0.873,0-1.747,0.021-2.62,0.062
			c-0.874,0.04-1.747,0.076-2.621,0.108c0.055-0.614,0.101-1.237,0.135-1.868c0.035-0.631,0.038-1.253,0.011-1.868
			c1.012-0.211,2.028-0.36,3.047-0.449c1.02-0.089,2.049-0.134,3.089-0.134c0.374,0,0.783,0.005,1.228,0.013
			c0.443,0.008,0.887,0.024,1.331,0.049c0.443,0.023,0.884,0.06,1.321,0.108c0.437,0.049,0.842,0.113,1.216,0.194
			c0.389,0.081,0.773,0.227,1.154,0.437c0.382,0.211,0.738,0.47,1.071,0.777c0.333,0.307,0.624,0.658,0.874,1.055
			c0.25,0.397,0.43,0.821,0.541,1.274c0.014,0.049,0.023,0.13,0.031,0.242c0.006,0.113,0.01,0.239,0.01,0.376
			c0,0.138,0,0.264,0,0.377S164.561,134.155,164.561,134.204z M159.923,139.906v-3.105c-0.402-0.016-0.805-0.028-1.206-0.036
			c-0.403-0.009-0.805-0.013-1.207-0.013c-0.083,0-0.315,0.004-0.697,0.013c-0.381,0.008-0.79,0.028-1.227,0.061
			s-0.836,0.072-1.196,0.121s-0.568,0.121-0.624,0.218c-0.069,0.13-0.114,0.264-0.135,0.401c-0.021,0.137-0.031,0.278-0.031,0.424
			c0,0.114,0.007,0.268,0.021,0.461c0.014,0.194,0.038,0.397,0.073,0.607c0.034,0.21,0.072,0.404,0.114,0.582
			c0.041,0.179,0.097,0.308,0.166,0.389c0.056,0.081,0.149,0.142,0.281,0.182s0.273,0.072,0.426,0.098
			c0.153,0.023,0.305,0.04,0.458,0.048c0.152,0.008,0.271,0.012,0.354,0.012c0.333,0,0.689-0.016,1.071-0.048
			c0.381-0.032,0.77-0.069,1.165-0.109c0.395-0.04,0.779-0.089,1.154-0.146C159.257,140.008,159.604,139.955,159.923,139.906z"></path>
          <path class="st0 logo__path-class" d="M179.578,131.462c-0.513,1.116-1.02,2.196-1.519,3.24c-0.499,1.043-1.009,2.07-1.528,3.081
			c-0.52,1.012-1.058,2.019-1.612,3.021s-1.145,2.021-1.768,3.057l-3.619,0.17l-4.118-12.69l4.617-0.146
			c0.277,1.505,0.544,3.005,0.801,4.501c0.257,1.497,0.523,3.005,0.801,4.525c0.526-1.423,1.036-2.839,1.528-4.246
			s0.939-2.854,1.342-4.344c0.859,0,1.706-0.008,2.538-0.023C177.873,131.592,178.719,131.544,179.578,131.462z"></path>
          <path class="st0 logo__path-class" d="M183.842,128.914c0,0.324-0.059,0.627-0.177,0.91s-0.277,0.53-0.479,0.74
			c-0.201,0.211-0.426,0.376-0.676,0.497c-0.249,0.122-0.499,0.183-0.749,0.183c-0.277,0-0.537-0.073-0.779-0.219
			c-0.243-0.146-0.455-0.331-0.635-0.559c-0.181-0.226-0.319-0.488-0.416-0.788c-0.098-0.299-0.146-0.603-0.146-0.91
			c0-0.307,0.052-0.595,0.156-0.861c0.104-0.267,0.242-0.497,0.416-0.691c0.173-0.194,0.374-0.348,0.603-0.461
			c0.229-0.113,0.475-0.17,0.739-0.17c0.263,0,0.522,0.061,0.779,0.182s0.485,0.292,0.687,0.51c0.2,0.219,0.364,0.47,0.489,0.752
			C183.779,128.312,183.842,128.607,183.842,128.914z M184.694,133.039c-0.069,0.858-0.124,1.707-0.166,2.548
			c-0.042,0.842-0.083,1.684-0.125,2.523c-0.056,0.988-0.149,1.966-0.28,2.937c-0.132,0.971-0.281,1.941-0.447,2.912l-3.183,0.388
			c0-0.518,0.003-1.026,0.011-1.528c0.007-0.501,0.01-1.011,0.01-1.528c0-1.327-0.021-2.653-0.062-3.979
			c-0.042-1.326-0.084-2.653-0.125-3.979c0.734-0.032,1.459-0.081,2.174-0.146C183.215,133.121,183.946,133.072,184.694,133.039z"></path>
          <path class="st0 logo__path-class" d="M196.363,140.853l-0.354,4.271c-0.444,0.031-0.888,0.061-1.332,0.084c-0.443,0.024-0.887,0.037-1.33,0.037
			c-0.236,0-0.548-0.009-0.937-0.024c-0.389-0.017-0.79-0.045-1.206-0.085c-0.417-0.04-0.812-0.097-1.186-0.17
			c-0.375-0.072-0.673-0.166-0.895-0.279c-0.333-0.178-0.607-0.412-0.821-0.703c-0.216-0.292-0.393-0.61-0.531-0.959
			c-0.138-0.348-0.249-0.72-0.332-1.115c-0.084-0.397-0.146-0.789-0.188-1.178c-0.042-0.372-0.073-0.772-0.094-1.201
			s-0.035-0.869-0.042-1.322s-0.01-0.894-0.01-1.322s0-0.829,0-1.201v-0.729h-1.289c0.055-0.728,0.086-1.447,0.093-2.159
			s0.038-1.432,0.094-2.159l1.248,0.049v-3.592c0.79,0.178,1.577,0.271,2.36,0.278c0.783,0.009,1.571,0.045,2.361,0.109
			l-0.042,3.713l1.747,0.121c0,0.113,0.004,0.219,0.011,0.315c0.007,0.098,0.011,0.203,0.011,0.315c0,0.453-0.031,0.895-0.094,1.323
			c-0.062,0.428-0.143,0.861-0.239,1.298h-1.519c-0.028,0.744-0.049,1.488-0.062,2.232s-0.021,1.488-0.021,2.232
			c0,0.356,0.01,0.675,0.031,0.958c0.021,0.283,0.076,0.521,0.166,0.716c0.091,0.194,0.239,0.34,0.447,0.438
			c0.208,0.097,0.499,0.146,0.874,0.146c0.513,0,1.025-0.04,1.539-0.122C195.337,141.088,195.851,140.982,196.363,140.853z"></path>
          <path class="st0 logo__path-class" d="M210.715,140.367c0,0.179,0,0.438,0,0.777c0,0.339-0.007,0.724-0.021,1.152s-0.032,0.873-0.053,1.335
			c-0.021,0.461-0.045,0.897-0.072,1.31c-0.028,0.413-0.066,0.776-0.114,1.092c-0.049,0.315-0.101,0.538-0.156,0.667
			c-0.235,0.438-0.454,0.773-0.655,1.008s-0.419,0.4-0.655,0.497c-0.235,0.098-0.503,0.149-0.801,0.158
			c-0.298,0.008-0.648,0.012-1.05,0.012c-1.331,0-2.656-0.061-3.973-0.182c-1.318-0.122-2.635-0.264-3.952-0.425v-3.324
			c0.124,0,0.398-0.004,0.821-0.012c0.423-0.009,0.918-0.021,1.487-0.037c0.568-0.016,1.172-0.04,1.81-0.072
			c0.638-0.033,1.234-0.073,1.789-0.122s1.032-0.104,1.436-0.17c0.401-0.064,0.65-0.146,0.748-0.242
			c0.125-0.113,0.226-0.287,0.302-0.521s0.132-0.481,0.166-0.74c0.035-0.259,0.06-0.518,0.073-0.776s0.021-0.47,0.021-0.631
			c0-0.162,0-0.315,0-0.461c0-0.146-0.007-0.308-0.021-0.486c-0.208,0.551-0.485,0.963-0.832,1.238
			c-0.348,0.275-0.735,0.47-1.165,0.582c-0.43,0.113-0.881,0.174-1.352,0.183c-0.472,0.008-0.923,0.012-1.353,0.012
			c-0.901,0-1.771-0.044-2.61-0.134c-0.839-0.088-1.58-0.319-2.226-0.691c-0.645-0.372-1.164-0.934-1.56-1.687
			c-0.396-0.752-0.593-1.791-0.593-3.118c0-1.311,0.076-2.616,0.229-3.918c0.152-1.303,0.347-2.593,0.583-3.871l4.389,0.049
			c-0.236,1.019-0.444,2.055-0.625,3.105c-0.18,1.052-0.27,2.111-0.27,3.179c0,0.566,0.034,1.027,0.104,1.384
			c0.069,0.355,0.194,0.643,0.374,0.861c0.181,0.219,0.431,0.368,0.75,0.449c0.317,0.081,0.721,0.12,1.206,0.12
			c0.193,0,0.433-0.016,0.718-0.048c0.283-0.032,0.575-0.076,0.873-0.134c0.298-0.056,0.583-0.133,0.853-0.23
			c0.271-0.097,0.481-0.218,0.635-0.363c0.055-0.049,0.104-0.21,0.146-0.486c0.041-0.274,0.076-0.602,0.104-0.981
			c0.027-0.38,0.048-0.789,0.062-1.227c0.014-0.437,0.024-0.849,0.032-1.237c0.007-0.388,0.01-0.724,0.01-1.007
			c0-0.282,0-0.465,0-0.546c0-0.55,0-1.096,0-1.638s-0.014-1.088-0.042-1.638c0.68,0.081,1.349,0.149,2.008,0.206
			c0.658,0.057,1.327,0.101,2.007,0.133c0.056,1.569,0.114,3.123,0.177,4.659c0.062,1.537,0.128,3.091,0.198,4.659
			c0.027,0.389,0.041,0.78,0.041,1.177S210.715,139.995,210.715,140.367z"></path>
        </g>
      </g>
      <g id="head" class="logo__head">
        <g>
          <g>
            <path id="path2830_1_" class="st4 logo__path-class" d="M126.78,55.859c-4.473,0.022-8.786,1.026-13.178,1.427
				c-1.834,0.167-3.723,0.208-5.558,0.053c-2.441-0.207-4.805-0.758-7.245-1.005c-2.181-0.219-4.389-0.449-6.581-0.458
				c-3.834-0.016-7.545,0.846-11.303,1.312c0,0.789-0.224,1.803,0.339,2.356c0.578,0.573,1.557,1.097,1.81,1.874
				c0.603,1.839,1.458,3.642,2.549,5.371c0.531,0.84,1.531,1.426,2.65,1.829c2.693,0.972,5.881,1.114,8.836,0.809
				c4.207-0.435,6.489-2.702,8.232-5.292c0.652-1.053,0.724-2.268,1.583-3.231c0.51-0.571,1.694-0.33,2.539-0.333
				c0.848-0.001,1.564,1.008,1.826,1.682c0.93,2.38,2.479,4.905,5.56,6.153c4.6,1.864,11.846,1.514,14.83-1.845
				c1.166-1.313,1.487-2.911,2.075-4.398c0.355-0.907,0.675-1.985,1.944-2.484c0.511-0.201,0.151-1.003,0.226-1.47
				c0.084-0.509,0.241-0.958-0.763-1.058c-1.76-0.174-3.462-0.704-5.259-0.882C130.188,56.095,128.521,55.851,126.78,55.859
				L126.78,55.859z M97.198,56.704c1.272-0.004,2.536,0.061,3.771,0.249c7.356,1.117,7.505,3.293,4.477,7.793
				c-2.468,3.667-7.579,4.585-12.729,3.707c-2.375-0.406-3.999-1.596-4.765-3.225c-0.807-1.721-1.42-3.548-1.281-5.356
				c0.187-2.423,3.999-2.761,6.73-2.981C94.653,56.788,95.928,56.71,97.198,56.704L97.198,56.704z M124.059,56.704
				c1.27,0.006,2.546,0.084,3.799,0.186c2.729,0.221,6.544,0.561,6.729,2.982c0.138,1.807-0.472,3.635-1.282,5.355
				c-0.765,1.63-2.388,2.82-4.761,3.225c-5.154,0.879-10.265-0.04-12.73-3.707c-3.029-4.499-2.881-6.674,4.475-7.792
				C121.521,56.765,122.788,56.7,124.059,56.704L124.059,56.704z"></path>
          </g>
        </g>
        <path id="path4735_1_" class="st3 logo__path-class" d="M103.804,10.965c-3.646,0.893-7.67-1.266-11.201,0.774
		c-7.599,3.576-6.917,11.111-8.24,16.831c-2.659,1.141-0.642,3.686-2.684,5.24c1.077,2.963-3.422,2.777-6.453,3.231
		c-5.519,0.938-7.585,0.121-12.346,2.639c0.784,6.57,7.154,8.871,14.712,10.457c20.407,3.591,42.953,4.38,64.192,1.483
		c6.509-1.022,16.077-3.032,15.765-8.871c-1.491-5.615-11.402-7.009-18.177-5.941c-3.453-5.757-2.267-12.263-5.238-18.126
		C128.773,10.594,114.785,9.644,103.804,10.965L103.804,10.965z"></path>
        <g>
          <g>
            <path class="st2 logo__path-class" d="M138.972,65.895c0,0-3.033,13.665-4.64,15.891c-2.25,3.123-8.859,5.746-9.587,5.111
				c-4.066-3.537-8.199-7.996-12.957-4.086c-1.118,0.918-3.073,0-3.073,0c-6.146-5.115-15.993,4.48-15.993,4.48
				c-3.071-1.18-7.323-6.049-9.215-8.26c-1.893-2.212-3.254-12.847-3.254-12.847s-4.006,31.859,4.371,40.121
				c8.378,8.26,21.537,14.582,30.753,11.828c27.615-2.834,25.831-47.519,23.593-52.238H138.972L138.972,65.895z M115.978,96.318
				c-4.37-1.699-6.144-1.84-8.937-0.527c-2.792,1.312-7.633,1.574-9.309-6.818c0,0,11.729-6.688,25.135,0
				C122.866,88.973,121.381,98.414,115.978,96.318L115.978,96.318L115.978,96.318z"></path>
          </g>
          <g>
            <path class="st2 logo__path-class" d="M138.972,65.895c0,0-3.033,13.665-4.64,15.891c-2.25,3.123-8.859,5.746-9.587,5.111
				c-4.066-3.537-8.199-7.996-12.957-4.086c-1.118,0.918-3.073,0-3.073,0c-6.146-5.115-15.993,4.48-15.993,4.48
				c-3.071-1.18-7.323-6.049-9.215-8.26c-1.893-2.212-3.254-12.847-3.254-12.847s-4.006,31.859,4.371,40.121
				c8.378,8.26,21.537,14.582,30.753,11.828c27.615-2.834,25.831-47.519,23.593-52.238H138.972L138.972,65.895z M115.978,96.318
				c-4.37-1.699-6.144-1.84-8.937-0.527c-2.792,1.312-7.633,1.574-9.309-6.818c0,0,11.729-6.688,25.135,0
				C122.866,88.973,121.381,98.414,115.978,96.318L115.978,96.318L115.978,96.318z"></path>
            <g>
              <g>
                <path class="st2 logo__path-class" d="M138.544,67.752c-0.839,2.768-1.641,5.298-2.462,7.708c-0.873,2.27-1.568,5.052-2.896,6.221
						c-1.511,1.375-3.453,2.395-5.53,3.217c-0.521,0.201-1.059,0.379-1.591,0.52c-0.478,0.137-1.232,0.195-0.902,0.111
						c-1.009-0.902-2.073-1.902-3.292-2.879c-1.301-0.939-3.414-2.917-6.771-2.805c-0.811,0.103-1.677,0.298-2.477,0.768
						c-0.869,0.426-1.608,1.182-1.861,1.11c-0.414,0.1-1.455-0.129-1.729-0.379c-0.873-0.663-1.869-1.114-2.895-1.329
						c-4.192-0.778-8.239,1.483-11.853,4.186c-0.454,0.352-0.905,0.717-1.35,1.1l-0.666,0.594l-0.17,0.156l-0.044,0.043
						c0.446-0.098-1.039,0.254,0.996-0.213l-0.02-0.008l-0.076-0.037l-0.31-0.137c-0.837-0.398-1.695-1.041-2.522-1.727
						c-1.662-1.4-3.246-3.07-4.766-4.788c-0.368-0.42-0.786-0.888-1.103-1.285c-0.177-0.231-0.417-0.71-0.604-1.222
						c-0.39-1.034-0.698-2.221-0.971-3.393c-0.54-2.364-0.939-4.776-1.261-7.072l-0.028-0.212l-0.007-0.05
						c-4.515,0-1.253,0.017-2.263,0.025l-0.004,0.031l-0.013,0.116l-0.054,0.451l-0.096,0.89l-0.169,1.744
						c-0.106,1.147-0.191,2.268-0.268,3.357c-0.152,2.177-0.248,4.226-0.302,6.114c-0.231,7.55,0.305,12.47,0.302,12.466
						c0.18-0.062-0.116,5.053,2.746,12.277c0.726,1.721,2.068,3.639,3.499,4.83c1.384,1.328,2.935,2.572,4.576,3.809
						c3.312,2.395,7.07,4.605,11.129,6.121c4.04,1.533,8.407,2.463,12.715,1.891c3.947-0.754,8.289-1.316,11.729-3.479
						c7.116-4.18,10.607-11.598,11.945-15.021c2.581-6.588,3.379-12.324,3.737-17.641c0.242-5.327,0.153-10.476-1.124-16.216
						c0.557,5.892,0.067,10.855-0.537,15.958c-0.715,5.076-1.687,10.449-4.098,16.551c-1.261,3.205-4.45,9.924-10.869,13.688
						c-3.21,1.977-6.903,2.449-11.027,3.232c-3.861,0.521-7.986-0.318-11.821-1.783c-3.862-1.438-7.476-3.562-10.644-5.85
						c-3.114-2.463-6.085-4.611-7.234-7.561c-2.467-6.146-2.326-11.268-2.458-11.143c0.005,0.008-0.508-4.658-0.283-12.018
						c0.053-1.837,0.149-3.837,0.296-5.964c0.075-1.063,0.16-2.157,0.263-3.275l0.166-1.697l0.093-0.856l0.049-0.428l0.014-0.104
						l0.001-0.026c-1.006-0.001,2.256-0.031-2.254-0.01l0.008,0.06l0.03,0.228c0.338,2.405,0.741,4.867,1.319,7.399
						c0.296,1.267,0.618,2.542,1.112,3.859c0.254,0.656,0.526,1.33,1.069,2.042c0.416,0.518,0.775,0.913,1.177,1.372
						c1.57,1.775,3.209,3.516,5.028,5.051c0.919,0.754,1.865,1.482,2.971,2.016l0.423,0.189l0.105,0.045l0.027,0.012
						c2.048-0.48,0.576-0.139,1.037-0.252l0.031-0.029l0.146-0.135l0.604-0.539l1.255-1.02c3.351-2.564,7.137-4.455,10.294-3.809
						c0.775,0.164,1.487,0.49,2.11,0.963c1.249,0.787,1.984,0.834,3.176,0.758c1.408-0.324,1.878-1.133,2.451-1.312
						c0.586-0.354,1.183-0.465,1.749-0.551c2.309-0.119,4.216,1.439,5.421,2.359c1.127,0.898,2.187,1.861,3.236,2.758
						c1.36,1.02,1.979,0.27,2.62,0.26c0.629-0.195,1.215-0.422,1.778-0.678c2.243-1.043,4.223-2.252,5.942-4.139
						c1.867-2.299,2.032-4.959,2.742-7.457C137.554,73.315,138.054,70.656,138.544,67.752z"></path>
              </g>
            </g>
            <g>
              <g>
                <path class="st2 logo__path-class" d="M115.978,96.318c-2.327-1.707-4.189-3.424-7.867-2.471c-1.05,0.27-2.501,1.309-4.292,1.145
						c-1.817-0.012-3.554-1.619-4.38-4.191c-0.222-0.617-0.389-1.273-0.535-1.932l-0.057-0.24l-0.005-0.018
						c0.577-1.527-0.786,2.074-0.644,1.703l0.005-0.002l0.013-0.008l0.043-0.023l0.087-0.047l0.367-0.186l0.745-0.34
						c0.985-0.43,1.918-0.752,2.715-0.998c1.595-0.484,2.646-0.676,2.646-0.678c-0.013,0.008,4.215-0.979,8.86-0.354
						c2.316,0.273,4.702,0.93,6.662,1.727c0.491,0.203,0.962,0.389,1.392,0.602l0.626,0.295l0.076,0.033l0.009,0.006l0.004,0.002
						c0.157,0.363-1.337-3.143-0.706-1.658l-0.005,0.018l-0.004,0.033l-0.031,0.17l-0.072,0.342
						c-0.193,0.91-0.432,1.615-0.589,2.076C119.768,94.525,118.858,96.254,115.978,96.318c2.366,2.17,5.796,0.396,7.137-3.773
						c0.196-0.562,0.483-1.404,0.722-2.506l0.091-0.432l0.045-0.232l0.012-0.07l0.007-0.035c0.63,1.482-0.861-2.027-0.711-1.666
						l-0.004-0.002l-0.011-0.006l-0.08-0.039l-0.671-0.314c-0.46-0.229-0.961-0.43-1.486-0.648
						c-2.097-0.857-4.653-1.553-7.127-1.844c-4.961-0.66-9.452,0.404-9.437,0.395c0,0.004-1.117,0.201-2.82,0.715
						c-0.851,0.262-1.846,0.602-2.917,1.066l-0.821,0.377l-0.424,0.211l-0.11,0.059l-0.057,0.031l-0.034,0.02l-0.01,0.004
						c0.137-0.369-1.222,3.24-0.645,1.717l0.005,0.018l0.067,0.289c0.17,0.779,0.371,1.57,0.653,2.357
						c0.929,3.246,3.788,6.008,6.35,5.926c2.536,0.158,4.308-1.154,4.958-1.25C111.346,95.889,113.183,96.332,115.978,96.318z"></path>
              </g>
            </g>
          </g>
        </g>
        <path class="st1 logo__path-class" d="M79.126,65.943c0.044-0.127,1.012-3.261,1.012-3.261l1.054,3.279C81.192,65.96,79.082,66.07,79.126,65.943z"></path>
      </g>
    </svg>