<svg version="1.1" id="Layer_1" xmlns="http://www.w3.org/2000/svg" xmlns:xlink="http://www.w3.org/1999/xlink" x="0px"
	y="0px" width="30px" height="30px" viewBox="0 0 30 30" enable-background="new 0 0 30 30" xml:space="preserve">
	<path fill="#2A2942" stroke="#2A2942" stroke-width="0.25" d="M18.207,12.165c-1.102,0.005-2.162,0.252-3.242,0.35
	c-0.45,0.042-0.916,0.052-1.367,0.014c-0.6-0.052-1.183-0.188-1.783-0.25c-0.536-0.053-1.08-0.11-1.62-0.11
	c-0.943-0.005-1.855,0.207-2.78,0.32c0,0.195-0.055,0.444,0.083,0.58c0.142,0.143,0.382,0.27,0.445,0.462
	c0.148,0.452,0.358,0.896,0.627,1.32c0.13,0.21,0.377,0.352,0.652,0.45c0.662,0.24,1.446,0.276,2.174,0.2
	c1.034-0.106,1.597-0.664,2.025-1.3c0.162-0.26,0.18-0.56,0.39-0.796c0.125-0.14,0.417-0.082,0.625-0.082s0.385,0.248,0.45,0.414
	c0.229,0.585,0.61,1.206,1.366,1.514c1.133,0.458,2.916,0.372,3.65-0.455c0.285-0.323,0.365-0.716,0.51-1.082
	c0.088-0.223,0.167-0.488,0.48-0.61c0.125-0.05,0.035-0.248,0.056-0.363c0.02-0.125,0.06-0.236-0.188-0.26
	c-0.433-0.043-0.854-0.173-1.294-0.217c-0.42-0.042-0.83-0.102-1.257-0.1L18.207,12.165z M10.929,12.373
	c0.312,0,0.623,0.015,0.927,0.062c1.81,0.275,1.846,0.81,1.102,1.917c-0.608,0.902-1.865,1.128-3.132,0.912
	c-0.584-0.1-0.984-0.393-1.172-0.794c-0.198-0.423-0.35-0.872-0.315-1.317c0.047-0.595,0.985-0.68,1.657-0.733
	C10.302,12.394,10.616,12.375,10.929,12.373L10.929,12.373z M17.536,12.373c0.312,0.002,0.626,0.02,0.937,0.046
	c0.672,0.053,1.607,0.137,1.653,0.732c0.034,0.445-0.115,0.895-0.315,1.317c-0.188,0.4-0.586,0.694-1.17,0.793
	c-1.268,0.217-2.523-0.01-3.133-0.912c-0.744-1.105-0.708-1.64,1.102-1.916C16.912,12.387,17.225,12.371,17.536,12.373
	L17.536,12.373z" />
	<path fill="#FFFFFF" stroke="#FFFFFF" stroke-width="0.25" d="M12.555,0.12C11.658,0.34,10.668-0.19,9.8,0.312
	c-1.87,0.88-1.7,2.733-2.027,4.14c-0.654,0.28-0.157,0.907-0.66,1.29c0.264,0.728-0.842,0.682-1.59,0.794
	c-1.356,0.23-1.864,0.03-3.036,0.65c0.193,1.616,1.76,2.182,3.62,2.572c5.02,0.883,10.565,1.078,15.79,0.364
	c1.604-0.25,3.955-0.745,3.881-2.182c-0.367-1.38-2.809-1.724-4.473-1.46c-0.85-1.418-0.56-3.02-1.289-4.46
	C18.697,0.03,15.255-0.204,12.555,0.12z" />
	<path fill="#C6C6C6" d="M21.204,14.634c0,0-0.744,3.36-1.14,3.91c-0.556,0.771-2.181,1.41-2.358,1.256
	c-1-0.87-2.017-1.967-3.187-1.006c-0.276,0.228-0.757,0-0.757,0c-1.512-1.257-3.934,1.104-3.934,1.104
	c-0.756-0.291-1.803-1.488-2.268-2.032c-0.466-0.544-0.8-3.16-0.8-3.16s-0.986,7.836,1.075,9.87
	c2.062,2.029,5.298,3.586,7.563,2.908c6.795-0.698,6.356-11.69,5.804-12.851H21.204z M15.549,22.117
	c-1.076-0.418-1.512-0.452-2.2-0.131c-0.686,0.324-1.877,0.389-2.29-1.676c0,0,2.886-1.646,6.184,0
	C17.243,20.312,16.877,22.633,15.549,22.117L15.549,22.117z" />
	<path fill="#FFFFFF" stroke="#FFFFFF" d="M21.204,14.634c0,0-0.744,3.36-1.14,3.91c-0.556,0.771-2.181,1.41-2.358,1.256
	c-1-0.87-2.017-1.967-3.187-1.006c-0.276,0.228-0.757,0-0.757,0c-1.512-1.257-3.934,1.104-3.934,1.104
	c-0.756-0.291-1.803-1.488-2.268-2.032c-0.466-0.544-0.8-3.16-0.8-3.16s-0.986,7.836,1.075,9.87
	c2.062,2.029,5.298,3.586,7.563,2.908c6.795-0.698,6.356-11.69,5.804-12.851H21.204z M15.549,22.117
	c-1.076-0.418-1.512-0.452-2.2-0.131c-0.686,0.324-1.877,0.389-2.29-1.676c0,0,2.886-1.646,6.184,0
	C17.243,20.312,16.877,22.633,15.549,22.117L15.549,22.117z" />
	<path fill="#FFFFFF" d="M21.1,15.09c-0.205,0.682-0.399,1.303-0.604,1.896c-0.217,0.56-0.387,1.242-0.71,1.529
	c-0.374,0.34-0.853,0.59-1.362,0.793c-0.127,0.049-0.26,0.092-0.39,0.127c-0.12,0.035-0.308,0.049-0.224,0.025
	c-0.248-0.22-0.511-0.467-0.812-0.707c-0.32-0.23-0.84-0.718-1.665-0.689c-0.2,0.024-0.413,0.071-0.61,0.189
	c-0.214,0.104-0.395,0.29-0.457,0.27c-0.102,0.024-0.358-0.029-0.426-0.092c-0.214-0.162-0.46-0.271-0.712-0.326
	c-1.03-0.19-2.026,0.365-2.916,1.029c-0.11,0.086-0.223,0.178-0.332,0.27L9.715,19.55l-0.042,0.042l-0.01,0.012
	c0.11-0.023-0.257,0.062,0.244-0.053l-0.005-0.003l-0.02-0.01l-0.075-0.034c-0.206-0.097-0.416-0.255-0.62-0.426
	c-0.41-0.344-0.8-0.754-1.173-1.178c-0.09-0.104-0.193-0.219-0.272-0.313c-0.043-0.06-0.102-0.176-0.148-0.302
	c-0.096-0.256-0.17-0.546-0.24-0.835c-0.132-0.582-0.23-1.176-0.31-1.74l-0.007-0.053l0.003-0.01c-1.11,0-0.308,0.005-0.556,0.006
	v0.008l-0.004,0.03l-0.014,0.11l-0.024,0.22L6.4,15.449c-0.026,0.281-0.047,0.56-0.066,0.826c-0.037,0.533-0.062,1.041-0.075,1.504
	c-0.057,1.854,0.075,3.066,0.074,3.062c0.044-0.015-0.028,1.243,0.675,3.02c0.178,0.426,0.508,0.896,0.86,1.188
	c0.34,0.328,0.722,0.636,1.125,0.938c0.815,0.59,1.74,1.134,2.738,1.506c0.994,0.377,2.068,0.604,3.128,0.466
	c0.972-0.188,2.04-0.321,2.887-0.854c1.75-1.026,2.609-2.854,2.938-3.694c0.635-1.62,0.83-3.03,0.918-4.338
	c0.061-1.312,0.041-2.578-0.273-3.988c0.135,1.448,0.016,2.67-0.135,3.924c-0.176,1.25-0.416,2.57-1.008,4.072
	c-0.312,0.788-1.098,2.44-2.675,3.367c-0.79,0.485-1.696,0.603-2.715,0.795c-0.95,0.128-1.964-0.08-2.908-0.438
	c-0.95-0.354-1.838-0.877-2.617-1.438c-0.766-0.605-1.498-1.137-1.78-1.86c-0.607-1.513-0.572-2.771-0.605-2.737
	c0,0-0.125-1.146-0.07-2.957c0.014-0.453,0.037-0.945,0.074-1.471c0.02-0.262,0.04-0.529,0.064-0.806l0.044-0.42l0.023-0.21
	L7.034,14.8l0.003-0.026v-0.005c-0.248-0.002,0.554-0.01-0.556-0.004l0.002,0.015l0.007,0.057c0.083,0.592,0.182,1.198,0.325,1.82
	c0.072,0.312,0.152,0.627,0.273,0.948c0.063,0.162,0.13,0.328,0.264,0.504c0.103,0.125,0.19,0.224,0.29,0.336
	c0.386,0.438,0.79,0.865,1.237,1.242c0.228,0.185,0.46,0.36,0.732,0.494l0.104,0.047L9.74,20.24l0.008,0.002
	c0.503-0.116,0.14-0.033,0.254-0.061l0.008-0.01l0.036-0.031l0.15-0.136l0.307-0.25c0.824-0.63,1.756-1.096,2.532-0.937
	c0.19,0.039,0.366,0.119,0.52,0.236c0.307,0.192,0.488,0.204,0.78,0.188c0.347-0.08,0.462-0.28,0.605-0.324
	c0.145-0.086,0.29-0.111,0.43-0.136c0.567-0.028,1.037,0.354,1.334,0.579c0.276,0.221,0.54,0.461,0.796,0.681
	c0.335,0.25,0.486,0.063,0.645,0.062c0.155-0.049,0.301-0.104,0.438-0.168c0.552-0.256,1.038-0.553,1.46-1.02
	c0.462-0.562,0.5-1.218,0.678-1.832c0.137-0.627,0.26-1.279,0.381-1.996L21.1,15.09z" />
	<path fill="#FFFFFF" d="M15.55,22.117c-0.573-0.42-1.03-0.842-1.936-0.607c-0.258,0.066-0.615,0.322-1.056,0.283
	c-0.447-0.004-0.875-0.4-1.078-1.029c-0.055-0.154-0.096-0.313-0.132-0.478l-0.014-0.06v-0.006c0.14-0.375-0.194,0.51-0.16,0.42
	l0.002-0.002h0.003l0.01-0.011l0.02-0.01l0.09-0.046l0.184-0.084c0.243-0.105,0.472-0.188,0.668-0.245
	c0.393-0.12,0.65-0.167,0.65-0.167c-0.003,0,1.037-0.24,2.18-0.086c0.57,0.064,1.158,0.23,1.64,0.425
	c0.122,0.05,0.234,0.095,0.342,0.146l0.154,0.072l0.02,0.01h0.006c0.037,0.09-0.33-0.77-0.176-0.404v0.003l-0.002,0.01l-0.008,0.04
	l-0.02,0.085c-0.047,0.226-0.104,0.397-0.146,0.513c-0.312,0.791-0.534,1.215-1.243,1.23c0.58,0.531,1.426,0.098,1.756-0.93
	c0.049-0.139,0.119-0.348,0.18-0.615l0.02-0.106l0.014-0.057l0.004-0.019v-0.01c0.153,0.363-0.211-0.5-0.174-0.41h-0.006
	l-0.02-0.012l-0.165-0.078c-0.113-0.055-0.236-0.104-0.365-0.158c-0.521-0.209-1.146-0.384-1.754-0.453
	c-1.222-0.16-2.326,0.101-2.322,0.101c0,0-0.274,0.05-0.694,0.176c-0.21,0.063-0.454,0.147-0.718,0.263l-0.203,0.09l-0.103,0.053
	l-0.028,0.016l-0.014,0.008l-0.008,0.004h-0.002c0.033-0.09-0.3,0.797-0.16,0.422l0.002,0.007l0.016,0.067
	c0.042,0.191,0.09,0.39,0.16,0.582c0.23,0.795,0.934,1.477,1.563,1.455c0.623,0.041,1.06-0.283,1.218-0.308
	c0.662-0.196,1.113-0.088,1.8-0.09L15.55,22.117z" />
	<path fill="#FFFFFF" stroke="#FFFFFF" stroke-width="0.25" d="M6.518,14.66c0.01-0.03,0.24-0.816,0.24-0.816l0.25,0.823
	C7.008,14.667,6.508,14.693,6.518,14.66L6.518,14.66z" />
</svg>