<svg xmlns="http://www.w3.org/2000/svg" xmlns:xlink="http://www.w3.org/1999/xlink" width="30" height="30" viewBox="0 0 30 30"><path fill="#2A2942" stroke="#2A2942" stroke-width=".25" d="M18.207 12.165c-1.102.005-2.162.252-3.242.35-.45.042-.916.052-1.367.014-.6-.052-1.183-.188-1.783-.25-.536-.053-1.08-.11-1.62-.11-.943-.005-1.855.207-2.78.32 0 .195-.055.444.083.58.142.143.382.27.445.462.148.452.358.896.627 1.32.13.21.377.352.652.45.662.24 1.446.276 2.174.2 1.034-.106 1.597-.664 2.025-1.3.162-.26.18-.56.39-.796.125-.14.417-.082.625-.082s.385.248.45.414c.228.585.61 1.206 1.366 1.514 1.133.458 2.916.372 3.65-.455.285-.323.365-.716.51-1.082.088-.223.167-.488.48-.61.126-.05.036-.248.056-.363.02-.125.06-.236-.188-.26-.433-.043-.854-.173-1.294-.217-.42-.042-.83-.102-1.257-.1zm-7.278.208c.312 0 .623.015.927.062 1.81.275 1.846.81 1.102 1.917-.608.902-1.865 1.128-3.132.912-.584-.1-.984-.393-1.172-.794-.198-.423-.35-.872-.315-1.317.047-.595.985-.68 1.657-.733.306-.026.62-.045.932-.047zm6.607 0c.312.002.626.02.936.046.672.053 1.608.137 1.654.732.034.445-.115.895-.316 1.317-.187.4-.585.694-1.17.793-1.267.217-2.523-.01-3.132-.912-.744-1.105-.708-1.64 1.102-1.916.302-.046.615-.062.927-.06z"/><path fill="#FFF" stroke="#FFF" stroke-width=".25" d="M12.555 1.12c-.897.22-1.887-.31-2.755.192-1.87.88-1.7 2.733-2.027 4.14-.654.28-.157.907-.66 1.29.264.728-.842.682-1.59.794-1.356.23-1.864.03-3.036.65.193 1.616 1.76 2.182 3.62 2.572 5.02.883 10.565 1.078 15.79.364 1.603-.25 3.955-.745 3.88-2.182-.367-1.38-2.808-1.724-4.472-1.46-.85-1.418-.56-3.02-1.29-4.46-1.318-1.99-4.76-2.224-7.46-1.9z"/><path fill="#C6C6C6" d="M21.204 14.634s-.744 3.36-1.14 3.91c-.555.77-2.18 1.41-2.358 1.256-1-.87-2.017-1.967-3.187-1.006-.276.228-.757 0-.757 0-1.512-1.257-3.934 1.104-3.934 1.104-.756-.29-1.803-1.488-2.268-2.032-.466-.544-.8-3.16-.8-3.16s-.986 7.836 1.075 9.87c2.062 2.03 5.298 3.586 7.563 2.908 6.795-.698 6.356-11.69 5.804-12.85zm-5.655 7.483c-1.076-.418-1.512-.452-2.2-.13-.686.323-1.877.388-2.29-1.677 0 0 2.886-1.646 6.184 0 0 .002-.366 2.323-1.695 1.807z"/><path fill="#FFF" stroke="#FFF" d="M21.204 14.634s-.744 3.36-1.14 3.91c-.555.77-2.18 1.41-2.358 1.256-1-.87-2.017-1.967-3.187-1.006-.276.228-.757 0-.757 0-1.512-1.257-3.934 1.104-3.934 1.104-.756-.29-1.803-1.488-2.268-2.032-.466-.544-.8-3.16-.8-3.16s-.986 7.836 1.075 9.87c2.062 2.03 5.298 3.586 7.563 2.908 6.795-.698 6.356-11.69 5.804-12.85zm-5.655 7.483c-1.076-.418-1.512-.452-2.2-.13-.686.323-1.877.388-2.29-1.677 0 0 2.886-1.646 6.184 0 0 .002-.366 2.323-1.695 1.807z"/><path fill="#FFF" d="M21.1 15.09c-.205.682-.4 1.303-.604 1.896-.217.56-.387 1.242-.71 1.53-.374.34-.853.59-1.362.792-.127.05-.26.092-.39.127-.12.035-.308.05-.224.026-.248-.22-.51-.467-.812-.707-.32-.23-.84-.718-1.665-.69-.2.025-.413.072-.61.19-.214.103-.395.29-.457.27-.102.024-.358-.03-.426-.092-.214-.163-.46-.272-.712-.327-1.03-.19-2.026.365-2.916 1.03-.11.085-.223.177-.332.27l-.165.145-.042.042-.01.012c.11-.024-.257.062.244-.053l-.005-.003-.02-.01-.075-.034c-.206-.097-.416-.255-.62-.426-.41-.343-.8-.754-1.173-1.177-.09-.104-.193-.22-.272-.314-.043-.06-.102-.176-.148-.302-.096-.255-.17-.546-.24-.835-.132-.582-.23-1.176-.31-1.74l-.007-.053.003-.01c-1.11 0-.308.005-.556.006v.008l-.004.03-.014.11-.024.22-.042.428c-.026.282-.047.56-.066.827-.037.533-.062 1.04-.075 1.504-.057 1.853.075 3.065.074 3.062.044-.015-.028 1.243.675 3.02.178.425.508.896.86 1.188.34.328.722.635 1.125.938.815.59 1.74 1.134 2.738 1.506.994.377 2.068.604 3.128.466.972-.188 2.04-.322 2.887-.854 1.75-1.027 2.61-2.854 2.938-3.695.635-1.62.83-3.03.918-4.338.06-1.312.04-2.578-.274-3.988.135 1.448.016 2.67-.135 3.924-.176 1.25-.416 2.57-1.008 4.072-.312.788-1.097 2.44-2.674 3.367-.79.485-1.697.603-2.715.795-.95.128-1.964-.08-2.908-.438-.95-.354-1.838-.877-2.617-1.438-.766-.606-1.498-1.137-1.78-1.86-.607-1.513-.572-2.77-.605-2.737 0 0-.125-1.147-.07-2.958.014-.453.037-.945.074-1.47.02-.262.04-.53.064-.806l.044-.42.023-.21.013-.106.003-.026v-.005c-.248-.002.554-.01-.556-.004l.002.015.007.057c.083.592.182 1.198.325 1.82.072.312.152.627.273.948.063.162.13.328.264.504.103.126.19.224.29.337.386.437.79.865 1.237 1.242.228.184.46.36.732.493l.104.047.025.012.008.002c.503-.116.14-.033.254-.06l.008-.01.036-.032.15-.135.307-.25c.824-.63 1.756-1.096 2.532-.937.19.04.366.12.52.236.307.193.488.205.78.188.347-.08.462-.28.605-.324.145-.086.29-.112.43-.136.567-.028 1.037.354 1.334.58.276.22.54.46.796.68.335.25.486.064.645.062.155-.05.3-.104.438-.168.552-.256 1.038-.553 1.46-1.02.462-.562.5-1.218.678-1.832.137-.627.26-1.28.38-1.996z"/><path fill="#FFF" d="M15.55 22.117c-.573-.42-1.03-.842-1.936-.607-.258.066-.615.322-1.056.283-.447-.004-.875-.4-1.078-1.03-.055-.153-.096-.313-.132-.477l-.014-.06v-.006c.14-.375-.194.51-.16.42l.002-.002h.003l.01-.01.02-.01.09-.046.184-.084c.243-.105.472-.187.668-.245.393-.12.65-.167.65-.167-.003 0 1.037-.24 2.18-.086.57.065 1.157.23 1.64.425.122.05.235.095.342.146l.154.072.02.01h.006c.037.09-.33-.77-.176-.405v.003l-.002.01-.008.04-.02.085c-.047.226-.104.397-.145.513-.312.79-.534 1.214-1.243 1.23.58.532 1.425.098 1.755-.93.05-.138.12-.347.18-.615l.02-.106.013-.057.004-.018v-.01c.154.363-.21-.5-.174-.41h-.005l-.02-.012-.165-.078c-.113-.055-.236-.104-.365-.158-.52-.21-1.146-.384-1.754-.453-1.222-.16-2.326.1-2.322.1 0 0-.274.05-.694.176-.21.063-.454.147-.718.263l-.203.09-.103.052-.028.016-.014.007-.008.004h-.002c.033-.09-.3.798-.16.423l.002.006.016.067c.042.192.09.39.16.582.23.796.934 1.477 1.563 1.456.623.04 1.06-.283 1.218-.308.662-.196 1.113-.088 1.8-.09z"/><path fill="#FFF" stroke="#FFF" stroke-width=".25" d="M6.518 14.66c.01-.03.24-.816.24-.816l.25.823s-.5.026-.49-.006z"/></svg>