<?xml version="1.0" encoding="utf-8"?>
<!-- Generator: Adobe Illustrator 14.0.0, SVG Export Plug-In . SVG Version: 6.00 Build 43363)  -->
<!DOCTYPE svg PUBLIC "-//W3C//DTD SVG 1.1//EN" "http://www.w3.org/Graphics/SVG/1.1/DTD/svg11.dtd">
<svg version="1.1" id="Layer_1" xmlns="http://www.w3.org/2000/svg" xmlns:xlink="http://www.w3.org/1999/xlink" x="0px" y="0px"
	 width="300px" height="300px" viewBox="0 0 300 300" enable-background="new 0 0 300 300" xml:space="preserve">
<path fill="#984A2D" d="M290.552,150.811c0,77.739-63.026,140.767-140.768,140.767C72.042,291.577,9.02,228.55,9.02,150.811
	C9.02,73.07,72.043,10.05,149.785,10.05S290.552,73.07,290.552,150.811z"/>
<g>
	<path fill="#984A2D" d="M290.246,181.424c1.048-4.443-3.395,12.264-1.27,2.764c-1.754,6.506-5.754,20.021-9.65,27.653
		c-1.076,0.568,2.05-6.184-5.273,7.05c-10.82,17.063,0.096,3.051-10.221,18.01c2.51-3.31,4.953-6.674,7.186-10.184
		c-5.227,11.5-25.549,34.15-44.135,45.2c-14.029,7.946-27.787,12.95-47.949,17.681c1.1-0.347,6.02-1.69,4.944-1.75
		c-3.746,0.664-10.28,2.117-14.173,2.729c-10.662,2.005,3.126,0.508-0.854,1.521c-8.953,1.454-17.647,2.529-30.435,1.264
		c-5.26-0.774-10.445-1.955-15.536-3.329c-10.733-0.421-26.943-6.32-45.66-16.757c-3.48-2.351-21.96-14.785-24.16-18.715
		c-7.25-6.937,0.102-2.851-5.05-9.021c-8.953-10.685,6.707,6.92-2.2-3.774c10.648,10.649,1.207,5.51,16.895,18.709l-0.602-0.853
		c6.687,5.073,18.58,13.58,24.224,15.302c19.787,9.49-0.894,0.985,8.677,6.104c5.924,2.514,30.19,8.601,31.347,7.082
		c-5.6-0.899-11.122-2.245-16.563-3.844c2.662,0.73,0.675-0.056,1.778,0.166c5.49,2.188,16.15,3.672,24.212,3.905
		c8.067,0.243,13.582-0.108,9.24,1.312c-2.26,0.225-8.224-0.439-10.016-0.258c0.783,0.805,12.498,1.564,21.28,1.03
		c9.02-1.157,19.025-3.444,32.562-6.957c4.711-1.174,2.065-0.005,6.745-1.344c13.39-5.207,19.41-8.593,25.683-11.878
		c6.091-3.544,12.678-7.028,23.772-17.407c14.681-12.212,27.729-32.073,35.31-49.562c-1.529,2.51,4.304-11.885,5.07-15.742
		c1.061-2.508,3.924-12.725,4.465-20.362c-0.555,4.464,0.069,1.782-0.176,4.92c1.85-17.12,2-20.31,2.824-21.28
		c-0.052,13.41,1.027,15.026-2.288,30.617L290.246,181.424z"/>
	<path fill="#984A2D" d="M20.702,211.2c1.845,2.874-10.167-27.431-3.596-13.49c-3.203-9.956-4.318-14.587-5.845-20.258
		c2.106,11.85-0.887-2.813-0.016,3.61c-8.94-37.86-0.864-77.307,18.963-107.354C45.684,51.854,63.33,35.096,86.027,22.62
		c14.588-6.413,5.544-1.162,2.59,0.854c5.968-2.778,12.076-5.26,18.354-7.243c-6.253,2.26-12.294,5.023-18.16,8.063
		c-0.366,0.685,7.698-3.012,12.422-4.333c1.698-0.682,3.433-1.266,5.15-1.905c-2.742,2.036-11.887,5.205-21.896,10.298
		c-10.03,5.01-20.656,12.292-27.332,18.755c17.097-14.41-3.218,1.585,3.778-4.807l-5.398,4.548
		c4.618-4.202,13.777-12.89,28.19-20.732C42.588,46.985,17.042,89.84,12.549,126.308c0.05-1.08,0.38-3.964-0.363-0.697
		c-2.373,13.128-1.055,21.072-0.73,26.788c-0.218-1.918-0.2-3.842-0.298-5.771c-0.892,8.185,0.778,21.576,2.9,31.147
		c1.706,10.527,2.685,17.916,10.742,34.312l-0.714-0.343c2.124,4.447,4.4,8.836,6.962,13.061c-2.04-3.062-1.374-1.701-1.078-0.976
		c-0.685-0.849-0.96-1.572-2.216-3.856c-1.1-0.478,1.696,6.789,6.253,13.885c-1.51-2.172-2.955-4.379-3.968-5.959
		c2.92,6.272,18.27,24.689,9.987,16.084c-12.39-15.863-10.723-16.627-19.325-32.779L20.702,211.2z M79.712,271.124
		c-11.83-7.67,3.653,1.692,1.283-0.433c3.61,2.109,7.356,3.986,11.162,5.711C92.187,277.219,80.974,271.505,79.712,271.124
		L79.712,271.124z M173.061,9.453c1.164,0.595,10.433,2.09,15.465,3.796c10.068,2.774,12.873,2.803,26.426,9.68
		c-11.051-4.192,10.623,6.698,18.38,14.142c-6.013-4.386-17.953-10.813-28.431-15.938c1.473,0.136-8.189-3.993-13.189-5.612
		c-8.023-0.942,5.809,2.077-26.029-3.17c-5.871-1.115-20.528-0.883-19.604-1.44c-4.14-0.205-7.912,1.024-12.49,0.917l-2.317-0.008
		c6.663-1.105,13.427-1.547,20.193-1.666c0.746,0.12,2.275,0.356,4.12,0.36c-3.819-1.19,22.087,0.99,8.994-1.324
		c-9.339-0.945-18.763-0.966-28.104-0.086c-6.84,0.48,2.703-1.393,12.92-1.5c14.806,0.82,13.966,1.043,23.667,1.847V9.453z
		 M103.922,16.844l-1.512,0.3c7.705-2.837,15.68-4.95,23.782-6.344C118.598,12.148,111.149,14.224,103.922,16.844z M253.609,51.736
		c-3.504-3.382-6.395-6.487-10.234-9.475l0.154-1.08C247.079,44.527,250.469,48.033,253.609,51.736L253.609,51.736z"/>
	<path fill="#984A2D" d="M33.618,75.72c-3,5.628-10.653,19.8-11.652,25.106c1.614-4.035,0.867-2.72,1.146-3.757
		c-1.1,2.574-2.3,5.12-3.282,7.75c2.895-10.032,7.634-19.26,13.788-29.1V75.72z M280.835,92.438
		c6.403,15.246,8.506,18.168,11.513,37.444c0.293,4.228-1.138-5.09-0.557,1.008c0.609,6.057,0.982,7.448,1.41,10.42l0.117-2.37
		c0.113,4.758-0.694,19.555-1.545,11.871c-0.373-24.165-5.545-34.575-10.92-52.061l-0.289-3.37c-1.601-3.367-3.184-6.733-5.018-9.97
		c-0.29-0.71,0.17-0.598-1.748-3.797c-4.182-6.54,2.43,5.19,1.562,4.918c-3.432-6.268-7.301-12.29-11.672-17.91
		c-1.471-2.165,1.481,1.598,1.119,0.916c-5.58-8.542-10.859-12.38-16.392-19.13c3.263,2.976,6.407,6.093,9.396,9.366
		c-10.307-12.312-19.558-20.21-28.655-26.926c25.79,18.884,39.532,32.41,51.68,59.592L280.835,92.438z"/>
</g>
</svg>
