<svg xmlns="http://www.w3.org/2000/svg" width="300" height="300" viewBox="0 0 300 300"><path fill="#C8AD8F" d="M290.552 150.81c0 77.74-63.026 140.766-140.768 140.766C72.042 291.576 9.02 228.55 9.02 150.81c0-77.74 63.023-140.76 140.765-140.76s140.767 63.02 140.767 140.76z"/><g fill="#C8AD8F"><path d="M290.246 181.424c1.048-4.443-3.394 12.264-1.27 2.763-1.753 6.506-5.754 20.02-9.65 27.654-1.076.568 2.05-6.184-5.274 7.05-10.82 17.062.096 3.05-10.22 18.008 2.51-3.307 4.953-6.673 7.186-10.182-5.227 11.5-25.55 34.15-44.135 45.2-14.03 7.948-27.788 12.95-47.95 17.68 1.1-.346 6.02-1.69 4.945-1.75-3.746.665-10.28 2.118-14.173 2.73-10.662 2.005 3.126.508-.853 1.52-8.954 1.456-17.65 2.532-30.435 1.266-5.26-.777-10.445-1.958-15.536-3.33-10.732-.422-26.942-6.322-45.658-16.758-3.48-2.35-21.962-14.786-24.162-18.716-7.25-6.935.103-2.85-5.05-9.02-8.952-10.683 6.708 6.922-2.2-3.775 10.65 10.652 1.208 5.51 16.896 18.71l-.602-.853c6.687 5.073 18.58 13.58 24.224 15.302 19.787 9.49-.894.985 8.677 6.103 5.924 2.513 30.19 8.6 31.347 7.082-5.6-.9-11.123-2.245-16.564-3.843 2.662.728.675-.056 1.778.165 5.49 2.187 16.15 3.672 24.212 3.905 8.067.243 13.582-.11 9.24 1.312-2.26.223-8.224-.442-10.016-.258.782.804 12.497 1.564 21.28 1.03 9.02-1.158 19.025-3.445 32.562-6.957 4.71-1.174 2.065-.005 6.745-1.344 13.39-5.207 19.41-8.593 25.68-11.878 6.09-3.544 12.677-7.028 23.772-17.407 14.68-12.212 27.73-32.074 35.31-49.56-1.532 2.508 4.302-11.886 5.07-15.744 1.06-2.506 3.924-12.724 4.464-20.362-.554 4.464.07 1.782-.175 4.92 1.85-17.12 2-20.31 2.824-21.28-.052 13.41 1.03 15.026-2.288 30.616z"/><path d="M20.702 211.2c1.845 2.874-10.167-27.43-3.596-13.49-3.203-9.956-4.318-14.587-5.845-20.258 2.106 11.85-.887-2.814-.016 3.61-8.94-37.86-.864-77.305 18.963-107.353C45.684 51.854 63.33 35.096 86.027 22.62c14.588-6.414 5.544-1.163 2.59.853 5.968-2.778 12.076-5.26 18.354-7.243-6.253 2.26-12.294 5.022-18.16 8.062-.366.685 7.698-3.012 12.422-4.333 1.698-.68 3.433-1.265 5.15-1.904-2.742 2.036-11.887 5.205-21.896 10.298-10.03 5.01-20.656 12.292-27.332 18.755 17.097-14.41-3.218 1.584 3.778-4.808l-5.398 4.547c4.618-4.203 13.777-12.89 28.19-20.733-41.137 20.866-66.683 63.72-71.176 100.19.05-1.08.38-3.965-.363-.698-2.373 13.128-1.055 21.072-.73 26.787-.218-1.92-.2-3.843-.298-5.772-.892 8.186.778 21.577 2.9 31.15 1.706 10.527 2.685 17.915 10.742 34.31l-.714-.342c2.124 4.45 4.4 8.836 6.962 13.06-2.04-3.062-1.374-1.7-1.078-.975-.685-.847-.96-1.572-2.216-3.858-1.1-.477 1.696 6.79 6.253 13.885-1.51-2.17-2.955-4.38-3.968-5.96 2.92 6.274 18.27 24.692 9.987 16.086-12.39-15.864-10.723-16.63-19.325-32.78zM79.712 271.124c-11.83-7.67 3.653 1.692 1.283-.432 3.61 2.11 7.356 3.986 11.162 5.71.03.816-11.183-4.898-12.445-5.278zM173.06 9.453c1.165.595 10.432 2.09 15.465 3.796 10.07 2.774 12.874 2.803 26.425 9.68-11.052-4.192 10.622 6.698 18.378 14.142-6.01-4.386-17.952-10.813-28.43-15.938 1.473.136-8.187-3.993-13.187-5.612-8.024-.942 5.808 2.077-26.03-3.17-5.87-1.115-20.527-.883-19.605-1.44-4.14-.205-7.912 1.024-12.49.917l-2.317-.008c6.664-1.105 13.428-1.547 20.194-1.666.746.12 2.277.356 4.12.36-3.82-1.19 22.087.99 8.994-1.324-9.338-.945-18.763-.966-28.104-.086-6.84.48 2.703-1.393 12.92-1.5 14.807.82 13.968 1.043 23.67 1.847zM103.922 16.844l-1.512.3c7.705-2.837 15.68-4.95 23.782-6.344-7.594 1.348-15.043 3.424-22.27 6.044zM253.612 51.736c-3.507-3.382-6.397-6.487-10.237-9.475l.154-1.08c3.55 3.346 6.94 6.852 10.082 10.556z"/><path d="M33.618 75.72c-3 5.628-10.653 19.8-11.652 25.106 1.614-4.035.867-2.72 1.146-3.757-1.1 2.574-2.3 5.12-3.282 7.75 2.895-10.032 7.634-19.26 13.788-29.1zM280.835 92.438c6.403 15.246 8.506 18.168 11.512 37.444.293 4.228-1.137-5.09-.556 1.008.61 6.057.983 7.448 1.41 10.42l.12-2.37c.11 4.758-.697 19.555-1.547 11.868-.373-24.162-5.545-34.572-10.92-52.06l-.29-3.37c-1.6-3.365-3.182-6.73-5.016-9.97-.29-.707.17-.596-1.748-3.795-4.183-6.54 2.43 5.19 1.56 4.918-3.43-6.268-7.298-12.29-11.67-17.91-1.47-2.165 1.482 1.598 1.118.916-5.58-8.542-10.86-12.38-16.39-19.13 3.262 2.976 6.407 6.093 9.397 9.366-10.307-12.312-19.558-20.21-28.657-26.926 25.788 18.884 39.532 32.41 51.677 59.592z"/></g><path fill-rule="evenodd" clip-rule="evenodd" fill="#FFF" d="M67.5 79.5l40-39 43.27-8 42.73 12 34.67 21 23.33 37 9 43.57-6 42.43-26.33 39-46.67 23h-81l-47-28-14-36v-60"/><path fill-rule="evenodd" clip-rule="evenodd" fill="#273246" d="M152.102 270.3c-23.356.17-42.226-.49-60.42-6.258-15.97-5.068-29.702-13.39-39.404-27.778-9.54-14.114-12.224-30.783-18.63-46.023-6.737-16.073-6.108-32.674-5.81-49.208.257-13.603 5-26.635 10.554-38.953 6.55-14.54 14.71-28.264 25.75-40.07 6.1-6.508 13.06-12.26 20.453-16.697 6.542-3.926 12.64-8.636 18.936-12.76 10.75-7.07 21.373-10.357 33.997-8.857 3.987.476 8.178-1.082 12.275-1.218 19.148-.666 37.633 2.163 54.26 12.24 10.485 6.354 19.287 14.76 27.84 23.68 7.715 8.076 11.266 19.09 18.96 26.45 14.88 14.215 15.392 33.407 19.225 51.006 5.802 26.55-3.092 50.948-16.276 73.99-7.387 12.922-17.266 24.565-28.953 32.3-11.134 7.378-22.906 14.83-35.94 20.036-13.62 5.412-27.225 6.913-36.815 8.12m101.083-133.68c-.46-9.584-4.282-17.617-7.57-25.69-5.376-13.18-13.527-24.62-23.647-34.663-1.936-1.907-4.625-2.385-6.45-4.02-4.292-3.833-4.514 8.705-9.087 2.037-.493.51-1.27.927-1.413 1.524-1.125 4.072-4.85 5.716-7.445 8.44-2.173 2.292-3.663 5.3-7.248 2.565-3.204-2.46-3.28-5.384-1.22-8.9 2.846-4.865 6.45-9.21 10.623-12.71 2.46-2.06 2.496-3.884 1.745-5.91-2.247-6.1-18.568-12.173-24.42-8.895.536-6.464-3.162-8.97-8.724-9.43-4.506-.365-8.9-.62-13.44-1.557-8.92-1.84-18.895-2.683-28.316.817-6.643 2.48-9.404 6.628-5.75 12.667 2.266 3.75 3.442 7.436.162 9.336-3.748 2.146-4.625-3.526-6.73-5.477-2.742-2.546-4.48-6.295-8.5-2.896-9.575 8.075-20.17 14.753-28.12 25.018-2.98 3.85-1.055 9.276-5.877 11.72-1.584.8-3.96 2.334-2.972 4.864.706 1.813 2.624 2.18 4.616 2.3 5.802.34 4.302 4.872 4.302 8.245.01 4.02-3.21 5.145-5.963 3.97-4.66-1.995-5.8 3.985-9.524 3.38.545 9.08-10.017 13.477-8.995 24.013.554 5.554.665 5.23 4.763 5.018 1.252-.06 3.092.91 3.74 1.976 1.09 1.79-.076 3.51-1.637 4.693-1.004.75-2.094 1.48-3.262 1.925-5.783 2.14-8.74 5.314-7.564 12.334.817 4.795 4.975 9.924.502 15.044-.11.11.58.81.758 1.285 4.07 11.194 7.88 22.208 15.436 32.096 4.583 5.972 7.342 5.64 11.746 2.293 3.434-2.626 6.27-.088 8.825.706 2.3.704-.852 3.32-1.176 5.365 4.397.17 8.81-6.202 12.3.485 2.84 5.417-2.427 6.96-5.416 9.59 6.584 2.326 12.598 5.393 18.96 6.45 6.305 1.05 11.97 6.302 19.22 2.7 6.43-3.204 9.667-.675 10.238 6.763.128 1.823-1.047 5.493 1.61 5.068 4.888-.782 11.73 2.25 14.225-1.68 3.61-5.66 10.44-4.996 12.6-4.42 7.937 2.132 12.683-3.1 18.618-5.33 5.503-2.07 10.666-5.972 16.253-6.637 8.972-1.064 14.005-7.13 19.942-12.29 1.49-1.305 2.59-2.847-.442-3.928-5.18-1.84-7.99-6.228-11.143-10.342-.964-1.26-3.81-1.447-1.535-3.772 1.356-1.414 3.81-3.22 5.112-1.866 2.742 2.922 6.942 1.27 9.83 4.16 1.55 1.557 4.67 5.612 7.548 2.427 2.333-2.6 6.218-3.842 7.478-6.644 4.965-10.93 10.154-21.758 11.798-34.02.572-4.397 2.156-9.252 2.223-13.478.102-6.483-7.488-4.625-11.508-6.72-3.9-2.054-6.576-5.886-6.115-8.834.62-4.028 5.653-2.197 8.833-2.316 2.207-.084 4.447.674 7.205 1.15"/><path fill-rule="evenodd" clip-rule="evenodd" fill="#273246" d="M158.968 123.323c4.24-7.334 10.63-10.46 16.507-14.354 2.188-1.45 4.36-2.616 6.372-1.458 1.993 1.133 1.194 3.594.495 5.64-1.585 4.59-2.794 9.292-4.56 13.798-1.712 4.327-1.898 7.096 3.69 8.612 15.68 4.286 30.247 12.325 46.687 13.102.265 4.344-4.735-.733-4.372 3.45.232 2.548-.79 5.52 3.017 6.748-3.212 0-6.558.586-9.617-.11-7.367-1.69-13.68 2.545-20.204 4.07-5.18 1.217-11.03.86-15.962 3.746-1.458.853-3.826.683-3.46 2.974.188 1.134.3 3.63 3.39 2.666.955-.306 3.314 2.38 4.363 4.098 3.167 5.214 5.97 10.614 11.2 14.24 2.41 1.674 3.306 4.652 1.38 6.75-1.33 1.464-3.45.46-5.817-.947-4.897-2.92-10.776-4.645-16.467-5.71-3.628-.678-6.744-2.33-10.127-3.395-3.107 2.154.82 7.213-3.84 8.586-.93-2.776-.87-5.367.655-8.074.672-1.21.775-3.194-1.483-3.604-1.9-.35-2.377.732-3.075 2.47-4.3 10.82-6.37 22.122-7.64 33.588-.365 3.355.05 6.96-2.947 9.106-2.59 1.864.034 2.35.452 3.38.876 2.182 1.993 4.703-.725 5.98-3.005 1.423-5.025-.75-5.698-3.44-1.567-6.44-4.038-12.88-4.788-19.235-.912-7.52-6.583-13.49-5.41-21.575.478-3.195-1.506-5.81-5.45-1.542-3.008 3.27-8.178 4.515-11.337 7.692-4.65 4.658-7.854.886-11.117-1.108-3.594-2.196.11-4.897.597-7.205 1.542-7.344 7.163-12.786 9.924-19.652 1.15-2.854 1.397-4.223-2.29-4.77-12.983-1.925-23.222-10.963-35.77-14.08-1.19-.3-2.665-1.585-2-2.838.596-1.166 2.18-2.29 3.5-2.546 12.65-2.48 25.222-5.28 38.203-9.07-5.153-4.942-9.166-10.53-13.032-16.27-1.566-2.318-3.432-4.6-1.992-6.935 1.738-2.818 4.318-.374 6.133.623 2.454 1.354 4.932 1.56 7.514 1.354 4.523-.348 8.73.026 12.35 5.725 1.86-10.222 4.355-18.825 4.798-27.53.706-13.604 2.41-27.003 4.948-40.352.308-1.61.74-3.304 2.71-2.818 1.625.39 1.123 1.754.637 3.1-.425 1.16-.382 3.664-.135 3.723 9.93 2.242 4.6 11.61 7.793 17.123 3.255 5.613 3.886 12.785 5.505 19.31 2.11 8.42 4.077 16.887 6.498 26.965m-18.375 36.755c-.23 3.46.025 6.832 5.444 6.728 6.064-.094 9.753-4.827 9.93-13.202.086-4.522-2.502-7.316-6.47-8.194-3.894-.87-8.895 7.452-8.904 14.668"/></svg>