<svg xmlns="http://www.w3.org/2000/svg" width="30" height="30" viewBox="0 0 30 30">
    <path fill="#FFF" d="M17.143 15.49c-1.12.732-2.17 1.222-3.21 1.717-.376.18-.853.154-1.278-.18.008.254.078.416.01.555-.226.467-.382.898.164 1.345.27.218.307.783.17.796-.56.04-1.01.307-1.71.168-1.845-.364-2.68-1.305-3.757-2.184-1.25-1.02-.712-2.108-.823-3.188-.094-.925.668-1.64 1.205-2.425.293-.428.904-.642 1.344-.967.252-.184.67-.08.963-.02.284.062.067.263.067.404-.005.452-.278.918.332 1.328.81.543 1.61.252 2.23-.072.902-.473 1.646-1.03 2.08-1.782 1.172-2.026.818-4.018.022-6.023-.057-.146-.21-.3.13-.357.232-.04.46-.01.504.204.054.27.315.42.707.557.4.142.64.426.84.712.745 1.074 1.777 2.06 2.556 3.115.454.612 1.2 1.24.913 2.015-.13.35.308.605.398.936.552 1.99.028 3.88-.894 5.77-.672 1.374-2.48 1.887-4.338 2.357-.76.19-1.2-.23-1.63-.496-.294-.183.176-.335.37-.448.558-.327 1.082-.67 1.515-1.065.866-.796.66-1.745 1.12-2.766"/>
    <path fill="#2A2942" d="M1.643 27.812c-.238-.736.45-1.158 1.298-1.515.752-.313 1.495-.606 1.937-1.153.256-.318.856-.48 1.408-.567 3.014-.48 5.53-1.64 8.2-2.548 1.687-.57 3.453-1.11 5.072-1.798.924-.394 2.202-.496 3.325-.67.77-.117 1.16.566 1.1.886-.183.92-.932 1.73-2.132 2.29-1.408.66-2.826 1.345-4.383 1.84-1.3.412-2.5.934-3.885 1.28-1.457.364-2.895.837-4.27 1.345-.614.227-1.252.408-1.917.55-.855.18-1.55.51-2.206.875-1.21.68-2.224.68-3.227.024-.407-.263-.26-.556-.32-.84"/>
    <path fill="#FFF" d="M11.103 1.232c.66.718.646 1.562 1 2.34.614 1.338 1.19 2.736.678 4.2-.11.316-.107.684-.216 1.028-.113.346-.258.392-.823.23-1.145-.334-1.63-1.053-2.493-1.538-1.238-.692-.995-1.68-1.352-2.55-.06-.144 0-.32-.106-.44-.242-.278-.125-.436.3-.56.557-.164.57.2.733.337.29.235.076.775 1.047.526.928-.238.98-.53.735-1.133-.26-.628-.086-1.332-.226-2.003-.05-.25.345-.4.723-.438"/>
    <path fill="#2A2942" d="M19.36 28.635c-1.934.34-3.51-.395-5.125-1.05-.3-.122-.42-.29-.185-.492.523-.448 1.02-.915 1.604-1.33.36-.253.822-.394 1.468-.304 1.642.224 3.233.53 4.71 1.024.45.15.445.66 1.083.773.01 0 .002.128-.05.167-.88.66-1.734 1.353-3.506 1.21M2.77 20.113c2.688.01 5.006.33 7.093 1.174 1.154.465 1.172.54.136 1.13-.592.337-1.22.65-1.762 1.02-.2.134-.287.04-.4.02-1.986-.37-3.828-.95-5.654-1.55-.584-.19-.503-.592-.308-.92.225-.376.47-.76.895-.874"/>
</svg>
