<svg version="1.1" id="Layer_1" xmlns="http://www.w3.org/2000/svg" xmlns:xlink="http://www.w3.org/1999/xlink" x="0px"
	y="0px" width="30px" height="30px" viewBox="0 0 30 30" enable-background="new 0 0 30 30" xml:space="preserve">
	<path fill="#984A2D" d="M17.143,15.49c-1.119,0.732-2.169,1.222-3.209,1.717c-0.376,0.18-0.853,0.154-1.278-0.18
	c0.008,0.254,0.078,0.416,0.01,0.555c-0.226,0.467-0.382,0.898,0.164,1.345c0.27,0.218,0.307,0.783,0.17,0.796
	c-0.56,0.041-1.01,0.307-1.71,0.168c-1.845-0.363-2.68-1.305-3.757-2.184c-1.25-1.02-0.712-2.107-0.823-3.188
	c-0.094-0.925,0.668-1.64,1.205-2.425c0.293-0.428,0.904-0.642,1.344-0.967c0.252-0.184,0.67-0.08,0.963-0.02
	c0.284,0.062,0.067,0.263,0.067,0.404c-0.005,0.452-0.278,0.918,0.332,1.328c0.81,0.543,1.61,0.252,2.23-0.072
	c0.902-0.473,1.646-1.03,2.08-1.782c1.171-2.026,0.818-4.018,0.022-6.023c-0.057-0.146-0.21-0.3,0.13-0.357
	c0.232-0.04,0.46-0.01,0.504,0.204c0.055,0.27,0.314,0.42,0.707,0.557c0.4,0.142,0.641,0.426,0.84,0.712
	c0.745,1.074,1.777,2.06,2.557,3.115c0.453,0.612,1.199,1.24,0.912,2.015c-0.129,0.35,0.309,0.605,0.398,0.936
	c0.552,1.99,0.027,3.879-0.895,5.77c-0.672,1.374-2.479,1.887-4.338,2.357c-0.76,0.189-1.2-0.23-1.629-0.496
	c-0.294-0.184,0.176-0.336,0.37-0.448c0.558-0.327,1.082-0.67,1.516-1.065c0.865-0.796,0.66-1.744,1.119-2.766" />
	<path fill="#2A2942" d="M1.643,27.812c-0.238-0.736,0.45-1.158,1.298-1.516c0.752-0.312,1.495-0.605,1.937-1.152
	c0.256-0.318,0.856-0.48,1.408-0.567c3.014-0.479,5.53-1.64,8.2-2.548c1.687-0.57,3.454-1.11,5.073-1.799
	c0.924-0.394,2.201-0.496,3.324-0.67c0.77-0.117,1.16,0.566,1.1,0.887c-0.183,0.92-0.932,1.729-2.131,2.289
	c-1.408,0.66-2.826,1.346-4.384,1.841c-1.3,0.412-2.5,0.934-3.885,1.28c-1.457,0.363-2.895,0.836-4.27,1.345
	c-0.614,0.228-1.252,0.407-1.917,0.55c-0.855,0.18-1.55,0.51-2.206,0.875c-1.21,0.68-2.224,0.68-3.227,0.023
	c-0.407-0.262-0.26-0.555-0.32-0.84" />
	<path fill="#984A2D" d="M11.103,1.232c0.66,0.718,0.646,1.562,1,2.34c0.614,1.338,1.19,2.736,0.678,4.2
	c-0.11,0.316-0.107,0.684-0.216,1.028c-0.113,0.346-0.258,0.392-0.823,0.23c-1.145-0.334-1.63-1.053-2.493-1.538
	C8.011,6.8,8.254,5.812,7.897,4.942c-0.06-0.144,0-0.32-0.106-0.44c-0.242-0.278-0.125-0.436,0.3-0.56
	c0.557-0.164,0.57,0.2,0.733,0.337C9.114,4.514,8.9,5.054,9.871,4.805c0.928-0.238,0.98-0.53,0.735-1.133
	c-0.26-0.628-0.086-1.332-0.226-2.003C10.33,1.419,10.725,1.269,11.103,1.232" />
	<path fill="#2A2942" d="M19.359,28.635c-1.934,0.34-3.51-0.395-5.125-1.05c-0.3-0.122-0.42-0.29-0.185-0.492
	c0.523-0.448,1.02-0.915,1.604-1.329c0.359-0.254,0.822-0.395,1.468-0.305c1.642,0.225,3.233,0.53,4.71,1.023
	c0.45,0.15,0.445,0.66,1.083,0.773c0.01,0,0.002,0.128-0.05,0.167c-0.881,0.66-1.734,1.353-3.506,1.21 M2.77,20.113
	c2.688,0.01,5.006,0.33,7.093,1.174c1.154,0.465,1.172,0.54,0.136,1.13c-0.592,0.337-1.22,0.649-1.762,1.021
	c-0.2,0.133-0.287,0.039-0.4,0.02c-1.986-0.37-3.828-0.95-5.654-1.55c-0.584-0.19-0.503-0.593-0.308-0.921
	C2.1,20.611,2.345,20.227,2.77,20.113" />
</svg>