<svg version="1.1" id="Layer_1" xmlns="http://www.w3.org/2000/svg" xmlns:xlink="http://www.w3.org/1999/xlink" x="0px"
	y="0px" width="30px" height="30px" viewBox="0 0 30 30" enable-background="new 0 0 30 30" xml:space="preserve">
	<path fill="#F8B238" d="M17.422,14.421c-1.202,0.896-2.331,1.492-3.449,2.097c-0.404,0.22-0.917,0.188-1.374-0.22
	c0.009,0.311,0.084,0.509,0.011,0.678c-0.243,0.57-0.411,1.096,0.176,1.642c0.291,0.267,0.33,0.957,0.183,0.972
	c-0.602,0.052-1.085,0.375-1.837,0.207c-1.983-0.445-2.88-1.595-4.037-2.668c-1.343-1.245-0.766-2.573-0.885-3.894
	c-0.101-1.13,0.718-2.003,1.294-2.962C7.82,9.751,8.477,9.49,8.95,9.093C9.22,8.868,9.67,8.995,9.985,9.068
	c0.305,0.075,0.072,0.322,0.072,0.493c-0.005,0.552-0.299,1.122,0.357,1.622c0.87,0.664,1.729,0.308,2.396-0.088
	c0.969-0.578,1.769-1.258,2.235-2.176c1.259-2.475,0.879-4.908,0.023-7.356c-0.062-0.179-0.226-0.367,0.14-0.437
	c0.25-0.049,0.494-0.012,0.542,0.249c0.059,0.33,0.337,0.513,0.759,0.681c0.431,0.173,0.688,0.521,0.903,0.869
	c0.8,1.312,1.909,2.516,2.747,3.804c0.486,0.748,1.288,1.515,0.979,2.462C21,9.62,21.471,9.93,21.567,10.334
	c0.592,2.431,0.029,4.739-0.961,7.047c-0.723,1.679-2.665,2.305-4.661,2.88c-0.817,0.23-1.29-0.283-1.751-0.606
	c-0.316-0.225,0.188-0.411,0.397-0.547c0.6-0.4,1.163-0.818,1.629-1.302c0.93-0.972,0.709-2.131,1.202-3.378" />
	<path fill="#2A2942" d="M1.643,27.812c-0.238-0.736,0.45-1.158,1.298-1.516c0.752-0.312,1.495-0.605,1.937-1.152
	c0.256-0.318,0.856-0.48,1.408-0.567c3.014-0.479,5.53-1.64,8.2-2.548c1.687-0.57,3.454-1.11,5.073-1.799
	c0.924-0.394,2.201-0.496,3.324-0.67c0.77-0.117,1.16,0.566,1.1,0.887c-0.183,0.92-0.932,1.729-2.131,2.289
	c-1.408,0.66-2.826,1.346-4.384,1.841c-1.3,0.412-2.5,0.934-3.885,1.28c-1.457,0.363-2.895,0.836-4.27,1.345
	c-0.614,0.228-1.252,0.407-1.917,0.55c-0.855,0.18-1.55,0.51-2.206,0.875c-1.21,0.68-2.224,0.68-3.227,0.023
	c-0.407-0.262-0.26-0.555-0.32-0.84" />
	<path fill="#F8B238" d="M10.932,0.648c0.71,0.74,0.695,1.61,1.075,2.412c0.659,1.379,1.278,2.82,0.728,4.329
	c-0.118,0.325-0.115,0.705-0.232,1.059c-0.122,0.357-0.277,0.404-0.884,0.237C10.389,8.34,9.867,7.6,8.94,7.1
	c-1.331-0.713-1.07-1.731-1.453-2.628c-0.064-0.148,0-0.33-0.114-0.453c-0.26-0.287-0.134-0.45,0.322-0.577
	c0.598-0.169,0.612,0.206,0.788,0.347c0.312,0.243,0.081,0.799,1.125,0.542c0.997-0.246,1.053-0.546,0.79-1.168
	c-0.279-0.647-0.092-1.373-0.243-2.064C10.102,0.841,10.526,0.687,10.932,0.648" />
	<path fill="#2A2942" d="M19.359,28.635c-1.934,0.34-3.51-0.395-5.125-1.05c-0.3-0.122-0.42-0.29-0.185-0.492
	c0.523-0.448,1.02-0.915,1.604-1.329c0.359-0.254,0.822-0.395,1.468-0.305c1.642,0.225,3.233,0.53,4.71,1.023
	c0.45,0.15,0.445,0.66,1.083,0.773c0.01,0,0.002,0.128-0.05,0.167c-0.881,0.66-1.734,1.353-3.506,1.21 M2.77,20.113
	c2.688,0.01,5.006,0.33,7.093,1.174c1.154,0.465,1.172,0.54,0.136,1.13c-0.592,0.337-1.22,0.649-1.762,1.021
	c-0.2,0.133-0.287,0.039-0.4,0.02c-1.986-0.37-3.828-0.95-5.654-1.55c-0.584-0.19-0.503-0.593-0.308-0.921
	C2.1,20.611,2.345,20.227,2.77,20.113" />
</svg>