<svg xmlns="http://www.w3.org/2000/svg" xmlns:xlink="http://www.w3.org/1999/xlink" width="171.506" height="139.379"
    viewBox="0 0 171.506 139.379">
    <path fill="#FFF"
        d="M102.71 13.398c4.3-4.834 10.415-6.467 16.184-6.67 6.1-.065 12.2-.025 18.3-.023.023 7.6.025 15.203-.003 22.802-3.942-.008-7.887.012-11.83-.008-2.5-.185-5.067 2.053-5.52 4.98-.062 5.084-.023 10.172-.02 15.258 5.78.028 11.563-.008 17.347.017-.423 7.356-1.196 14.68-2.103 21.974-5.108.056-10.22-.007-15.327.03-.046 21.698.024 43.396-.035 65.093-7.587.037-15.18-.017-22.765.025-.144-21.7.012-43.412-.08-65.115-3.7-.045-7.403.03-11.104-.036.014-7.295.005-14.59.007-21.88 3.698-.055 7.4.01 11.1-.032.11-7.092-.114-14.19.117-21.277.37-5.61 2.18-11.265 5.733-15.14z" />
</svg>