<?xml version="1.0" encoding="utf-8"?>
<!-- Generator: Adobe Illustrator 14.0.0, SVG Export Plug-In . SVG Version: 6.00 Build 43363)  -->
<!DOCTYPE svg PUBLIC "-//W3C//DTD SVG 1.1//EN" "http://www.w3.org/Graphics/SVG/1.1/DTD/svg11.dtd">
<svg version="1.1" id="Layer_1" xmlns="http://www.w3.org/2000/svg" xmlns:xlink="http://www.w3.org/1999/xlink" x="0px" y="0px"
	 width="220px" height="26px" viewBox="0 0 220 26" enable-background="new 0 0 220 26" xml:space="preserve">
<g>
	<path fill="#FFFFFF" d="M15.496,21.176l-4.446,0.132c-0.03-1.132-0.052-2.251-0.067-3.364c-0.015-1.111-0.038-2.232-0.067-3.361
		l-4.201,0.233C6.7,14.99,6.693,15.159,6.693,15.324v0.481c0,0.974,0.034,1.942,0.101,2.906c0.067,0.965,0.137,1.925,0.212,2.881
		c-0.298,0.017-0.6,0.03-0.905,0.038c-0.306,0.011-0.607,0.015-0.905,0.015c-0.581,0-1.166-0.015-1.754-0.039
		c-0.589-0.025-1.173-0.039-1.754-0.039c0.03-1.616,0.067-3.216,0.112-4.796c0.045-1.582,0.082-3.181,0.112-4.797
		C1.941,10.394,1.96,8.83,1.968,7.283c0.007-1.546,0.018-3.101,0.033-4.666h3.731C5.851,3.921,5.933,5.22,5.978,6.515
		s0.112,2.592,0.201,3.896c0.715-0.017,1.423-0.026,2.123-0.026c0.699,0,1.415-0.008,2.145-0.026l0.224-8.445
		c0.208-0.017,0.413-0.026,0.614-0.026h0.615c0.595,0,1.18,0.018,1.753,0.052c0.574,0.036,1.15,0.114,1.731,0.235
		c0.074,3.18,0.104,6.347,0.089,9.5S15.466,17.996,15.496,21.176L15.496,21.176z M21.684,3.816c0,0.349-0.063,0.674-0.189,0.978
		c-0.127,0.304-0.298,0.569-0.513,0.794c-0.217,0.227-0.459,0.404-0.727,0.535c-0.268,0.13-0.536,0.195-0.804,0.195
		c-0.298,0-0.578-0.079-0.838-0.235c-0.261-0.156-0.488-0.356-0.682-0.599c-0.194-0.243-0.343-0.525-0.447-0.848
		c-0.105-0.321-0.157-0.647-0.157-0.977s0.056-0.639,0.167-0.926c0.112-0.287,0.26-0.534,0.447-0.743
		c0.186-0.208,0.402-0.373,0.648-0.495c0.246-0.122,0.51-0.183,0.792-0.183s0.562,0.065,0.838,0.196
		c0.275,0.13,0.522,0.312,0.738,0.547c0.216,0.235,0.391,0.504,0.525,0.809C21.618,3.169,21.685,3.486,21.684,3.816L21.684,3.816z
		 M22.601,8.247c-0.075,0.922-0.134,1.834-0.179,2.737l-0.133,2.711c-0.061,1.059-0.161,2.11-0.301,3.153
		c-0.143,1.042-0.302,2.086-0.481,3.128l-3.418,0.417c0-0.556,0.003-1.104,0.011-1.643c0.008-0.538,0.012-1.085,0.012-1.642
		c0-1.425-0.023-2.851-0.067-4.275L17.908,8.56c0.79-0.035,1.568-0.087,2.335-0.157C21.01,8.334,21.796,8.282,22.601,8.247
		L22.601,8.247z M39.334,6.893l-5.743,4.847c0.045,0.208,0.135,0.544,0.269,1.004c0.134,0.46,0.283,0.938,0.447,1.434
		c0.164,0.494,0.338,0.955,0.524,1.381c0.187,0.427,0.361,0.699,0.525,0.821c0.104,0.088,0.238,0.156,0.402,0.21
		c0.164,0.051,0.331,0.096,0.502,0.13s0.343,0.056,0.514,0.065c0.171,0.008,0.316,0.014,0.437,0.014c0.208,0,0.424-0.01,0.648-0.027
		c0.223-0.017,0.439-0.043,0.648-0.078c-0.03,0.227-0.053,0.456-0.067,0.69c-0.015,0.235-0.022,0.474-0.022,0.718
		c0,0.416,0.008,0.834,0.022,1.25c0.015,0.418,0.022,0.825,0.022,1.225c-0.104,0.019-0.287,0.041-0.547,0.065
		c-0.261,0.027-0.559,0.052-0.894,0.078s-0.689,0.059-1.062,0.093c-0.372,0.034-0.718,0.064-1.038,0.09
		c-0.321,0.026-0.597,0.039-0.827,0.039c-0.231,0-0.376-0.017-0.436-0.052c-0.253-0.138-0.499-0.287-0.737-0.442
		c-0.239-0.156-0.44-0.374-0.604-0.651c-0.075-0.121-0.197-0.452-0.369-0.991s-0.35-1.129-0.536-1.771
		c-0.187-0.644-0.357-1.244-0.514-1.8c-0.157-0.555-0.257-0.911-0.302-1.068l-2.145,1.617v4.534L24.03,20.76
		c0.089-2.433,0.185-4.853,0.291-7.259c0.104-2.407,0.156-4.835,0.156-7.286c0-0.747-0.003-1.485-0.01-2.215
		c-0.009-0.73-0.019-1.477-0.034-2.242c0.61,0.139,1.217,0.226,1.82,0.26c0.604,0.035,1.21,0.087,1.821,0.156v9.748
		c1.162-0.834,2.297-1.686,3.407-2.555c1.109-0.868,2.186-1.824,3.228-2.867c0.789,0.104,1.56,0.183,2.313,0.235
		C37.773,6.788,38.544,6.839,39.334,6.893L39.334,6.893z M54.862,11.584c-1.952,0.122-3.896,0.222-5.832,0.3
		c-1.936,0.078-3.88,0.161-5.831,0.248c-0.016,0.07-0.022,0.139-0.022,0.208v0.208c0,0.591,0.115,1.044,0.346,1.356
		c0.231,0.313,0.517,0.534,0.86,0.665c0.342,0.13,0.722,0.203,1.14,0.222c0.417,0.018,0.804,0.025,1.161,0.025
		c0.998,0,1.996-0.039,2.994-0.117c0.998-0.078,2.003-0.16,3.016-0.248l0.179,4.145c-0.983,0.053-1.962,0.096-2.938,0.131
		s-1.955,0.052-2.938,0.052c-0.208,0-0.592-0.004-1.15-0.014c-0.558-0.008-1.154-0.033-1.787-0.077
		c-0.634-0.043-1.225-0.1-1.777-0.17c-0.551-0.069-0.916-0.164-1.094-0.286c-0.461-0.313-0.823-0.712-1.083-1.2
		c-0.261-0.485-0.462-1.016-0.604-1.589c-0.142-0.574-0.238-1.159-0.291-1.759c-0.052-0.599-0.085-1.177-0.1-1.733
		c-0.015-0.086-0.019-0.178-0.011-0.274c0.007-0.095,0.011-0.186,0.011-0.273c0-0.921,0.086-1.777,0.257-2.568
		c0.171-0.791,0.488-1.56,0.95-2.307c0.313-0.521,0.774-0.956,1.385-1.304c0.61-0.347,1.274-0.621,1.988-0.82
		c0.716-0.199,1.43-0.338,2.146-0.417C46.55,3.909,47.169,3.87,47.69,3.87c0.461,0,1.027,0.048,1.698,0.143
		c0.67,0.096,1.336,0.256,1.999,0.482c0.663,0.226,1.263,0.517,1.799,0.873c0.537,0.356,0.901,0.794,1.095,1.316
		c0.03,0.104,0.063,0.283,0.101,0.535c0.037,0.252,0.078,0.539,0.123,0.86c0.044,0.322,0.085,0.665,0.123,1.03
		c0.037,0.365,0.07,0.712,0.1,1.042s0.056,0.625,0.078,0.886C54.828,11.296,54.847,11.479,54.862,11.584L54.862,11.584z
		 M51.823,9.681c-0.089-0.765-0.256-1.368-0.502-1.811c-0.246-0.443-0.552-0.773-0.917-0.99c-0.365-0.217-0.782-0.357-1.251-0.417
		c-0.469-0.061-0.972-0.091-1.508-0.091c-0.179,0-0.402,0.004-0.67,0.014c-0.268,0.008-0.537,0.034-0.805,0.077
		c-0.268,0.044-0.522,0.109-0.76,0.195c-0.239,0.088-0.425,0.209-0.558,0.366c-0.104,0.104-0.19,0.248-0.257,0.43
		c-0.067,0.182-0.123,0.378-0.167,0.586c-0.045,0.208-0.079,0.414-0.101,0.613c-0.022,0.2-0.033,0.37-0.033,0.509
		c0,0.278,0.022,0.547,0.067,0.808l7.461-0.286L51.823,9.681z M81,3.478c-0.433,2.45-0.846,4.892-1.24,7.325
		c-0.395,2.433-0.815,4.874-1.263,7.325l-4.647,0.051l-1.698-7.038l-3.888,7.038l-5.072,0.443c-0.12-1.199-0.245-2.407-0.379-3.623
		c-0.134-1.217-0.283-2.424-0.447-3.624c-0.164-1.252-0.328-2.489-0.492-3.715c-0.164-1.225-0.328-2.454-0.492-3.688l4.603-0.157
		l1.475,8.158c0.298-0.781,0.603-1.555,0.916-2.319c0.313-0.765,0.625-1.539,0.938-2.32c0.328-0.868,0.686-1.694,1.072-2.476
		l2.525,0.052c0.432,1.269,0.852,2.532,1.261,3.792c0.41,1.26,0.853,2.506,1.33,3.74c0.268-0.834,0.503-1.612,0.704-2.333
		c0.201-0.721,0.383-1.434,0.547-2.138c0.164-0.703,0.32-1.424,0.47-2.163c0.148-0.739,0.298-1.542,0.446-2.412L81,3.478L81,3.478z
		 M86.161,3.816c0,0.349-0.063,0.674-0.19,0.978c-0.126,0.304-0.298,0.569-0.514,0.794c-0.216,0.227-0.458,0.404-0.726,0.535
		c-0.269,0.13-0.537,0.195-0.805,0.195c-0.298,0-0.577-0.079-0.837-0.235c-0.261-0.156-0.489-0.356-0.682-0.599
		c-0.194-0.243-0.343-0.525-0.447-0.848c-0.104-0.321-0.156-0.647-0.156-0.977s0.056-0.639,0.168-0.926
		c0.112-0.287,0.261-0.534,0.446-0.743c0.186-0.208,0.402-0.373,0.648-0.495s0.51-0.183,0.794-0.183
		c0.283,0,0.562,0.065,0.837,0.196c0.275,0.13,0.521,0.312,0.738,0.547c0.215,0.235,0.39,0.504,0.525,0.809
		C86.095,3.169,86.162,3.486,86.161,3.816L86.161,3.816z M87.077,8.247c-0.075,0.922-0.134,1.834-0.178,2.737l-0.134,2.711
		c-0.06,1.059-0.161,2.11-0.302,3.153c-0.142,1.042-0.301,2.086-0.48,3.128l-3.418,0.417c0-0.556,0.003-1.104,0.011-1.643
		c0.007-0.538,0.011-1.085,0.011-1.642c0-1.425-0.022-2.851-0.067-4.275L82.387,8.56c0.789-0.035,1.566-0.087,2.334-0.157
		C85.487,8.334,86.273,8.282,87.077,8.247L87.077,8.247z M99.901,16.64l-0.379,4.587c-0.478,0.036-0.954,0.066-1.43,0.093
		c-0.477,0.026-0.953,0.038-1.43,0.038c-0.254,0-0.588-0.008-1.005-0.025c-0.417-0.018-0.849-0.049-1.296-0.092
		s-0.871-0.104-1.274-0.183c-0.402-0.077-0.723-0.177-0.961-0.298c-0.357-0.192-0.651-0.444-0.882-0.757
		c-0.231-0.313-0.421-0.656-0.57-1.03c-0.149-0.373-0.267-0.773-0.357-1.199c-0.089-0.426-0.157-0.848-0.202-1.265
		c-0.044-0.399-0.078-0.829-0.101-1.29c-0.022-0.461-0.037-0.934-0.044-1.421c-0.008-0.485-0.012-0.959-0.012-1.419v-2.073h-1.384
		c0.059-0.782,0.092-1.555,0.1-2.32c0.007-0.764,0.041-1.537,0.101-2.319l1.341,0.052V1.861c0.849,0.191,1.694,0.291,2.536,0.3
		c0.841,0.008,1.687,0.048,2.536,0.117l-0.045,3.988l1.876,0.131c0,0.122,0.004,0.234,0.011,0.338
		c0.007,0.104,0.011,0.218,0.011,0.339c0,0.487-0.033,0.961-0.1,1.421c-0.067,0.46-0.153,0.925-0.257,1.395h-1.631
		c-0.03,0.8-0.052,1.599-0.067,2.398c-0.015,0.799-0.022,1.599-0.022,2.398c0,0.382,0.011,0.726,0.033,1.03
		c0.022,0.304,0.082,0.56,0.179,0.769c0.096,0.208,0.256,0.364,0.48,0.469c0.223,0.104,0.536,0.156,0.938,0.156
		c0.552,0,1.102-0.043,1.654-0.131C98.799,16.893,99.35,16.779,99.901,16.64L99.901,16.64z M115.027,11.088
		c0,0.643-0.034,1.291-0.101,1.942s-0.139,1.299-0.212,1.942c-0.12,1.129-0.254,2.246-0.403,3.348
		c-0.148,1.105-0.298,2.221-0.445,3.351c-0.731,0.017-1.445,0.051-2.146,0.104c-0.699,0.052-1.406,0.112-2.121,0.184v-3.767
		c0-1.242-0.023-2.488-0.067-3.74c0-0.243-0.004-0.555-0.012-0.938c-0.007-0.383-0.041-0.695-0.101-0.938
		c-0.089-0.399-0.2-0.673-0.335-0.821c-0.134-0.147-0.395-0.221-0.782-0.221c-0.269,0-0.582,0.034-0.938,0.104
		c-0.358,0.07-0.723,0.157-1.095,0.261s-0.726,0.221-1.062,0.353c-0.335,0.13-0.614,0.265-0.837,0.403
		c-0.12,1.408-0.265,2.806-0.436,4.197c-0.172,1.39-0.279,2.797-0.324,4.223l-3.15-0.183c-0.164-3.128-0.32-6.242-0.469-9.344
		s-0.29-6.217-0.425-9.345l4.916-0.364c-0.031,1.147-0.061,2.29-0.09,3.428c-0.03,1.138-0.06,2.28-0.09,3.427
		c0.283-0.278,0.604-0.491,0.961-0.639c0.357-0.147,0.727-0.247,1.106-0.3c0.38-0.052,0.763-0.079,1.151-0.079h1.117
		c0.537,0,1.144,0.022,1.821,0.065c0.678,0.044,1.326,0.166,1.944,0.365c0.619,0.2,1.166,0.517,1.643,0.952
		c0.477,0.434,0.796,1.042,0.961,1.824c0.015,0.037,0.021,0.07,0.021,0.105C115.027,11.02,115.027,11.054,115.027,11.088
		L115.027,11.088z M137.255,21.671c-1.804-0.035-3.646-0.088-5.53-0.156c-1.884-0.069-3.728-0.226-5.528-0.469
		c-0.21-0.034-0.443-0.065-0.703-0.091c-0.262-0.028-0.496-0.083-0.705-0.171c-0.433-0.189-0.771-0.405-1.017-0.639
		c-0.245-0.233-0.437-0.503-0.569-0.808c-0.134-0.304-0.231-0.643-0.29-1.018c-0.061-0.372-0.112-0.794-0.156-1.264
		c-0.134-1.216-0.238-2.436-0.312-3.661c-0.075-1.226-0.112-2.454-0.112-3.688c0-0.226,0.004-0.5,0.012-0.821
		c0.007-0.322,0.021-0.656,0.044-1.003s0.057-0.678,0.101-0.99c0.045-0.313,0.104-0.574,0.18-0.783
		c0.357-0.903,0.881-1.628,1.574-2.176c0.692-0.547,1.455-0.972,2.29-1.277s1.695-0.504,2.581-0.6
		c0.886-0.095,1.701-0.143,2.445-0.143c1.595,0,3.188,0.182,4.783,0.547l0.177,5.577c-1.519-0.555-3.09-0.833-4.713-0.833
		c-0.299,0-0.693,0.017-1.185,0.052c-0.491,0.036-0.995,0.1-1.508,0.196c-0.514,0.096-0.994,0.235-1.441,0.417
		c-0.447,0.182-0.759,0.43-0.938,0.743c-0.089,0.156-0.167,0.374-0.234,0.651c-0.067,0.279-0.119,0.57-0.155,0.874
		c-0.039,0.305-0.063,0.604-0.079,0.899c-0.016,0.296-0.022,0.539-0.022,0.729c0,0.4,0.026,0.874,0.079,1.421
		c0.051,0.546,0.114,1.107,0.189,1.68c0.074,0.574,0.163,1.121,0.268,1.644c0.104,0.521,0.215,0.946,0.336,1.276h3.953l-0.201-5.03
		c1.029,0.087,2.06,0.126,3.095,0.117c1.036-0.009,2.066-0.013,3.096-0.013c0.103,1.477,0.163,2.945,0.179,4.405
		C137.247,18.726,137.256,20.194,137.255,21.671L137.255,21.671z M151.375,10.254v0.6l-4.312,0.235
		c0.044-0.226,0.066-0.487,0.066-0.782c0-0.435-0.052-0.717-0.156-0.847c-0.105-0.13-0.337-0.196-0.693-0.196
		c-0.506,0-1.064,0.104-1.676,0.313c-0.61,0.208-1.146,0.408-1.609,0.6c-0.073,0.764-0.133,1.529-0.177,2.293
		c-0.045,0.765-0.067,1.529-0.067,2.294c0,0.852,0.004,1.698,0.011,2.541c0.008,0.844,0.019,1.689,0.034,2.542l-3.843,0.287
		c-0.075-1.112-0.148-2.22-0.224-3.324c-0.074-1.103-0.143-2.21-0.2-3.324c-0.075-1.476-0.172-2.948-0.29-4.417
		c-0.12-1.468-0.239-2.949-0.358-4.444c0.85,0.069,1.694,0.169,2.536,0.299c0.842,0.13,1.687,0.292,2.534,0.482l-0.11,2.189
		c0.446-0.417,0.873-0.778,1.284-1.082c0.409-0.305,0.827-0.561,1.252-0.769c0.425-0.208,0.874-0.361,1.351-0.456
		c0.478-0.096,1.007-0.144,1.587-0.144c0.388,0,0.79,0.048,1.207,0.144c0.417,0.095,0.774,0.316,1.073,0.664
		c0.148,0.192,0.274,0.479,0.378,0.86c0.104,0.382,0.188,0.787,0.247,1.212c0.06,0.426,0.102,0.843,0.123,1.251
		C151.363,9.686,151.376,10.011,151.375,10.254L151.375,10.254z M168.354,9.498c0,1.459-0.044,2.911-0.135,4.354l-0.268,4.326
		c-1.669,0.174-3.328,0.322-4.981,0.443c-1.654,0.121-3.315,0.183-4.982,0.183c-0.149,0-0.425-0.004-0.827-0.013
		s-0.827-0.026-1.273-0.053c-0.447-0.026-0.871-0.061-1.273-0.104c-0.402-0.043-0.67-0.108-0.803-0.194
		c-0.493-0.314-0.836-0.709-1.029-1.188c-0.192-0.479-0.289-1.02-0.289-1.629c0-0.208,0.006-0.485,0.021-0.834
		c0.015-0.348,0.045-0.711,0.089-1.095c0.044-0.382,0.104-0.738,0.179-1.069c0.075-0.33,0.163-0.573,0.269-0.729
		c0.134-0.208,0.438-0.386,0.915-0.534c0.478-0.148,1.047-0.265,1.709-0.353c0.664-0.086,1.378-0.156,2.146-0.208
		s1.5-0.091,2.201-0.118c0.699-0.025,1.325-0.039,1.876-0.039h1.185c0.045-0.382,0.067-0.756,0.067-1.121V9.25
		c0-0.147-0.008-0.238-0.022-0.273c-0.045-0.104-0.187-0.191-0.425-0.26c-0.239-0.07-0.532-0.122-0.883-0.157
		c-0.349-0.034-0.729-0.065-1.14-0.091c-0.409-0.026-0.809-0.039-1.195-0.039h-1.676c-0.938,0-1.876,0.022-2.813,0.065
		c-0.94,0.044-1.877,0.083-2.816,0.118c0.06-0.661,0.108-1.33,0.145-2.007c0.038-0.678,0.041-1.346,0.011-2.007
		c1.087-0.226,2.18-0.387,3.272-0.481c1.098-0.096,2.202-0.144,3.318-0.144c0.402,0,0.842,0.004,1.319,0.013
		c0.476,0.008,0.953,0.025,1.43,0.052c0.477,0.025,0.949,0.065,1.418,0.117c0.471,0.052,0.905,0.122,1.308,0.209
		c0.417,0.086,0.829,0.243,1.24,0.468c0.409,0.226,0.792,0.504,1.149,0.834c0.358,0.331,0.671,0.708,0.939,1.134
		s0.461,0.882,0.58,1.368c0.015,0.053,0.026,0.14,0.034,0.26c0.006,0.123,0.011,0.257,0.011,0.405v0.404
		C168.354,9.36,168.354,9.446,168.354,9.498L168.354,9.498z M163.372,15.623v-3.336c-0.432-0.017-0.864-0.03-1.296-0.039
		c-0.432-0.009-0.863-0.014-1.296-0.014c-0.089,0-0.338,0.005-0.749,0.014c-0.408,0.008-0.848,0.03-1.316,0.064
		c-0.47,0.036-0.897,0.078-1.284,0.131c-0.387,0.052-0.611,0.13-0.671,0.234c-0.074,0.139-0.122,0.283-0.145,0.431
		s-0.034,0.299-0.034,0.456c0,0.121,0.008,0.287,0.023,0.494c0.014,0.21,0.041,0.428,0.077,0.652
		c0.037,0.225,0.078,0.435,0.123,0.625c0.045,0.191,0.104,0.331,0.179,0.418c0.061,0.086,0.159,0.152,0.302,0.195
		c0.142,0.043,0.294,0.078,0.457,0.104c0.165,0.026,0.328,0.045,0.492,0.053s0.291,0.013,0.381,0.013
		c0.357,0,0.739-0.018,1.15-0.052c0.409-0.035,0.826-0.074,1.252-0.117c0.424-0.043,0.837-0.096,1.24-0.157
		C162.658,15.732,163.03,15.676,163.372,15.623L163.372,15.623z M184.484,6.553c-0.55,1.199-1.093,2.359-1.63,3.479
		c-0.536,1.121-1.083,2.225-1.643,3.311c-0.558,1.086-1.136,2.168-1.731,3.245c-0.596,1.078-1.229,2.172-1.898,3.284l-3.889,0.184
		l-4.423-13.633l4.96-0.156c0.298,1.616,0.584,3.228,0.859,4.835c0.276,1.607,0.563,3.228,0.86,4.861
		c0.565-1.529,1.112-3.049,1.643-4.562c0.529-1.512,1.008-3.067,1.44-4.666c0.925,0,1.832-0.008,2.726-0.025
		C182.653,6.692,183.562,6.64,184.484,6.553L184.484,6.553z M189.066,3.816c0,0.349-0.064,0.674-0.191,0.978
		c-0.127,0.304-0.298,0.569-0.514,0.794c-0.216,0.227-0.456,0.404-0.726,0.535c-0.269,0.13-0.536,0.195-0.804,0.195
		c-0.299,0-0.578-0.079-0.839-0.235c-0.261-0.156-0.486-0.356-0.68-0.599c-0.194-0.243-0.344-0.525-0.447-0.848
		c-0.105-0.321-0.157-0.647-0.157-0.977s0.057-0.639,0.168-0.926c0.111-0.287,0.26-0.534,0.447-0.743
		c0.188-0.208,0.402-0.373,0.648-0.495c0.245-0.122,0.51-0.183,0.793-0.183c0.281,0,0.562,0.065,0.837,0.196
		c0.276,0.13,0.521,0.312,0.737,0.547c0.216,0.235,0.392,0.504,0.525,0.809C189,3.169,189.066,3.486,189.066,3.816L189.066,3.816z
		 M189.98,8.247c-0.072,0.922-0.133,1.834-0.178,2.737l-0.134,2.711c-0.06,1.059-0.16,2.11-0.302,3.153
		c-0.142,1.042-0.301,2.086-0.48,3.128l-3.418,0.417c0-0.556,0.003-1.104,0.011-1.643c0.008-0.538,0.012-1.085,0.012-1.642
		c0-1.425-0.022-2.851-0.066-4.275L185.29,8.56c0.789-0.035,1.567-0.087,2.335-0.157C188.391,8.334,189.177,8.282,189.98,8.247
		L189.98,8.247z M202.515,16.64l-0.379,4.587c-0.479,0.036-0.953,0.066-1.431,0.093c-0.477,0.026-0.953,0.038-1.429,0.038
		c-0.254,0-0.59-0.008-1.007-0.025s-0.85-0.049-1.296-0.092s-0.871-0.104-1.272-0.183c-0.401-0.077-0.723-0.177-0.961-0.298
		c-0.357-0.192-0.652-0.444-0.883-0.757c-0.23-0.313-0.421-0.656-0.57-1.03c-0.148-0.373-0.268-0.773-0.357-1.199
		c-0.089-0.426-0.155-0.848-0.2-1.265c-0.044-0.399-0.078-0.829-0.101-1.29s-0.038-0.934-0.044-1.421
		c-0.008-0.485-0.012-0.959-0.012-1.419v-2.073h-1.386c0.061-0.782,0.093-1.555,0.102-2.32c0.008-0.764,0.041-1.537,0.101-2.319
		l1.34,0.052V1.861c0.849,0.191,1.695,0.291,2.535,0.3c0.842,0.008,1.688,0.048,2.536,0.117l-0.045,3.988l1.878,0.131
		c0,0.122,0.003,0.234,0.011,0.338c0.008,0.104,0.011,0.218,0.011,0.339c0,0.487-0.033,0.961-0.1,1.421
		c-0.066,0.46-0.152,0.925-0.258,1.395h-1.631c-0.029,0.8-0.052,1.599-0.066,2.398c-0.017,0.799-0.022,1.599-0.022,2.398
		c0,0.382,0.011,0.726,0.033,1.03c0.022,0.304,0.083,0.56,0.178,0.769c0.097,0.208,0.257,0.364,0.481,0.469
		c0.223,0.104,0.536,0.156,0.938,0.156c0.551,0,1.102-0.043,1.653-0.131C201.413,16.893,201.965,16.779,202.515,16.64L202.515,16.64
		z M217.933,16.119v0.834c0,0-0.009,0.779-0.023,1.238c-0.016,0.461-0.033,0.938-0.056,1.433c-0.021,0.495-0.049,0.965-0.078,1.407
		c-0.03,0.443-0.07,0.834-0.123,1.174c-0.053,0.338-0.108,0.577-0.167,0.717c-0.254,0.469-0.487,0.829-0.704,1.081
		c-0.217,0.251-0.45,0.43-0.703,0.534c-0.255,0.105-0.541,0.161-0.86,0.169c-0.321,0.009-0.696,0.013-1.128,0.013
		c-1.43,0-2.853-0.063-4.268-0.193c-1.416-0.132-2.83-0.283-4.246-0.457v-3.57c0.136,0,0.428-0.005,0.883-0.014
		c0.454-0.009,0.986-0.021,1.598-0.039c0.61-0.018,1.258-0.044,1.944-0.078c0.685-0.036,1.324-0.078,1.921-0.131
		c0.596-0.053,1.108-0.112,1.542-0.183c0.433-0.069,0.7-0.155,0.805-0.26c0.133-0.122,0.241-0.31,0.324-0.562
		c0.082-0.251,0.141-0.518,0.178-0.794c0.037-0.278,0.063-0.556,0.08-0.835c0.013-0.277,0.02-0.504,0.02-0.677v-0.495
		c0-0.157-0.007-0.332-0.02-0.521c-0.225,0.59-0.523,1.033-0.896,1.328c-0.373,0.297-0.79,0.505-1.251,0.626
		c-0.462,0.121-0.945,0.187-1.453,0.195c-0.505,0.009-0.989,0.013-1.45,0.013c-0.969,0-1.903-0.047-2.805-0.143
		c-0.902-0.096-1.698-0.344-2.392-0.743c-0.691-0.399-1.25-1.003-1.675-1.812s-0.636-1.924-0.636-3.349
		c0-1.408,0.08-2.811,0.245-4.209c0.163-1.398,0.37-2.785,0.625-4.158l4.715,0.052c-0.253,1.096-0.478,2.208-0.67,3.337
		c-0.195,1.129-0.291,2.267-0.291,3.414c0,0.608,0.037,1.103,0.112,1.486c0.074,0.382,0.209,0.69,0.402,0.926
		c0.193,0.234,0.461,0.396,0.804,0.481c0.342,0.087,0.774,0.13,1.296,0.13c0.209,0,0.465-0.017,0.771-0.051
		c0.306-0.035,0.616-0.082,0.938-0.144c0.32-0.061,0.626-0.144,0.916-0.248c0.29-0.104,0.518-0.234,0.682-0.391
		c0.059-0.052,0.111-0.225,0.155-0.521c0.045-0.295,0.083-0.647,0.113-1.056c0.029-0.408,0.05-0.847,0.066-1.316
		c0.014-0.469,0.026-0.912,0.033-1.33c0.007-0.417,0.011-0.776,0.011-1.082V6.761V5.002c0-0.583-0.015-1.169-0.044-1.76
		c0.729,0.087,1.447,0.161,2.155,0.221c0.709,0.062,1.427,0.11,2.156,0.144c0.061,1.685,0.124,3.354,0.19,5.004
		c0.067,1.651,0.138,3.319,0.212,5.004c0.029,0.417,0.045,0.839,0.045,1.265V16.119L217.933,16.119z"/>
</g>
</svg>
