<?xml version="1.0" encoding="utf-8"?>
<!-- Generator: Adobe Illustrator 14.0.0, SVG Export Plug-In . SVG Version: 6.00 Build 43363)  -->
<!DOCTYPE svg PUBLIC "-//W3C//DTD SVG 1.1//EN" "http://www.w3.org/Graphics/SVG/1.1/DTD/svg11.dtd">
<svg version="1.1" id="Layer_1" xmlns="http://www.w3.org/2000/svg" xmlns:xlink="http://www.w3.org/1999/xlink" x="0px" y="0px"
	 width="30px" height="30px" viewBox="0 0 30 30" enable-background="new 0 0 30 30" xml:space="preserve">
<path fill="#984A2D" d="M25.426,11.035c0.024-0.045-0.195-0.24,0.055-0.302c0.205-0.05,0.207,0.147,0.267,0.252
	c0.063,0.118,0.101,0.254,0.127,0.386c0.46,2.088,1.24,4.08,1.812,6.136c0.11,0.402,0.351,0.771,0.273,1.226
	c-0.048,0.279,0.357,0.235,0.396,0.517c0.102,0.72,0.426,1.374,0.646,2.06c0.231,0.723-0.062,1.061-0.772,1.202
	c-0.91,0.185-1.836,0.193-2.746,0.247c-0.643,0.04-1.315,0.002-1.979-0.002c-1.285-0.007-2.568-0.057-3.854-0.046
	c-1.711,0.017-3.416,0.073-5.125,0.113c-0.052,0-0.115-0.021-0.154,0.003c-0.673,0.367-0.946-0.193-1.075-0.6
	c-0.405-1.271-1.215-2.354-1.636-3.61c-0.38-1.14-0.724-2.288-1.143-3.412c-0.415-1.11-0.9-2.193-1.366-3.283
	c-0.106-0.25-0.114-0.524-0.235-0.776c-0.042-0.09-0.104-0.406,0.33-0.404c1.3,0.008,2.596-0.177,3.894-0.22
	c0.48-0.018,0.997-0.026,1.5,0.02c1.063,0.096,2.144,0.12,3.208,0.037c0.799-0.063,1.588,0.008,2.379,0.003
	c0.914-0.005,1.82,0.013,2.733-0.038c0.46-0.026,0.992-0.242,1.455,0.08c0.015,0.01,0.033,0.035,0.038,0.033
	C25.029,10.276,24.973,11.101,25.426,11.035 M7.141,15.266c-0.374,0.49-3.835,4.307-4.094,4.797
	c-0.254,0.484-0.311,0.954-0.703,1.344c-0.34,0.338,0.405,0.765,0.047,0.734c-0.405-0.03,0.59,0.131,0.208,0.224
	c-0.533,0.126-1.05-0.06-1.575-0.067c-0.168-0.003-0.086-0.17-0.042-0.281c0.478-1.255,1.132-2.427,1.753-3.607
	c0.295-0.562,0.644-1.127,1.037-1.635c0.297-0.383,0.41-0.834,0.65-1.23c0.892-1.48,1.78-2.964,2.677-4.44
	c0.156-0.258,0.352-0.467,0.72-0.414c0.324,0.046,0.3,0.333,0.378,0.516c0.63,1.46,1.3,2.91,1.82,4.41
	c0.308,0.88,0.637,1.762,0.91,2.66c0.208,0.693,0.503,1.396,0.758,2.093c0.232,0.636,0.39,1.3,0.577,1.954
	c0.1,0.352,0.021,0.574-0.404,0.58c-0.885,0.017-1.05-0.159-1.935-0.152c-0.494,0.002,0.184-0.451-0.031-0.891
	c-0.49-1-1.422-3.297-1.422-3.297"/>
<path fill="#2A2942" d="M7.836,8.715c-0.14,0.366-0.262,0.702-0.462,1.003c-0.08,0.12-0.156,0.18-0.286,0.152
	c-0.12-0.024-0.132-0.128-0.17-0.23C6.772,9.233,6.911,8.81,7.091,8.527c0.51-0.795,0.06-1.392-0.265-2.036
	C6.741,6.326,6.663,6.153,6.56,5.998C6.416,5.783,6.457,5.631,6.673,5.502c0.204-0.122,0.374-0.13,0.52,0.092
	C7.406,5.922,7.721,6.19,7.776,6.629c0.686-0.527,0.34-1.704,1.35-2.03C9.138,4.946,9.082,5.256,8.95,5.524
	C8.678,6.076,8.606,6.706,8.268,7.228c-0.105,0.163-0.04,0.28,0.038,0.447c0.23,0.476,0.686,0.81,0.81,1.355
	c0.037,0.164,0.19,0.3,0.02,0.462c-0.145,0.14-0.312,0.2-0.523,0.14C8.163,9.507,7.99,9.147,7.836,8.717 M24.87,8.842
	c-0.218,0.127-0.261,0.326-0.354,0.486c-0.111,0.185-0.291,0.31-0.475,0.23c-0.208-0.09-0.234-0.317-0.156-0.536
	c0.047-0.13,0.063-0.285,0.148-0.382c0.592-0.67,0.21-1.304-0.08-1.928c-0.074-0.162-0.217-0.288-0.037-0.448
	c0.193-0.17,0.305,0.073,0.453,0.115c0.083,0.023,0.13,0.158,0.208,0.22c0.235,0.19,0.476,0.496,0.72-0.005
	c0.036-0.078,0.158-0.12,0.248-0.165c0.173-0.09,0.25-0.494,0.475-0.29c0.19,0.175,0.049,0.564-0.104,0.728
	c-0.617,0.673-0.55,1.374-0.216,2.124c0.056,0.125,0.093,0.263,0.11,0.398c0.024,0.188-0.138,0.282-0.258,0.358
	c-0.14,0.085-0.246-0.074-0.275-0.162c-0.09-0.28-0.43-0.397-0.409-0.744"/>
</svg>
