<svg xmlns="http://www.w3.org/2000/svg" xmlns:xlink="http://www.w3.org/1999/xlink" width="30" height="30"
    viewBox="0 0 30 30">
    <path fill="#FFF"
        d="M25.426 11.035c.024-.045-.195-.24.055-.302.204-.05.206.147.266.252.063.118.1.254.127.386.46 2.088 1.24 4.08 1.812 6.136.11.402.35.77.273 1.225-.048.28.357.236.396.517.102.72.426 1.374.646 2.06.232.722-.062 1.06-.773 1.202-.91.185-1.836.193-2.746.247-.642.04-1.315.002-1.978-.002-1.285-.007-2.568-.057-3.854-.046-1.71.016-3.416.073-5.125.113-.052 0-.115-.02-.154.003-.673.368-.946-.193-1.075-.6-.405-1.27-1.215-2.353-1.636-3.61-.38-1.14-.724-2.288-1.143-3.412-.415-1.11-.9-2.193-1.366-3.283-.106-.25-.114-.524-.235-.776-.042-.09-.104-.406.33-.404 1.3.008 2.596-.177 3.894-.22.48-.018.997-.026 1.5.02 1.063.096 2.144.12 3.207.037.8-.063 1.588.008 2.38.003.913-.005 1.82.013 2.733-.038.46-.026.992-.242 1.455.08.014.01.033.035.038.033.576-.38.52.445.973.38M6.64 19.195c-.374.49-.522 1.045-.78 1.535-.254.485-.53.945-.922 1.334-.34.338-.815.268-1.173.238-.405-.03-.784-.03-1.167.062-.533.126-1.05-.06-1.575-.067-.168-.003-.086-.17-.042-.282.478-1.254 1.132-2.426 1.753-3.607.295-.562.644-1.127 1.037-1.635.297-.383.41-.834.65-1.23.892-1.48 1.78-2.964 2.677-4.44.156-.258.352-.467.72-.414.324.046.3.333.378.516.63 1.46 1.3 2.91 1.82 4.41.308.88.637 1.762.91 2.66.208.694.503 1.396.758 2.093.232.636.39 1.3.577 1.954.1.352.02.574-.404.58-.885.017-1.77.062-2.655.068-.494.002-.87-.257-1.085-.697-.49-1-.963-2.005-1.476-3.08" />
    <path fill="#2A2942"
        d="M7.836 8.715c-.14.366-.262.702-.462 1.003-.08.12-.156.18-.286.152-.12-.024-.132-.128-.17-.23-.146-.407-.007-.83.173-1.113.51-.795.06-1.392-.265-2.036-.085-.165-.163-.338-.266-.493-.144-.215-.103-.367.113-.496.204-.122.374-.13.52.092.213.328.528.596.583 1.035.686-.527.34-1.704 1.35-2.03.012.347-.044.657-.176.925-.272.552-.344 1.182-.682 1.704-.105.163-.04.28.038.447.23.476.686.81.81 1.355.037.164.19.3.02.462-.145.14-.312.2-.523.14-.45-.125-.623-.485-.777-.915M24.87 8.842c-.218.127-.26.326-.355.486-.11.185-.29.31-.474.23-.208-.09-.234-.317-.156-.536.047-.13.063-.285.148-.382.592-.67.21-1.304-.08-1.928-.074-.162-.217-.288-.037-.448.193-.17.305.073.453.115.083.023.13.158.208.22.235.19.476.496.72-.005.036-.078.158-.12.248-.165.173-.09.25-.494.475-.29.19.175.048.564-.104.728-.617.673-.55 1.374-.216 2.124.056.125.093.263.11.398.025.188-.137.282-.257.358-.14.085-.246-.074-.275-.162-.09-.28-.43-.397-.41-.744" />
</svg>