<?xml version="1.0" encoding="utf-8"?>
<!-- Generator: Adobe Illustrator 14.0.0, SVG Export Plug-In . SVG Version: 6.00 Build 43363)  -->
<!DOCTYPE svg PUBLIC "-//W3C//DTD SVG 1.1//EN" "http://www.w3.org/Graphics/SVG/1.1/DTD/svg11.dtd">
<svg version="1.1" id="Layer_1" xmlns="http://www.w3.org/2000/svg" xmlns:xlink="http://www.w3.org/1999/xlink" x="0px" y="0px"
	 width="220px" height="160px" viewBox="0 0 220 160" enable-background="new 0 0 220 160" xml:space="preserve">
<g id="text">
	<g>
		<path fill="#FFFFFF" d="M22.255,145.075l-4.139,0.12c-0.028-1.051-0.048-2.094-0.062-3.129c-0.014-1.035-0.035-2.078-0.062-3.131
			l-3.911,0.219c-0.014,0.162-0.021,0.318-0.021,0.474c0,0.153,0,0.304,0,0.448c0,0.906,0.031,1.808,0.093,2.706
			c0.062,0.897,0.128,1.792,0.198,2.681c-0.277,0.018-0.558,0.028-0.842,0.037c-0.284,0.008-0.565,0.012-0.842,0.012
			c-0.541,0-1.085-0.012-1.633-0.035c-0.548-0.024-1.092-0.037-1.633-0.037c0.027-1.504,0.062-2.992,0.104-4.465
			s0.076-2.961,0.104-4.466c0.028-1.472,0.045-2.927,0.052-4.366c0.007-1.439,0.017-2.889,0.031-4.345h3.474
			c0.111,1.214,0.187,2.423,0.229,3.628s0.104,2.414,0.187,3.629c0.666-0.018,1.324-0.025,1.976-0.025
			c0.651,0,1.317-0.008,1.997-0.023l0.208-7.861c0.194-0.017,0.385-0.024,0.572-0.024s0.377,0,0.572,0
			c0.555,0,1.099,0.017,1.633,0.049c0.534,0.033,1.071,0.104,1.612,0.22c0.069,2.961,0.097,5.907,0.083,8.844
			C22.221,139.166,22.228,142.113,22.255,145.075z"/>
		<path fill="#FFFFFF" d="M28.017,128.914c0,0.324-0.059,0.627-0.177,0.91c-0.118,0.283-0.277,0.529-0.479,0.74
			c-0.201,0.211-0.426,0.375-0.676,0.496c-0.25,0.123-0.499,0.184-0.749,0.184c-0.277,0-0.537-0.073-0.78-0.219
			c-0.243-0.146-0.454-0.332-0.634-0.56c-0.181-0.226-0.319-0.487-0.416-0.788c-0.097-0.299-0.146-0.603-0.146-0.91
			c0-0.307,0.052-0.595,0.156-0.86c0.104-0.267,0.243-0.497,0.416-0.691c0.173-0.194,0.375-0.348,0.603-0.461
			c0.229-0.112,0.475-0.17,0.739-0.17c0.263,0,0.523,0.062,0.78,0.183c0.256,0.121,0.485,0.291,0.687,0.51
			c0.201,0.219,0.364,0.47,0.489,0.752C27.955,128.312,28.017,128.607,28.017,128.914z M28.87,133.039
			c-0.07,0.857-0.125,1.707-0.167,2.548c-0.042,0.843-0.083,1.685-0.125,2.522c-0.056,0.988-0.149,1.967-0.281,2.938
			c-0.132,0.971-0.281,1.941-0.447,2.912l-3.183,0.389c0-0.519,0.003-1.027,0.011-1.529c0.007-0.5,0.01-1.01,0.01-1.527
			c0-1.327-0.021-2.652-0.062-3.979s-0.083-2.653-0.125-3.979c0.735-0.032,1.459-0.081,2.174-0.146
			C27.389,133.121,28.121,133.072,28.87,133.039z"/>
		<path fill="#FFFFFF" d="M44.448,131.777l-5.345,4.514c0.042,0.193,0.125,0.506,0.25,0.936c0.125,0.428,0.263,0.873,0.416,1.334
			c0.152,0.461,0.315,0.89,0.489,1.285c0.174,0.396,0.336,0.651,0.489,0.766c0.097,0.08,0.222,0.146,0.375,0.193
			c0.152,0.049,0.308,0.09,0.468,0.121c0.159,0.032,0.319,0.053,0.479,0.061c0.159,0.009,0.294,0.014,0.406,0.014
			c0.194,0,0.395-0.009,0.603-0.023c0.208-0.018,0.409-0.041,0.603-0.074c-0.028,0.211-0.048,0.426-0.062,0.644
			c-0.014,0.22-0.021,0.44-0.021,0.668c0,0.39,0.007,0.776,0.021,1.164c0.014,0.39,0.021,0.771,0.021,1.142
			c-0.097,0.017-0.267,0.037-0.51,0.062c-0.243,0.022-0.52,0.048-0.832,0.071c-0.312,0.024-0.642,0.054-0.988,0.086
			c-0.346,0.031-0.669,0.061-0.967,0.085c-0.298,0.024-0.555,0.036-0.77,0.036c-0.215,0-0.35-0.017-0.405-0.049
			c-0.236-0.129-0.465-0.268-0.687-0.412c-0.222-0.146-0.409-0.349-0.562-0.606c-0.069-0.112-0.184-0.421-0.343-0.922
			c-0.16-0.502-0.326-1.052-0.5-1.649c-0.174-0.599-0.333-1.156-0.478-1.675s-0.239-0.851-0.281-0.995l-1.997,1.504v4.223
			l-4.119,0.412c0.083-2.265,0.173-4.517,0.271-6.758c0.097-2.24,0.146-4.5,0.146-6.781c0-0.695-0.003-1.383-0.01-2.062
			c-0.007-0.681-0.018-1.376-0.031-2.088c0.568,0.13,1.133,0.211,1.695,0.243c0.562,0.031,1.126,0.081,1.695,0.146v9.074
			c1.082-0.775,2.139-1.568,3.172-2.378c1.033-0.81,2.035-1.698,3.006-2.669c0.735,0.098,1.452,0.169,2.153,0.219
			C42.995,131.682,43.713,131.729,44.448,131.777z"/>
		<path fill="#FFFFFF" d="M58.904,136.146c-1.817,0.112-3.626,0.205-5.429,0.277c-1.802,0.073-3.612,0.15-5.428,0.23
			c-0.014,0.064-0.021,0.131-0.021,0.193c0,0.065,0,0.131,0,0.194c0,0.55,0.107,0.972,0.322,1.263
			c0.215,0.291,0.482,0.497,0.801,0.618c0.318,0.121,0.672,0.19,1.061,0.206c0.388,0.018,0.749,0.023,1.082,0.023
			c0.929,0,1.858-0.035,2.787-0.108c0.929-0.071,1.865-0.149,2.808-0.229l0.167,3.857c-0.915,0.049-1.827,0.09-2.735,0.121
			c-0.909,0.032-1.82,0.049-2.735,0.049c-0.195,0-0.551-0.004-1.071-0.012c-0.52-0.01-1.075-0.032-1.665-0.073
			c-0.59-0.041-1.14-0.093-1.653-0.157c-0.513-0.064-0.853-0.154-1.019-0.268c-0.43-0.291-0.766-0.663-1.009-1.116
			c-0.243-0.452-0.43-0.946-0.562-1.479s-0.222-1.079-0.271-1.639c-0.049-0.558-0.08-1.096-0.093-1.613
			c-0.014-0.08-0.018-0.166-0.011-0.254c0.007-0.09,0.011-0.174,0.011-0.256c0-0.856,0.08-1.654,0.239-2.391
			c0.16-0.734,0.454-1.451,0.884-2.146c0.292-0.484,0.721-0.89,1.29-1.213c0.568-0.324,1.186-0.578,1.851-0.766
			c0.666-0.186,1.331-0.314,1.997-0.389c0.665-0.072,1.24-0.108,1.726-0.108c0.43,0,0.957,0.045,1.581,0.134
			c0.624,0.09,1.244,0.238,1.861,0.449c0.617,0.21,1.175,0.48,1.674,0.812c0.499,0.33,0.839,0.74,1.019,1.225
			c0.028,0.098,0.059,0.264,0.094,0.498c0.034,0.234,0.073,0.501,0.114,0.801c0.042,0.301,0.08,0.618,0.114,0.958
			c0.034,0.341,0.066,0.664,0.094,0.972c0.028,0.308,0.052,0.582,0.073,0.824C58.873,135.878,58.89,136.048,58.904,136.146z
			 M56.075,134.374c-0.083-0.712-0.239-1.272-0.468-1.687c-0.229-0.412-0.513-0.721-0.853-0.922
			c-0.34-0.203-0.729-0.332-1.165-0.389c-0.437-0.059-0.905-0.085-1.404-0.085c-0.167,0-0.375,0.003-0.624,0.013
			c-0.25,0.008-0.5,0.031-0.749,0.072c-0.25,0.04-0.485,0.102-0.707,0.182c-0.222,0.082-0.395,0.194-0.52,0.34
			c-0.097,0.098-0.177,0.23-0.239,0.399c-0.062,0.17-0.114,0.353-0.156,0.548c-0.041,0.192-0.073,0.385-0.093,0.568
			c-0.021,0.188-0.031,0.345-0.031,0.475c0,0.258,0.021,0.51,0.062,0.752L56.075,134.374z"/>
		<path fill="#FFFFFF" d="M83.237,128.6c-0.402,2.28-0.787,4.553-1.154,6.818s-0.759,4.537-1.175,6.818l-4.326,0.048l-1.581-6.552
			l-3.62,6.552l-4.721,0.413c-0.111-1.116-0.229-2.24-0.354-3.373s-0.264-2.258-0.416-3.373c-0.153-1.165-0.305-2.317-0.458-3.458
			c-0.153-1.142-0.305-2.284-0.458-3.435l4.285-0.146l1.373,7.595c0.277-0.729,0.562-1.447,0.853-2.158
			c0.291-0.713,0.582-1.433,0.874-2.16c0.305-0.809,0.638-1.576,0.998-2.306l2.351,0.05c0.402,1.182,0.793,2.356,1.175,3.529
			c0.381,1.174,0.793,2.334,1.237,3.482c0.25-0.777,0.468-1.5,0.655-2.172s0.357-1.334,0.51-1.989
			c0.152-0.655,0.298-1.327,0.437-2.015c0.138-0.688,0.277-1.437,0.416-2.246L83.237,128.6z"/>
		<path fill="#FFFFFF" d="M88.042,128.914c0,0.324-0.059,0.627-0.176,0.91c-0.118,0.283-0.278,0.529-0.479,0.74
			c-0.202,0.211-0.426,0.375-0.676,0.496c-0.25,0.123-0.5,0.184-0.749,0.184c-0.278,0-0.538-0.073-0.78-0.219
			c-0.242-0.146-0.454-0.332-0.634-0.56c-0.18-0.226-0.319-0.487-0.416-0.788c-0.097-0.299-0.146-0.603-0.146-0.91
			c0-0.307,0.052-0.595,0.156-0.86c0.104-0.267,0.243-0.497,0.416-0.691c0.173-0.194,0.375-0.348,0.604-0.461
			c0.229-0.112,0.475-0.17,0.738-0.17c0.263,0,0.523,0.062,0.78,0.183c0.256,0.121,0.485,0.291,0.687,0.51
			c0.201,0.219,0.364,0.47,0.489,0.752C87.979,128.312,88.042,128.607,88.042,128.914z M88.895,133.039
			c-0.069,0.857-0.125,1.707-0.167,2.548c-0.042,0.843-0.083,1.685-0.125,2.522c-0.055,0.988-0.149,1.967-0.28,2.938
			c-0.132,0.971-0.281,1.941-0.447,2.912l-3.183,0.389c0-0.519,0.003-1.027,0.01-1.529c0.007-0.5,0.011-1.01,0.011-1.527
			c0-1.327-0.021-2.652-0.062-3.979s-0.083-2.653-0.125-3.979c0.734-0.032,1.459-0.081,2.173-0.146
			C87.415,133.121,88.146,133.072,88.895,133.039z"/>
		<path fill="#FFFFFF" d="M100.833,140.854l-0.354,4.271c-0.444,0.03-0.888,0.062-1.331,0.084c-0.444,0.024-0.888,0.037-1.332,0.037
			c-0.236,0-0.547-0.009-0.936-0.024c-0.389-0.017-0.791-0.045-1.207-0.085s-0.811-0.097-1.186-0.17
			c-0.375-0.071-0.673-0.166-0.895-0.278c-0.333-0.179-0.606-0.412-0.821-0.703c-0.215-0.293-0.392-0.61-0.53-0.959
			c-0.139-0.349-0.25-0.721-0.333-1.115c-0.083-0.396-0.146-0.789-0.187-1.178c-0.042-0.373-0.073-0.772-0.094-1.201
			c-0.021-0.43-0.035-0.869-0.042-1.322s-0.01-0.895-0.01-1.322s0-0.828,0-1.201v-0.729h-1.29c0.055-0.729,0.086-1.447,0.094-2.159
			c0.007-0.712,0.038-1.433,0.094-2.159l1.248,0.049v-3.592c0.79,0.178,1.577,0.271,2.36,0.278c0.784,0.009,1.57,0.045,2.361,0.108
			l-0.042,3.713l1.747,0.121c0,0.113,0.003,0.22,0.011,0.315c0.007,0.099,0.01,0.203,0.01,0.315c0,0.453-0.031,0.895-0.094,1.322
			c-0.062,0.428-0.143,0.861-0.239,1.299H96.32c-0.028,0.744-0.049,1.488-0.062,2.231c-0.014,0.744-0.021,1.488-0.021,2.231
			c0,0.357,0.01,0.676,0.031,0.959s0.076,0.521,0.167,0.716c0.09,0.194,0.239,0.34,0.447,0.438c0.208,0.096,0.499,0.146,0.874,0.146
			c0.513,0,1.026-0.04,1.539-0.122C99.807,141.088,100.32,140.982,100.833,140.854z"/>
		<path fill="#FFFFFF" d="M114.915,135.686c0,0.599-0.031,1.201-0.095,1.808c-0.062,0.606-0.127,1.209-0.196,1.808
			c-0.11,1.053-0.235,2.092-0.375,3.118s-0.276,2.067-0.416,3.118c-0.679,0.016-1.345,0.049-1.996,0.097
			c-0.651,0.05-1.312,0.104-1.976,0.171c0-1.182,0-2.35,0-3.507c0-1.155-0.021-2.317-0.062-3.481c0-0.228-0.003-0.519-0.011-0.873
			c-0.007-0.355-0.038-0.647-0.093-0.875c-0.083-0.37-0.188-0.627-0.312-0.764c-0.125-0.138-0.367-0.207-0.728-0.207
			c-0.25,0-0.542,0.032-0.874,0.098c-0.333,0.064-0.673,0.146-1.02,0.242c-0.347,0.099-0.676,0.207-0.987,0.328
			c-0.312,0.121-0.572,0.246-0.78,0.377c-0.111,1.31-0.247,2.611-0.406,3.905c-0.16,1.295-0.26,2.604-0.302,3.931l-2.933-0.17
			c-0.152-2.91-0.298-5.812-0.437-8.697c-0.139-2.889-0.271-5.787-0.396-8.699l4.576-0.34c-0.028,1.066-0.056,2.132-0.083,3.189
			c-0.028,1.061-0.056,2.125-0.083,3.191c0.264-0.26,0.562-0.457,0.895-0.596c0.333-0.137,0.676-0.229,1.03-0.278
			c0.354-0.05,0.71-0.072,1.071-0.072c0.36,0,0.707,0,1.04,0c0.5,0,1.064,0.021,1.695,0.062c0.63,0.039,1.233,0.152,1.81,0.34
			c0.575,0.188,1.084,0.48,1.528,0.886c0.442,0.404,0.741,0.97,0.896,1.698c0.014,0.033,0.021,0.064,0.021,0.097
			C114.915,135.62,114.915,135.652,114.915,135.686z"/>
		<path fill="#FFFFFF" d="M135.607,145.536c-1.678-0.033-3.394-0.081-5.146-0.146c-1.755-0.065-3.471-0.211-5.148-0.438
			c-0.193-0.033-0.412-0.061-0.654-0.086c-0.242-0.023-0.461-0.076-0.654-0.157c-0.402-0.178-0.718-0.376-0.947-0.595
			c-0.229-0.219-0.404-0.469-0.529-0.752c-0.125-0.282-0.215-0.598-0.271-0.946c-0.056-0.349-0.104-0.74-0.146-1.177
			c-0.125-1.133-0.221-2.27-0.291-3.409c-0.068-1.14-0.104-2.285-0.104-3.435c0-0.209,0.003-0.465,0.01-0.765
			c0.008-0.299,0.021-0.61,0.043-0.934c0.021-0.323,0.051-0.632,0.094-0.923c0.041-0.291,0.097-0.533,0.166-0.729
			c0.332-0.841,0.82-1.518,1.467-2.025c0.645-0.511,1.354-0.905,2.132-1.189c0.776-0.282,1.577-0.469,2.401-0.559
			c0.824-0.088,1.584-0.133,2.277-0.133c1.483,0,2.967,0.17,4.451,0.51l0.166,5.192c-1.414-0.518-2.877-0.776-4.389-0.776
			c-0.277,0-0.645,0.017-1.104,0.049c-0.457,0.033-0.926,0.093-1.402,0.182c-0.479,0.09-0.926,0.219-1.342,0.389
			s-0.707,0.4-0.875,0.691c-0.082,0.146-0.154,0.35-0.218,0.605c-0.062,0.261-0.11,0.531-0.146,0.813
			c-0.035,0.283-0.061,0.562-0.073,0.837c-0.015,0.275-0.021,0.502-0.021,0.68c0,0.373,0.023,0.812,0.072,1.322
			s0.106,1.031,0.176,1.565c0.07,0.534,0.152,1.043,0.25,1.528c0.098,0.484,0.201,0.881,0.312,1.188h3.682l-0.188-4.685
			c0.957,0.082,1.917,0.117,2.881,0.109s1.925-0.012,2.881-0.012c0.098,1.375,0.152,2.74,0.167,4.102
			C135.602,142.794,135.607,144.161,135.607,145.536z"/>
		<path fill="#FFFFFF" d="M148.753,134.907v0.559l-4.015,0.22c0.041-0.211,0.062-0.453,0.062-0.729c0-0.404-0.049-0.667-0.146-0.788
			c-0.098-0.121-0.312-0.184-0.646-0.184c-0.472,0-0.991,0.099-1.56,0.293c-0.569,0.193-1.068,0.38-1.498,0.558
			c-0.069,0.712-0.125,1.424-0.166,2.136c-0.042,0.713-0.062,1.424-0.062,2.135c0,0.793,0.004,1.582,0.01,2.367
			c0.008,0.783,0.019,1.572,0.033,2.364l-3.578,0.269c-0.069-1.035-0.14-2.066-0.209-3.094c-0.068-1.029-0.131-2.06-0.188-3.096
			c-0.068-1.374-0.159-2.745-0.271-4.111c-0.109-1.367-0.222-2.746-0.332-4.139c0.791,0.064,1.578,0.158,2.36,0.279
			c0.783,0.121,1.57,0.271,2.36,0.449l-0.104,2.037c0.416-0.388,0.813-0.724,1.195-1.007c0.381-0.282,0.77-0.521,1.165-0.716
			c0.396-0.193,0.813-0.336,1.258-0.425c0.443-0.089,0.937-0.134,1.478-0.134c0.359,0,0.734,0.045,1.123,0.134
			s0.721,0.296,0.998,0.618c0.139,0.179,0.256,0.445,0.354,0.802c0.097,0.356,0.173,0.731,0.229,1.128
			c0.056,0.396,0.094,0.785,0.113,1.165S148.753,134.682,148.753,134.907z"/>
		<path fill="#FFFFFF" d="M164.561,134.204c0,1.358-0.041,2.71-0.123,4.053c-0.084,1.343-0.168,2.685-0.25,4.027
			c-1.555,0.161-3.1,0.3-4.64,0.413c-1.539,0.113-3.085,0.17-4.638,0.17c-0.141,0-0.396-0.004-0.77-0.014
			c-0.375-0.008-0.771-0.022-1.187-0.049c-0.416-0.022-0.812-0.056-1.187-0.097c-0.375-0.04-0.623-0.101-0.748-0.183
			c-0.459-0.291-0.777-0.658-0.957-1.104c-0.182-0.443-0.271-0.949-0.271-1.518c0-0.193,0.007-0.451,0.021-0.775
			c0.014-0.322,0.041-0.663,0.084-1.02c0.041-0.355,0.097-0.688,0.166-0.996c0.068-0.305,0.151-0.532,0.25-0.678
			c0.123-0.194,0.408-0.359,0.853-0.498c0.442-0.138,0.974-0.246,1.591-0.326c0.617-0.082,1.282-0.146,1.997-0.194
			c0.714-0.049,1.396-0.085,2.049-0.108c0.651-0.024,1.233-0.037,1.747-0.037s0.881,0,1.104,0c0.041-0.355,0.062-0.703,0.062-1.043
			c0-0.033,0-0.117,0-0.256c0-0.137-0.008-0.222-0.021-0.255c-0.043-0.097-0.174-0.178-0.396-0.241
			c-0.222-0.064-0.496-0.113-0.822-0.146c-0.324-0.032-0.68-0.061-1.061-0.085c-0.383-0.025-0.752-0.037-1.112-0.037
			s-0.68,0-0.957,0c-0.276,0-0.479,0-0.604,0c-0.873,0-1.747,0.021-2.62,0.062c-0.874,0.041-1.747,0.076-2.621,0.108
			c0.055-0.614,0.102-1.237,0.135-1.868c0.035-0.631,0.038-1.253,0.012-1.867c1.012-0.211,2.027-0.36,3.047-0.449
			c1.02-0.09,2.049-0.135,3.088-0.135c0.375,0,0.783,0.006,1.229,0.014c0.443,0.008,0.887,0.023,1.331,0.049
			c0.443,0.023,0.884,0.061,1.321,0.107c0.438,0.049,0.842,0.113,1.216,0.194c0.39,0.081,0.772,0.228,1.153,0.437
			c0.383,0.211,0.738,0.471,1.072,0.777c0.332,0.307,0.623,0.658,0.873,1.055c0.25,0.397,0.43,0.821,0.541,1.274
			c0.014,0.05,0.023,0.13,0.031,0.242c0.006,0.112,0.01,0.239,0.01,0.376c0,0.139,0,0.264,0,0.377S164.561,134.154,164.561,134.204z
			 M159.923,139.906v-3.105c-0.401-0.016-0.805-0.027-1.206-0.035c-0.402-0.01-0.805-0.014-1.207-0.014
			c-0.082,0-0.314,0.004-0.697,0.014c-0.381,0.008-0.789,0.027-1.227,0.061s-0.836,0.072-1.195,0.121
			c-0.361,0.049-0.568,0.121-0.625,0.218c-0.068,0.13-0.113,0.265-0.135,0.401s-0.031,0.277-0.031,0.424
			c0,0.113,0.008,0.268,0.021,0.461s0.038,0.396,0.072,0.607c0.035,0.209,0.072,0.403,0.115,0.582
			c0.041,0.178,0.096,0.308,0.166,0.389c0.055,0.08,0.148,0.142,0.28,0.182s0.272,0.072,0.427,0.098
			c0.152,0.023,0.305,0.041,0.457,0.049s0.271,0.012,0.354,0.012c0.333,0,0.688-0.016,1.071-0.049
			c0.381-0.031,0.77-0.068,1.164-0.108c0.396-0.04,0.779-0.089,1.154-0.146C159.257,140.008,159.604,139.955,159.923,139.906z"/>
		<path fill="#FFFFFF" d="M179.578,131.462c-0.514,1.116-1.02,2.196-1.52,3.24c-0.498,1.043-1.009,2.069-1.527,3.081
			c-0.52,1.012-1.059,2.019-1.612,3.021c-0.554,1.002-1.146,2.021-1.769,3.057l-3.618,0.17l-4.118-12.69l4.617-0.146
			c0.277,1.505,0.544,3.005,0.801,4.5c0.257,1.498,0.523,3.006,0.801,4.525c0.526-1.423,1.036-2.839,1.528-4.246
			c0.491-1.406,0.938-2.854,1.342-4.344c0.858,0,1.706-0.008,2.538-0.023S178.719,131.544,179.578,131.462z"/>
		<path fill="#FFFFFF" d="M183.842,128.914c0,0.324-0.059,0.627-0.177,0.91s-0.276,0.529-0.479,0.74
			c-0.201,0.211-0.426,0.375-0.676,0.496c-0.248,0.123-0.498,0.184-0.748,0.184c-0.277,0-0.537-0.073-0.779-0.219
			c-0.244-0.146-0.455-0.332-0.635-0.56c-0.182-0.226-0.32-0.487-0.416-0.788c-0.099-0.299-0.146-0.603-0.146-0.91
			c0-0.307,0.052-0.595,0.156-0.86c0.104-0.267,0.242-0.497,0.416-0.691c0.172-0.194,0.373-0.348,0.603-0.461
			c0.229-0.112,0.476-0.17,0.739-0.17c0.263,0,0.521,0.062,0.779,0.183c0.256,0.121,0.484,0.291,0.687,0.51
			c0.2,0.219,0.364,0.47,0.489,0.752C183.779,128.312,183.842,128.607,183.842,128.914z M184.693,133.039
			c-0.068,0.857-0.123,1.707-0.166,2.548c-0.041,0.843-0.082,1.685-0.125,2.522c-0.055,0.988-0.148,1.967-0.279,2.938
			c-0.132,0.971-0.281,1.941-0.447,2.912l-3.183,0.389c0-0.519,0.003-1.027,0.011-1.529c0.008-0.5,0.01-1.01,0.01-1.527
			c0-1.327-0.021-2.652-0.062-3.979c-0.042-1.326-0.084-2.653-0.125-3.979c0.733-0.032,1.459-0.081,2.174-0.146
			C183.215,133.121,183.945,133.072,184.693,133.039z"/>
		<path fill="#FFFFFF" d="M196.363,140.854l-0.354,4.271c-0.444,0.03-0.888,0.062-1.332,0.084c-0.442,0.024-0.887,0.037-1.329,0.037
			c-0.236,0-0.549-0.009-0.938-0.024c-0.389-0.017-0.79-0.045-1.206-0.085c-0.417-0.04-0.812-0.097-1.187-0.17
			c-0.375-0.071-0.672-0.166-0.895-0.278c-0.333-0.179-0.607-0.412-0.821-0.703c-0.216-0.293-0.393-0.61-0.53-0.959
			c-0.139-0.349-0.25-0.721-0.332-1.115c-0.084-0.396-0.146-0.789-0.188-1.178c-0.042-0.373-0.073-0.772-0.094-1.201
			c-0.021-0.43-0.035-0.869-0.042-1.322c-0.008-0.453-0.01-0.895-0.01-1.322s0-0.828,0-1.201v-0.729h-1.289
			c0.055-0.729,0.086-1.447,0.093-2.159s0.038-1.433,0.094-2.159l1.248,0.049v-3.592c0.79,0.178,1.577,0.271,2.36,0.278
			c0.783,0.009,1.57,0.045,2.361,0.108l-0.043,3.713l1.747,0.121c0,0.113,0.005,0.22,0.011,0.315
			c0.008,0.099,0.012,0.203,0.012,0.315c0,0.453-0.031,0.895-0.094,1.322s-0.144,0.861-0.239,1.299h-1.519
			c-0.029,0.744-0.05,1.488-0.062,2.231c-0.014,0.744-0.021,1.488-0.021,2.231c0,0.357,0.01,0.676,0.031,0.959
			s0.076,0.521,0.166,0.716c0.091,0.194,0.239,0.34,0.447,0.438c0.208,0.096,0.499,0.146,0.874,0.146
			c0.513,0,1.024-0.04,1.538-0.122C195.337,141.088,195.852,140.982,196.363,140.854z"/>
		<path fill="#FFFFFF" d="M210.715,140.367c0,0.179,0,0.438,0,0.777c0,0.338-0.007,0.724-0.021,1.151
			c-0.014,0.429-0.031,0.873-0.053,1.335c-0.021,0.461-0.045,0.896-0.072,1.311c-0.027,0.412-0.065,0.775-0.113,1.092
			c-0.049,0.314-0.102,0.537-0.156,0.667c-0.234,0.438-0.453,0.772-0.654,1.008s-0.42,0.399-0.656,0.497
			c-0.234,0.098-0.502,0.148-0.801,0.158c-0.297,0.008-0.647,0.012-1.049,0.012c-1.332,0-2.656-0.061-3.974-0.182
			c-1.317-0.123-2.636-0.264-3.952-0.426v-3.324c0.124,0,0.398-0.004,0.821-0.012c0.423-0.009,0.918-0.021,1.487-0.037
			c0.567-0.016,1.172-0.039,1.81-0.072c0.638-0.032,1.233-0.072,1.789-0.121c0.555-0.049,1.032-0.104,1.437-0.17
			c0.4-0.064,0.649-0.146,0.748-0.242c0.125-0.113,0.225-0.287,0.301-0.521c0.076-0.233,0.133-0.48,0.166-0.74
			c0.035-0.258,0.061-0.518,0.074-0.775c0.012-0.258,0.021-0.471,0.021-0.631c0-0.162,0-0.314,0-0.461s-0.007-0.309-0.021-0.486
			c-0.209,0.551-0.486,0.963-0.832,1.238c-0.349,0.275-0.736,0.47-1.166,0.582c-0.43,0.113-0.881,0.174-1.352,0.183
			c-0.473,0.009-0.923,0.013-1.354,0.013c-0.9,0-1.771-0.045-2.609-0.135c-0.84-0.088-1.58-0.318-2.227-0.691
			c-0.645-0.371-1.164-0.934-1.56-1.687c-0.396-0.752-0.593-1.791-0.593-3.118c0-1.311,0.076-2.615,0.229-3.918
			s0.348-2.593,0.583-3.871l4.39,0.049c-0.236,1.02-0.444,2.056-0.625,3.105c-0.181,1.053-0.271,2.111-0.271,3.18
			c0,0.565,0.034,1.026,0.104,1.383c0.068,0.355,0.193,0.644,0.373,0.861c0.182,0.219,0.432,0.368,0.75,0.449
			c0.317,0.081,0.722,0.12,1.207,0.12c0.192,0,0.433-0.017,0.717-0.048c0.283-0.032,0.576-0.076,0.873-0.135
			c0.299-0.055,0.584-0.133,0.854-0.229c0.271-0.097,0.48-0.218,0.635-0.362c0.055-0.05,0.104-0.211,0.146-0.486
			c0.041-0.274,0.076-0.602,0.104-0.981s0.049-0.789,0.062-1.228c0.014-0.437,0.023-0.848,0.031-1.236s0.011-0.725,0.011-1.007
			s0-0.466,0-0.546c0-0.551,0-1.096,0-1.639c0-0.541-0.015-1.088-0.042-1.638c0.68,0.081,1.349,0.149,2.008,0.206
			c0.658,0.057,1.327,0.102,2.007,0.133c0.056,1.569,0.114,3.123,0.177,4.659c0.062,1.537,0.129,3.091,0.198,4.659
			c0.027,0.389,0.041,0.779,0.041,1.177S210.715,139.995,210.715,140.367z"/>
	</g>
</g>
<g>
	<g>
		<path id="path2830_1_" fill="#CCCCCC" stroke="#CCCCCC" stroke-width="2" d="M126.779,55.859
			c-4.473,0.022-8.785,1.026-13.178,1.427c-1.834,0.167-3.723,0.208-5.558,0.053c-2.441-0.207-4.805-0.758-7.245-1.005
			c-2.181-0.219-4.389-0.449-6.581-0.458c-3.834-0.016-7.545,0.846-11.303,1.312c0,0.789-0.224,1.803,0.339,2.356
			c0.578,0.573,1.557,1.097,1.81,1.874c0.603,1.839,1.458,3.642,2.549,5.371c0.531,0.84,1.531,1.426,2.65,1.829
			c2.693,0.972,5.881,1.114,8.836,0.809c4.207-0.435,6.489-2.702,8.232-5.292c0.652-1.053,0.724-2.268,1.583-3.231
			c0.51-0.571,1.693-0.33,2.539-0.333c0.848-0.001,1.564,1.008,1.826,1.682c0.93,2.38,2.479,4.905,5.56,6.153
			c4.601,1.864,11.847,1.514,14.83-1.845c1.166-1.313,1.487-2.911,2.075-4.398c0.355-0.907,0.675-1.985,1.943-2.484
			c0.512-0.201,0.151-1.003,0.227-1.47c0.084-0.509,0.24-0.958-0.764-1.058c-1.76-0.174-3.461-0.704-5.258-0.882
			C130.188,56.095,128.521,55.851,126.779,55.859L126.779,55.859z M97.198,56.704c1.272-0.004,2.536,0.061,3.771,0.249
			c7.356,1.117,7.505,3.293,4.477,7.793c-2.468,3.667-7.579,4.585-12.729,3.707c-2.375-0.406-3.999-1.596-4.765-3.225
			c-0.807-1.721-1.42-3.548-1.281-5.356c0.187-2.423,3.999-2.761,6.73-2.981C94.653,56.788,95.928,56.71,97.198,56.704
			L97.198,56.704z M124.059,56.704c1.271,0.006,2.547,0.084,3.799,0.186c2.729,0.221,6.545,0.561,6.729,2.982
			c0.138,1.807-0.472,3.635-1.282,5.355c-0.765,1.63-2.388,2.82-4.761,3.225c-5.153,0.879-10.265-0.04-12.729-3.707
			c-3.029-4.499-2.881-6.674,4.475-7.792C121.521,56.765,122.788,56.7,124.059,56.704L124.059,56.704z"/>
	</g>
</g>
<path id="path4735_1_" fill="#FFFFFF" stroke="#FFFFFF" d="M103.804,10.965c-3.646,0.893-7.67-1.266-11.201,0.774
	c-7.599,3.576-6.917,11.111-8.24,16.831c-2.659,1.141-0.642,3.686-2.684,5.24c1.077,2.963-3.422,2.777-6.453,3.231
	c-5.519,0.938-7.585,0.121-12.346,2.639c0.784,6.57,7.154,8.871,14.712,10.457c20.407,3.591,42.953,4.38,64.192,1.483
	c6.509-1.022,16.077-3.032,15.765-8.871c-1.49-5.615-11.402-7.009-18.177-5.941c-3.453-5.757-2.267-12.263-5.238-18.126
	C128.773,10.594,114.785,9.644,103.804,10.965L103.804,10.965z"/>
<g>
	<g>
		<path fill="#FFFFFF" d="M138.973,65.895c0,0-3.033,13.665-4.641,15.891c-2.25,3.123-8.859,5.746-9.587,5.11
			c-4.065-3.537-8.199-7.996-12.957-4.086c-1.118,0.918-3.073,0-3.073,0c-6.146-5.115-15.993,4.48-15.993,4.48
			c-3.071-1.18-7.323-6.049-9.215-8.26c-1.893-2.212-3.254-12.847-3.254-12.847s-4.006,31.859,4.371,40.121
			c8.378,8.26,21.537,14.582,30.753,11.828c27.615-2.834,25.831-47.519,23.594-52.238H138.973L138.973,65.895z M115.979,96.318
			c-4.371-1.699-6.145-1.84-8.938-0.527c-2.792,1.312-7.633,1.574-9.309-6.818c0,0,11.729-6.688,25.135,0
			C122.866,88.973,121.381,98.414,115.979,96.318L115.979,96.318L115.979,96.318z"/>
	</g>
	<g>
		<path fill="#FFFFFF" d="M138.973,65.895c0,0-3.033,13.665-4.641,15.891c-2.25,3.123-8.859,5.746-9.587,5.11
			c-4.065-3.537-8.199-7.996-12.957-4.086c-1.118,0.918-3.073,0-3.073,0c-6.146-5.115-15.993,4.48-15.993,4.48
			c-3.071-1.18-7.323-6.049-9.215-8.26c-1.893-2.212-3.254-12.847-3.254-12.847s-4.006,31.859,4.371,40.121
			c8.378,8.26,21.537,14.582,30.753,11.828c27.615-2.834,25.831-47.519,23.594-52.238H138.973L138.973,65.895z M115.979,96.318
			c-4.371-1.699-6.145-1.84-8.938-0.527c-2.792,1.312-7.633,1.574-9.309-6.818c0,0,11.729-6.688,25.135,0
			C122.866,88.973,121.381,98.414,115.979,96.318L115.979,96.318L115.979,96.318z"/>
		<g>
			<g>
				<path fill="#FFFFFF" d="M138.544,67.752c-0.839,2.768-1.642,5.298-2.462,7.708c-0.873,2.27-1.568,5.052-2.896,6.222
					c-1.511,1.375-3.453,2.395-5.529,3.217c-0.521,0.201-1.059,0.379-1.592,0.52c-0.478,0.137-1.231,0.195-0.901,0.111
					c-1.009-0.902-2.073-1.902-3.292-2.879c-1.301-0.939-3.414-2.917-6.771-2.805c-0.811,0.103-1.677,0.298-2.477,0.768
					c-0.869,0.426-1.607,1.182-1.861,1.109c-0.414,0.101-1.455-0.129-1.729-0.379c-0.873-0.662-1.869-1.114-2.895-1.329
					c-4.192-0.778-8.239,1.483-11.853,4.186c-0.454,0.352-0.905,0.717-1.35,1.1l-0.666,0.594l-0.17,0.156l-0.044,0.043
					c0.446-0.098-1.039,0.254,0.996-0.213l-0.02-0.008l-0.076-0.037l-0.31-0.137c-0.837-0.398-1.695-1.041-2.522-1.727
					c-1.662-1.4-3.246-3.07-4.766-4.789c-0.368-0.42-0.786-0.888-1.103-1.285c-0.177-0.231-0.417-0.71-0.604-1.222
					c-0.39-1.034-0.698-2.221-0.971-3.393c-0.54-2.364-0.939-4.776-1.261-7.072L81.39,66l-0.007-0.05
					c-4.515,0-1.253,0.017-2.263,0.025l-0.004,0.031l-0.013,0.116l-0.054,0.451l-0.096,0.89l-0.169,1.744
					c-0.106,1.147-0.191,2.268-0.268,3.357c-0.152,2.177-0.248,4.226-0.302,6.114c-0.231,7.551,0.305,12.471,0.302,12.467
					c0.18-0.062-0.116,5.053,2.746,12.276c0.726,1.722,2.068,3.64,3.499,4.83c1.384,1.328,2.935,2.572,4.576,3.81
					c3.312,2.395,7.07,4.604,11.129,6.121c4.04,1.532,8.407,2.463,12.716,1.891c3.946-0.754,8.289-1.316,11.729-3.479
					c7.115-4.18,10.607-11.598,11.945-15.021c2.58-6.588,3.379-12.324,3.736-17.641c0.242-5.328,0.153-10.477-1.123-16.217
					c0.557,5.892,0.066,10.855-0.537,15.958c-0.716,5.076-1.688,10.449-4.099,16.552c-1.261,3.205-4.45,9.924-10.869,13.688
					c-3.21,1.977-6.903,2.449-11.026,3.232c-3.861,0.521-7.986-0.318-11.821-1.783c-3.862-1.438-7.476-3.562-10.644-5.85
					c-3.114-2.464-6.085-4.611-7.234-7.562c-2.467-6.146-2.326-11.269-2.458-11.144c0.005,0.008-0.508-4.658-0.283-12.018
					c0.053-1.837,0.149-3.837,0.296-5.964c0.075-1.063,0.16-2.157,0.263-3.275l0.166-1.697l0.093-0.856l0.049-0.428l0.014-0.104
					l0.001-0.026c-1.006-0.001,2.256-0.031-2.254-0.01l0.008,0.06l0.03,0.228c0.338,2.405,0.741,4.867,1.319,7.399
					c0.296,1.267,0.618,2.542,1.112,3.859c0.254,0.656,0.526,1.33,1.069,2.042c0.416,0.518,0.775,0.913,1.177,1.372
					c1.57,1.775,3.209,3.517,5.028,5.051c0.919,0.754,1.865,1.482,2.971,2.017l0.423,0.188l0.105,0.045l0.027,0.013
					c2.048-0.479,0.576-0.14,1.037-0.252l0.031-0.029l0.146-0.135l0.604-0.539l1.255-1.021c3.351-2.563,7.137-4.455,10.294-3.809
					c0.775,0.164,1.487,0.49,2.11,0.963c1.249,0.787,1.984,0.834,3.176,0.758c1.408-0.324,1.878-1.133,2.451-1.312
					c0.586-0.354,1.184-0.466,1.749-0.552c2.31-0.118,4.216,1.439,5.421,2.359c1.127,0.898,2.188,1.861,3.236,2.758
					c1.359,1.021,1.979,0.271,2.619,0.26c0.629-0.194,1.216-0.422,1.779-0.678c2.242-1.043,4.223-2.252,5.941-4.139
					c1.867-2.299,2.031-4.959,2.742-7.457C137.555,73.315,138.055,70.656,138.544,67.752z"/>
			</g>
		</g>
		<g>
			<g>
				<path fill="#FFFFFF" d="M115.979,96.318c-2.328-1.707-4.189-3.424-7.868-2.471c-1.05,0.27-2.501,1.309-4.292,1.145
					c-1.817-0.012-3.554-1.619-4.38-4.191c-0.222-0.617-0.389-1.273-0.535-1.932l-0.057-0.24l-0.005-0.018
					c0.577-1.527-0.786,2.074-0.644,1.703l0.005-0.002l0.013-0.008l0.043-0.023l0.087-0.047l0.367-0.187l0.745-0.34
					c0.985-0.431,1.918-0.752,2.715-0.998c1.595-0.483,2.646-0.676,2.646-0.678c-0.013,0.008,4.215-0.979,8.861-0.354
					c2.315,0.273,4.701,0.93,6.661,1.727c0.491,0.203,0.962,0.39,1.392,0.603l0.627,0.295l0.076,0.033l0.008,0.006l0.005,0.002
					c0.157,0.363-1.337-3.143-0.706-1.657l-0.006,0.018l-0.004,0.033l-0.03,0.17l-0.072,0.342c-0.192,0.91-0.432,1.615-0.589,2.076
					C119.768,94.525,118.857,96.254,115.979,96.318c2.365,2.17,5.795,0.396,7.137-3.773c0.195-0.562,0.482-1.404,0.722-2.506
					l0.091-0.432l0.045-0.232l0.012-0.07l0.008-0.035c0.63,1.482-0.861-2.026-0.711-1.666l-0.004-0.002l-0.012-0.006l-0.08-0.039
					l-0.67-0.313c-0.461-0.229-0.961-0.431-1.486-0.647c-2.098-0.857-4.653-1.554-7.127-1.845c-4.961-0.66-9.452,0.403-9.438,0.396
					c0,0.004-1.117,0.201-2.82,0.715c-0.851,0.262-1.846,0.602-2.917,1.065l-0.821,0.378l-0.424,0.211l-0.11,0.059l-0.057,0.031
					l-0.034,0.02l-0.01,0.004c0.137-0.369-1.222,3.24-0.645,1.717l0.005,0.018l0.067,0.289c0.17,0.779,0.371,1.57,0.653,2.357
					c0.929,3.246,3.788,6.008,6.35,5.926c2.536,0.158,4.308-1.153,4.958-1.25C111.346,95.889,113.184,96.332,115.979,96.318z"/>
			</g>
		</g>
	</g>
</g>
<path fill="#FFFFFF" stroke="#FFFFFF" d="M79.126,65.943c0.044-0.127,1.012-3.261,1.012-3.261l1.054,3.279
	C81.192,65.96,79.082,66.07,79.126,65.943z"/>
</svg>
