<?xml version="1.0" encoding="utf-8"?>
<!-- Generator: Adobe Illustrator 14.0.0, SVG Export Plug-In . SVG Version: 6.00 Build 43363)  -->
<!DOCTYPE svg PUBLIC "-//W3C//DTD SVG 1.1//EN" "http://www.w3.org/Graphics/SVG/1.1/DTD/svg11.dtd">
<svg version="1.1" id="Layer_1" xmlns="http://www.w3.org/2000/svg" xmlns:xlink="http://www.w3.org/1999/xlink" x="0px" y="0px"
	 width="800px" height="150px" viewBox="0 0 800 150" enable-background="new 0 0 800 150" xml:space="preserve">
fill="rgba(255,255,255,0.6)"<path fill="rgba(255,255,255,1)" d="M804.416,134.206c-5.068,0.333-4.751-4.585-10.153-4.447c0.181,0.573-0.592,1.479-0.405,2.053
	c-3.339,0.199-5.798-0.104-8.913,0.682c-1.298,0.309-0.999,1.222-2.555,1.56c-0.647,0.137-2.475,0.332-3.228,0.446
	c-1.256-1.348-3.631-2.264-3.879-3.812c-0.716,0.223-2.393,0.188-3.115,0.412c-0.083-0.327-0.21-0.641-0.337-0.956
	c-5.242-1.055-6.139,1.867-7.093,3.65c-2.873,0.486-4.158-0.48-6.693-0.654c-3.332-0.269-3.632-0.09-6.761,0.562
	c0.166-0.577-0.533-1.473-0.382-2.074c-4.981-1.197-12.501-1.409-15.268,1.457c-1.67,1.702,0.601,2.383,0.314,3.913
	c-0.128,0.665-0.797,1.106-1.429,1.553c-0.458,0.327-0.963,0.66-1.254,1.106c-2.919,0.356-7.13,1.577-10.071,1.066
	c-0.263-2.98-2.151-3.519-6.769-5.146c-3.038-1.062-8.244-4.521-12.71-3.788c-0.871,0.785-1.662,1.604-1.375,2.526
	c-2.355-3.542-8.064-1.576-12.566-0.561c-0.295-1.622-2.266-1.479-4.86-1.667c-1.248-0.082-3.435-0.196-4.633,0.045
	c-1.512,0.327-2.683,1.902-3.775,2.058c-1.862,0.246-4.804-0.321-6.716-0.533c-2.797-0.315-5.654,0.344-5.955-1.651
	c-2.127,0.047-4.617-0.217-6.506-0.652c-0.917,0.652-1.818,1.323-2.64,1.995c-2.128-2.591-11.476-1.417-16.026-1.726
	c0.535-2.677-5.85-7.062-11.589-6.804c-5.061,0.235-5.797,2.315-6.646,4.534c-0.625,1.615-1.296,3.317-3.783,4.384
	c0.098-1.628-4.016-2.652-6.949-2.184c-0.144,0.315-0.302,0.647-0.489,0.975c-4.286-1.043-7.559-3.283-12.401-4.167
	c-3.563-0.654-13.167,0.505-13.012-2.195c-1.977,0.951-2.526,3.135-5.376,3.834c-1.369-6.647-9.138,0.487-13.882-0.189
	c-2.355-0.338-4.596-2.033-7.416-2.085c-3.504-0.069-4.354,0.596-6.761,1.885c-2.88-3.049-8.559,0.677-11.341,1.433
	c-4.422,1.198-7.453,1.176-7.611,4.287c-5.716-1.514-13.379-1.506-16.341,2.069c-2.062-0.739-1.489-1.915-3.054-2.785
	c-1.467-0.809-5.175-1.903-7.272-2.218c-4.783-0.724-10.152-0.401-14.832-1.204c-4.496-0.785-3.367-2.018-7.782,0.488
	c-2.136,1.248-4.542,3.621-7.152,4.354c-0.271-0.292-0.329-0.591-0.188-0.904c0.3,2.274-5.022,2.446-8.22,3.192
	c-3.271,0.784-2.717,0.767-5.805,0.572c-2.235-0.149-3.265-1.158-5.829-0.292c-2.099-1.358-6.1-0.866-8.138-1.966
	c-1.73-0.945-1.663-3.874-2.303-5.313c-5.308-0.928-4.826,1.697-8.256,2.058c-2.963,0.32-5.987-1.937-8.837-2.326
	c-7.205-0.975-24.368-0.648-23.646,4.418c-4.19,0.212-4.417-2.585-7.806-3.359c-2.784-0.657-7.492-0.383-10.395-0.802
	c-3.553-0.527-7.703-2.355-11.607-1.88c-4.015,0.512-8.489,3.943-10.917,5.635c-2.208-4.099-6.045-0.831-10.082,0.699
	c-1.113,0.424-6.003,2.144-7.334,2.166c-3.414,0.057-2.754-0.935-4.613-2.161c-2.522-1.639-5.483-2.745-8.894-3.731
	c-5.091-1.426-8.78-1.455-15.052-1.868c-3.012-0.201-4.644-1.553-6.967-1.736c-2.58-0.206-4.003,1.25-5.806,2.225
	c-2.138,1.146-4.464,3.375-7.089,4.127c-4.269,1.248-4.653-0.127-7.846-1.324c-0.561-0.212-0.874-0.918-1.614-1.051
	c-1.218-0.211-1.903,0.386-2.32,0.333c-2.364-0.274-3.135,0.281-5.247-0.631c-2.146-0.922-1.356-2.642-4.868-2.933
	c-2.948-0.225-5.995,1.328-5.844,2.75c-3.292-2.589-9.386-1.902-12.776-0.119c-4.57-3.01-9.223,1.77-13.807,1.23
	c-0.398-4.097-3.473-3.122-10.346-3.649c0.161-0.437-0.473-1.176-0.312-1.604c-5.988-0.718-9.912,1.857-16.09,0.383
	c-3.355-0.808-4.545-2.144-6.838-3.548c-0.917-0.577-2.104-0.4-3.22-1.306c-0.799-0.636-0.154-1.795-1.609-2.333
	c-6.244-2.286-11.113,5.881-12.428,7.583c-3.345,4.177-9.474,1.799-15.491,4.607c-3.343,1.588-5.698,3.852-8.016,5.835
	c-2.437,2.079-2.616,3.896-6.083,2.469c-9.198-3.736-12.619-6.218-19.539-8.722c-4.4-1.662-20.553,1.163-25.535,0.166
	c-3.007-0.625-6.017-1.152-9.243-1.456c-4.669-0.436-5.662,0.298-10.182,1.284c-3.835,0.859-8.026,1.025-12.004,1.587
	c-4.228,0.591-4.468,1.776-8.189,2.832c-7.941,2.189-7.143-4.93-10.27-7.016c-0.735,4.207-6.53-3.782-10.158-3.222
	c-0.255,0.271-0.305,0.562-0.131,0.871c-2.677-1.122-6.019-1.478-9.078-0.338c-1.541,0.602-1.758,2.047-3.727,2.333
	c-1.645,0.259-4.021-0.613-5.572-0.848c-4.165-0.625-7.167-0.453-10.722-2.248c-3.913-2.017-5.392-1.396-10.302-2.148
	c-5.504-0.836-8.862-2.259-15.068-2.47c-4.18-0.138-7.831-0.729-11.531-1.312c-7.416-1.141-18.146-2.86-9.249-6.694
	c-7.374-0.441-7.998-1.237-7.924-5.1c0.047-1.056-0.769-3.41,0.043-4.306c1.437-1.615,3.771-1.163,6.879-1.227
	c0.413-1.54,0.082-3.168,0.477-4.692c2.397-0.19,5.079-0.539,5.735-1.857c0.841-1.69-1.777-1.8-2.356-3.072
	c-0.802-1.76,1.072-2.068-2.139-3.152c-2.852-0.957-8.313-0.469-11.545-0.819c-0.399-1.071,0.918-1.689,2.252-2.327
	c1.318-0.618,2.68-1.243,2.25-2.326c-5.2-0.82-1.984-8.201-1.984-8.201s-11.844-1.869-12.476-4.877
	c2.945-0.103,13.335-2.551,14.838-4.149c2.47-2.643-2.274-6.385-4.23-8.675c-1.081-1.227-3.147-2.907-2.055-4.333
	c0.57-0.747,1.419-1.166,2.261-1.587c0.983-0.49,1.963-0.981,2.562-1.99c2.006-3.589,2.143-6.969-5.77-7.595
	c0.784-1.006,3.284-1.416,4.467-2.105c-3.537-0.544-6.542-0.701-10.134-1.032c-1.083-1.516,0.82-2.326,2.766-3.189
	c1.381-0.603,2.779-1.225,3.13-2.125c0.635-1.817-2.169-4.012-5.713-3.883c-1.025-3.568,9.701-8.737,14.987-9.531
	c1.068-3.476-1.987-5.79-1.923-9.127c0.076-2.642-0.354-2.779,4.393-3.573c4.781-0.788,9.683-0.402,13.936-2.004
	C-6.824,6.964-7.815,6.471-9.36,6.281c-0.914-2.19,2.705-4.204,2.345-6.596c-0.466-2.786-1.619-3.029,2.29-5.302
	c-0.899,0.059-2.237-0.289-3.207-0.285C-8.458-7.291-9.054-8.12-8.909-9.479c0.133-1.585,1.941-2.704-0.025-4.175
	c8.694-1.507,13.357-4.938,24.115-3.723c1.076,2.087,0.842,3.935,1.456,6.017c2.841-0.638,3.204-2.025,3.63-3.441
	c0.363-1.349,0.795-2.721,3.283-3.542c4.041-1.345,3.373,0.934,6.876,0.573c3.899-0.417,7.101-3.998,10.659-4.941
	c1.555,0.743,2.077,1.803,2.49,2.86c1.131-0.581,1.782-1.802,2.312-2.826c7.245-0.302,10.541,0.063,14.541,3.35
	c3.962,3.237,10.562,6.177,10.709,10.484c1.162-0.572,1.972-1.798,2.867-3.125c1.563-2.24,3.331-4.779,7.493-4.95
	c3.795-0.153,4.771,2.338,9.04,0.761c2.004-0.748,3.632-3.256,4.739-4.088c-0.142,0.458,0.413,1.198,0.399,1.685
	c5,1.023,4.525-3.83,9.202-4.538c4.367-0.656,7.416,0.859,10.147,2.056c0.171-0.35,0.306-0.705,0.478-1.054
	c5.566-0.567,7.313,5.474,13.458,4.387c0.144-0.928,0.083-1.942,0.4-2.853c4.173,0.668,6.097,3.132,11.369,3.255
	c4.735,0.124,6.564-1.216,8.411-3.328c3.711,0.704,6.569,1.75,10.207,0.843c2.82-0.704,3.802-2.235,4.753-3.676
	c0.746-1.198,1.451-2.343,3.168-2.931c3.715-1.277,6.703,1.448,10.78,0.954c1.76-0.212,2.847-1.355,4.636-1.599
	c1.505-0.187,4.128,0.146,5.681,0.236c0.34,0.958,0.188,1.943,0.297,2.851c2.639,0.46,3.257,1.686,5.794,2.408
	c2.957-1.245,7.56-2.051,11.407-1.13c4.627,1.099,3.314,3.886,7.744,4.14c0.255,0.019,3.047-0.938,3.772-1.017
	c1.834-0.211,3.955,0.456,5.792,0.102c3.471-0.699,6.163-3.846,6.12-5.632c2.013-0.195,3.874,0.599,5.314,1.155
	c1.314-0.945,2.032-2.294,4.706-2.113c0.408,0.729,1.244,2.021,2.5,2.473c2.855,1.001,2.167,0.045,4.408,0.048
	c0.84,0.007,1.997-0.506,3.744-0.371c1.024,0.071,3.799,0.973,4.698,1.299c2.583,1,9.485,4.705,13.591,4.315
	c-0.175-0.445,0.516-1.148,0.388-1.607c3.195-0.455,5.983,1.103,9.041,1.375c3.034,0.266,7.443-0.116,10.219-0.483
	c3.007-0.417,4.977-0.885,8.411-0.834c1.34,0.018,3.39,0.303,4.627,0.159c2.341-0.261,3.439-1.32,5.68-1.603
	c-0.155,2.13,2.968,6.056,8.158,5.956c2.423-0.039,3.89-1.543,5.848-1.997c2.514-0.569,4.394-0.363,6.984-0.646
	c1.584-0.192,3.089-0.85,4.606-0.951c2.032-0.169,5.147,0.604,7.065,0.245c2.775-0.508,3.722-2.091,4.689-3.649
	c0.739-1.281,1.499-2.539,3.289-3.17c0.726,1.759,1.156,5.721,5.864,6.061c4.418,0.32,6-2.608,9.11-3.288
	c2.658,3.367,4.284,2.042,8.384,0.855c4.755-1.365,6.664-0.725,11.372-0.241c3.293,0.369,7.798-0.318,11.865,0.284
	c3.343,0.498,7.739,2.546,10.48,0.375c-0.182,0.837-0.888,2.738,0.964,3.264c1.837,0.543,3.944-1.509,6.828-0.831
	c0.571,0.766,1.004,1.418,1.574,2.18c3.054-0.138,6.241-0.348,9.944-0.239c1.353,0.047,3.608,0.313,4.909,0.184
	c1.745-0.193,3.467-1.496,4.942-1.545c3.156-0.136,5.09,2.228,10.188,1.901c4.92-0.286,8.687-1.775,9.53-4.319
	c2.984,0.887,4.617,0.361,7.724,0.295c4.031-0.059,2.541-1.075,5.633,1.147c3.197,2.284,7.716,6.729,9.852,1.475
	c3.678,1.556,6.617,3.394,12.462,2.484c4.202-0.653,6.203-2.81,6.09-4.842c2.249,0.043,4.272,0.733,6.754,0.728
	c3.031-0.021,6.341-0.859,9.386-1.081c4.168-0.315,5.581-1.01,8.973-1.85c5.114,6.42,13.152,0.515,19.704-0.828
	c1.76-0.354,8.971-0.809,10.852-0.035c2.391,1.002,0.796,4.173,1.12,5.576c4.521,0.665,7.672,2.53,12.559,2.179
	c4.01-0.313,12.237-2.006,14.893-3.318c4.932-2.39,4.166-6.08,10.452-2.145c1.737,1.09,3.671,2.229,6.023,2.89
	c2.67,0.753,5.424-0.193,4.784,2.279c3.843,0.738,5.437-0.452,7.724-1.359c0.632,1.88-0.498,5.24,5.88,5.29
	c4.394,0.022,13.561-4.951,14.418-6.985c3.641,0.979,3.089,2.178,8.031,1.329c4.844-0.814,9.093-4.215,13.785-4.083
	c6.325,0.202,10.776,5.206,18.336,4.238c0.254-0.269,0.308-0.564,0.111-0.854c2.106,2.159,3.312,3.618,8.354,4.016
	c3.378,0.262,7.522,0.066,6.972-2.003c0.497,0.012,0.902,0.126,1.257,0.31c0.187-0.184,0.361-0.491,0.55-0.814
	c0.299-0.464,0.615-0.986,1.142-1.211c1.889-0.794,3.046,0.063,5.009-0.35c4.196-0.878,6.356-3.141,7.16-5.308
	c-1.315,1.375-3.671,6.232,0.865,6.698c4.06,0.417,8.295-2.866,9.739-4.251c2.798,1.209,12.394,2.384,15.011,2.065
	c3.48-0.429,6.662-0.91,10.498-1.258c3.972-0.357,9.235-0.606,7.918-3.114c-1.157,4.826,6.177,3.703,11.319,2.428
	c0.686,1.626-0.211,3.324,0.323,4.94c2.49-0.25,2.572-0.866,2.731-1.586c0.074-0.328,0.18-0.692,0.556-1.058
	c2.258-2.241,2.135-1.331,7.03-0.886c8.364,0.73,8.613-1.648,9.567-4.698c2.331-0.303,3.482,0.468,5.632,0.674
	c1.912,0.17,5.731-0.487,6.971-0.305c3.829,0.569,2.956,3.149,7.912,2.998c-1.617,1.735-1.525,3.473,3.528,3.339
	c5.407-0.132,3.129-2.779,3.753-4.824c5.934-0.442,11.092,1.517,17.274,0.48c2.436-0.426,5.317-2.055,7.853-2.171
	c3.157-0.177,1.314,0.139,3.979,0.809c3.127,0.756,8.759,1.576,11.106,2.481c1.661,0.667,0.699,1.794,3.625,2.381
	c1.715,0.354,4.896,0.059,6.806,0.23c-0.18,0.409,0.459,1.087,0.315,1.503c3.31,0.164,6.654,0.931,9.867,0.889
	c-5.07,0.189-6.174,3.576-11.604,4.255c-5.94,0.744-9.513,0.664-14.867,2.343c-2.947,0.918-11.831,2.974-12.131,4.948
	c-0.28,2.043,8.061,1.296,11.784,1.614c0.853,1.377-1.24,3.456-3.332,4.125c-1.819,0.562-5.986,0.081-8.212,0.533
	c-2.948,0.633-7.753,2.437-8.122,4.07c4.241,0.152,8.108,0.77,12.252,1.045c-5.558,1.078,1.314,2.406,3.811,2.753
	c3.663,0.489,7.418,0.958,9.56,2.82c1.647,1.44,0.022,3.008,0.662,4.586c0.423,0.996,2.45,3.71,4.452,4.105
	c-1.159,1.268-4.769,2.467-7.866,2.515c-1.257,2.288-5.294,4.96,1.858,5.576c0.405,1.484-3.535,1.197-4.619,2.519
	c-0.677,0.828,0.503,3.08,1.385,3.792c1.964,1.57,6.806,5.053,11.122,5.448c-2.421,0.408-5.31,1.953-0.089,2.188
	c-1.393,1.562-7.19,1.705-10.379,2.287c-4.348,0.822-7.678,1.31-11.665,2.542c-3.039,0.921-21.252,4.52-19.754,6.845
	c3.472,0.531,6.638,0.58,10.075,0.917c-0.15,1.886,9.484,3.908,12.73,4.1c-0.518,1.717,0.552,2.964,4.59,2.849
	c0.398,0.315,0.383,0.619-0.054,0.906c-4.979-0.201-12.979,1.691-15.83,3.616c5.852,0.315,11.056,2.98,12.373,5.812
	c0.841,1.811-0.1,1.96,2.157,3.456c1.48,1.02,3.962,2.051,5.639,2.602c-4.624,0.126-7.513,2.333-7.173,4.327
	c-3.656,0.447-6.235,1.805-9.363,2.603c-4.204,1.083-9.234,0.991-10.206,3.776c3.22,0,7.018,1.112,8.731,2.424
	c-4.044,0.975,0.232,2.265-1.044,3.869c-0.791,0.968-6.168,2.104-8.018,2.625c-8.069,2.304-5.204,2.389,0.646,4.441
	c-2.985,0.252-4,1.535-5.286,2.551c3.204,1.139,4.514,3.078,6.414,4.676c2.557,2.115,3.77,2.946,7.941,4.367
	c-2.856,0.047-11.564,1.141-12.82,2.591c-1.889,2.166,6.016,2.418,8.648,3.978c3.167,1.892,0.856,2.161-1.572,2.631
	c-1.729,0.314-3.497,0.729-3.572,1.855c-0.091,1.106,9.234,5.629,9.25,5.618l-12.731-1.222L804.416,134.206L804.416,134.206z"/>
</svg>
