<?xml version="1.0" encoding="utf-8"?>
<!-- Generator: Adobe Illustrator 14.0.0, SVG Export Plug-In . SVG Version: 6.00 Build 43363)  -->
<!DOCTYPE svg PUBLIC "-//W3C//DTD SVG 1.1//EN" "http://www.w3.org/Graphics/SVG/1.1/DTD/svg11.dtd">
<svg version="1.1" id="Layer_1" xmlns="http://www.w3.org/2000/svg" xmlns:xlink="http://www.w3.org/1999/xlink" x="0px" y="0px"
	 width="800px" height="150px" viewBox="0 0 800 150" enable-background="new 0 0 800 150" xml:space="preserve">
<g>
	<path fill="rgba(255,255,255,1)" d="M0,145.713c0.14-0.084,0.282-0.166,0.431-0.244c0.816-0.43,1.512-0.24,2.324-0.449c0.96-0.246,1.684-1.199,2.553-1.477
		c0.541-0.174,1.782-0.115,2.325,0.023c1.357,0.344,0.77,0.959,1.637,2.154c1.28,1.76,2.512,0.276,3.775-0.328
		c0.237-0.113,2.163-0.824,2.314-0.765c0.888,0.345,0.614,1.793,1.9,1.929c0.779,0.082,1.462-0.554,2.296-0.41
		c1.083,0.186,1.101,0.811,1.916,1.405c1.376,1.007,3.786,0.478,5.385,0.472c1.224-0.004,2.383-0.07,3.543,0.237
		c1.044,0.279,1.735,0.859,2.742,0.16c0.611-0.424,1.383-1.399,2.03-1.937c0.761-0.629,1.498-1.231,2.263-1.875
		c0.426,0.382,0.632,1.033,1.072,1.507c1.665-0.726,2.369-2.412,4.238-2.584c1.487-0.136,2.856-0.173,4.319-0.396
		c1.751-0.268,2.768,0.716,4.32,1.296c1.48,0.553,2.895,0.594,4.257,1.262c1.687,0.828,3.188,0.981,5.019,0.84
		c1.578-0.123,2.494-1.389,4.01-1.748c1.174-0.277,2.474,0.129,3.583-0.24c2.034-0.672,3.517-1.967,5.728-1.043
		c0.75,0.312,0.692,0.734,1.619,0.795c0.852,0.059,1.251-0.357,1.994-0.682c1.776-0.773,2.015,0.416,3.665,0.654
		c1.269,0.182,1.353-0.302,2.333-0.746c1.225-0.558,2.042-0.547,3.333-0.709c1.815-0.226,2.356-2.054,4.263-2.234
		c1.318-0.125,2.685-0.021,4.009-0.012c1.555,0.012,2.15-0.344,3.498-0.904c1.892-0.787,2.88,0.812,4.63,1.201
		c2.769,0.617,5.293-0.783,7.891-1.547c1.838-0.539,3.663,0.201,5.558,0.133c2.058-0.076,3.887-1.309,5.952-1.135
		c1.679,0.143,3.23,0.668,4.955,0.258c0.843-0.199,1.488-0.678,2.36-0.635c0.969,0.049,1.363,0.733,2.325-0.158
		c0.574,0.949,0.459,1.262,1.348,1.668c0.557,0.254,2.152,0.131,2.72-0.008c0.505-0.125,0.966-0.678,1.485-0.744
		c0.622-0.076,0.899,0.33,1.386,0.393c1.247,0.156,2.205-0.738,3.397-0.781c1.222-0.045,2.102,0.771,3.371,0.775
		c0.52,0.002,1.086-0.094,1.601-0.01c0.662,0.107,1.038,0.479,1.649,0.621c1.242,0.289,2.009-0.652,3.071-0.262
		c0.409,0.149,0.652,0.627,1.104,0.776c0.589,0.19,1.564-0.033,2.196-0.037c1.651-0.006,3.197,0.304,4.82,0.396
		c2.344,0.135,3.645-1.25,5.84-1.928c1.854-0.572,2.116-0.066,3.432,1.243c2.328,2.322,3.422-0.684,5.675-0.469
		c0.953,0.092,1.791,0.694,2.81,0.762c0.879,0.058,2.532-0.532,3.176-0.266c1.14,0.473,0.771,2.784,2.132,3.282
		c1.476,0.541,2.798-1.471,4.181-1.526c1.165-0.049,2.01,1.494,3.125,1.228c1.806-0.435,2.284-3.029,4.42-2.681
		c1.321,0.218,2.209,0.733,3.641,0.728c1.589-0.008,2.904-0.705,4.453-0.75c1.406-0.043,1.405,0.6,2.554,1.121
		c1.179,0.535,2.902-0.353,3.966-0.851c1.402-0.655,2.569-1.612,4.106-1.789c1.356-0.155,2.02-0.471,3.304-1.006
		c1.286-0.537,2.669-0.492,3.937-0.812c1.201-0.306,2.131-1.32,3.107-2.188c0.733-0.649,1.569-1.526,2.443-1.924
		c1.099-0.5,1.461,0.444,2.772,0.243c1.599-0.243,2.721-1.827,4.305-2.079c1.263-0.201,2.29,0.188,3.497,0.319
		c1.494,0.164,2.908-0.535,4.453-0.358c1.258,0.143,2.306,0.944,3.514,1.125c1.541,0.229,3.221-0.06,4.781,0.004
		c1.608,0.065,2.147,1.258,3.652,1.476c1.371,0.192,2.887-0.33,4.125,0.297c0.917,0.463,1.348,1.715,2.169,2.164
		c1.609,0.879,3.799-0.58,5.458-0.604c1.647-0.021,2.663,1.114,4.194,1.524c2.007,0.535,5.464,0.482,5.698,3.652
		c1.574,0.225,2.578-0.252,3.93-1.084c1.587-0.975,1.736-0.477,3.32,0.141c1.355,0.525,2.837,0.099,4.261,0.248
		c1.578,0.168,2.736,0.769,4.184,1.523c2.168,1.133,5.08,0.787,7.329,1.082c1.365,0.18,2.568,0.043,3.798-0.58
		c1.281-0.648,2.79-1.789,3.046,0.535c0.466,0.068,1.3,0.252,1.731,0.09c0.726-0.273,1.08-1.422,1.915-1.445
		c0.792-0.022,0.593,0.49,1.246,0.705c0.607,0.199,2.092,0.059,2.66-0.016c1.796-0.238,3.593-0.859,5.373-1.256
		c1.956-0.438,3.413,1.186,5.592,1.232c1.955,0.045,4.19-0.38,6.081,0.262c1.695,0.576,3.059,1.045,4.901,0.854
		c2.661-0.274,4.774-1.916,7.417-2.493c1.557-0.343,2.81-0.869,4.429-0.867c1.584,0.002,3.168-0.006,4.753,0.002
		c2.139,0.01,4.165-0.396,6.295-0.363c1.945,0.031,2.433,0.83,3.633,2.521c1.186,1.672,1.986,2.021,4.023,1.959
		c2.881-0.089,5.689-1.312,8.579-1.535c1.936-0.148,3.76,0.272,5.652,0.426c2.246,0.184,4.433-0.346,6.647-0.402
		c1.468-0.037,3.21,0.344,4.619-0.078c1.5-0.449,2.7-2.113,4.023-2.506c1.286-0.381,3.25-0.098,4.413,0.387
		c0.247,0.104,0.588,0.277,0.979,0.463V0.986H0V145.713z"/>
	<path fill="rgba(255,255,255,1)" d="M800.002,145.713c-0.14-0.084-0.283-0.166-0.432-0.244c-0.814-0.43-1.511-0.24-2.324-0.449
		c-0.96-0.246-1.683-1.199-2.553-1.479c-0.54-0.174-1.781-0.113-2.323,0.023c-1.358,0.344-0.77,0.961-1.638,2.156
		c-1.28,1.76-2.513,0.276-3.775-0.328c-0.236-0.113-2.162-0.824-2.314-0.765c-0.888,0.345-0.613,1.793-1.899,1.929
		c-0.779,0.082-1.461-0.554-2.295-0.41c-1.084,0.186-1.102,0.811-1.916,1.405c-1.376,1.007-3.786,0.478-5.386,0.472
		c-1.224-0.004-2.383-0.07-3.542,0.237c-1.046,0.279-1.736,0.859-2.744,0.16c-0.609-0.424-1.382-1.399-2.029-1.937
		c-0.761-0.629-1.498-1.231-2.264-1.875c-0.425,0.382-0.632,1.033-1.071,1.507c-1.664-0.726-2.368-2.414-4.238-2.584
		c-1.487-0.138-2.856-0.175-4.319-0.396c-1.751-0.27-2.769,0.716-4.319,1.296c-1.48,0.553-2.896,0.594-4.257,1.262
		c-1.688,0.828-3.188,0.981-5.019,0.84c-1.578-0.123-2.494-1.389-4.01-1.748c-1.175-0.277-2.475,0.129-3.584-0.24
		c-2.033-0.674-3.517-1.969-5.728-1.045c-0.75,0.312-0.692,0.736-1.619,0.797c-0.852,0.059-1.251-0.359-1.994-0.684
		c-1.775-0.773-2.015,0.418-3.664,0.656c-1.269,0.182-1.354-0.304-2.334-0.746c-1.225-0.56-2.042-0.549-3.333-0.709
		c-1.816-0.228-2.356-2.056-4.265-2.236c-1.317-0.125-2.685-0.02-4.008-0.012c-1.556,0.012-2.149-0.344-3.498-0.904
		c-1.892-0.787-2.879,0.814-4.629,1.203c-2.769,0.617-5.295-0.785-7.892-1.547c-1.839-0.539-3.662,0.201-5.558,0.131
		c-2.058-0.076-3.887-1.307-5.951-1.133c-1.679,0.141-3.229,0.668-4.955,0.258c-0.843-0.201-1.487-0.68-2.36-0.635
		c-0.969,0.047-1.362,0.731-2.325-0.158c-0.573,0.949-0.459,1.26-1.349,1.666c-0.557,0.254-2.152,0.131-2.72-0.008
		c-0.505-0.123-0.967-0.676-1.485-0.742c-0.622-0.078-0.899,0.33-1.386,0.391c-1.247,0.156-2.204-0.738-3.396-0.781
		c-1.223-0.043-2.102,0.771-3.371,0.775c-0.52,0.002-1.086-0.092-1.602-0.01c-0.661,0.107-1.037,0.479-1.648,0.621
		c-1.243,0.291-2.009-0.652-3.072-0.262c-0.409,0.149-0.651,0.629-1.104,0.776c-0.589,0.192-1.563-0.033-2.196-0.037
		c-1.65-0.006-3.196,0.306-4.82,0.396c-2.345,0.134-3.646-1.252-5.841-1.928c-1.854-0.572-2.115-0.068-3.431,1.242
		c-2.329,2.322-3.423-0.684-5.675-0.469c-0.953,0.092-1.792,0.695-2.811,0.762c-0.88,0.059-2.532-0.531-3.176-0.266
		c-1.141,0.473-0.771,2.785-2.132,3.283c-1.476,0.541-2.799-1.469-4.183-1.527c-1.164-0.049-2.01,1.494-3.125,1.227
		c-1.806-0.434-2.283-3.027-4.42-2.68c-1.32,0.217-2.21,0.734-3.641,0.729c-1.59-0.01-2.904-0.705-4.453-0.752
		c-1.407-0.041-1.405,0.601-2.554,1.121c-1.179,0.535-2.901-0.352-3.966-0.85c-1.403-0.654-2.57-1.613-4.106-1.789
		c-1.355-0.154-2.02-0.471-3.304-1.006c-1.286-0.537-2.67-0.492-3.937-0.812c-1.201-0.303-2.131-1.317-3.107-2.186
		c-0.733-0.65-1.569-1.527-2.443-1.924c-1.1-0.5-1.462,0.445-2.772,0.244c-1.599-0.244-2.721-1.828-4.305-2.082
		c-1.264-0.199-2.291,0.188-3.497,0.32c-1.494,0.164-2.908-0.535-4.452-0.357c-1.259,0.143-2.307,0.945-3.514,1.125
		c-1.542,0.229-3.223-0.061-4.781,0.004c-1.609,0.064-2.147,1.258-3.653,1.473c-1.371,0.195-2.887-0.328-4.125,0.297
		c-0.917,0.465-1.348,1.717-2.17,2.166c-1.608,0.879-3.799-0.58-5.457-0.604c-1.648-0.021-2.663,1.115-4.194,1.523
		c-2.007,0.534-5.464,0.481-5.699,3.651c-1.573,0.228-2.577-0.252-3.929-1.084c-1.587-0.976-1.737-0.476-3.32,0.142
		c-1.355,0.524-2.838,0.098-4.262,0.25c-1.577,0.166-2.735,0.766-4.184,1.521c-2.168,1.133-5.08,0.787-7.328,1.082
		c-1.366,0.18-2.568,0.043-3.799-0.58c-1.281-0.647-2.789-1.789-3.047,0.535c-0.466,0.067-1.3,0.252-1.73,0.09
		c-0.726-0.272-1.08-1.422-1.916-1.444c-0.791-0.023-0.593,0.489-1.245,0.704c-0.607,0.199-2.092,0.062-2.659-0.016
		c-1.797-0.238-3.593-0.856-5.373-1.257c-1.956-0.436-3.412,1.187-5.593,1.234c-1.954,0.043-4.189-0.379-6.08,0.262
		c-1.696,0.574-3.06,1.045-4.901,0.854c-2.661-0.272-4.773-1.916-7.417-2.494c-1.557-0.342-2.81-0.868-4.43-0.864
		c-1.585,0.002-3.168-0.008-4.753,0c-2.139,0.01-4.165-0.396-6.296-0.363c-1.944,0.033-2.432,0.832-3.633,2.521
		c-1.187,1.674-1.985,2.021-4.023,1.959c-2.88-0.089-5.689-1.312-8.579-1.533c-1.935-0.15-3.759,0.271-5.65,0.426
		c-2.247,0.182-4.435-0.348-6.647-0.404c-1.468-0.037-3.211,0.346-4.619-0.078c-1.5-0.447-2.7-2.113-4.023-2.506
		c-1.286-0.381-3.251-0.096-4.413,0.389c-0.247,0.103-0.589,0.275-0.979,0.463V0.984h400.265L800.002,145.713L800.002,145.713z"/>
</g>
</svg>
