<svg xmlns="http://www.w3.org/2000/svg" width="30" height="30" viewBox="0 0 30 30"><path fill="#FFF" d="M3.375 7l.138-.006 7.175-.37 1.52-.436H16l2.438.406h1.56l3.44-.782 3.75-.874h.5l.562 5.738-.312 3.892-.063 3.62.375 3.874-.312 1h-3l-3.813-.437-4.56 1.063-3.53.5-3.12-.688-4.415.688-2.125-.25-1-2.915-.437-3.585V15L3 12.706l.312-3.518-.374-1.813"/><path fill="#231F20" d="M25.314 5.168c.162-.248-.248-.33-.072-.526.16-.182.357-.024.535-.03.832-.018 1.693.186 2.584-.374-.167.826.28 1.468.17 2.3-.167 1.246-.112 2.547.155 3.806.03.142.082.347.02.433-.66.88-.022 1.724.082 2.56.11.882.146 1.72-.18 2.545-.11.28-.088.545-.073.845.04.854-.13 1.73-.032 2.57.123 1.057-.122 2.174.26 3.153.28.713-.346.75-.478 1.13-.187.53-.65.182-.985.262-1.677.396-3.332-.188-5.007-.165-.837.01-1.652.103-2.48.156-.71.045-1.422.106-2.13.13-1.085.037-2.105.35-3.135.637-.167.045-.355.02-.533.012-1.392-.07-2.762-.364-4.148-.476-.99-.08-1.94.192-2.888.54-1.202.44-2.414.143-3.596-.2-.386-.112-.405-.607-.665-.89-.532-.578-.504-1.415-.63-2.172-.193-1.17-.518-2.316-.565-3.514-.017-.424 0-.852-.035-1.272-.022-.272.18-.644-.29-.767-.14-.033-.023-.244.03-.38.268-.693.513-1.395.79-2.083.626-1.565.8-3.207.64-4.876-.037-.375.007-.873-.372-1.2-.18-.155.208-.83.446-.997.777-.537 1.56-.257 2.36-.12 1.085.187 2.182.224 3.268-.005.853-.18 1.79.156 2.558-.284.67-.384 1.28-.006 1.915-.13 1.695-.335 3.37.006 5.043.278.28.045.586.05.858-.02.354-.09.664-.096.977.126.086.06.245.062.35.025 1.45-.507 2.988-.583 4.44-1.07.306-.1.563-.028.81.045m2.222 2.247c-.05-.36.01-.735-.062-1.122-.072-.4-.216-.508-.574-.488-.44.025-.85.125-1.273.24-.808.22-1.634.354-2.428.648-.234.087-.418.252-.694.3-.794.136-1.63.088-2.366.58-.195.13-.603.136-.6-.335 0-.423-.34-.246-.39-.2-.534.526-1.16.207-1.69.13-1.514-.224-3.013-.385-4.53-.106-.178.032-.4.113-.516-.026-.515-.616-.895-.114-1.288.162-.2.14-.382.27-.634.283-.668.033-1.356-.007-2 .15-.683.167-1.384-.037-2.05.22-.137.052-.367.055-.462-.032-.488-.453-1.004-.125-1.49-.07-1.07.12-.313.913-.345 1.368-.053.763-.087 1.52-.45 2.185-.233.426.196.878-.157 1.284-.32.367-.388.902-.587 1.35-.627 1.412-.5 2.92-.33 4.43.157 1.394.75 2.66.938 4.047.04.308-.04 1.012.595.926.534-.072 1.087-.105 1.593-.355.19-.096.37-.1.604-.06.738.115 1.528.296 2.227.12.61-.155 1.193-.152 1.79-.203.254-.02.47.03.627.266.14.213.338.24.57.258.895.068 1.776-.2 2.662-.122.846.076 1.648-.22 2.5-.192.73.024 1.548-.116 2.233-.392 1.865-.75 3.7-.104 5.526.02.87.06 1.77.16 2.654.295.393.058.48-.16.52-.56.077-.697.173-1.373.15-2.092-.013-.46-.032-.885-.17-1.312-.044-.138-.09-.277-.112-.418-.23-1.454-.084-2.906.013-4.36.055-.807.318-1.61.207-2.41-.2-1.46-.257-2.917-.212-4.403"/><path fill="#231F20" d="M23.342 10.447c.282.448-.128.727-.27.767-.38.108-.436.54-.772.693-.237.107-.3.426.09.577.36.14.52.516.68.837.155.316-.074.523-.337.697-.332.22-.393-.027-.512-.254-.442-.843-.56-.857-1.167-.23-.172.178-.453.154-.6.036-.18-.146-.14-.425.014-.62.11-.138.246-.257.383-.366.198-.16.31-.308.04-.51-.198-.153-.3-.384-.4-.613-.214-.48.024-.967.506-1.024.188-.02.34.108.308.293-.085.495.35.684.547.674.302-.016.574-.277.624-.736.043-.42.483-.616.786-.7.248-.07.187.305.082.48M16.363 20.717c-.154-.604-.443-.16-.672-.2-.103-.018-.09-.116-.102-.196-.063-.522.85-1.61 1.33-1.485.188.05.558.127.62.44.054.268-.14.435-.375.536-.2.087-.37.206-.453.458-.047.146-.194.26-.347.45M9.915 11.27c-.03.042-.08.127-.147.198-.483.527-1.136.72-1.75.982-.19.08-.212-.09-.115-.265.32-.583.705-1.106 1.256-1.45.312-.194.777.117.755.536M19.688 17.01c-.05.406-.355.625-.647.814-.14.09-.367-.063-.318-.245.152-.59.25-1.19.357-1.792.032-.183.333-.24.49-.202.182.045.452.117.426.432-.02.226-.083.443-.126.666-.302-.094-.225.128-.182.325M12.382 17.154c-.014-.758-.083-1.38.094-1.997.035-.122.033-.263.142-.328.244-.148.554-.598.71-.386.208.28-.024.762-.083 1.154-.2-.037-.147.062-.12.203.114.617-.282.93-.743 1.354M13.364 19.05c.27.52.59.986.71 1.57.083.392.03.49-.328.328-.386-.175-.876-.284-.983-.755-.11-.48.218-.847.6-1.143M12.595 12.666c-.51-.03-.726-.578-1.144-.804-.184-.1.016-.51.19-.71.176-.2.362.015.44.123.124.17.56.198.293.59.36-.098.335.202.41.423.005.02.34-.19.23.152-.042.135-.172.358-.418.226M6.07 17.73c.134.094.304.152.387.28.176.266-.16.068-.19.207-.055.262-.162.51-.233.766-.034.12 0 .27-.053.37-.125.24-.2.69-.502.585-.296-.102-.178-.51-.11-.79.09-.36.198-.718.322-1.063.06-.177.18-.327.38-.356M6.414 16.355c-.146-.774.38-1.345.538-2.01.057-.008.077-.02.09-.013.658.285.332.73.158 1.147-.024.057-.093.122-.082.163.212.726-.29.67-.704.712"/></svg>