<svg xmlns="http://www.w3.org/2000/svg" xmlns:xlink="http://www.w3.org/1999/xlink" width="171.506" height="139.379"
    viewBox="0 0 171.506 139.379">
    <path fill="#FFF"
        d="M126.78 4.175H45.447c-14.128 0-25.622 11.49-25.622 25.62V111.13c0 14.128 11.494 25.62 25.622 25.62h81.336c14.128 0 25.62-11.492 25.62-25.62V29.792c-.004-14.13-11.494-25.617-25.623-25.617zm7.35 15.277l2.93-.01v22.471l-22.396.073-.075-22.47 19.54-.064zM67.19 56.854c4.247-5.875 11.136-9.728 18.924-9.728s14.676 3.852 18.917 9.728c2.765 3.834 4.42 8.524 4.42 13.607 0 12.867-10.478 23.332-23.34 23.332-12.866 0-23.333-10.465-23.333-23.33.003-5.084 1.653-9.774 4.414-13.608zm72.293 54.273c0 7.01-5.7 12.703-12.703 12.703H45.447c-7.007 0-12.705-5.693-12.705-12.703V56.854h19.79c-1.71 4.205-2.668 8.796-2.668 13.607 0 19.983 16.26 36.255 36.25 36.255s36.25-16.27 36.25-36.254c0-4.81-.967-9.4-2.675-13.606h19.793v54.273z" />
</svg>