<?xml version="1.0" encoding="utf-8"?>
<!-- Generator: Adobe Illustrator 14.0.0, SVG Export Plug-In . SVG Version: 6.00 Build 43363)  -->
<!DOCTYPE svg PUBLIC "-//W3C//DTD SVG 1.1//EN" "http://www.w3.org/Graphics/SVG/1.1/DTD/svg11.dtd">
<svg version="1.1" id="Layer_1" xmlns="http://www.w3.org/2000/svg" xmlns:xlink="http://www.w3.org/1999/xlink" x="0px" y="0px"
	 width="80px" height="80px" viewBox="0 0 80 80" enable-background="new 0 0 80 80" xml:space="preserve">
<g>
	<path fill="#C8AD90" d="M36.964,59.646c0,5.52-1.5,9.891-4.496,13.129c-3.001,3.236-6.896,4.855-11.689,4.855
		c-5.519,0-10.133-2.035-13.848-6.115c-3.72-4.074-5.575-10.307-5.575-18.703c0-7.912,1.017-14.746,3.057-20.5
		c2.034-5.755,4.496-10.667,7.373-14.747c2.877-4.074,5.811-7.311,8.812-9.711c2.995-2.394,5.575-4.192,7.732-5.395l8.272,11.869
		c-4.08,2.877-7.615,6.716-10.61,11.509c-3.001,4.8-4.377,10.431-4.136,16.905c4.552-0.719,8.21,0.539,10.97,3.777
		C35.582,49.756,36.964,54.133,36.964,59.646z M77.857,59.646c0,5.52-1.5,9.891-4.498,13.129c-3,3.236-6.895,4.855-11.688,4.855
		c-5.52,0-10.133-2.035-13.848-6.115c-3.721-4.074-5.574-10.307-5.574-18.703c0-7.912,1.016-14.746,3.057-20.5
		c2.033-5.755,4.496-10.667,7.373-14.747c2.877-4.074,5.812-7.311,8.812-9.711c2.994-2.394,5.574-4.192,7.732-5.395l8.273,11.869
		c-4.08,2.877-7.615,6.716-10.611,11.509c-3,4.8-4.377,10.431-4.137,16.905c4.553-0.719,8.211,0.539,10.971,3.777
		C76.475,49.756,77.857,54.133,77.857,59.646z"/>
</g>
</svg>
