<svg version="1.1" id="Layer_1" xmlns="http://www.w3.org/2000/svg" xmlns:xlink="http://www.w3.org/1999/xlink" x="0px"
	y="0px" width="171.506px" height="139.379px" viewBox="0 0 171.506 139.379"
	enable-background="new 0 0 171.506 139.379" xml:space="preserve">
	<g transform="translate(-282.32053,-396.30734)" display="none">
		<path display="inline" fill="#FFFFFF" d="M453.825,412.806c-6.311,2.799-13.092,4.689-20.209,5.54
		c7.266-4.354,12.846-11.249,15.472-19.466c-6.8,4.032-14.329,6.96-22.345,8.538c-6.418-6.839-15.562-11.111-25.685-11.111
		c-19.432,0-35.187,15.754-35.187,35.186c0,2.758,0.311,5.443,0.911,8.019c-29.243-1.467-55.17-15.476-72.524-36.764
		c-3.029,5.196-4.765,11.24-4.765,17.688c0,12.208,6.212,22.978,15.653,29.287c-5.768-0.183-11.193-1.766-15.938-4.4
		c-0.004,0.146-0.004,0.294-0.004,0.442c0,17.048,12.129,31.269,28.226,34.503c-2.952,0.804-6.061,1.231-9.27,1.231
		c-2.268,0-4.472-0.221-6.62-0.631c4.478,13.979,17.472,24.149,32.87,24.437c-12.043,9.438-27.214,15.063-43.7,15.063
		c-2.84,0-5.641-0.167-8.394-0.492c15.572,9.984,34.067,15.811,53.938,15.811c64.721,0,100.111-53.614,100.111-100.113
		c0-1.525-0.032-3.043-0.102-4.553C443.144,426.059,449.109,419.863,453.825,412.806L453.825,412.806z" />
	</g>
	<g>
		<defs>
			<rect id="SVGID_1_" x="-23.912" y="-32.811" width="213.749" height="213.75" />
		</defs>
		<clipPath id="SVGID_2_">
			<use xlink:href="#SVGID_1_" overflow="visible" />
		</clipPath>
		<path clip-path="url(#SVGID_2_)" fill="none" stroke="#000000" stroke-width="4" stroke-miterlimit="10"
			d="M183.157,74.064" />
		<path clip-path="url(#SVGID_2_)" fill="#FFFFFF" d="M49.564,95.773c-8.286,0-15.029,6.742-15.029,15.029
		c0,8.288,6.743,15.029,15.029,15.029s15.029-6.741,15.029-15.029C64.594,102.516,57.851,95.773,49.564,95.773" />
		<path clip-path="url(#SVGID_2_)" fill="#FFFFFF" d="M36.205,55.695h-1.67v19.057h1.67c27.244,0,49.409,22.166,49.409,49.41v1.67
		h19.057v-1.67C104.671,86.41,73.959,55.695,36.205,55.695" />
		<path clip-path="url(#SVGID_2_)" fill="#FFFFFF" d="M36.205,15.617h-1.67v19.175h1.67c49.278,0,89.37,40.091,89.37,89.37v1.67
		h19.174v-1.67C144.749,64.309,96.055,15.617,36.205,15.617" />
	</g>
</svg>