<svg version="1.1" id="Layer_1" xmlns="http://www.w3.org/2000/svg" xmlns:xlink="http://www.w3.org/1999/xlink" x="0px"
	y="0px" width="50px" height="50px" viewBox="0 0 50 50" enable-background="new 0 0 50 50" xml:space="preserve">
	<path fill="#273246" stroke="#273246" d="M1.206,25.773c-0.369,4.648,0.616-0.984,0.996-1.419c0.296-0.339,0.627-0.644,1.002-0.887
	c0.422-0.271,0.775-0.63,0.958-0.981c1.21-2.334,3.221-3.942,4.977-5.771c1.348-1.404,2.655-2.861,4.145-4.12
	c0.055-0.047,0.064-0.146,0.109-0.211c0.79-1.141,1.413-1.178,2.361-0.187c0.667,0.695,1.367,1.374,2.188,1.866
	c0.312,0.191,0.271,0.372,0.211,0.579c-0.072,0.253-0.206,0.428-0.555,0.438c-0.702,0.02-1.164-0.512-1.774-0.71
	c-1.338-0.435-2.224,0.167-3.087,1.005c-0.779,0.753-1.591,1.481-2.305,2.295c-1.329,1.513-2.623,3.064-4.085,4.451
	c-1.361,1.29-2.625,2.653-3.557,4.385 M2.79,26.505c1.205-0.369,2.371-0.409,3.533-0.478c1.566-0.09,3.133-0.073,4.698-0.262
	c0.644-0.076,1.304-0.063,1.946-0.201c0.221-0.045,0.371,0.096,0.494,0.19c0.348,0.271,0.569,0.642,1.085,0.754
	c0.422,0.091,0.635,0.616,0.527,1.091c-0.05,0.217-0.079,0.41-0.064,0.805c0.773-1.035,1.761-1.479,2.794-1.92
	c1.213-0.52,2.251-0.237,3.32,0.307c0.635,0.325,1.218,0.723,1.734,1.227c0.138,0.137,0.308,0.321,0.56,0.183
	c0.221-0.126,0.232-0.331,0.261-0.558c0.071-0.539-0.178-1.058-0.072-1.603c0.069-0.358,0.208-0.542,0.577-0.502
	c1.077,0.108,2.122-0.251,3.239-0.071c1.059,0.168,2.198-0.141,3.299-0.273c1.465-0.177,2.928-0.424,4.396-0.556
	c0.42-0.039,0.803-0.198,0.965-0.453c1.018-1.6,2.656-2.49,3.999-3.718c1.513-1.38,2.909-2.894,4.573-4.103
	c0.191-0.14,0.293-0.345,0.566-0.078c0.76,0.74,1.816,0.911,2.715,1.399c0.217,0.116,0.278,0.291,0.396,0.464
	c0.09,0.126,0.062,0.351,0.36,0.341c0.466-0.016,0.686,0.267,0.711,0.771c0.021,0.445,0.065,1.025-0.326,1.128
	c-0.489,0.126-1.127,0.221-1.562-0.304c-0.304-0.361-0.67-0.68-0.897-1.083c-0.531-0.925-1.37-0.968-2.115-0.068
	c-0.604,0.733-1.255,1.457-2.122,1.846c-0.968,0.434-1.734,1.198-2.6,1.758c-0.928,0.605-1.948,1.376-2.639,2.381
	c-0.099,0.146-0.123,0.354-0.154,0.54c-0.26,1.637-0.467,3.281-0.783,4.904c-0.217,1.087-0.395,2.215-0.951,3.191
	c-0.473,0.817-1.134,1.494-1.921,2.026c-2.058,1.384-4.271,0.899-6.445,0.467c-0.63-0.125-1.186-0.616-1.782-0.935
	c-1.314-0.694-1.363-2.081-1.753-3.286c-0.348-1.063-0.958-1.959-1.838-2.606c-0.336-0.25-0.662-0.522-0.953-0.801
	c-0.832-0.781-1.94-0.781-2.747,0.006c-0.662,0.653-1.418,1.221-2.147,1.785c-0.538,0.417-0.748,0.928-0.819,1.471
	c-0.173,1.28-0.794,2.312-1.488,3.342c-0.482,0.717-1.285,0.92-1.946,1.248C9.601,37.169,7.642,37,5.783,36.458
	c-1.008-0.293-2.029-0.778-2.794-1.617C2.73,34.562,2.588,34.234,2.42,33.9c-0.899-1.809-0.958-3.787-1.298-5.719" />
	<path fill="#A0A0A0" stroke="#A0A0A0" d="M7.987,35.552c2.016,0.117,3.034-0.808,3.844-2.026c1.166-1.75,1.772-3.627,1.251-5.78
	c-0.102-0.422-0.15-0.583-0.601-0.593c-1.227-0.018-2.435,0.244-3.667,0.199c-0.43-0.016-0.831-0.158-1.301-0.104
	c-1.073,0.127-2.164,0.104-3.249,0.229c-0.912,0.104-1.332,0.572-1.187,1.506c0.143,0.936,0.287,1.881,0.306,2.824
	c0.016,0.848,1.041,2.873,1.828,3.106C6.253,35.223,7.335,35.406,7.987,35.552 M29.364,34.71c0.21,0.271,0.433,0.049,0.633-0.021
	c1.692-0.584,3.205-1.252,4.122-3.094c0.811-1.63,1.115-3.172,0.734-4.9c-0.07-0.327-0.174-0.5-0.625-0.449
	c-0.982,0.107-1.881,0.593-2.924,0.488c-0.896-0.09-1.815-0.164-2.742,0.074c-0.629,0.159-1.353,0.471-1.981-0.111
	c-0.075-0.069-0.308-0.043-0.32,0.123c-0.048,0.57-0.323,1.097-0.247,1.695c0.182,1.401,0.551,2.768,0.932,4.11
	c0.328,1.146,0.916,2.251,2.422,2.08" />
	<path fill="#FFFDFE" d="M3.934,29.797c0.781-0.808,1.845-0.738,2.74-1.133c0.223-0.1,0.56-0.09,0.787,0.01
	c0.623,0.27,1.273,0.195,1.848,0.036c0.689-0.19,1.106,0.222,1.624,0.44c0.242,0.104,0.01,0.271,0.014,0.401
	c0.008,0.3-0.245,0.222-0.412,0.224c-1.057,0.017-2.114-0.006-3.169,0.039c-0.791,0.033-1.576,0.151-2.364,0.226
	c-0.363,0.034-0.693-0.095-1.067-0.241 M6.07,32.204c-0.366,0.015-0.394-0.239-0.415-0.533c-0.024-0.377,0.36-0.685,0.469-0.604
	c0.494,0.349,1.403-0.184,1.591,0.771c0.004,0.02,0.16-0.074,0.164,0.064c0.004,0.14-0.125,0.125-0.21,0.174
	C7.155,32.376,6.585,31.809,6.07,32.204 M27.887,28.552c0.494-0.601,1.12-0.725,1.838-0.762c0.883-0.046,1.791,0.11,2.643-0.229
	c0.457-0.181,0.609,0.008,0.697,0.422c0.109,0.521-0.229,0.463-0.549,0.492c-1.011,0.104-2.021,0.196-3.029,0.332
	C28.934,28.884,28.427,28.787,27.887,28.552 M31.861,30.865c-0.062,0.373-0.402,0.602-0.682,0.814
	c-0.541,0.412-1.533,0.455-1.979-0.095c-0.252-0.312-0.143-0.63,0.029-0.759c0.699-0.528,1.514-0.57,2.344-0.364
	C31.734,30.502,31.846,30.633,31.861,30.865" />
</svg>