<svg xmlns="http://www.w3.org/2000/svg" width="800" height="161" viewBox="0 0 800 161"><g fill="#273246"><path d="M53.978 109.6l-16.28.48c-.11-4.138-.192-8.24-.246-12.313-.055-4.07-.137-8.175-.245-12.312l-15.38.858c-.056.636-.082 1.258-.082 1.86v1.767c0 3.562.123 7.108.368 10.64.245 3.532.503 7.05.777 10.547-1.092.063-2.197.11-3.313.144-1.118.033-2.223.05-3.313.05-2.127 0-4.268-.05-6.422-.144-2.155-.096-4.294-.144-6.422-.144.108-5.916.246-11.77.41-17.56.163-5.79.298-11.645.41-17.563.107-5.79.175-11.515.202-17.18.027-5.663.068-11.357.123-17.083h13.662c.436 4.772.736 9.53.9 14.27s.41 9.494.736 14.268c2.618-.064 5.208-.096 7.77-.096s5.182-.03 7.855-.096l.818-30.923c.763-.062 1.513-.095 2.25-.095h2.25c2.18 0 4.322.064 6.422.19 2.1.13 4.213.416 6.34.86.272 11.644.38 23.24.327 34.787-.054 11.547-.027 23.144.083 34.788zM76.638 46.036c0 1.274-.232 2.467-.695 3.58-.464 1.114-1.092 2.084-1.88 2.91-.793.83-1.68 1.48-2.66 1.958-.982.477-1.964.715-2.946.715-1.09 0-2.114-.288-3.068-.86-.956-.573-1.788-1.304-2.496-2.195-.71-.89-1.255-1.923-1.636-3.102-.383-1.177-.573-2.37-.573-3.58 0-1.208.204-2.337.613-3.388.41-1.05.954-1.957 1.636-2.72.68-.762 1.473-1.366 2.373-1.812.9-.445 1.868-.67 2.904-.67 1.036 0 2.06.24 3.068.718s1.91 1.146 2.7 2.004c.79.86 1.432 1.847 1.923 2.96.493 1.113.738 2.274.738 3.482zm3.355 16.225c-.274 3.376-.49 6.714-.655 10.022l-.49 9.927c-.22 3.88-.587 7.73-1.104 11.547-.52 3.817-1.105 7.636-1.76 11.453l-12.517 1.526c0-2.035.013-4.038.04-6.014.028-1.972.042-3.976.042-6.012 0-5.217-.083-10.436-.247-15.653l-.49-15.65c2.89-.128 5.74-.32 8.55-.575 2.807-.25 5.684-.442 8.63-.57zM141.266 57.3L120.24 75.05c.165.763.492 1.99.982 3.675.49 1.687 1.035 3.435 1.637 5.25.598 1.812 1.238 3.5 1.92 5.06.683 1.56 1.323 2.56 1.923 3.006.38.32.872.572 1.472.766.6.188 1.213.35 1.84.478.627.127 1.255.206 1.882.237.626.033 1.158.05 1.596.05.762 0 1.554-.032 2.373-.096.817-.063 1.608-.158 2.372-.287-.11.828-.192 1.67-.245 2.528-.055.86-.082 1.734-.082 2.625 0 1.527.028 3.056.083 4.58.053 1.528.08 3.022.08 4.485-.38.066-1.05.146-2.003.24-.955.095-2.045.19-3.272.285-1.228.096-2.523.21-3.886.336-1.364.127-2.63.236-3.803.332-1.175.096-2.184.144-3.028.144-.846 0-1.378-.062-1.596-.19-.928-.507-1.828-1.05-2.7-1.62-.873-.573-1.61-1.368-2.208-2.388-.273-.445-.724-1.652-1.35-3.627-.628-1.973-1.282-4.135-1.963-6.49-.683-2.353-1.308-4.55-1.88-6.586-.574-2.032-.942-3.34-1.106-3.912l-7.854 5.92v16.605l-16.198 1.622c.326-8.907.68-17.768 1.063-26.58.382-8.813.573-17.705.573-26.676 0-2.736-.014-5.44-.04-8.113-.03-2.672-.07-5.408-.124-8.208 2.235.508 4.457.827 6.666.953 2.21.128 4.43.32 6.667.573V75.72c4.253-3.054 8.412-6.17 12.476-9.353 4.06-3.18 8.002-6.68 11.82-10.5 2.89.382 5.713.668 8.468.86 2.754.19 5.577.38 8.468.572zM198.123 74.48c-7.146.444-14.263.81-21.353 1.096-7.09.286-14.208.59-21.352.907-.055.256-.082.51-.082.764v.764c0 2.164.42 3.82 1.268 4.965.845 1.146 1.895 1.955 3.15 2.434 1.254.477 2.645.745 4.172.81 1.526.064 2.945.096 4.254.096 3.653 0 7.308-.143 10.962-.43 3.653-.285 7.334-.587 11.043-.906l.655 15.176c-3.6.19-7.187.35-10.758.478-3.573.128-7.158.19-10.758.19-.764 0-2.167-.016-4.213-.05-2.044-.03-4.226-.124-6.543-.284-2.32-.158-4.486-.364-6.504-.62-2.018-.255-3.354-.604-4.008-1.05-1.69-1.146-3.014-2.608-3.967-4.392-.956-1.78-1.692-3.722-2.21-5.82-.518-2.102-.872-4.247-1.063-6.443-.19-2.194-.314-4.31-.367-6.347-.055-.316-.07-.652-.042-1.002.027-.35.042-.683.042-1 0-3.373.313-6.506.94-9.403.626-2.894 1.786-5.71 3.477-8.445 1.146-1.91 2.835-3.5 5.072-4.773 2.236-1.27 4.664-2.273 7.28-3.005 2.62-.73 5.237-1.24 7.855-1.527 2.617-.287 4.88-.43 6.79-.43 1.69 0 3.763.176 6.217.526 2.453.35 4.894.938 7.32 1.764 2.427.828 4.624 1.894 6.587 3.198 1.964 1.303 3.3 2.91 4.008 4.818.108.382.23 1.036.37 1.958.135.922.285 1.972.45 3.148.163 1.18.312 2.434.45 3.77.134 1.337.257 2.61.367 3.818.108 1.21.204 2.29.286 3.246.082.947.15 1.616.205 2zm-11.126-6.97c-.328-2.8-.94-5.01-1.84-6.632-.9-1.623-2.02-2.83-3.354-3.626-1.338-.795-2.864-1.305-4.582-1.528-1.717-.223-3.558-.333-5.52-.333-.655 0-1.473.016-2.455.05-.982.03-1.964.126-2.946.284-.982.16-1.91.398-2.782.716-.873.32-1.555.764-2.045 1.336-.382.382-.695.906-.94 1.575-.246.668-.45 1.385-.614 2.148-.165.763-.288 1.512-.37 2.243-.082.733-.122 1.355-.122 1.862 0 1.02.082 2.005.246 2.96l27.323-1.05zM293.833 44.796c-1.582 8.97-3.096 17.912-4.54 26.82-1.446 8.907-2.986 17.846-4.624 26.82l-17.017.188-6.217-25.77-14.235 25.77-18.57 1.622c-.438-4.39-.9-8.812-1.39-13.267-.49-4.454-1.038-8.876-1.637-13.268-.6-4.582-1.2-9.114-1.8-13.6-.6-4.487-1.2-8.987-1.8-13.505l16.854-.574 5.4 29.873c1.09-2.862 2.208-5.693 3.354-8.493 1.146-2.8 2.29-5.632 3.437-8.495 1.2-3.18 2.508-6.203 3.927-9.066l9.245.19c1.58 4.646 3.12 9.274 4.62 13.887 1.5 4.613 3.123 9.178 4.87 13.695.98-3.055 1.84-5.9 2.576-8.542.736-2.64 1.404-5.25 2.004-7.826.6-2.577 1.172-5.217 1.72-7.92.543-2.705 1.09-5.647 1.635-8.83l12.188.29zM312.73 46.036c0 1.274-.232 2.467-.695 3.58-.464 1.114-1.092 2.084-1.88 2.91-.793.83-1.68 1.48-2.66 1.958-.982.477-1.964.715-2.945.715-1.092 0-2.114-.288-3.068-.86-.955-.573-1.788-1.304-2.495-2.195-.71-.89-1.255-1.923-1.636-3.102-.38-1.177-.572-2.37-.572-3.58 0-1.208.205-2.337.614-3.388.41-1.05.954-1.957 1.636-2.72.68-.762 1.473-1.366 2.373-1.812.9-.445 1.868-.67 2.905-.67 1.035 0 2.057.24 3.067.718 1.008.478 1.908 1.146 2.7 2.004.79.86 1.432 1.847 1.922 2.96.492 1.113.736 2.274.736 3.482zm3.355 16.225c-.273 3.376-.49 6.714-.654 10.022l-.49 9.927c-.218 3.88-.587 7.73-1.103 11.547-.52 3.817-1.104 7.636-1.758 11.453l-12.518 1.526c0-2.035.013-4.038.04-6.014.027-1.972.043-3.976.043-6.012 0-5.217-.082-10.436-.246-15.653l-.49-15.65c2.89-.128 5.738-.32 8.547-.575 2.806-.25 5.683-.442 8.628-.57zM363.042 92.992l-1.39 16.798c-1.747.128-3.492.24-5.236.335-1.747.096-3.49.145-5.236.145-.93 0-2.154-.033-3.682-.096-1.527-.064-3.108-.178-4.745-.336-1.636-.156-3.19-.38-4.664-.667-1.473-.285-2.647-.65-3.52-1.097-1.31-.7-2.386-1.622-3.23-2.77-.846-1.145-1.542-2.4-2.086-3.77-.546-1.366-.98-2.83-1.31-4.39-.326-1.56-.572-3.104-.736-4.63-.163-1.463-.287-3.038-.368-4.725-.082-1.687-.136-3.42-.164-5.202-.027-1.78-.04-3.515-.04-5.2V69.8h-5.072c.217-2.864.34-5.694.367-8.495.028-2.8.15-5.63.37-8.494l4.908.192V38.878c3.11.7 6.204 1.066 9.285 1.1 3.08.03 6.176.174 9.286.427l-.165 14.603 6.87.478c0 .447.014.858.042 1.24.026.383.04.798.04 1.24 0 1.784-.12 3.52-.367 5.204-.245 1.686-.56 3.387-.94 5.105h-5.972c-.11 2.928-.192 5.855-.246 8.78-.055 2.928-.082 5.855-.082 8.78 0 1.4.04 2.658.122 3.772.082 1.113.3 2.052.655 2.813.354.765.94 1.337 1.76 1.72.817.38 1.963.572 3.436.572 2.018 0 4.035-.158 6.054-.48 2.02-.315 4.037-.73 6.055-1.24zM418.427 72.665c0 2.354-.122 4.724-.367 7.11-.244 2.385-.505 4.756-.776 7.11-.438 4.137-.93 8.227-1.474 12.264-.546 4.042-1.092 8.13-1.636 12.265-2.674.062-5.292.19-7.854.383-2.562.19-5.152.41-7.77.668V98.674c0-4.548-.083-9.112-.247-13.694 0-.892-.014-2.035-.042-3.437-.026-1.4-.15-2.544-.367-3.436-.326-1.463-.735-2.465-1.227-3.006-.49-.54-1.445-.81-2.863-.81-.982 0-2.128.126-3.437.38-1.31.255-2.646.573-4.01.955-1.363.38-2.658.81-3.886 1.29-1.228.476-2.25.97-3.066 1.478-.44 5.154-.97 10.276-1.597 15.366-.628 5.09-1.022 10.244-1.187 15.462l-11.535-.67c-.6-11.45-1.173-22.857-1.718-34.215-.546-11.358-1.063-22.762-1.555-34.216l18-1.334c-.112 4.2-.222 8.384-.33 12.55-.11 4.167-.218 8.35-.327 12.55 1.037-1.017 2.21-1.797 3.518-2.34 1.31-.54 2.66-.905 4.05-1.097 1.392-.19 2.794-.287 4.214-.287h4.09c1.965 0 4.187.08 6.668.238 2.48.162 4.854.607 7.118 1.338 2.264.733 4.267 1.894 6.014 3.484 1.744 1.59 2.916 3.817 3.518 6.68.055.13.08.255.08.382.002.128.002.254.002.38zM499.82 111.413c-6.603-.128-13.352-.32-20.25-.572-6.9-.255-13.65-.826-20.245-1.717-.767-.127-1.625-.238-2.577-.334-.955-.1-1.815-.302-2.577-.622-1.583-.697-2.823-1.48-3.722-2.337-.9-.857-1.597-1.846-2.087-2.96-.49-1.11-.846-2.353-1.063-3.722-.22-1.367-.408-2.91-.57-4.63-.49-4.452-.873-8.92-1.147-13.407s-.407-8.985-.407-13.504c0-.826.012-1.83.04-3.006.026-1.178.082-2.402.163-3.674.082-1.272.204-2.482.368-3.627.164-1.147.38-2.1.655-2.865 1.308-3.307 3.228-5.965 5.767-7.97 2.535-2.004 5.33-3.56 8.384-4.676 3.057-1.113 6.206-1.846 9.45-2.197 3.245-.348 6.23-.524 8.958-.524 5.836 0 11.672.667 17.51 2.004l.652 20.424c-5.563-2.036-11.317-3.054-17.26-3.054-1.095 0-2.538.063-4.338.19-1.8.13-3.642.367-5.52.717-1.883.35-3.642.86-5.278 1.528-1.636.667-2.78 1.574-3.437 2.72-.326.572-.613 1.37-.857 2.386-.247 1.02-.438 2.086-.572 3.197-.138 1.115-.233 2.212-.286 3.294-.056 1.083-.08 1.972-.08 2.672 0 1.465.093 3.197.285 5.202.188 2.003.42 4.057.693 6.155.272 2.1.6 4.104.98 6.015.383 1.907.79 3.467 1.23 4.676h14.48l-.738-18.42c3.766.32 7.54.462 11.332.43 3.79-.032 7.567-.048 11.33-.048.38 5.41.6 10.784.655 16.13.05 5.343.08 10.72.08 16.127zM551.52 69.61v2.195l-15.788.86c.163-.827.245-1.782.245-2.864 0-1.59-.19-2.624-.572-3.102-.383-.477-1.23-.715-2.537-.715-1.854 0-3.9.382-6.135 1.146-2.236.76-4.2 1.494-5.892 2.193-.27 2.8-.49 5.6-.652 8.4-.163 2.8-.245 5.6-.245 8.398 0 3.118.013 6.22.04 9.306.027 3.088.067 6.188.124 9.307l-14.07 1.05c-.275-4.07-.546-8.127-.82-12.17-.272-4.038-.518-8.095-.734-12.17-.273-5.404-.628-10.797-1.063-16.174-.437-5.377-.873-10.8-1.31-16.274 3.108.254 6.204.62 9.286 1.096 3.08.478 6.176 1.067 9.284 1.766l-.41 8.017c1.64-1.526 3.204-2.847 4.704-3.96 1.5-1.114 3.027-2.053 4.582-2.816 1.557-.764 3.203-1.32 4.95-1.67 1.745-.35 3.683-.526 5.81-.526 1.417 0 2.89.176 4.418.526 1.524.35 2.834 1.16 3.927 2.433.545.702 1.008 1.75 1.39 3.15.383 1.4.684 2.88.9 4.438.218 1.56.37 3.088.45 4.582.08 1.496.12 2.688.12 3.577zM613.695 66.842c0 5.344-.164 10.658-.49 15.94l-.982 15.843c-6.108.637-12.188 1.178-18.244 1.622-6.054.446-12.137.668-18.242.668-.547 0-1.557-.015-3.028-.048-1.472-.03-3.026-.096-4.662-.19-1.636-.097-3.19-.222-4.662-.382-1.473-.158-2.456-.396-2.944-.716-1.802-1.147-3.058-2.594-3.766-4.344-.71-1.75-1.062-3.736-1.062-5.965 0-.764.027-1.78.08-3.056.056-1.27.166-2.605.33-4.007.162-1.4.38-2.704.652-3.914.272-1.207.6-2.1.982-2.67.49-.765 1.606-1.416 3.354-1.957 1.744-.542 3.83-.97 6.258-1.29 2.427-.318 5.044-.572 7.854-.763 2.808-.19 5.494-.333 8.06-.43 2.56-.094 4.853-.143 6.87-.143h4.337c.165-1.4.246-2.768.246-4.104v-1.002c0-.54-.027-.874-.08-1.002-.165-.38-.684-.7-1.557-.954-.874-.253-1.95-.445-3.232-.572-1.28-.127-2.673-.24-4.173-.335-1.5-.095-2.96-.143-4.376-.143H575.083c-3.438 0-6.873.082-10.31.24-3.436.16-6.87.302-10.308.43.217-2.418.396-4.87.53-7.35.137-2.482.15-4.93.04-7.35 3.98-.826 7.98-1.415 11.985-1.765 4.012-.35 8.062-.524 12.15-.524 1.472 0 3.08.017 4.826.047 1.745.032 3.49.096 5.237.19 1.742.096 3.476.24 5.193.43 1.72.19 3.312.446 4.785.764 1.527.318 3.04.89 4.54 1.716 1.502.828 2.904 1.846 4.214 3.055 1.31 1.21 2.456 2.593 3.438 4.152.98 1.56 1.688 3.23 2.126 5.01.054.192.096.51.123.954.026.446.042.94.042 1.48v1.48c.003.448.003.765.003.956zm-18.244 22.43V77.054c-1.58-.063-3.163-.11-4.742-.143-1.584-.032-3.165-.048-4.747-.048-.325 0-1.24.017-2.74.048-1.5.03-3.107.11-4.825.238-1.718.13-3.285.287-4.704.478-1.416.19-2.235.478-2.452.858-.273.51-.45 1.035-.532 1.575-.08.543-.12 1.098-.12 1.67 0 .446.025 1.052.08 1.813.052.765.15 1.56.285 2.386.136.826.288 1.59.452 2.29.163.7.38 1.21.654 1.527.218.316.584.56 1.104.715.517.16 1.074.287 1.676.383.6.096 1.198.16 1.8.19.6.032 1.063.048 1.392.048 1.31 0 2.712-.064 4.213-.19 1.5-.128 3.026-.27 4.583-.43 1.554-.157 3.066-.35 4.54-.573 1.47-.22 2.834-.428 4.088-.62zM672.76 56.058c-2.017 4.39-4.006 8.637-5.97 12.74s-3.968 8.146-6.014 12.122c-2.045 3.977-4.16 7.938-6.342 11.883-2.18 3.945-4.5 7.954-6.95 12.024l-14.237.67L617.05 55.58l18.162-.572c1.09 5.918 2.14 11.82 3.148 17.704 1.01 5.887 2.06 11.82 3.15 17.802 2.07-5.6 4.075-11.167 6.013-16.703 1.936-5.536 3.693-11.23 5.276-17.083 3.38 0 6.706-.032 9.98-.095 3.274-.065 6.6-.255 9.98-.574zM689.532 46.036c0 1.274-.232 2.467-.695 3.58-.464 1.114-1.092 2.084-1.882 2.91-.792.83-1.677 1.48-2.658 1.958-.982.477-1.964.715-2.945.715-1.093 0-2.114-.288-3.067-.86-.955-.573-1.786-1.304-2.494-2.195-.71-.89-1.255-1.923-1.636-3.102-.384-1.177-.573-2.37-.573-3.58 0-1.208.206-2.337.614-3.388.408-1.05.952-1.957 1.637-2.72.683-.762 1.474-1.366 2.374-1.812.898-.445 1.866-.67 2.903-.67 1.034 0 2.058.24 3.066.718 1.01.478 1.91 1.146 2.7 2.004.79.86 1.433 1.847 1.923 2.96s.736 2.274.736 3.482zm3.353 16.225c-.27 3.376-.488 6.714-.652 10.022l-.49 9.927c-.22 3.88-.587 7.73-1.105 11.547-.52 3.817-1.104 7.636-1.76 11.453l-12.516 1.526c0-2.035.013-4.038.04-6.014.026-1.972.04-3.976.04-6.012 0-5.217-.08-10.436-.244-15.653l-.49-15.65c2.89-.128 5.738-.32 8.55-.575 2.804-.25 5.682-.442 8.627-.57zM738.78 92.992l-1.39 16.798c-1.75.128-3.492.24-5.237.335s-3.49.145-5.235.145c-.928 0-2.155-.033-3.682-.096-1.527-.064-3.11-.178-4.745-.336-1.637-.156-3.19-.38-4.662-.667s-2.646-.65-3.52-1.097c-1.308-.7-2.386-1.622-3.23-2.77-.845-1.145-1.54-2.4-2.085-3.77-.546-1.366-.982-2.83-1.31-4.39-.328-1.56-.572-3.104-.735-4.63-.164-1.463-.288-3.038-.37-4.725s-.136-3.42-.162-5.202c-.028-1.78-.04-3.515-.04-5.2V69.8h-5.073c.217-2.864.34-5.694.368-8.495.03-2.8.15-5.63.368-8.494l4.91.192V38.878c3.106.7 6.202 1.066 9.283 1.1 3.082.03 6.18.174 9.287.427l-.164 14.603 6.872.478c0 .447.014.858.04 1.24.027.383.04.798.04 1.24 0 1.784-.12 3.52-.367 5.204-.243 1.686-.56 3.387-.94 5.105h-5.973c-.107 2.928-.19 5.855-.243 8.78-.058 2.928-.083 5.855-.083 8.78 0 1.4.04 2.658.124 3.772.08 1.113.297 2.052.65 2.813.355.765.942 1.337 1.762 1.72.816.38 1.963.572 3.436.572 2.018 0 4.035-.158 6.054-.48 2.017-.315 4.036-.73 6.054-1.24zM795.23 91.085v3.054s-.027 2.85-.082 4.532c-.056 1.688-.123 3.438-.203 5.25-.083 1.812-.18 3.53-.287 5.153-.11 1.623-.26 3.054-.45 4.295-.192 1.24-.397 2.114-.613 2.625-.928 1.717-1.786 3.037-2.577 3.96-.792.922-1.65 1.574-2.576 1.956-.93.384-1.98.59-3.15.62-1.172.032-2.55.05-4.13.05-5.236 0-10.445-.238-15.626-.716-5.185-.48-10.363-1.035-15.544-1.67v-13.075c.49 0 1.565-.017 3.23-.05 1.662-.03 3.612-.078 5.85-.144 2.234-.062 4.607-.157 7.12-.286 2.506-.127 4.853-.285 7.033-.478 2.182-.19 4.062-.413 5.646-.668 1.58-.253 2.563-.573 2.944-.954.49-.445.887-1.13 1.188-2.052.3-.923.52-1.894.654-2.91.137-1.02.23-2.036.287-3.056.052-1.018.08-1.846.08-2.48v-1.813c0-.574-.028-1.212-.08-1.91-.818 2.163-1.91 3.784-3.273 4.866-1.363 1.084-2.893 1.848-4.58 2.29-1.69.446-3.465.686-5.318.716-1.854.035-3.627.05-5.316.05-3.546 0-6.97-.175-10.27-.525-3.3-.35-6.216-1.257-8.753-2.72-2.535-1.464-4.58-3.675-6.135-6.634-1.555-2.958-2.332-7.046-2.332-12.264 0-5.155.3-10.293.9-15.414.6-5.12 1.36-10.197 2.29-15.223l17.262.19c-.928 4.01-1.746 8.082-2.454 12.217-.71 4.136-1.063 8.303-1.063 12.502 0 2.228.138 4.04.41 5.44.272 1.4.765 2.53 1.474 3.39.708.857 1.69 1.447 2.945 1.764 1.25.32 2.833.477 4.742.477.765 0 1.704-.062 2.824-.188 1.116-.127 2.26-.3 3.434-.526 1.173-.223 2.292-.525 3.354-.907 1.063-.38 1.896-.86 2.496-1.432.217-.19.408-.825.57-1.908.165-1.08.302-2.37.41-3.865.11-1.495.19-3.102.245-4.82.055-1.718.095-3.34.123-4.87.026-1.525.04-2.844.04-3.96v-2.146-6.44c0-2.132-.054-4.28-.163-6.443 2.672.318 5.304.59 7.896.81 2.592.225 5.224.4 7.897.526.217 6.172.45 12.28.695 18.325.245 6.045.503 12.154.776 18.324.108 1.527.163 3.07.163 4.63v4.533z"/></g></svg>