<svg xmlns="http://www.w3.org/2000/svg" xmlns:xlink="http://www.w3.org/1999/xlink" width="300" height="75"
    viewBox="0 0 300 75">
    <path fill-rule="evenodd" clip-rule="evenodd" fill="#8eb48c"
        d="M163.042 29.21c-.51 3.307-1.812 6.07-3.833 8.335-1.338 1.493-2.178 3.333-3.846 4.605-2.234 1.698-3.678 4.088-5.324 6.28-.793 1.054-.466 1.84.793 1.754 1.935-.13 3.87-.48 5.786-.654 2.095-.192 3.67-1.27 5.577-1.878-.696.87-.257 2.497-2.027 2.585-.146.01-.38.022-.312.27.576 2.13-1.977 2.164-2.468 3.412-.57 1.472-2.036 2.186-2.572 3.523-.164.405-.372.65-.64.887-2.906 2.564-6.056 4.874-8.17 8.205-.425.67-1.296 1.076-1.646 1.968-.102.257-.642.588-.462.992.184.415.724.405 1.172.54 2.76.84 5.24-.096 7.8-.866 1.397-.423 2.91.103 4.344-.088 3.138-.415 6.26-.947 9.393-1.436.37.335.3.824.148 1.078-1.092 1.876.034 3.976-.686 5.884-.17.44 1.16 1.253 2.033 1.25 2.497-.013 4.977.374 7.495.113 1.726-.18 2.525-.642 1.713-2.096-.967-1.724.417-3.56-.812-5.165-.39-.508.406-.764.97-.83 1.95-.22 3.903.03 5.8.286 1.862.253 3.723.378 5.585.543 1.408.124 2.812.13 4.203.583 1.54.508 3.146-.053 4.717-.22.28-.027.47-.444.78-.246.777.494 1.502.236 1.77-.438.3-.768-.393-1.546-.95-1.892-.874-.546-1.622-1.15-2.395-1.784-.493-.408-1.226-.792-1.843-1.184-3.377-2.137-5.392-5.447-8.117-8.12-1.372-1.338-2.84-2.612-3.738-4.332-.295-.56-1.002-.507-1.53-1.003.643-.406 1.05-.602 1.875-.315 2.354.82 4.837.646 7.29.477.515-.036 1.18-.132 1.28-.654.118-.605-.165-1.256-.73-1.635-1.53-1.028-2.66-2.434-3.964-3.675-1.603-1.517-3.506-2.848-5.2-4.237-1.822-1.495-3.65-3.464-4.73-5.77-.452-.977-.946-1.936-1.414-2.906-.087-.188-.292-.397-.04-.593.11-.085.277-.103.416-.154.327 1.06 1.487.667 2.188 1.15 1.99 1.355 4.188 2.224 6.744 1.637.516-.12.897-.234 1.007-.77.106-.503-.256-.718-.53-1.085-2.915-3.885-6.928-6.83-9.757-10.797-1.825-2.556-4.133-4.79-5.586-7.597-.743-1.437-1.324-2.954-2.08-4.382-.37-.706-.858-1.42-1.344-2.006-.488-.598-1.656-.72-2.018.53-.346 1.19-.602 2.408-.975 3.588-1.167 3.657-2.846 7.148-4.06 10.756-1.172 3.458-3.723 6.154-4.788 9.59-.168.542-.424 1.04.145 1.33.487.246.995.59 1.72.117 1.81-1.186 3.725-2.226 5.84-3.462" />
    <path fill-rule="evenodd" clip-rule="evenodd" fill="#8eb48c"
        d="M211.972 44.144c.342 2.246 1.187 4.127 2.52 5.667.872 1.017 1.426 2.27 2.516 3.132 1.463 1.155 2.412 2.777 3.492 4.27.52.717.304 1.25-.524 1.192-1.263-.086-2.538-.326-3.79-.444-1.375-.13-2.408-.865-3.654-1.28.455.593.163 1.697 1.327 1.76.096.007.246.016.204.183-.383 1.45 1.293 1.473 1.612 2.323.378 1 1.34 1.48 1.695 2.394.105.275.24.447.416.604 1.903 1.742 3.97 3.312 5.358 5.577.274.455.846.732 1.078 1.34.068.177.42.4.304.672-.124.285-.475.275-.767.37-1.817.57-3.443-.064-5.12-.588-.914-.29-1.902.068-2.844-.06-2.057-.283-4.105-.646-6.16-.975-.247.222-.194.558-.1.73.716 1.275-.02 2.704.45 4.002.11.298-.758.852-1.336.847-1.637-.006-3.258.257-4.914.075-1.124-.12-1.653-.435-1.117-1.42.63-1.177-.28-2.423.53-3.51.255-.35-.267-.523-.635-.567-1.283-.15-2.56.018-3.804.193-1.223.175-2.44.258-3.665.37-.922.083-1.84.085-2.753.398-1.01.34-2.062-.037-3.095-.15-.18-.022-.304-.303-.51-.17-.51.336-.988.162-1.16-.297-.193-.52.257-1.048.622-1.283.57-.372 1.064-.783 1.572-1.216.324-.274.8-.535 1.206-.804 2.217-1.453 3.534-3.7 5.32-5.52.902-.91 1.862-1.773 2.454-2.946.193-.38.655-.343 1-.68-.42-.278-.686-.41-1.228-.217-1.542.56-3.17.442-4.78.324-.34-.025-.77-.09-.84-.445-.076-.41.108-.852.482-1.112 1-.694 1.742-1.653 2.595-2.495 1.052-1.03 2.3-1.938 3.412-2.882 1.193-1.015 2.395-2.36 3.097-3.926.3-.663.624-1.315.93-1.975.06-.127.194-.27.025-.403-.068-.06-.18-.072-.27-.105-.216.722-.975.453-1.437.782-1.308.92-2.746 1.51-4.42 1.11-.336-.08-.59-.158-.66-.523-.068-.34.165-.484.35-.735 1.91-2.642 4.542-4.646 6.395-7.344 1.194-1.737 2.704-3.258 3.66-5.165.487-.975.87-2.007 1.365-2.98.242-.478.563-.964.877-1.362.326-.408 1.093-.487 1.325.36.228.81.397 1.638.643 2.44.764 2.485 1.863 4.86 2.662 7.31.766 2.354 2.44 4.185 3.136 6.522.115.37.28.707-.088.903-.323.168-.657.403-1.13.082-1.188-.805-2.444-1.51-3.83-2.35M144.186 43.144c.34 2.246 1.185 4.127 2.518 5.667.872 1.017 1.426 2.27 2.516 3.132 1.466 1.155 2.412 2.777 3.49 4.27.52.717.305 1.25-.52 1.192-1.266-.086-2.537-.326-3.79-.444-1.377-.13-2.41-.865-3.657-1.28.455.593.167 1.697 1.327 1.76.098.007.246.016.207.183-.384 1.45 1.292 1.473 1.61 2.323.38 1 1.34 1.48 1.696 2.394.104.275.238.447.415.604 1.903 1.742 3.97 3.312 5.356 5.577.28.455.848.732 1.08 1.34.07.177.42.4.304.672-.123.285-.475.275-.766.37-1.817.57-3.443-.064-5.12-.588-.915-.29-1.903.068-2.844-.06-2.058-.283-4.105-.646-6.16-.975-.246.222-.195.558-.098.73.714 1.275-.022 2.704.448 4.002.11.298-.76.852-1.336.847-1.638-.006-3.26.257-4.913.075-1.127-.12-1.655-.435-1.12-1.42.632-1.177-.277-2.423.53-3.51.255-.35-.265-.523-.635-.567-1.28-.15-2.56.018-3.802.193-1.224.175-2.44.258-3.665.37-.924.083-1.84.085-2.754.398-1.008.34-2.062-.037-3.095-.15-.18-.022-.304-.303-.51-.17-.51.336-.99.162-1.16-.297-.194-.52.256-1.048.623-1.283.57-.372 1.063-.783 1.57-1.216.323-.274.8-.535 1.21-.804 2.214-1.453 3.53-3.7 5.317-5.52.902-.91 1.86-1.773 2.455-2.946.192-.38.654-.343 1-.68-.418-.278-.687-.41-1.228-.217-1.543.56-3.17.442-4.783.324-.338-.025-.77-.09-.838-.445-.077-.41.11-.852.48-1.112 1.004-.694 1.744-1.653 2.597-2.495 1.05-1.03 2.3-1.938 3.41-2.882 1.195-1.015 2.394-2.36 3.098-3.926.3-.663.624-1.315.932-1.975.06-.127.194-.27.023-.403-.066-.06-.178-.072-.27-.105-.215.722-.974.453-1.436.782-1.31.92-2.747 1.51-4.42 1.11-.337-.08-.59-.158-.66-.523-.07-.34.163-.484.35-.735 1.907-2.642 4.54-4.646 6.395-7.344 1.196-1.737 2.704-3.258 3.66-5.165.487-.975.87-2.007 1.364-2.98.24-.478.562-.964.877-1.362.323-.408 1.09-.487 1.324.36.23.81.397 1.638.643 2.44.764 2.485 1.863 4.86 2.66 7.31.77 2.354 2.445 4.185 3.14 6.522.113.37.276.707-.09.903-.322.168-.658.403-1.13.082-1.187-.805-2.443-1.51-3.827-2.35M53.46 53.545c2.467 3.26 5.824 5.51 8.64 8.322.548.55 1.253.797 1.77 1.363.415.457 1.05.006 1.436-.152.403-.166.283-.785 0-1.273-1.608-2.742-3.353-5.31-5.733-7.53-1.703-1.585-2.864-3.79-4.09-5.825-.693-1.148-1.285-2.36-2.05-3.55 1.253 1.083 2.892 1.65 3.93 2.856 1.077 1.25 2.77 1.52 3.764 2.814.48.623.946.164 1.367-.252.634-.63.514-1.15-.048-1.78-1.914-2.144-3.78-4.325-5.668-6.487-1.422-1.624-2.668-3.358-3.604-5.63 1.625.356 2.25 1.55 3.184 2.303.614.496 1.36.85 1.986.615.772-.29 1.188-1.178 1.227-2.013.056-1.26-.212-2.325-1.222-3.382-3.67-3.83-7.06-7.898-8.945-12.985-.2-.54-.306-1-.012-1.633 1.795 1.468 3.03 3.338 4.29 5.153.48.696 1.067 1.246 1.6 1.867.367.43.87.556 1.29.222.368-.292.538-.704.692-1.26.57-2.013-.77-2.888-1.742-4.2-2.084-2.805-4.15-5.66-5.107-9.135-.476-1.735-1.675-1.985-2.855-.606-.55.645-1.21 1.223-1.377 2.234-.517 3.102-2.804 5.36-4.15 8.074-.22.443-1.105.68-1.645 1.125-1.214 1.008-.858 2.33-.68 3.465.144.874.95.463 1.398-.008 1.507-1.59 3.354-2.898 4.2-5.046.172-.438.312-.916.848-1.078.374 3.688-2.278 9.37-5.345 11.473-.56.385-1.12.782-1.635 1.226-.307.262-.523.628-.784.947 2.17 1.52-1.737 2.564-.048 4.21 1.29-.835 2.816-1.486 3.982-2.813 1.137-1.292 2.416-2.46 4.045-4.094-.18 2.836-.994 4.936-2.145 6.898-1.354 2.31-3.525 3.956-5.218 6.004-1.262 1.53-1.788 3.486-3.28 4.8-.3.265-.328.567-.04.896.376.426.868.572 1.292.248.99-.758 2.238-.963 3.226-1.824 2.178-1.898 4.545-3.578 7-5.473.538 1.298.47 2.206-.48 3.087-1.992 1.854-3.383 4.17-4.936 6.383-1.21 1.72-2.55 3.387-3.86 5.053-.886 1.12-.845 2.287.06 3.107 1.032.938 2.135.453 3.06-.56 2.443-2.683 5.474-4.76 7.702-7.862 1.267 3.1.93 5.246-1.6 7.316-2.64 2.154-5.04 4.627-7.736 6.74-.472.37-1.045.816-1.598.852-1.723.11-1.842.87-1.242 2.252.584 1.336 1.082 2.574 2.935 1.795.747-.316 1.55-.488 2.317-.762 1.65-.59 3.232-1.103 4.16-2.95.45-.9 1.47-1.922 2.855-1.96 1.175-.032.544-1.478 1.576-1.813-.025 3.467 1.303 6.88.107 10.39-.28.823-.11 1.43 1.058 1.425.894-.008 1.88-.443 2.722.53.29.335.627-.296.64-.85.06-2.718-.355-5.384-.99-8-.294-1.21.183-2.38-.278-3.61 1.604 1.873 3.602 3.127 5.203 4.84 1.22 1.31 2.783 2.352 4.086 3.643.122.123 1.028.643 1.132.076.174-.925 1.388-1.76.196-2.897-2.635-2.512-5.425-4.85-7.72-7.744-1.805-2.27-2.18-4.962-3.11-7.565" />
    <path fill-rule="evenodd" clip-rule="evenodd" fill="#8eb48c"
        d="M117.06 60.925c-1.677 2.213-3.956 3.74-5.87 5.65-.373.375-.85.54-1.2.926-.28.313-.712.005-.978-.103-.27-.11-.193-.533.004-.863 1.09-1.86 2.276-3.607 3.89-5.115 1.157-1.075 1.948-2.573 2.78-3.956.47-.78.87-1.604 1.39-2.408-.85.732-1.964 1.117-2.665 1.938-.733.85-1.88 1.033-2.558 1.91-.326.426-.645.113-.93-.17-.43-.428-.346-.78.034-1.21 1.3-1.454 2.563-2.937 3.85-4.405.964-1.106 1.812-2.282 2.446-3.825-1.104.242-1.527 1.053-2.16 1.566-.418.337-.928.577-1.352.415-.52-.193-.807-.8-.83-1.365-.037-.854.143-1.576.828-2.295 2.492-2.604 4.795-5.363 6.074-8.818.137-.366.207-.68.008-1.107-1.22.994-2.057 2.264-2.912 3.497-.324.476-.725.845-1.084 1.267-.248.293-.59.38-.875.15-.253-.195-.368-.477-.474-.854-.387-1.367.523-1.96 1.184-2.854 1.412-1.904 2.82-3.843 3.467-6.204.322-1.177 1.137-1.347 1.94-.41.376.438.82.83.933 1.518.354 2.105 1.906 3.638 2.82 5.483.148.3.752.46 1.12.764.823.686.58 1.582.456 2.354-.096.595-.645.315-.945-.005-1.024-1.08-2.28-1.97-2.853-3.426-.115-.3-.213-.622-.574-.734-.258 2.503 1.547 6.364 3.63 7.788.38.264.76.535 1.11.834.207.18.355.428.53.643-1.474 1.032 1.183 1.74.032 2.862-.875-.566-1.91-1.01-2.703-1.91-.77-.877-1.64-1.672-2.748-2.78.123 1.927.676 3.35 1.46 4.685.917 1.566 2.394 2.684 3.54 4.076.857 1.037 1.215 2.37 2.23 3.26.202.182.224.385.026.605-.258.293-.59.39-.88.168-.67-.512-1.52-.65-2.19-1.236-1.475-1.29-3.084-2.43-4.748-3.715-.37.88-.322 1.498.322 2.094 1.355 1.26 2.297 2.833 3.354 4.335.822 1.168 1.73 2.3 2.62 3.432.6.762.573 1.553-.042 2.11-.697.636-1.447.31-2.076-.382-1.658-1.82-3.717-3.23-5.23-5.338-.86 2.105-.633 3.562 1.086 4.967 1.79 1.463 3.422 3.143 5.254 4.582.32.25.71.553 1.086.576 1.17.074 1.248.59.842 1.53-.396.905-.736 1.747-1.992 1.218-.508-.215-1.055-.332-1.574-.518-1.12-.4-2.193-.75-2.824-2.004-.307-.61-1.002-1.307-1.94-1.332-.798-.02-.37-1.002-1.07-1.232.02 2.355-.884 4.674-.07 7.057.19.56.075.974-.718.97-.607-.004-1.28-.3-1.854.36-.193.228-.424-.204-.43-.577-.04-1.846.24-3.656.672-5.43.195-.824-.127-1.623.186-2.455-1.086 1.27-2.445 2.12-3.53 3.29-.828.884-1.89 1.593-2.774 2.472-.082.082-.7.43-.77.05-.117-.628-.944-1.194-.133-1.968 1.787-1.71 3.684-3.295 5.244-5.256 1.224-1.545 1.482-3.374 2.11-5.14M26.907 60.295c-1.676 2.213-3.955 3.74-5.867 5.65-.374.375-.853.54-1.202.926-.283.313-.714.005-.976-.103-.273-.11-.193-.533 0-.863 1.092-1.86 2.278-3.607 3.893-5.115 1.157-1.075 1.945-2.573 2.78-3.956.47-.78.87-1.604 1.388-2.408-.85.732-1.962 1.117-2.667 1.938-.732.85-1.88 1.033-2.557 1.91-.328.426-.644.113-.93-.17-.43-.428-.348-.78.034-1.21 1.297-1.454 2.565-2.937 3.85-4.405.964-1.106 1.81-2.282 2.445-3.825-1.104.242-1.53 1.053-2.16 1.566-.42.337-.927.577-1.35.415-.525-.193-.808-.8-.834-1.365-.037-.854.144-1.576.83-2.295 2.492-2.603 4.794-5.363 6.073-8.818.137-.366.208-.68.008-1.107-1.217.994-2.058 2.264-2.91 3.497-.327.476-.727.845-1.088 1.267-.25.294-.59.38-.875.15-.25-.195-.365-.477-.473-.853-.386-1.366.524-1.96 1.184-2.853 1.414-1.904 2.82-3.843 3.468-6.204.323-1.177 1.138-1.347 1.94-.41.375.438.82.83.934 1.518.35 2.106 1.903 3.64 2.818 5.484.15.3.75.46 1.116.764.827.686.584 1.582.46 2.354-.095.594-.644.314-.945-.006-1.024-1.08-2.28-1.97-2.854-3.426-.116-.3-.214-.62-.575-.733-.255 2.503 1.548 6.364 3.63 7.788.38.264.76.535 1.11.834.208.18.355.427.53.642-1.474 1.03 1.18 1.74.034 2.86-.875-.565-1.913-1.01-2.705-1.91-.77-.876-1.64-1.67-2.748-2.78.122 1.928.675 3.352 1.456 4.686.92 1.566 2.396 2.684 3.543 4.076.855 1.037 1.215 2.37 2.228 3.26.202.182.222.385.028.605-.258.292-.592.388-.88.167-.67-.512-1.52-.65-2.19-1.236-1.477-1.288-3.085-2.43-4.75-3.714-.37.88-.32 1.498.322 2.094 1.357 1.26 2.298 2.834 3.354 4.336.822 1.168 1.73 2.3 2.62 3.432.6.762.573 1.553-.042 2.11-.7.636-1.447.31-2.076-.382-1.66-1.82-3.717-3.23-5.23-5.338-.86 2.105-.633 3.562 1.085 4.967 1.79 1.463 3.42 3.143 5.253 4.582.32.25.71.553 1.086.576 1.17.074 1.25.59.84 1.53-.395.905-.733 1.747-1.99 1.218-.507-.214-1.053-.33-1.574-.517-1.122-.4-2.195-.75-2.824-2.004-.306-.61-1-1.308-1.94-1.333-.796-.02-.37-1.002-1.07-1.232.017 2.355-.884 4.674-.072 7.057.19.56.074.973-.72.97-.605-.005-1.277-.302-1.85.358-.195.23-.425-.203-.432-.576-.042-1.846.24-3.656.67-5.43.2-.824-.123-1.623.19-2.455-1.087 1.27-2.445 2.12-3.533 3.288-.83.885-1.89 1.594-2.773 2.473-.084.083-.7.43-.77.052-.118-.63-.943-1.195-.133-1.97 1.788-1.708 3.682-3.294 5.243-5.255 1.228-1.546 1.485-3.375 2.114-5.142" />
    <path fill-rule="evenodd" clip-rule="evenodd" fill="#8eb48c"
        d="M95.1 26.092c.526 3.52 1.86 6.468 3.94 8.877 1.372 1.59 2.234 3.553 3.948 4.905 2.292 1.81 3.772 4.354 5.47 6.69.81 1.12.476 1.963-.818 1.868-1.986-.136-3.976-.512-5.94-.696-2.155-.205-3.773-1.353-5.732-1.998.717.924.263 2.66 2.083 2.75.148.01.392.024.32.29-.593 2.264 2.032 2.305 2.534 3.633.592 1.57 2.095 2.33 2.645 3.752.17.432.38.696.656.948 2.98 2.73 6.222 5.192 8.392 8.74.438.71 1.33 1.145 1.694 2.095.104.274.658.625.473 1.056-.195.44-.742.432-1.202.577-2.842.893-5.388-.1-8.014-.922-1.44-.45-2.993.11-4.465-.095-3.223-.44-6.427-1.01-9.65-1.53-.38.358-.305.878-.15 1.15 1.124 1.998-.035 4.233.707 6.267.17.47-1.192 1.334-2.095 1.334-2.565-.017-5.11.395-7.7.12-1.765-.196-2.593-.686-1.756-2.233.988-1.834-.43-3.793.837-5.503.4-.54-.415-.812-1-.882-2-.235-4.01.03-5.954.305-1.913.272-3.823.4-5.737.577-1.448.136-2.887.14-4.32.62-1.578.543-3.23-.053-4.846-.23-.284-.03-.476-.477-.796-.265-.804.526-1.55.254-1.82-.466-.306-.816.404-1.645.978-2.014.895-.582 1.665-1.224 2.46-1.9.505-.436 1.254-.842 1.893-1.264 3.47-2.273 5.534-5.802 8.337-8.65 1.407-1.42 2.915-2.78 3.84-4.614.303-.596 1.03-.535 1.57-1.066-.66-.432-1.075-.64-1.923-.337-2.42.873-4.973.69-7.492.51-.526-.038-1.208-.142-1.313-.698-.12-.64.17-1.338.75-1.74 1.573-1.096 2.732-2.593 4.07-3.916 1.647-1.615 3.604-3.03 5.342-4.514 1.872-1.592 3.753-3.69 4.86-6.145.462-1.04.974-2.063 1.454-3.097.09-.2.296-.42.04-.632-.114-.09-.284-.11-.43-.163-.337 1.13-1.523.708-2.248 1.225-2.047 1.443-4.3 2.37-6.925 1.744-.53-.13-.92-.25-1.036-.82-.108-.535.263-.763.548-1.154 2.997-4.14 7.117-7.28 10.023-11.503 1.872-2.724 4.242-5.104 5.734-8.093.766-1.53 1.36-3.148 2.14-4.668.384-.752.883-1.512 1.38-2.137.503-.638 1.7-.766 2.07.562.356 1.27.62 2.566 1.004 3.824 1.196 3.895 2.92 7.613 4.17 11.457 1.203 3.686 3.83 6.557 4.917 10.215.173.578.436 1.11-.146 1.416-.502.266-1.028.63-1.77.125-1.863-1.262-3.83-2.372-6-3.688M15.818 54.81c.175 1.494.613 2.745 1.302 3.77.45.675.737 1.508 1.3 2.082.758.77 1.248 1.848 1.805 2.842.27.476.158.83-.27.792-.653-.057-1.31-.217-1.96-.296-.71-.085-1.245-.575-1.89-.852.235.395.087 1.13.687 1.17.05.006.127.012.107.122-.2.966.667.98.832 1.546.196.664.693.985.876 1.592.054.184.124.298.215.402.984 1.16 2.053 2.203 2.77 3.71.145.302.438.486.558.89.037.118.22.268.16.447-.065.19-.246.184-.397.246-.94.38-1.78-.043-2.646-.39-.474-.194-.985.044-1.47-.04-1.065-.19-2.124-.43-3.186-.65-.127.15-.1.373-.05.487.37.85-.012 1.8.23 2.662.058.198-.39.566-.69.563-.847-.003-1.685.172-2.54.05-.582-.08-.856-.288-.58-.944.328-.78-.143-1.61.276-2.333.13-.232-.138-.348-.33-.377-.66-.1-1.323.012-1.965.13-.63.114-1.26.17-1.894.243-.478.057-.95.058-1.424.266-.52.226-1.066-.025-1.6-.102-.093-.014-.157-.2-.263-.112-.265.224-.512.108-.6-.197-.1-.35.13-.698.32-.855.295-.247.55-.52.813-.81.167-.182.414-.355.625-.534 1.146-.966 1.826-2.46 2.75-3.67.467-.606.962-1.18 1.27-1.96.1-.253.338-.23.517-.45-.217-.188-.355-.275-.636-.147-.798.372-1.64.295-2.474.216-.175-.018-.397-.062-.433-.297-.04-.273.056-.566.25-.74.518-.462.9-1.1 1.34-1.66.544-.684 1.19-1.29 1.765-1.916.617-.675 1.237-1.57 1.6-2.61.156-.442.323-.876.482-1.314.03-.085.1-.18.012-.27-.034-.038-.092-.046-.14-.067-.11.48-.503.3-.742.52-.676.613-1.42 1.005-2.285.738-.174-.052-.306-.104-.342-.348-.036-.227.084-.322.18-.49.988-1.755 2.35-3.088 3.31-4.884.617-1.154 1.397-2.167 1.89-3.435.253-.65.452-1.336.707-1.982.125-.318.292-.642.454-.906.167-.272.563-.325.685.237.117.54.204 1.09.33 1.623.396 1.653.964 3.233 1.377 4.865.397 1.563 1.264 2.782 1.623 4.337.06.247.143.47-.046.6-.167.113-.34.27-.583.056-.616-.54-1.265-1.008-1.982-1.568M244.3 62.135c1.514 1.998 3.572 3.378 5.298 5.102.336.338.77.49 1.085.836.255.28.645.004.88-.094.248-.103.174-.48 0-.78-.985-1.683-2.055-3.257-3.515-4.617-1.044-.972-1.756-2.324-2.508-3.57-.425-.705-.787-1.45-1.256-2.177.768.663 1.772 1.01 2.41 1.75.66.767 1.697.933 2.307 1.726.296.382.58.1.84-.154.388-.386.313-.705-.03-1.092-1.174-1.313-2.317-2.65-3.476-3.977-.87-.997-1.635-2.06-2.21-3.453.997.218 1.38.95 1.953 1.41.376.306.834.522 1.218.38.474-.18.728-.724.752-1.235.033-.77-.13-1.426-.75-2.073-2.25-2.35-4.327-4.844-5.483-7.962-.123-.33-.188-.612-.008-1 1.1.898 1.858 2.046 2.63 3.158.294.427.654.764.98 1.145.226.264.533.342.79.137.227-.18.33-.432.426-.772.35-1.234-.473-1.77-1.068-2.574-1.277-1.72-2.545-3.47-3.132-5.6-.29-1.064-1.026-1.218-1.75-.372-.338.395-.742.75-.845 1.37-.317 1.9-1.72 3.285-2.544 4.95-.136.27-.68.415-1.01.688-.743.62-.525 1.43-.415 2.126.087.535.582.283.856-.006.924-.974 2.057-1.776 2.575-3.093.104-.27.19-.562.52-.662.228 2.263-1.398 5.746-3.278 7.035-.344.235-.687.48-1.002.75-.188.16-.32.386-.48.582 1.33.932-1.065 1.572-.03 2.58.79-.512 1.727-.91 2.44-1.725.698-.79 1.482-1.507 2.48-2.51-.108 1.74-.608 3.026-1.314 4.23-.83 1.416-2.16 2.424-3.198 3.68-.773.938-1.097 2.138-2.01 2.943-.185.162-.202.348-.026.55.23.26.532.35.792.15.607-.464 1.373-.59 1.978-1.118 1.336-1.164 2.787-2.193 4.29-3.354.332.796.29 1.353-.292 1.893-1.222 1.137-2.074 2.557-3.026 3.913-.742 1.054-1.562 2.075-2.367 3.097-.542.688-.517 1.402.038 1.905.632.575 1.31.278 1.876-.344 1.498-1.644 3.355-2.917 4.723-4.82.776 1.9.57 3.217-.98 4.486-1.618 1.32-3.09 2.837-4.744 4.133-.29.228-.642.5-.98.52-1.056.07-1.13.535-.76 1.382.356.818.662 1.577 1.798 1.1.458-.194.95-.3 1.42-.467 1.014-.362 1.982-.677 2.55-1.81.277-.552.903-1.18 1.752-1.202.72-.02.334-.904.967-1.11-.016 2.125.798 4.217.065 6.37-.172.504-.068.877.648.873.548-.005 1.153-.27 1.67.324.176.206.383-.18.39-.52.038-1.667-.216-3.3-.605-4.904-.18-.742.11-1.46-.17-2.214.982 1.146 2.207 1.916 3.188 2.966.747.803 1.707 1.44 2.505 2.233.075.074.63.393.693.046.108-.568.853-1.08.122-1.777-1.615-1.54-3.326-2.975-4.733-4.75-1.11-1.39-1.34-3.04-1.91-4.635" />
    <path fill-rule="evenodd" clip-rule="evenodd" fill="#8eb48c"
        d="M226.02 65.758c-1.026 1.356-2.423 2.293-3.596 3.464-.23.23-.522.332-.737.568-.174.19-.438.002-.598-.063-.17-.067-.12-.327 0-.53.67-1.14 1.395-2.21 2.386-3.136.71-.657 1.192-1.575 1.703-2.424.288-.478.534-.982.85-1.476-.52.448-1.202.685-1.634 1.188-.45.52-1.152.634-1.567 1.17-.2.262-.395.07-.57-.103-.264-.262-.213-.48.02-.742.796-.89 1.573-1.8 2.36-2.7.592-.678 1.11-1.398 1.5-2.345-.676.148-.938.646-1.324.96-.257.207-.568.355-.828.255-.32-.12-.494-.49-.51-.837-.023-.523.088-.967.508-1.407 1.527-1.597 2.94-3.29 3.724-5.407.084-.225.128-.417.005-.68-.746.61-1.262 1.39-1.784 2.145-.2.292-.443.518-.666.776-.152.18-.36.232-.535.093-.155-.12-.226-.293-.292-.523-.236-.84.322-1.202.727-1.75.867-1.167 1.73-2.355 2.126-3.803.2-.72.7-.825 1.19-.25.23.268.503.508.573.93.215 1.29 1.167 2.23 1.728 3.36.093.185.46.283.686.47.507.42.358.97.282 1.442-.06.364-.395.193-.58-.004-.628-.66-1.397-1.207-1.75-2.1-.07-.184-.13-.38-.352-.45-.156 1.535.95 3.902 2.225 4.775.234.16.468.328.683.51.127.112.218.264.325.396-.904.63.724 1.065.02 1.753-.535-.348-1.172-.62-1.657-1.17-.472-.54-1.004-1.025-1.684-1.706.075 1.182.415 2.055.894 2.872.564.96 1.47 1.645 2.172 2.498.525.636.746 1.453 1.366 2 .124.11.136.234.018.37-.158.18-.362.238-.54.103-.41-.312-.93-.397-1.342-.757-.906-.79-1.892-1.49-2.913-2.277-.226.54-.195.918.2 1.283.83.77 1.407 1.737 2.055 2.657.504.717 1.062 1.41 1.607 2.104.366.468.35.953-.026 1.294-.43.39-.888.19-1.273-.233-1.017-1.115-2.278-1.978-3.206-3.27-.526 1.29-.39 2.183.665 3.044 1.1.896 2.1 1.927 3.222 2.81.196.152.436.34.665.353.717.046.766.362.516.938-.242.556-.45 1.072-1.222.747-.31-.13-.645-.203-.964-.316-.688-.246-1.346-.46-1.73-1.23-.19-.372-.614-.8-1.19-.815-.488-.012-.227-.613-.657-.754.01 1.443-.54 2.865-.043 4.326.116.342.045.596-.44.594-.373-.003-.784-.185-1.135.22-.12.14-.26-.124-.265-.353-.025-1.132.146-2.242.41-3.33.123-.504-.076-.994.116-1.504-.666.777-1.5 1.3-2.165 2.016-.508.542-1.157.977-1.7 1.516-.05.05-.428.264-.472.03-.07-.385-.578-.732-.08-1.206 1.095-1.048 2.257-2.02 3.214-3.223.747-.95.905-2.07 1.29-3.155" />
</svg>