<svg xmlns="http://www.w3.org/2000/svg" width="345" height="398" viewBox="0 0 345 398"><path fill="#273246" stroke="#273246" stroke-width="2" d="M223.762 159.046c-15.627.077-30.693 3.584-46.035 4.986-6.406.584-13.006.728-19.417.185-8.527-.725-16.785-2.648-25.31-3.51-7.62-.77-15.332-1.57-22.99-1.605-13.395-.056-26.354 2.954-39.483 4.583 0 2.755-.78 6.297 1.185 8.232 2.02 2 5.437 3.83 6.322 6.543 2.106 6.425 5.09 12.724 8.904 18.762 1.855 2.937 5.35 4.98 9.257 6.39 9.408 3.392 20.543 3.892 30.866 2.823 14.696-1.52 22.67-9.438 28.758-18.485 2.277-3.678 2.528-7.922 5.528-11.285 1.782-1.995 5.916-1.155 8.87-1.166 2.956-.004 5.464 3.522 6.376 5.874 3.252 8.315 8.663 17.138 19.422 21.495 16.066 6.51 41.38 5.29 51.805-6.446 4.073-4.588 5.198-10.167 7.25-15.364 1.245-3.167 2.358-6.937 6.795-8.68 1.78-.7.524-3.504.786-5.136.294-1.776.846-3.343-2.665-3.693-6.146-.608-12.092-2.458-18.367-3.082-5.953-.595-11.782-1.45-17.856-1.422zm-103.343 2.952c4.44-.016 8.856.214 13.172.87 25.695 3.902 26.216 11.505 15.636 27.222-8.62 12.81-26.476 16.018-44.466 12.947-8.296-1.416-13.967-5.572-16.644-11.266-2.82-6.01-4.96-12.394-4.474-18.708.653-8.462 13.968-9.645 23.51-10.415 4.374-.355 8.827-.627 13.265-.65zm93.83 0c4.436.02 8.895.294 13.272.65 9.535.77 22.857 1.957 23.504 10.416.483 6.313-1.646 12.7-4.48 18.708-2.67 5.692-8.34 9.85-16.63 11.266-18.003 3.07-35.855-.14-44.475-12.947-10.577-15.714-10.06-23.315 15.637-27.217 4.314-.66 8.735-.89 13.174-.875z"/><path fill="#C6C6C6" stroke="#D3D3D3" d="M143.498 2.218c-12.736 3.12-26.793-4.42-39.13 2.705-26.545 12.492-24.16 38.814-28.784 58.795-9.29 3.988-2.243 12.873-9.375 18.305 3.76 10.352-11.956 9.7-22.546 11.286-19.275 3.274-26.494.42-43.127 9.216 2.74 22.952 24.992 30.988 51.394 36.53 71.288 12.545 150.048 15.298 224.242 5.18 22.736-3.57 56.16-10.588 55.07-30.987-5.208-19.615-39.83-24.484-63.496-20.753-12.062-20.11-7.918-42.84-18.3-63.318C230.727.923 181.857-2.397 143.5 2.217z"/><path fill="#C6C6C6" d="M266.348 194.104s-10.6 47.733-16.205 55.507c-7.86 10.913-30.95 20.075-33.492 17.862-14.204-12.358-28.643-27.937-45.26-14.277-3.905 3.21-10.733 0-10.733 0-21.47-17.867-55.87 15.654-55.87 15.654-10.728-4.12-25.58-21.136-32.19-28.855-6.612-7.73-11.368-44.88-11.368-44.88S47.236 306.403 76.5 335.264c29.267 28.854 75.234 50.938 107.43 41.32 96.468-9.902 90.232-165.994 82.412-182.482l.006.004zM186.02 300.38c-15.267-5.935-21.46-6.42-31.22-1.835-9.756 4.584-26.665 5.495-32.52-23.818 0 0 40.976-23.36 87.803 0 .003-.002-5.188 32.975-24.062 25.652z"/><path fill="#C6C6C6" d="M266.348 194.104s-10.6 47.733-16.205 55.507c-7.86 10.913-30.95 20.075-33.492 17.862-14.204-12.358-28.643-27.937-45.26-14.277-3.905 3.21-10.733 0-10.733 0-21.47-17.867-55.87 15.654-55.87 15.654-10.728-4.12-25.58-21.136-32.19-28.855-6.612-7.73-11.368-44.88-11.368-44.88S47.236 306.403 76.5 335.264c29.267 28.854 75.234 50.938 107.43 41.32 96.468-9.902 90.232-165.994 82.412-182.482l.006.004zM186.02 300.38c-15.267-5.935-21.46-6.42-31.22-1.835-9.756 4.584-26.665 5.495-32.52-23.818 0 0 40.976-23.36 87.803 0 .003-.002-5.188 32.975-24.062 25.652z"/><path fill="#C6C6C6" d="M264.855 200.592c-2.936 9.67-5.736 18.504-8.604 26.93-3.05 7.93-5.477 17.646-10.11 21.732-5.278 4.803-12.065 8.364-19.32 11.232-1.82.707-3.693 1.324-5.56 1.822-1.664.476-4.304.68-3.15.38-3.523-3.145-7.24-6.64-11.498-10.054-4.545-3.28-11.926-10.19-23.648-9.8-2.833.355-5.86 1.04-8.65 2.68-3.04 1.49-5.62 4.134-6.503 3.876-1.448.354-5.08-.445-6.038-1.317-3.048-2.313-6.53-3.888-10.112-4.642-14.646-2.716-28.78 5.18-41.405 14.626-1.586 1.227-3.16 2.502-4.716 3.84l-2.33 2.068-.593.553-.152.148c1.56-.346-3.63.885 3.48-.746l-.068-.026-.267-.127-1.083-.482c-2.924-1.39-5.92-3.63-8.812-6.033-5.806-4.884-11.34-10.72-16.647-16.723-1.285-1.47-2.746-3.105-3.854-4.49-.616-.806-1.456-2.48-2.107-4.27-1.36-3.61-2.438-7.755-3.392-11.853-1.885-8.257-3.282-16.684-4.406-24.7l-.1-.743-.024-.176c-15.774 0-4.38.06-7.903.086l-.014.108-.047.407-.185 1.575-.337 3.107-.59 6.092c-.372 4.01-.67 7.925-.936 11.73-.53 7.602-.865 14.762-1.055 21.353-.807 26.377 1.064 43.562 1.054 43.546.63-.214-.403 17.655 9.595 42.885 2.533 6.02 7.223 12.717 12.22 16.875 4.833 4.646 10.25 8.985 15.986 13.305 11.57 8.367 24.698 16.097 38.877 21.387 14.112 5.354 29.37 8.604 44.417 6.602 13.79-2.63 28.957-4.594 40.978-12.148 24.854-14.6 37.053-40.51 41.728-52.48 9.018-23.006 11.805-43.045 13.057-61.617.844-18.608.535-36.596-3.93-56.646 1.945 20.582.235 37.918-1.87 55.746-2.5 17.73-5.897 36.498-14.316 57.816-4.406 11.194-15.548 34.66-37.972 47.81-11.213 6.91-24.112 8.562-38.522 11.293-13.487 1.822-27.896-1.113-41.294-6.23-13.492-5.02-26.114-12.442-37.18-20.43-10.88-8.605-21.26-16.112-25.273-26.41-8.62-21.478-8.124-39.362-8.587-38.925.017.024-1.777-16.277-.988-41.984.185-6.418.52-13.405 1.033-20.834.262-3.713.557-7.535.918-11.443l.578-5.925.326-2.99.172-1.495.046-.36.006-.09c-3.513-.007 7.882-.108-7.875-.038l.03.21.104.796c1.18 8.403 2.587 17 4.608 25.848 1.034 4.43 2.158 8.884 3.882 13.48.89 2.29 1.838 4.645 3.734 7.13 1.454 1.81 2.707 3.19 4.112 4.798 5.486 6.195 11.213 12.277 17.567 17.638 3.21 2.64 6.513 5.185 10.377 7.043l1.478.662.368.157.094.04c7.153-1.673 2.012-.486 3.622-.878l.108-.104.51-.47 2.112-1.883 4.383-3.562c11.707-8.954 24.934-15.563 35.962-13.3 2.706.568 5.193 1.71 7.37 3.357 4.364 2.75 6.932 2.912 11.098 2.647 4.917-1.13 6.558-3.96 8.56-4.585 2.05-1.235 4.135-1.625 6.11-1.92 8.065-.427 14.728 5.024 18.937 8.23 3.938 3.143 7.643 6.505 11.305 9.64 4.754 3.56 6.92.94 9.152.908 2.195-.686 4.245-1.473 6.212-2.37 7.84-3.644 14.752-7.863 20.762-14.453 6.52-8.035 7.1-17.326 9.578-26.054 1.953-8.96 3.697-18.25 5.413-28.394z"/><path fill="#C6C6C6" d="M186.02 300.38c-8.128-5.964-14.632-11.958-27.48-8.628-3.67.938-8.737 4.575-14.995 3.998-6.347-.045-12.415-5.66-15.3-14.643-.78-2.157-1.36-4.448-1.87-6.744l-.2-.844-.016-.06c2.013-5.34-2.748 7.243-2.25 5.947l.017-.01.048-.023.15-.086.305-.162 1.283-.646 2.602-1.19c3.44-1.5 6.702-2.627 9.483-3.487 5.574-1.69 9.245-2.357 9.24-2.363-.044.025 14.724-3.422 30.954-1.233 8.093.957 16.425 3.245 23.273 6.03 1.715.71 3.355 1.357 4.856 2.102l2.19 1.024.268.123.03.02.015.006c.547 1.27-4.67-10.98-2.468-5.787l-.016.06-.018.118-.11.586-.25 1.195c-.677 3.178-1.512 5.646-2.056 7.248-4.444 11.184-7.62 17.224-17.685 17.446 8.27 7.577 20.25 1.386 24.933-13.177.688-1.97 1.69-4.912 2.52-8.758l.32-1.506.152-.813.044-.246.02-.116c2.204 5.174-3.007-7.088-2.48-5.824l-.017-.01-.037-.02-.278-.133-2.345-1.104c-1.604-.793-3.355-1.498-5.19-2.26-7.325-2.992-16.255-5.43-24.895-6.44-17.333-2.31-33.02 1.41-32.97 1.378 0 .01-3.9.706-9.85 2.497-2.97.91-6.446 2.104-10.19 3.73l-2.867 1.31-1.48.74-.385.204-.2.105-.12.067-.03.017c.476-1.29-4.272 11.314-2.256 5.995l.017.062.234 1.01c.596 2.72 1.297 5.484 2.28 8.23 3.248 11.343 13.235 20.986 22.186 20.695 8.855.562 15.05-4.02 17.32-4.36 9.387-2.77 15.8-1.226 25.565-1.273z"/><path fill="#C6C6C6" stroke="#C6C6C6" d="M57.77 194.495c.147-.45 3.403-11.615 3.403-11.615l3.547 11.678s-7.103.39-6.95-.063z"/></svg>