<?xml version="1.0" encoding="utf-8"?>
<!-- Generator: Adobe Illustrator 14.0.0, SVG Export Plug-In . SVG Version: 6.00 Build 43363)  -->
<!DOCTYPE svg PUBLIC "-//W3C//DTD SVG 1.1//EN" "http://www.w3.org/Graphics/SVG/1.1/DTD/svg11.dtd">
<svg version="1.1" id="Layer_1" xmlns="http://www.w3.org/2000/svg" xmlns:xlink="http://www.w3.org/1999/xlink" x="0px" y="0px"
	 width="30px" height="30px" viewBox="0 0 30 30" enable-background="new 0 0 30 30" xml:space="preserve">
<path fill="#FFFFFF" d="M2.444,8.713l0.138-0.025l7.053-1.364l1.444-0.644l3.756-0.527l2.47,0.063l1.545-0.218l3.298-1.252
	l3.592-1.387l0.495-0.069l1.355,5.604l0.232,3.897l0.441,3.594l0.91,3.783l-0.17,1.035l-2.971,0.416l-3.836,0.099l-4.368,1.688
	l-3.426,0.985l-3.186-0.247l-4.276,1.296l-2.14,0.049L3.407,22.74l-0.932-3.49l-0.341-2.414l0.733-2.42l-0.181-3.528L2.064,9.146"/>
<path fill="#231F20" d="M23.916,3.846c0.126-0.269-0.291-0.292-0.145-0.511c0.134-0.203,0.351-0.073,0.525-0.105
	C25.119,3.097,26,3.179,26.804,2.5c-0.051,0.841,0.481,1.415,0.489,2.254c0.008,1.257,0.243,2.538,0.682,3.747
	c0.051,0.137,0.13,0.333,0.081,0.426c-0.531,0.964,0.217,1.711,0.438,2.524c0.231,0.857,0.384,1.683,0.175,2.545
	c-0.069,0.293-0.011,0.552,0.047,0.847c0.158,0.84,0.11,1.73,0.325,2.551c0.27,1.027,0.182,2.168,0.697,3.085
	c0.376,0.667-0.238,0.791-0.316,1.185c-0.112,0.551-0.62,0.271-0.939,0.397c-1.606,0.625-3.326,0.277-4.981,0.533
	c-0.828,0.128-1.622,0.331-2.435,0.5c-0.696,0.143-1.393,0.303-2.09,0.425c-1.07,0.188-2.036,0.639-3.017,1.068
	c-0.159,0.065-0.349,0.068-0.525,0.085c-1.389,0.124-2.787,0.024-4.174,0.106c-0.992,0.059-1.896,0.459-2.785,0.937
	c-1.129,0.604-2.371,0.478-3.589,0.303c-0.398-0.058-0.486-0.544-0.783-0.789c-0.606-0.499-0.696-1.331-0.926-2.063
	c-0.354-1.131-0.835-2.222-1.048-3.401c-0.076-0.417-0.119-0.844-0.212-1.255c-0.061-0.267,0.089-0.662-0.394-0.719
	c-0.144-0.014-0.058-0.238-0.024-0.381c0.17-0.723,0.314-1.453,0.493-2.172c0.401-1.637,0.345-3.288-0.045-4.918
	c-0.09-0.366-0.115-0.865-0.535-1.137c-0.201-0.128,0.091-0.85,0.303-1.048c0.694-0.641,1.509-0.472,2.32-0.448
	c1.101,0.034,2.192-0.082,3.235-0.459C8.09,6.93,9.065,7.133,9.765,6.59c0.61-0.473,1.267-0.184,1.877-0.395
	c1.633-0.567,3.339-0.463,5.033-0.427c0.284,0.005,0.587-0.032,0.848-0.139c0.337-0.138,0.645-0.187,0.984-0.011
	c0.094,0.047,0.252,0.027,0.35-0.024c1.365-0.703,2.878-0.993,4.248-1.677c0.289-0.142,0.555-0.106,0.808-0.068 M26.427,5.764
	c-0.101-0.35-0.093-0.729-0.219-1.103c-0.127-0.386-0.284-0.473-0.636-0.403c-0.432,0.085-0.824,0.242-1.228,0.415
	c-0.769,0.331-1.567,0.578-2.314,0.979c-0.218,0.119-0.379,0.308-0.645,0.394c-0.768,0.246-1.603,0.314-2.263,0.904
	c-0.175,0.156-0.578,0.218-0.641-0.248c-0.059-0.419-0.371-0.196-0.414-0.144c-0.456,0.595-1.119,0.366-1.655,0.364
	c-1.531-0.011-3.038,0.038-4.501,0.525c-0.172,0.057-0.381,0.168-0.515,0.046c-0.595-0.538-0.901,0.012-1.253,0.34
	C9.966,8,9.805,8.154,9.556,8.202C8.899,8.327,8.213,8.383,7.597,8.628c-0.653,0.261-1.375,0.157-2,0.503
	C5.469,9.202,5.241,9.238,5.136,9.164C4.588,8.784,4.124,9.18,3.649,9.302c-1.042,0.268-0.183,0.948-0.15,1.403
	c0.054,0.763,0.125,1.517-0.142,2.227c-0.172,0.454,0.316,0.843,0.023,1.293c-0.267,0.408-0.259,0.947-0.394,1.418
	c-0.425,1.485-0.089,2.96,0.29,4.433c0.349,1.358,1.112,2.527,1.492,3.877c0.082,0.299,0.101,1.008,0.718,0.834
	c0.519-0.145,1.061-0.254,1.528-0.572c0.175-0.123,0.352-0.151,0.59-0.145c0.746,0.012,1.554,0.081,2.222-0.191
	c0.583-0.238,1.161-0.315,1.744-0.45c0.249-0.055,0.47-0.036,0.657,0.177c0.169,0.191,0.369,0.191,0.602,0.177
	c0.896-0.057,1.73-0.446,2.618-0.493c0.849-0.042,1.602-0.445,2.449-0.537c0.727-0.078,1.518-0.329,2.157-0.698
	c1.741-1.003,3.649-0.618,5.475-0.749c0.869-0.062,1.775-0.09,2.669-0.077c0.397,0.001,0.454-0.226,0.438-0.628
	c-0.021-0.701-0.02-1.384-0.142-2.093c-0.078-0.452-0.156-0.871-0.353-1.275c-0.062-0.131-0.127-0.262-0.169-0.397
	c-0.431-1.407-0.488-2.867-0.594-4.32c-0.058-0.807,0.091-1.639-0.13-2.416c-0.401-1.418-0.661-2.853-0.822-4.331"/>
<path fill="#231F20" d="M22.697,9.347c0.342,0.405-0.024,0.738-0.161,0.797c-0.361,0.16-0.356,0.596-0.667,0.794
	c-0.221,0.139-0.238,0.464,0.17,0.559c0.375,0.089,0.587,0.438,0.789,0.734c0.197,0.292,0,0.528-0.237,0.737
	c-0.298,0.264-0.393,0.029-0.542-0.18c-0.555-0.774-0.673-0.771-1.187-0.065c-0.146,0.2-0.427,0.215-0.59,0.119
	c-0.199-0.12-0.196-0.401-0.072-0.616c0.09-0.153,0.208-0.29,0.329-0.416c0.173-0.187,0.264-0.349-0.032-0.511
	c-0.217-0.124-0.351-0.339-0.481-0.552c-0.278-0.445-0.11-0.96,0.359-1.085c0.184-0.046,0.351,0.061,0.344,0.248
	c-0.014,0.501,0.441,0.628,0.636,0.591c0.299-0.057,0.53-0.354,0.517-0.815c-0.016-0.422,0.393-0.677,0.681-0.802
	c0.236-0.104,0.228,0.276,0.147,0.464 M17.216,20.489c-0.236-0.576-0.461-0.097-0.692-0.104c-0.104-0.004-0.106-0.104-0.129-0.18
	c-0.136-0.508,0.618-1.714,1.11-1.656c0.193,0.023,0.569,0.049,0.675,0.348c0.092,0.261-0.078,0.453-0.296,0.585
	c-0.187,0.113-0.339,0.255-0.386,0.517c-0.025,0.15-0.155,0.283-0.279,0.494 M9.517,12.031c-0.024,0.046-0.062,0.137-0.118,0.217
	c-0.405,0.589-1.025,0.871-1.597,1.216c-0.178,0.105-0.223-0.06-0.151-0.246c0.236-0.623,0.544-1.193,1.043-1.61
	c0.281-0.236,0.785,0.007,0.822,0.425 M19.992,16.354c0.008,0.409-0.264,0.669-0.527,0.897c-0.126,0.108-0.372-0.012-0.349-0.198
	c0.068-0.605,0.082-1.214,0.104-1.825c0.005-0.186,0.296-0.284,0.457-0.268c0.186,0.019,0.463,0.053,0.482,0.368
	c0.012,0.227-0.021,0.45-0.032,0.677c-0.312-0.051-0.206,0.158-0.136,0.347 M12.778,17.515c-0.119-0.747-0.274-1.354-0.186-1.989
	c0.018-0.127-0.004-0.266,0.096-0.346c0.22-0.181,0.465-0.669,0.649-0.481c0.244,0.249,0.082,0.758,0.078,1.155
	c-0.203-0.009-0.137,0.082-0.091,0.217C13.524,16.666,13.175,17.031,12.778,17.515 M14.015,19.255
	c0.339,0.479,0.722,0.896,0.921,1.457c0.137,0.376,0.098,0.48-0.279,0.37c-0.406-0.119-0.906-0.16-1.078-0.609
	c-0.177-0.463,0.098-0.871,0.435-1.217 M12.364,13.041c-0.509,0.041-0.8-0.472-1.245-0.637c-0.195-0.073-0.056-0.507,0.089-0.729
	c0.146-0.222,0.361-0.035,0.453,0.061c0.146,0.151,0.583,0.118,0.373,0.543c0.343-0.146,0.359,0.153,0.465,0.362
	c0.008,0.019,0.311-0.236,0.249,0.118C12.726,12.899,12.627,13.137,12.364,13.041 M6.607,18.965
	c0.146,0.073,0.322,0.105,0.422,0.223c0.211,0.237-0.148,0.088-0.159,0.23c-0.019,0.268-0.09,0.527-0.124,0.792
	c-0.017,0.124,0.037,0.267-0.001,0.374c-0.09,0.254-0.103,0.709-0.416,0.647c-0.308-0.059-0.247-0.479-0.218-0.766
	c0.039-0.369,0.095-0.739,0.17-1.098c0.035-0.184,0.133-0.349,0.327-0.405 M6.757,17.555c-0.252-0.746,0.188-1.387,0.254-2.065
	c0.054-0.016,0.072-0.03,0.086-0.025c0.692,0.19,0.431,0.676,0.316,1.113c-0.016,0.061-0.075,0.135-0.059,0.174
	c0.312,0.688-0.193,0.704-0.598,0.802"/>
</svg>
