<?xml version="1.0" encoding="utf-8"?>
<!-- Generator: Adobe Illustrator 14.0.0, SVG Export Plug-In . SVG Version: 6.00 Build 43363)  -->
<!DOCTYPE svg PUBLIC "-//W3C//DTD SVG 1.1//EN" "http://www.w3.org/Graphics/SVG/1.1/DTD/svg11.dtd">
<svg version="1.1" id="Layer_1" xmlns="http://www.w3.org/2000/svg" xmlns:xlink="http://www.w3.org/1999/xlink" x="0px" y="0px"
	 width="30px" height="30px" viewBox="0 0 30 30" enable-background="new 0 0 30 30" xml:space="preserve">
<path id="path2830_2_" fill="#2A2942" stroke="#2A2942" stroke-width="0.25" d="M18.207,12.165
	c-1.102,0.005-2.162,0.252-3.242,0.351c-0.451,0.041-0.916,0.051-1.367,0.013c-0.601-0.051-1.183-0.187-1.783-0.248
	c-0.536-0.054-1.079-0.11-1.619-0.112c-0.944-0.004-1.856,0.208-2.781,0.322c0,0.194-0.055,0.443,0.083,0.58
	c0.142,0.142,0.382,0.27,0.445,0.461c0.148,0.452,0.358,0.896,0.627,1.321c0.131,0.208,0.377,0.351,0.652,0.45
	c0.662,0.239,1.446,0.275,2.174,0.2c1.034-0.107,1.597-0.665,2.025-1.302c0.161-0.259,0.178-0.559,0.389-0.795
	c0.125-0.141,0.417-0.082,0.625-0.082s0.385,0.248,0.449,0.414c0.229,0.585,0.61,1.206,1.367,1.514
	c1.132,0.458,2.915,0.372,3.649-0.455c0.285-0.323,0.365-0.716,0.51-1.082c0.088-0.223,0.167-0.488,0.479-0.611
	c0.127-0.049,0.037-0.247,0.057-0.362c0.021-0.125,0.061-0.236-0.188-0.26c-0.433-0.043-0.854-0.173-1.294-0.217
	C19.044,12.223,18.635,12.163,18.207,12.165L18.207,12.165z M10.929,12.373c0.313-0.001,0.624,0.015,0.928,0.062
	c1.81,0.275,1.846,0.81,1.102,1.917c-0.607,0.902-1.864,1.128-3.131,0.912c-0.584-0.099-0.984-0.393-1.172-0.794
	c-0.198-0.423-0.349-0.872-0.315-1.317c0.046-0.595,0.984-0.679,1.656-0.733C10.303,12.394,10.617,12.375,10.929,12.373
	L10.929,12.373z M17.537,12.373c0.312,0.002,0.626,0.021,0.936,0.046c0.672,0.054,1.608,0.138,1.654,0.733
	c0.034,0.445-0.115,0.895-0.316,1.317c-0.188,0.401-0.586,0.695-1.17,0.794c-1.268,0.217-2.524-0.009-3.133-0.912
	c-0.744-1.106-0.708-1.642,1.102-1.917C16.912,12.388,17.225,12.372,17.537,12.373L17.537,12.373z"/>
<path id="path4735_2_" fill="#FFFFFF" stroke="#FFFFFF" stroke-width="0.25" d="M12.555,1.121c-0.897,0.22-1.887-0.312-2.755,0.191
	c-1.869,0.88-1.701,2.733-2.027,4.14c-0.654,0.281-0.157,0.907-0.66,1.29C7.377,7.47,6.271,7.424,5.524,7.536
	C4.167,7.767,3.659,7.565,2.487,8.185c0.193,1.617,1.76,2.183,3.619,2.573c5.02,0.883,10.566,1.078,15.791,0.364
	c1.603-0.251,3.955-0.745,3.879-2.182c-0.366-1.381-2.807-1.724-4.471-1.461c-0.851-1.417-0.559-3.018-1.289-4.458
	C18.697,1.03,15.256,0.796,12.555,1.121L12.555,1.121z"/>
<path fill="#C6C6C6" d="M21.204,14.634c0,0-0.744,3.361-1.14,3.909c-0.555,0.77-2.181,1.412-2.358,1.257
	c-1.001-0.87-2.017-1.967-3.187-1.006c-0.275,0.228-0.756,0-0.756,0c-1.512-1.257-3.934,1.104-3.934,1.104
	c-0.755-0.291-1.802-1.488-2.267-2.032c-0.466-0.544-0.801-3.16-0.801-3.16s-0.985,7.836,1.076,9.869
	c2.062,2.03,5.298,3.587,7.563,2.909C22.195,26.786,21.756,15.795,21.204,14.634L21.204,14.634L21.204,14.634z M15.549,22.117
	c-1.075-0.418-1.511-0.452-2.198-0.129c-0.687,0.322-1.878,0.387-2.29-1.678c0,0,2.885-1.646,6.183,0
	C17.244,20.312,16.878,22.633,15.549,22.117L15.549,22.117L15.549,22.117z"/>
<path fill="#FFFFFF" stroke="#FFFFFF" d="M21.204,14.634c0,0-0.744,3.361-1.14,3.909c-0.555,0.77-2.181,1.412-2.358,1.257
	c-1.001-0.87-2.017-1.967-3.187-1.006c-0.275,0.228-0.756,0-0.756,0c-1.512-1.257-3.934,1.104-3.934,1.104
	c-0.755-0.291-1.802-1.488-2.267-2.032c-0.466-0.544-0.801-3.16-0.801-3.16s-0.985,7.836,1.076,9.869
	c2.062,2.03,5.298,3.587,7.563,2.909C22.195,26.786,21.756,15.795,21.204,14.634L21.204,14.634L21.204,14.634z M15.549,22.117
	c-1.075-0.418-1.511-0.452-2.198-0.129c-0.687,0.322-1.878,0.387-2.29-1.678c0,0,2.885-1.646,6.183,0
	C17.244,20.312,16.878,22.633,15.549,22.117L15.549,22.117L15.549,22.117z"/>
<path fill="#FFFFFF" d="M21.1,15.09c-0.205,0.682-0.401,1.303-0.604,1.896c-0.217,0.559-0.387,1.242-0.711,1.531
	c-0.373,0.338-0.852,0.588-1.361,0.791c-0.127,0.049-0.26,0.092-0.391,0.127c-0.118,0.035-0.307,0.049-0.223,0.026
	c-0.248-0.222-0.511-0.468-0.812-0.708c-0.319-0.23-0.84-0.718-1.665-0.689c-0.199,0.024-0.413,0.071-0.609,0.188
	c-0.215,0.104-0.396,0.292-0.458,0.271c-0.102,0.024-0.358-0.03-0.426-0.092c-0.214-0.164-0.459-0.273-0.712-0.328
	c-1.031-0.189-2.026,0.365-2.916,1.029c-0.111,0.086-0.223,0.178-0.332,0.271l-0.165,0.145L9.673,19.59l-0.011,0.012
	c0.11-0.024-0.256,0.062,0.245-0.053l-0.005-0.002l-0.019-0.009l-0.076-0.035c-0.206-0.097-0.416-0.255-0.621-0.426
	c-0.409-0.343-0.798-0.754-1.172-1.177c-0.091-0.104-0.193-0.219-0.272-0.314c-0.043-0.059-0.102-0.176-0.148-0.302
	c-0.096-0.255-0.171-0.546-0.239-0.835c-0.133-0.581-0.231-1.175-0.311-1.739l-0.007-0.053l0.003-0.009
	c-1.11,0-0.308,0.004-0.556,0.005l-0.001,0.008L6.48,14.689L6.466,14.8l-0.024,0.219L6.4,15.448
	c-0.026,0.282-0.047,0.559-0.066,0.827c-0.037,0.533-0.062,1.039-0.075,1.504c-0.056,1.854,0.076,3.066,0.075,3.063
	c0.044-0.015-0.028,1.243,0.675,3.021c0.179,0.424,0.509,0.895,0.861,1.187c0.34,0.328,0.722,0.635,1.125,0.938
	c0.815,0.589,1.74,1.134,2.738,1.506c0.994,0.377,2.068,0.604,3.128,0.466c0.971-0.188,2.04-0.322,2.886-0.854
	c1.75-1.027,2.61-2.854,2.938-3.695c0.635-1.62,0.83-3.032,0.918-4.339c0.06-1.312,0.039-2.578-0.274-3.988
	c0.136,1.448,0.017,2.669-0.134,3.924c-0.176,1.249-0.416,2.571-1.008,4.072c-0.312,0.788-1.097,2.44-2.674,3.367
	c-0.789,0.485-1.697,0.603-2.715,0.795c-0.949,0.128-1.964-0.079-2.908-0.438c-0.95-0.354-1.838-0.877-2.617-1.438
	c-0.766-0.606-1.498-1.137-1.78-1.859c-0.607-1.514-0.572-2.771-0.605-2.738c0.001,0-0.125-1.146-0.069-2.957
	c0.013-0.453,0.036-0.945,0.073-1.47c0.019-0.262,0.039-0.53,0.064-0.806L7,15.116l0.023-0.211L7.036,14.8l0.003-0.026v-0.005
	c-0.247-0.001,0.555-0.008-0.555-0.003l0.002,0.015l0.007,0.056c0.083,0.592,0.182,1.198,0.325,1.82
	c0.072,0.312,0.152,0.627,0.273,0.948c0.062,0.162,0.129,0.328,0.263,0.504c0.103,0.127,0.191,0.225,0.29,0.338
	c0.386,0.437,0.789,0.865,1.237,1.242c0.227,0.185,0.459,0.362,0.731,0.494l0.104,0.047l0.025,0.012l0.007,0.002
	c0.503-0.116,0.141-0.033,0.254-0.061l0.008-0.009l0.036-0.032l0.149-0.135l0.308-0.249c0.824-0.631,1.756-1.097,2.532-0.938
	c0.191,0.039,0.366,0.121,0.52,0.236c0.307,0.193,0.488,0.205,0.781,0.188c0.346-0.079,0.461-0.279,0.604-0.324
	c0.145-0.086,0.291-0.112,0.431-0.136c0.566-0.028,1.036,0.354,1.333,0.58c0.276,0.221,0.539,0.459,0.796,0.68
	c0.335,0.251,0.486,0.064,0.645,0.062c0.155-0.049,0.301-0.104,0.438-0.168c0.552-0.256,1.038-0.553,1.461-1.019
	c0.461-0.563,0.5-1.219,0.677-1.833C20.857,16.459,20.979,15.805,21.1,15.09z"/>
<path fill="#FFFFFF" d="M15.549,22.117c-0.572-0.42-1.029-0.842-1.935-0.607c-0.258,0.066-0.615,0.322-1.056,0.283
	c-0.447-0.004-0.875-0.4-1.078-1.031c-0.055-0.152-0.096-0.312-0.132-0.476l-0.014-0.06l-0.001-0.006
	c0.142-0.375-0.193,0.51-0.158,0.42l0.001-0.002h0.003l0.011-0.009l0.021-0.011l0.09-0.046l0.183-0.084
	c0.243-0.105,0.472-0.187,0.668-0.245c0.393-0.119,0.65-0.167,0.65-0.167c-0.003,0.001,1.037-0.24,2.181-0.086
	c0.57,0.065,1.156,0.229,1.639,0.425c0.122,0.05,0.235,0.095,0.342,0.146l0.154,0.071l0.021,0.009l0.002,0.002h0.002
	c0.037,0.09-0.33-0.771-0.176-0.406l-0.001,0.003l-0.001,0.011l-0.008,0.04l-0.02,0.084c-0.047,0.226-0.104,0.397-0.145,0.513
	C16.48,21.677,16.258,22.102,15.549,22.117c0.582,0.533,1.426,0.099,1.756-0.928c0.049-0.139,0.119-0.348,0.18-0.616l0.021-0.106
	l0.012-0.057l0.004-0.018v-0.011c0.154,0.364-0.211-0.499-0.174-0.409l0,0h-0.005l-0.02-0.012l-0.165-0.078
	c-0.113-0.055-0.236-0.104-0.365-0.158c-0.52-0.211-1.146-0.384-1.754-0.453c-1.221-0.162-2.325,0.1-2.321,0.098
	c0,0-0.274,0.05-0.694,0.177c-0.209,0.063-0.454,0.147-0.718,0.263L11.103,19.9L11,19.952l-0.028,0.016l-0.014,0.007l-0.008,0.004
	l-0.002,0.002c0.033-0.09-0.301,0.797-0.159,0.422l0.001,0.006l0.016,0.068c0.042,0.192,0.091,0.39,0.161,0.582
	c0.229,0.797,0.933,1.478,1.562,1.457c0.624,0.039,1.06-0.283,1.219-0.308C14.41,22.012,14.861,22.12,15.549,22.117z"/>
<path fill="#FFFFFF" stroke="#FFFFFF" stroke-width="0.25" d="M6.518,14.661c0.011-0.031,0.24-0.817,0.24-0.817l0.25,0.823
	C7.007,14.666,6.507,14.693,6.518,14.661z"/>
</svg>
