<?xml version="1.0" encoding="utf-8"?>
<!-- Generator: Adobe Illustrator 14.0.0, SVG Export Plug-In . SVG Version: 6.00 Build 43363)  -->
<!DOCTYPE svg PUBLIC "-//W3C//DTD SVG 1.1//EN" "http://www.w3.org/Graphics/SVG/1.1/DTD/svg11.dtd">
<svg version="1.1" id="Layer_1" xmlns="http://www.w3.org/2000/svg" xmlns:xlink="http://www.w3.org/1999/xlink" x="0px" y="0px"
	 width="50px" height="50px" viewBox="0 0 50 50" enable-background="new 0 0 50 50" xml:space="preserve">
<path fill-rule="evenodd" clip-rule="evenodd" fill="#C6C6C6" d="M25.531,8.106c0.362-0.245-0.135-0.524,0.029-0.698
	c0.203-0.216,0.554-0.054,0.583,0.14c0.391,2.425,2.873,3.353,4.484,4.871c1.851,1.744,3.514,3.649,5.606,5.196
	c1.581,1.169,3.257,2.31,4.529,3.721c1.809,2.012,4.701,2.734,6.53,4.725c0.655,0.714,0.392,1.657,1.206,2.19
	c0.025,0.017,0,0.104-0.015,0.153c-0.281,0.977-1.077-0.358-1.387,0.236c-0.158,0.312,1.046,1.21-0.521,0.902
	c-0.781-0.152-1.291,0.411-1.777,0.713c-3.717,2.278-7.558,4.359-11.467,6.375c-2.077,1.073-4.392,1.619-6.395,2.828
	c-1.066,0.642-1.985,1.483-3.165,2c-0.452,0.195-0.905,0.607-1.309,0.228c-1.064-1-2.691-1.681-2.525-3.428
	c0.161-1.642,0.248-3.289,0.34-4.937c0.097-1.837-0.431-2.251-2.505-2.031c-0.184,0.019-0.376,0.015-0.557-0.014
	c-3.216-0.479-6.485,0.122-9.728-0.437c-1.292-0.221-2.698,0.311-4.109-0.202c-0.692-0.252-1.083-0.386-1.267-1.068
	c-0.441-1.645-0.735-3.247-0.771-4.978c-0.045-2.273-0.157-4.557-0.21-6.838c-0.021-0.877,1.333-1.756,0.065-2.635
	c-0.014-0.011,0.146-0.299,0.285-0.374c0.124-0.07,0.471-0.054,0.479-0.03c0.399,1.543,1.14,0.5,1.669,0.135
	c0.405-0.279,0.69-0.161,1.119-0.123c4.1,0.362,8.168,1.055,12.326,0.826c1.661-0.092,3.36-0.038,4.999,0.191
	c0.975,0.135,1.288,0.536,1.131-0.794c-0.228-1.965,0.087-3.983,0.213-5.976c0.036-0.572-0.213-1.302,0.536-1.641
	C24.797,6.96,24.878,8.062,25.531,8.106 M29.153,34.631c-0.182,0.669-0.378,1.062-0.291,1.122c0.331,0.222,0.462-0.045,0.642-0.3
	c0.489-0.683,0.658-1.45,1.803-1.851c1.454-0.51,2.558-1.745,3.971-2.404c2.184-1.022,4.044-2.465,6.18-3.512
	c0.965-0.474,1.127-0.427,0.396-1.078c-1.57-1.397-3.239-2.695-5.017-3.89c-3.7-2.489-6.684-5.653-9.976-8.528
	c-0.293-0.256-0.503-0.805-1.408-0.28c0.862,0.293,1.169,0.858,0.802,1.405c-0.519,0.772-0.357,1.589-0.46,2.389
	c-0.147,1.198-1.559,2.544-2.85,2.359c-2.69-0.389-5.402-0.307-8.102-0.483c-3.166-0.203-6.333-0.188-9.513,0.071
	c-1.35,0.111-1.429,0.6-1.299,1.548c0.211,1.584,0.681,3.146,0.009,4.772c-0.455,1.098-0.039,1.755,1.569,1.771
	c3.039,0.032,6.075,0.28,9.115,0.443c2.455,0.134,4.91-0.263,7.373,0.041c1.18,0.146,1.423,0.502,1.497,1.635
	c0.184,2.829-0.26,5.624-0.26,8.624C25.494,37.63,27.194,36.397,29.153,34.631"/>
<path fill-rule="evenodd" clip-rule="evenodd" fill="#C6C6C6" d="M5.447,17.768c4.554,0.899,19.5,0,19.5,0l0.833-6.167l20,16
	L23.447,39.435l-1.167-9.834L3.947,28.769C3.947,28.769,0.893,16.868,5.447,17.768z"/>
</svg>
