<?xml version="1.0" encoding="utf-8"?>
<!-- Generator: Adobe Illustrator 14.0.0, SVG Export Plug-In . SVG Version: 6.00 Build 43363)  -->
<!DOCTYPE svg PUBLIC "-//W3C//DTD SVG 1.1//EN" "http://www.w3.org/Graphics/SVG/1.1/DTD/svg11.dtd">
<svg version="1.1" id="Layer_1" xmlns="http://www.w3.org/2000/svg" xmlns:xlink="http://www.w3.org/1999/xlink" x="0px" y="0px"
	 width="300px" height="300px" viewBox="0 0 300 300" enable-background="new 0 0 300 300" xml:space="preserve">
<g>
	<path fill="#C8AD8F" d="M290.552,150.808c0,77.741-63.026,140.767-140.768,140.767S9.019,228.549,9.019,150.808
		c0-77.739,63.024-140.759,140.766-140.759S290.552,73.069,290.552,150.808z"/>
</g>
<path fill="#C8AD8F" d="M216.61,150.897c0,36.879-29.894,66.781-66.766,66.781c-36.883,0-66.777-29.902-66.777-66.781
	c0-36.883,29.894-66.774,66.777-66.774C186.717,84.123,216.61,114.014,216.61,150.897z"/>
<path display="none" fill="#FFFFFF" d="M256.34,171.785l20.254-20.172L256.34,131.44c-3.898-20.563-13.81-40.207-29.784-56.121
	c-15.964-15.918-35.687-25.799-56.325-29.688l-20.234-20.178l-20.243,20.178c-20.644,3.877-40.356,13.764-56.326,29.674
	c-15.975,15.916-25.896,35.572-29.793,56.135l-20.24,20.173l20.24,20.172c3.908,20.563,13.824,40.218,29.793,56.133
	c15.974,15.909,35.683,25.78,56.316,29.675l20.249,20.174l20.249-20.174c20.628-3.895,40.351-13.774,56.314-29.689
	C242.53,211.993,252.441,192.349,256.34,171.785z M150.142,240.065c-49.03,0-88.77-39.602-88.77-88.452s39.74-88.464,88.77-88.464
	c49.02,0,88.774,39.614,88.774,88.464S199.162,240.065,150.142,240.065z"/>
<g display="none">
	<path display="inline" fill="#E6E6E6" d="M202.452,160.534v-22.425h18.723v5.045h-12.695v3.498h10.346v5.039h-10.346v3.793h12.695
		v5.05H202.452z"/>
</g>
<path display="none" fill="#E6E6E6" d="M174.734,145.795l-18.628-60.808c-0.829-2.98-1.958-4.46-3.088-4.446
	c-1.11-0.015-2.237,1.461-3.066,4.439l-18.61,60.8c-1.68,5.541-1.52,3.691-0.003,8.625l18.614,60.805
	c0.843,2.973,1.958,4.471,3.075,4.467c1.115,0,2.25-1.494,3.079-4.467l18.614-60.805
	C176.224,149.46,176.403,151.321,174.734,145.795z"/>
<polygon display="none" fill="#E6E6E6" points="102.626,138.612 99.873,151.248 96.924,138.612 92.998,138.612 90.053,151.248 
	87.3,138.612 81.276,138.612 87.208,160.037 91.911,160.037 94.966,149.149 98.008,160.037 102.722,160.037 108.646,138.612 "/>
<polygon display="none" fill="#F47F54" points="153.019,150.1 166.379,150.103 153.019,97.233 139.659,150.103 "/>
<g display="none">
	<g display="inline">
		<path fill="#FFFFFF" d="M252.093,195.561l-11.843-48.809L154.101,71.18V50.847c0-2.268-1.835-4.081-4.088-4.081
			c-2.258,0-4.093,1.813-4.093,4.081V71.18l-86.125,75.572L47.96,195.561H33.258v10.417h233.531v-10.417H252.093z M145.919,195.561
			H93.568l52.351-100.332V195.561z M154.101,195.561V95.229l52.37,100.332H154.101z"/>
	</g>
</g>
<rect x="33.258" y="195.561" display="none" fill="#5ED3B6" width="233.531" height="10.417"/>
<path fill="#273246" d="M222.541,63.237H76.792c-9.308,0-16.851,7.543-16.851,16.848v118.303c0,9.307,7.543,16.851,16.851,16.851
	h56.327c-0.01,0.138-5.226,25.604-5.226,25.604h-16.641c-5.168,0-5.092,8.549-5.092,8.549h87.009c0,0,0.077-8.549-5.086-8.549
	h-16.646c0,0-5.217-25.467-5.227-25.604h56.332c9.307,0,16.851-7.544,16.851-16.851V80.085
	C239.392,70.78,231.848,63.237,222.541,63.237z M149.663,211.032c-4.138,0-7.485-3.356-7.485-7.486c0-4.138,3.347-7.496,7.485-7.496
	c4.14,0,7.495,3.358,7.495,7.496C157.158,207.676,153.803,211.032,149.663,211.032z M226.288,184.911
	c0,2.062-1.678,3.739-3.747,3.739H76.792c-2.065,0-3.743-1.678-3.743-3.739V80.085c0-2.064,1.678-3.74,3.743-3.74h145.75
	c2.069,0,3.747,1.676,3.747,3.74V184.911z"/>
<rect x="82.408" y="85.705" fill="#FFFFFF" width="134.516" height="93.59"/>
</svg>
