<?xml version="1.0" encoding="utf-8"?>
<!-- Generator: Adobe Illustrator 14.0.0, SVG Export Plug-In . SVG Version: 6.00 Build 43363)  -->
<!DOCTYPE svg PUBLIC "-//W3C//DTD SVG 1.1//EN" "http://www.w3.org/Graphics/SVG/1.1/DTD/svg11.dtd">
<svg version="1.1" id="Layer_1" xmlns="http://www.w3.org/2000/svg" xmlns:xlink="http://www.w3.org/1999/xlink" x="0px" y="0px"
	 width="50px" height="50px" viewBox="0 0 50 50" enable-background="new 0 0 50 50" xml:space="preserve">
<path fill-rule="evenodd" clip-rule="evenodd" fill="#C6C6C6" d="M24.776,48.32c-4.4,0.03-7.956-0.094-11.384-1.189
	c-3.009-0.963-5.596-2.544-7.424-5.275c-1.797-2.682-2.303-5.847-3.51-8.741c-1.269-3.054-1.15-6.206-1.095-9.347
	c0.048-2.584,0.942-5.059,1.989-7.398c1.234-2.761,2.771-5.368,4.852-7.61c1.15-1.236,2.461-2.328,3.854-3.171
	c1.232-0.745,2.382-1.64,3.568-2.423c2.025-1.343,4.027-1.967,6.405-1.683c0.751,0.09,1.541-0.205,2.313-0.231
	c3.608-0.126,7.091,0.411,10.223,2.325c1.976,1.207,3.635,2.803,5.246,4.498c1.454,1.534,2.123,3.625,3.572,5.023
	c2.804,2.7,2.899,6.345,3.622,9.688c1.094,5.042-0.583,9.676-3.066,14.053c-1.393,2.454-3.253,4.665-5.455,6.134
	c-2.098,1.401-4.317,2.816-6.771,3.805C29.147,47.806,26.584,48.09,24.776,48.32 M43.823,22.929
	c-0.088-1.819-0.808-3.346-1.428-4.878c-1.013-2.504-2.549-4.676-4.455-6.583c-0.364-0.362-0.871-0.453-1.214-0.764
	c-0.81-0.728-0.852,1.654-1.714,0.387c-0.093,0.097-0.239,0.176-0.266,0.29c-0.213,0.773-0.914,1.086-1.402,1.604
	c-0.41,0.435-0.69,1.006-1.367,0.487c-0.603-0.468-0.617-1.023-0.229-1.69c0.535-0.924,1.214-1.749,2-2.414
	c0.465-0.392,0.472-0.738,0.33-1.124c-0.424-1.158-3.499-2.311-4.602-1.688c0.101-1.227-0.596-1.703-1.644-1.791
	c-0.85-0.069-1.677-0.118-2.533-0.296c-1.68-0.349-3.56-0.51-5.335,0.155c-1.251,0.471-1.772,1.259-1.083,2.406
	c0.427,0.712,0.648,1.412,0.03,1.773c-0.706,0.408-0.872-0.67-1.268-1.041c-0.517-0.483-0.844-1.196-1.602-0.55
	c-1.804,1.534-3.801,2.802-5.298,4.751c-0.561,0.731-0.199,1.762-1.107,2.226c-0.299,0.152-0.747,0.443-0.561,0.924
	c0.133,0.345,0.495,0.415,0.87,0.437c1.093,0.064,0.811,0.925,0.811,1.565c0.002,0.764-0.605,0.977-1.124,0.754
	c-0.877-0.378-1.093,0.757-1.794,0.643c0.103,1.724-1.887,2.559-1.694,4.561c0.104,1.055,0.125,0.994,0.897,0.953
	c0.236-0.012,0.583,0.173,0.705,0.375c0.205,0.341-0.015,0.667-0.309,0.892c-0.189,0.142-0.395,0.281-0.615,0.365
	C5.735,26.063,5.178,26.667,5.399,28c0.154,0.911,0.938,1.884,0.095,2.856c-0.021,0.021,0.108,0.153,0.142,0.245
	c0.768,2.126,1.485,4.217,2.909,6.096c0.864,1.133,1.384,1.071,2.213,0.435c0.646-0.499,1.181-0.016,1.662,0.135
	c0.434,0.134-0.16,0.631-0.221,1.02c0.829,0.031,1.66-1.179,2.318,0.092c0.535,1.028-0.458,1.322-1.021,1.821
	c1.24,0.441,2.374,1.023,3.572,1.225c1.188,0.199,2.255,1.197,3.621,0.514c1.212-0.609,1.822-0.129,1.929,1.284
	c0.024,0.346-0.197,1.043,0.303,0.964c0.921-0.149,2.21,0.426,2.681-0.32c0.681-1.075,1.967-0.949,2.373-0.84
	c1.496,0.404,2.39-0.589,3.508-1.012c1.038-0.394,2.011-1.134,3.062-1.261c1.69-0.202,2.64-1.354,3.759-2.335
	c0.28-0.247,0.487-0.539-0.084-0.745c-0.976-0.35-1.506-1.183-2.1-1.965c-0.181-0.238-0.718-0.275-0.289-0.717
	c0.256-0.269,0.718-0.611,0.963-0.354c0.518,0.555,1.309,0.241,1.853,0.79c0.292,0.296,0.879,1.066,1.422,0.46
	c0.439-0.493,1.172-0.729,1.408-1.262c0.937-2.075,1.914-4.132,2.225-6.461c0.107-0.836,0.406-1.757,0.418-2.561
	c0.02-1.23-1.411-0.877-2.168-1.275c-0.735-0.39-1.238-1.118-1.152-1.679c0.117-0.765,1.065-0.417,1.665-0.439
	C42.881,22.695,43.304,22.839,43.823,22.929"/>
<path fill-rule="evenodd" clip-rule="evenodd" fill="#C6C6C6" d="M26.07,20.404c0.799-1.393,2.003-1.986,3.11-2.726
	c0.412-0.275,0.822-0.497,1.201-0.276c0.375,0.215,0.224,0.682,0.092,1.071c-0.298,0.872-0.526,1.765-0.857,2.62
	c-0.323,0.823-0.358,1.349,0.694,1.636c2.955,0.814,5.699,2.341,8.797,2.488c0.05,0.825-0.893-0.139-0.823,0.655
	c0.043,0.484-0.149,1.049,0.568,1.281c-0.605,0-1.236,0.112-1.812-0.021c-1.389-0.321-2.577,0.483-3.807,0.772
	c-0.977,0.231-2.078,0.164-3.008,0.712c-0.274,0.162-0.721,0.13-0.651,0.565c0.035,0.214,0.056,0.688,0.638,0.507
	c0.181-0.059,0.625,0.45,0.823,0.776c0.596,0.992,1.125,2.018,2.11,2.706c0.454,0.316,0.622,0.884,0.26,1.282
	c-0.251,0.277-0.65,0.088-1.097-0.181c-0.923-0.555-2.03-0.883-3.103-1.085c-0.684-0.127-1.271-0.442-1.908-0.644
	c-0.586,0.408,0.154,1.37-0.724,1.631c-0.176-0.529-0.164-1.021,0.124-1.534c0.126-0.23,0.146-0.607-0.28-0.684
	c-0.357-0.067-0.447,0.137-0.579,0.469c-0.81,2.055-1.2,4.201-1.439,6.378c-0.069,0.638,0.01,1.322-0.556,1.73
	c-0.487,0.354,0.007,0.446,0.085,0.642c0.165,0.414,0.376,0.894-0.136,1.137c-0.566,0.27-0.947-0.145-1.074-0.654
	c-0.295-1.223-0.76-2.446-0.902-3.654c-0.171-1.428-1.241-2.562-1.019-4.098c0.09-0.606-0.284-1.103-1.027-0.292
	c-0.566,0.622-1.541,0.858-2.136,1.462c-0.877,0.885-1.48,0.168-2.095-0.211c-0.677-0.417,0.021-0.931,0.113-1.369
	c0.29-1.395,1.35-2.429,1.87-3.732c0.216-0.542,0.263-0.802-0.432-0.906c-2.446-0.365-4.375-2.082-6.74-2.674
	c-0.225-0.057-0.502-0.302-0.377-0.539c0.112-0.221,0.411-0.435,0.66-0.483c2.383-0.471,4.752-1.004,7.198-1.724
	c-0.971-0.938-1.727-1.999-2.456-3.089c-0.295-0.441-0.646-0.875-0.375-1.317c0.328-0.535,0.814-0.071,1.156,0.118
	c0.461,0.257,0.929,0.297,1.415,0.257c0.853-0.065,1.645,0.005,2.327,1.088c0.35-1.941,0.82-3.576,0.903-5.229
	c0.133-2.583,0.455-5.128,0.933-7.664c0.058-0.306,0.14-0.627,0.51-0.536c0.307,0.075,0.211,0.333,0.12,0.589
	c-0.08,0.22-0.072,0.696-0.026,0.708c1.872,0.425,0.867,2.205,1.468,3.251c0.614,1.066,0.732,2.429,1.038,3.668
	C25.244,16.882,25.614,18.49,26.07,20.404 M22.608,27.386c-0.043,0.656,0.004,1.298,1.025,1.276
	c1.143-0.018,1.838-0.915,1.871-2.507c0.016-0.859-0.472-1.389-1.219-1.555C23.552,24.433,22.61,26.015,22.608,27.386"/>
</svg>
