<?xml version="1.0" encoding="utf-8"?>
<!-- Generator: Adobe Illustrator 14.0.0, SVG Export Plug-In . SVG Version: 6.00 Build 43363)  -->
<!DOCTYPE svg PUBLIC "-//W3C//DTD SVG 1.1//EN" "http://www.w3.org/Graphics/SVG/1.1/DTD/svg11.dtd">
<svg version="1.1" id="Layer_1" xmlns="http://www.w3.org/2000/svg" xmlns:xlink="http://www.w3.org/1999/xlink" x="0px" y="0px"
	 width="300px" height="300px" viewBox="0 0 300 300" enable-background="new 0 0 300 300" xml:space="preserve">
<g>
	<path fill="#273246" d="M290.552,150.809c0,77.74-63.026,140.768-140.768,140.768c-77.742,0-140.765-63.026-140.765-140.768
		c0-77.74,63.024-140.76,140.766-140.76S290.552,73.069,290.552,150.809z"/>
	<g>
		<g>
			<g>
				<path fill="#273246" d="M290.246,181.424c1.048-4.443-3.395,12.264-1.27,2.764c-1.754,6.506-5.754,20.021-9.649,27.653
					c-1.077,0.567,2.049-6.185-5.275,7.05c-10.819,17.062,0.097,3.049-10.221,18.008c2.512-3.308,4.954-6.674,7.187-10.183
					c-5.227,11.499-25.549,34.149-44.135,45.199c-14.031,7.948-27.787,12.952-47.949,17.68c1.099-0.345,6.02-1.688,4.944-1.749
					c-3.746,0.665-10.28,2.118-14.173,2.73c-10.662,2.005,3.126,0.508-0.854,1.521c-8.953,1.454-17.648,2.53-30.435,1.264
					c-5.261-0.776-10.445-1.957-15.536-3.33c-10.733-0.422-26.943-6.321-45.659-16.758c-3.48-2.349-21.962-14.785-24.162-18.715
					c-7.249-6.936,0.103-2.85-5.049-9.02c-8.953-10.684,6.707,6.921-2.201-3.775c10.649,10.651,1.208,5.51,16.896,18.711
					l-0.602-0.854c6.687,5.073,18.581,13.579,24.224,15.302c19.787,9.491-0.894,0.985,8.677,6.104
					c5.924,2.513,30.191,8.599,31.347,7.082c-5.601-0.901-11.123-2.246-16.564-3.844c2.662,0.729,0.675-0.056,1.778,0.166
					c5.489,2.188,16.149,3.672,24.212,3.905c8.067,0.243,13.582-0.108,9.239,1.312c-2.258,0.224-8.223-0.441-10.015-0.258
					c0.782,0.805,12.497,1.565,21.28,1.031c9.019-1.158,19.024-3.445,32.562-6.957c4.709-1.174,2.065-0.005,6.745-1.344
					c13.39-5.206,19.41-8.592,25.683-11.877c6.09-3.544,12.676-7.028,23.771-17.407c14.681-12.212,27.729-32.073,35.31-49.562
					c-1.531,2.51,4.303-11.885,5.071-15.742c1.06-2.508,3.923-12.725,4.463-20.363c-0.554,4.464,0.069,1.782-0.175,4.919
					c1.85-17.12,1.999-20.308,2.823-21.278C292.482,164.219,293.562,165.834,290.246,181.424z"/>
				<path fill="#273246" d="M20.702,211.199c1.845,2.875-10.167-27.428-3.596-13.489c-3.203-9.956-4.318-14.587-5.845-20.258
					c2.105,11.849-0.888-2.813-0.017,3.61c-8.94-37.859-0.864-77.306,18.963-107.354c15.477-21.854,33.124-38.612,55.819-51.087
					c14.589-6.414,5.545-1.163,2.592,0.853c5.967-2.778,12.075-5.259,18.353-7.243c-6.254,2.26-12.295,5.022-18.161,8.062
					c-0.366,0.685,7.698-3.012,12.422-4.333c1.698-0.682,3.433-1.266,5.149-1.905c-2.741,2.036-11.886,5.205-21.895,10.298
					c-10.03,5.011-20.656,12.292-27.332,18.755c17.097-14.409-3.218,1.585,3.778-4.807l-5.398,4.547
					c4.618-4.202,13.777-12.889,28.191-20.732C42.587,46.983,17.041,89.838,12.548,126.306c0.05-1.079,0.38-3.964-0.363-0.697
					c-2.373,13.129-1.055,21.073-0.73,26.788c-0.218-1.918-0.199-3.842-0.298-5.771c-0.892,8.186,0.778,21.577,2.901,31.148
					c1.705,10.528,2.684,17.916,10.741,34.312l-0.713-0.343c2.124,4.448,4.399,8.836,6.962,13.06
					c-2.04-3.062-1.374-1.699-1.078-0.975c-0.685-0.848-0.961-1.572-2.216-3.857c-1.099-0.478,1.696,6.789,6.253,13.885
					c-1.511-2.172-2.955-4.381-3.968-5.961c2.922,6.274,18.271,24.692,9.988,16.086C27.638,228.116,29.304,227.352,20.702,211.199z"
					/>
				<path fill="#273246" d="M79.712,271.124c-11.829-7.67,3.653,1.692,1.283-0.433c3.609,2.11,7.356,3.986,11.162,5.711
					C92.188,277.218,80.974,271.504,79.712,271.124z"/>
				<path fill="#273246" d="M173.061,9.453c1.164,0.595,10.432,2.09,15.465,3.796c10.068,2.775,12.873,2.804,26.425,9.68
					c-11.052-4.191,10.622,6.699,18.378,14.143c-6.012-4.386-17.952-10.813-28.43-15.938c1.473,0.136-8.188-3.993-13.188-5.612
					c-8.025-0.942,5.807,2.077-26.031-3.169c-5.869-1.116-20.527-0.884-19.604-1.441c-4.14-0.205-7.912,1.024-12.49,0.917
					l-2.317-0.007c6.664-1.105,13.428-1.547,20.194-1.666c0.746,0.119,2.276,0.356,4.12,0.361c-3.82-1.192,22.087,0.989,8.994-1.325
					c-9.338-0.945-18.763-0.966-28.104-0.086c-6.84,0.479,2.703-1.393,12.92-1.499C164.199,8.426,163.359,8.649,173.061,9.453z"/>
				<path fill="#273246" d="M103.922,16.844l-1.512,0.301c7.705-2.838,15.681-4.951,23.782-6.345
					C118.598,12.148,111.149,14.224,103.922,16.844z"/>
				<path fill="#273246" d="M253.611,51.736c-3.506-3.382-6.396-6.487-10.236-9.475l0.154-1.082
					C247.079,44.526,250.471,48.032,253.611,51.736z"/>
				<path fill="#273246" d="M33.618,75.72c-3.001,5.628-10.653,19.8-11.652,25.106c1.614-4.035,0.867-2.721,1.146-3.757
					c-1.099,2.575-2.3,5.12-3.282,7.75C22.725,94.788,27.464,85.56,33.618,75.72z"/>
				<path fill="#273246" d="M280.835,92.438c6.403,15.246,8.506,18.168,11.513,37.444c0.293,4.228-1.138-5.09-0.557,1.008
					c0.609,6.057,0.982,7.448,1.409,10.421l0.118-2.37c0.113,4.757-0.695,19.554-1.545,11.868
					c-0.373-24.163-5.545-34.573-10.92-52.06l-0.289-3.37c-1.601-3.366-3.184-6.732-5.018-9.97
					c-0.291-0.708,0.171-0.597-1.748-3.796c-4.182-6.54,2.43,5.19,1.562,4.918c-3.432-6.269-7.299-12.29-11.672-17.912
					c-1.469-2.164,1.482,1.599,1.119,0.917c-5.58-8.542-10.86-12.379-16.391-19.13c3.262,2.976,6.407,6.093,9.396,9.366
					c-10.307-12.312-19.558-20.211-28.656-26.926C254.945,51.73,268.689,65.255,280.835,92.438z"/>
			</g>
		</g>
	</g>
</g>
<path display="none" fill="#FFFFFF" d="M256.34,171.785l20.254-20.172L256.34,131.44c-3.898-20.563-13.811-40.207-29.783-56.121
	c-15.965-15.918-35.688-25.799-56.326-29.688l-20.232-20.178l-20.243,20.178c-20.644,3.877-40.356,13.764-56.326,29.674
	c-15.975,15.916-25.896,35.572-29.793,56.135l-20.24,20.173l20.24,20.172c3.908,20.562,13.824,40.218,29.793,56.133
	c15.974,15.909,35.683,25.78,56.316,29.675l20.249,20.175l20.249-20.175c20.628-3.896,40.351-13.774,56.313-29.688
	C242.529,211.993,252.441,192.35,256.34,171.785z M150.142,240.064c-49.03,0-88.77-39.603-88.77-88.451
	c0-48.85,39.74-88.464,88.77-88.464c49.02,0,88.774,39.614,88.774,88.464C238.916,200.463,199.162,240.064,150.142,240.064z"/>
<path display="none" fill="#E6E6E6" d="M174.734,145.795l-18.629-60.808c-0.828-2.98-1.957-4.46-3.088-4.446
	c-1.109-0.015-2.236,1.461-3.065,4.439l-18.61,60.8c-1.68,5.541-1.52,3.691-0.003,8.625l18.614,60.807
	c0.843,2.975,1.958,4.473,3.074,4.467c1.115,0,2.25-1.492,3.08-4.467l18.613-60.807C176.225,149.46,176.402,151.32,174.734,145.795z
	"/>
<polygon display="none" fill="#F47F54" points="153.02,150.1 166.379,150.103 153.02,97.233 139.659,150.103 "/>
<g display="none">
	<path display="inline" fill="#273246" d="M222.541,63.237H76.792c-9.308,0-16.851,7.543-16.851,16.848v118.304
		c0,9.307,7.543,16.852,16.851,16.852h56.327c-0.01,0.138-5.226,25.604-5.226,25.604h-16.641c-5.168,0-5.092,8.551-5.092,8.551
		h87.009c0,0,0.077-8.551-5.086-8.551h-16.646c0,0-5.217-25.467-5.229-25.604h56.332c9.309,0,16.852-7.545,16.852-16.852V80.085
		C239.393,70.78,231.848,63.237,222.541,63.237z M149.663,211.032c-4.138,0-7.485-3.356-7.485-7.486
		c0-4.138,3.347-7.496,7.485-7.496c4.14,0,7.495,3.358,7.495,7.496C157.158,207.676,153.803,211.032,149.663,211.032z
		 M226.288,184.911c0,2.062-1.679,3.739-3.747,3.739H76.792c-2.065,0-3.743-1.678-3.743-3.739V80.085c0-2.064,1.678-3.74,3.743-3.74
		h145.75c2.069,0,3.747,1.676,3.747,3.74L226.288,184.911L226.288,184.911z"/>
	<rect x="82.408" y="85.705" display="inline" fill="#FFFFFF" width="134.516" height="93.59"/>
</g>
</svg>
