<?xml version="1.0" encoding="utf-8"?>
<!-- Generator: Adobe Illustrator 14.0.0, SVG Export Plug-In . SVG Version: 6.00 Build 43363)  -->
<!DOCTYPE svg PUBLIC "-//W3C//DTD SVG 1.1//EN" "http://www.w3.org/Graphics/SVG/1.1/DTD/svg11.dtd">
<svg version="1.1" id="Layer_1" xmlns="http://www.w3.org/2000/svg" xmlns:xlink="http://www.w3.org/1999/xlink" x="0px" y="0px"
	 width="300px" height="300px" viewBox="0 0 300 300" enable-background="new 0 0 300 300" xml:space="preserve">
<g>
	<path fill="#C8AD8F" d="M290.552,150.809c0,77.74-63.026,140.767-140.768,140.767c-77.742,0-140.765-63.026-140.765-140.767
		c0-77.74,63.024-140.76,140.766-140.76S290.552,73.069,290.552,150.809z"/>
	<g>
		<g>
			<g>
				<path fill="#C8AD8F" d="M290.246,181.424c1.048-4.443-3.394,12.264-1.269,2.763c-1.754,6.506-5.755,20.021-9.65,27.654
					c-1.077,0.567,2.049-6.185-5.275,7.049c-10.819,17.062,0.096,3.049-10.221,18.008c2.512-3.307,4.954-6.673,7.187-10.182
					c-5.227,11.499-25.549,34.149-44.135,45.199c-14.031,7.949-27.788,12.952-47.949,17.68c1.098-0.345,6.019-1.689,4.944-1.749
					c-3.746,0.665-10.28,2.118-14.173,2.73c-10.662,2.005,3.126,0.508-0.853,1.521c-8.954,1.455-17.649,2.531-30.435,1.265
					c-5.261-0.777-10.445-1.958-15.536-3.331c-10.733-0.421-26.943-6.321-45.659-16.757c-3.48-2.349-21.962-14.786-24.162-18.716
					c-7.249-6.935,0.103-2.849-5.049-9.019c-8.953-10.684,6.707,6.921-2.201-3.776c10.649,10.652,1.208,5.51,16.896,18.711
					l-0.602-0.854c6.687,5.073,18.581,13.579,24.224,15.302c19.787,9.491-0.894,0.985,8.677,6.103
					c5.924,2.513,30.191,8.599,31.347,7.082c-5.601-0.901-11.123-2.245-16.564-3.843c2.662,0.728,0.675-0.056,1.778,0.165
					c5.489,2.188,16.149,3.673,24.212,3.906c8.067,0.243,13.582-0.109,9.239,1.312c-2.258,0.223-8.223-0.442-10.015-0.258
					c0.782,0.805,12.497,1.565,21.28,1.031c9.019-1.158,19.025-3.445,32.562-6.957c4.709-1.174,2.065-0.005,6.745-1.344
					c13.39-5.206,19.41-8.592,25.682-11.877c6.09-3.544,12.676-7.028,23.771-17.407c14.681-12.212,27.73-32.074,35.309-49.561
					c-1.531,2.509,4.303-11.885,5.072-15.743c1.059-2.507,3.923-12.725,4.463-20.363c-0.554,4.464,0.069,1.782-0.175,4.919
					c1.85-17.12,1.999-20.308,2.823-21.279C292.482,164.219,293.563,165.834,290.246,181.424z"/>
				<path fill="#C8AD8F" d="M20.702,211.199c1.845,2.875-10.167-27.428-3.596-13.489c-3.203-9.956-4.318-14.587-5.845-20.258
					c2.105,11.849-0.888-2.814-0.017,3.61c-8.94-37.859-0.864-77.305,18.963-107.353c15.477-21.854,33.124-38.612,55.819-51.087
					c14.589-6.414,5.545-1.163,2.592,0.853c5.967-2.778,12.075-5.259,18.353-7.243c-6.254,2.26-12.295,5.022-18.161,8.062
					c-0.366,0.685,7.698-3.012,12.422-4.333c1.698-0.682,3.433-1.266,5.149-1.905c-2.741,2.036-11.886,5.205-21.895,10.298
					c-10.03,5.011-20.656,12.292-27.332,18.755c17.097-14.409-3.218,1.585,3.778-4.807l-5.398,4.547
					c4.618-4.202,13.777-12.889,28.191-20.732C42.587,46.983,17.041,89.838,12.548,126.306c0.05-1.079,0.38-3.964-0.363-0.697
					c-2.373,13.129-1.055,21.073-0.73,26.788c-0.218-1.919-0.199-3.843-0.298-5.772c-0.892,8.186,0.778,21.577,2.901,31.149
					c1.705,10.528,2.684,17.916,10.741,34.312l-0.713-0.343c2.124,4.449,4.399,8.836,6.962,13.06c-2.04-3.062-1.374-1.7-1.078-0.975
					c-0.685-0.847-0.961-1.572-2.216-3.858c-1.099-0.477,1.696,6.79,6.253,13.885c-1.511-2.171-2.955-4.381-3.968-5.96
					c2.922,6.274,18.271,24.692,9.988,16.086C27.638,228.116,29.304,227.351,20.702,211.199z"/>
				<path fill="#C8AD8F" d="M79.712,271.124c-11.829-7.67,3.653,1.692,1.283-0.432c3.609,2.11,7.356,3.986,11.162,5.71
					C92.188,277.218,80.974,271.504,79.712,271.124z"/>
				<path fill="#C8AD8F" d="M173.061,9.453c1.164,0.595,10.431,2.09,15.464,3.796c10.069,2.775,12.874,2.804,26.425,9.68
					c-11.052-4.191,10.622,6.699,18.378,14.143c-6.011-4.386-17.952-10.813-28.429-15.938c1.472,0.136-8.188-3.993-13.188-5.612
					c-8.025-0.942,5.807,2.077-26.031-3.169c-5.869-1.116-20.527-0.884-19.605-1.441c-4.14-0.205-7.912,1.024-12.49,0.917
					l-2.317-0.007c6.664-1.105,13.428-1.547,20.194-1.666c0.746,0.119,2.277,0.356,4.12,0.361
					c-3.821-1.192,22.087,0.989,8.994-1.325c-9.338-0.945-18.763-0.966-28.104-0.086c-6.84,0.479,2.703-1.393,12.92-1.499
					C164.199,8.426,163.36,8.649,173.061,9.453z"/>
				<path fill="#C8AD8F" d="M103.922,16.844l-1.512,0.301c7.705-2.838,15.681-4.951,23.782-6.345
					C118.598,12.148,111.149,14.224,103.922,16.844z"/>
				<path fill="#C8AD8F" d="M253.612,51.736c-3.507-3.382-6.397-6.487-10.237-9.475l0.154-1.082
					C247.079,44.526,250.471,48.032,253.612,51.736z"/>
				<path fill="#C8AD8F" d="M33.618,75.72c-3.001,5.628-10.653,19.8-11.652,25.106c1.614-4.035,0.867-2.721,1.146-3.757
					c-1.099,2.575-2.3,5.12-3.282,7.75C22.725,94.788,27.464,85.56,33.618,75.72z"/>
				<path fill="#C8AD8F" d="M280.835,92.438c6.403,15.246,8.506,18.168,11.512,37.444c0.293,4.228-1.137-5.09-0.556,1.008
					c0.61,6.057,0.982,7.448,1.409,10.421l0.119-2.37c0.112,4.757-0.696,19.554-1.546,11.867
					c-0.373-24.162-5.545-34.572-10.92-52.059l-0.289-3.37c-1.6-3.366-3.183-6.732-5.017-9.97c-0.291-0.708,0.171-0.597-1.748-3.796
					c-4.182-6.54,2.43,5.19,1.562,4.918c-3.431-6.269-7.299-12.29-11.671-17.912c-1.469-2.164,1.482,1.599,1.118,0.917
					c-5.58-8.542-10.86-12.379-16.39-19.13c3.262,2.976,6.407,6.093,9.397,9.366c-10.307-12.312-19.558-20.211-28.657-26.926
					C254.946,51.73,268.69,65.255,280.835,92.438z"/>
			</g>
		</g>
	</g>
</g>
<polygon fill-rule="evenodd" clip-rule="evenodd" fill="#FFFFFF" points="67.5,79.5 107.5,40.5 150.771,32.5 193.5,44.5 
	228.169,65.5 251.5,102.5 260.5,146.069 254.5,188.5 228.169,227.5 181.5,250.5 100.5,250.5 53.5,222.5 39.5,186.5 39.5,126.5 "/>
<path display="none" fill="#FFFFFF" d="M256.34,171.785l20.254-20.172L256.34,131.44c-3.898-20.563-13.811-40.207-29.783-56.121
	c-15.965-15.918-35.688-25.799-56.326-29.688l-20.233-20.178l-20.243,20.178c-20.644,3.877-40.356,13.764-56.326,29.674
	c-15.975,15.916-25.896,35.572-29.793,56.135l-20.24,20.173l20.24,20.172c3.908,20.562,13.824,40.218,29.793,56.133
	c15.974,15.909,35.683,25.78,56.316,29.675l20.249,20.175l20.249-20.175c20.628-3.895,40.351-13.774,56.314-29.688
	C242.529,211.993,252.441,192.35,256.34,171.785z M150.142,240.064c-49.03,0-88.77-39.602-88.77-88.451
	c0-48.85,39.74-88.464,88.77-88.464c49.02,0,88.774,39.614,88.774,88.464C238.916,200.463,199.162,240.064,150.142,240.064z"/>
<path display="none" fill="#E6E6E6" d="M174.734,145.795l-18.629-60.808c-0.828-2.98-1.957-4.46-3.088-4.446
	c-1.109-0.015-2.236,1.461-3.065,4.439l-18.61,60.8c-1.68,5.541-1.52,3.691-0.003,8.625l18.614,60.806
	c0.843,2.974,1.958,4.472,3.074,4.467c1.115,0,2.25-1.493,3.08-4.467l18.613-60.806C176.225,149.46,176.402,151.32,174.734,145.795z
	"/>
<polygon display="none" fill="#F47F54" points="153.02,150.1 166.379,150.103 153.02,97.233 139.659,150.103 "/>
<g display="none">
	<path display="inline" fill="#273246" d="M222.541,63.237H76.792c-9.308,0-16.851,7.543-16.851,16.848v118.304
		c0,9.307,7.543,16.851,16.851,16.851h56.327c-0.01,0.138-5.226,25.604-5.226,25.604h-16.641c-5.168,0-5.092,8.55-5.092,8.55h87.009
		c0,0,0.077-8.55-5.086-8.55h-16.646c0,0-5.217-25.467-5.228-25.604h56.332c9.308,0,16.851-7.544,16.851-16.851V80.085
		C239.393,70.78,231.848,63.237,222.541,63.237z M149.663,211.032c-4.138,0-7.485-3.356-7.485-7.486
		c0-4.138,3.347-7.496,7.485-7.496c4.14,0,7.495,3.358,7.495,7.496C157.158,207.676,153.803,211.032,149.663,211.032z
		 M226.288,184.911c0,2.062-1.679,3.739-3.747,3.739H76.792c-2.065,0-3.743-1.678-3.743-3.739V80.085c0-2.064,1.678-3.74,3.743-3.74
		h145.75c2.069,0,3.747,1.676,3.747,3.74L226.288,184.911L226.288,184.911z"/>
	<rect x="82.408" y="85.705" display="inline" fill="#FFFFFF" width="134.516" height="93.59"/>
</g>
<path fill-rule="evenodd" clip-rule="evenodd" fill="#273246" d="M152.102,270.301c-23.356,0.17-42.226-0.491-60.419-6.259
	c-15.971-5.068-29.703-13.39-39.405-27.778c-9.54-14.114-12.224-30.783-18.629-46.023c-6.738-16.074-6.109-32.675-5.81-49.209
	c0.256-13.603,5-26.635,10.553-38.953c6.551-14.54,14.711-28.263,25.75-40.07c6.101-6.507,13.059-12.258,20.453-16.696
	c6.542-3.926,12.641-8.636,18.936-12.76c10.75-7.069,21.372-10.357,33.996-8.857c3.987,0.476,8.178-1.082,12.275-1.218
	c19.148-0.666,37.633,2.163,54.261,12.24c10.484,6.354,19.286,14.761,27.838,23.681c7.716,8.075,11.267,19.088,18.96,26.448
	c14.881,14.216,15.393,33.408,19.226,51.007c5.802,26.55-3.092,50.948-16.276,73.989c-7.388,12.923-17.267,24.566-28.954,32.301
	c-11.134,7.378-22.906,14.83-35.94,20.036C175.297,267.592,161.692,269.093,152.102,270.301 M253.185,136.619
	c-0.459-9.583-4.282-17.616-7.571-25.69c-5.375-13.179-13.526-24.618-23.646-34.662c-1.936-1.907-4.625-2.385-6.449-4.02
	c-4.293-3.833-4.515,8.705-9.088,2.037c-0.494,0.511-1.27,0.927-1.414,1.524c-1.125,4.072-4.849,5.716-7.445,8.441
	c-2.173,2.291-3.663,5.298-7.248,2.564c-3.204-2.461-3.281-5.384-1.219-8.901c2.845-4.864,6.448-9.208,10.622-12.709
	c2.461-2.061,2.496-3.884,1.745-5.911c-2.247-6.1-18.568-12.172-24.421-8.894c0.537-6.464-3.161-8.969-8.723-9.429
	c-4.506-0.366-8.9-0.622-13.441-1.558c-8.919-1.84-18.894-2.684-28.315,0.816c-6.643,2.48-9.404,6.628-5.75,12.667
	c2.266,3.749,3.442,7.436,0.162,9.336c-3.748,2.146-4.625-3.526-6.729-5.477c-2.743-2.546-4.481-6.295-8.501-2.896
	c-9.575,8.075-20.171,14.753-28.119,25.018c-2.981,3.849-1.056,9.276-5.878,11.72c-1.584,0.801-3.961,2.334-2.972,4.864
	c0.706,1.814,2.624,2.18,4.616,2.3c5.801,0.34,4.301,4.873,4.301,8.246c0.009,4.02-3.21,5.145-5.963,3.969
	c-4.659-1.994-5.8,3.986-9.523,3.381c0.545,9.08-10.017,13.477-8.995,24.013c0.553,5.554,0.664,5.231,4.762,5.018
	c1.252-0.061,3.092,0.911,3.739,1.976c1.09,1.789-0.075,3.509-1.636,4.693c-1.004,0.749-2.094,1.481-3.262,1.925
	c-5.783,2.139-8.739,5.314-7.564,12.334c0.817,4.795,4.975,9.924,0.502,15.044c-0.11,0.111,0.579,0.809,0.758,1.285
	c4.071,11.194,7.88,22.208,15.436,32.096c4.583,5.973,7.342,5.64,11.746,2.294c3.434-2.626,6.27-0.088,8.825,0.706
	c2.301,0.705-0.852,3.322-1.176,5.366c4.396,0.17,8.809-6.202,12.3,0.485c2.838,5.417-2.428,6.959-5.417,9.591
	c6.584,2.325,12.598,5.392,18.961,6.449c6.304,1.049,11.968,6.302,19.218,2.701c6.432-3.205,9.668-0.676,10.239,6.762
	c0.128,1.823-1.047,5.493,1.609,5.068c4.889-0.783,11.73,2.249,14.226-1.68c3.611-5.662,10.441-4.997,12.599-4.42
	c7.938,2.131,12.684-3.102,18.619-5.331c5.503-2.069,10.666-5.972,16.253-6.637c8.972-1.064,14.005-7.13,19.942-12.291
	c1.489-1.304,2.589-2.846-0.442-3.927c-5.181-1.84-7.991-6.228-11.143-10.342c-0.964-1.26-3.809-1.447-1.535-3.772
	c1.356-1.415,3.809-3.221,5.112-1.867c2.742,2.922,6.942,1.271,9.83,4.159c1.55,1.558,4.669,5.613,7.548,2.428
	c2.333-2.601,6.218-3.843,7.478-6.645c4.965-10.93,10.154-21.758,11.798-34.021c0.572-4.396,2.156-9.251,2.223-13.477
	c0.103-6.483-7.487-4.625-11.507-6.721c-3.901-2.053-6.576-5.885-6.115-8.833c0.62-4.028,5.653-2.197,8.833-2.316
	C248.187,135.384,250.427,136.142,253.185,136.619"/>
<path fill-rule="evenodd" clip-rule="evenodd" fill="#273246" d="M158.968,123.323c4.24-7.334,10.629-10.461,16.507-14.354
	c2.188-1.448,4.361-2.615,6.372-1.457c1.993,1.133,1.194,3.594,0.495,5.64c-1.585,4.59-2.794,9.292-4.559,13.798
	c-1.713,4.327-1.899,7.096,3.689,8.612c15.681,4.286,30.247,12.325,46.687,13.102c0.266,4.344-4.734-0.733-4.371,3.449
	c0.232,2.549-0.789,5.521,3.017,6.749c-3.212,0-6.558,0.586-9.617-0.111c-7.367-1.688-13.679,2.546-20.204,4.07
	c-5.179,1.218-11.031,0.86-15.962,3.747c-1.458,0.853-3.826,0.683-3.46,2.974c0.188,1.134,0.299,3.63,3.391,2.666
	c0.954-0.306,3.313,2.379,4.362,4.098c3.167,5.214,5.97,10.614,11.2,14.24c2.411,1.674,3.306,4.652,1.38,6.749
	c-1.329,1.465-3.45,0.46-5.817-0.946c-4.897-2.92-10.776-4.644-16.467-5.708c-3.629-0.679-6.745-2.332-10.128-3.396
	c-3.107,2.154,0.819,7.213-3.841,8.586c-0.93-2.777-0.869-5.368,0.656-8.075c0.672-1.21,0.775-3.194-1.483-3.604
	c-1.899-0.35-2.377,0.732-3.075,2.47c-4.301,10.819-6.371,22.122-7.639,33.588c-0.366,3.355,0.05,6.96-2.948,9.106
	c-2.589,1.864,0.034,2.35,0.452,3.38c0.876,2.182,1.993,4.703-0.725,5.979c-3.005,1.424-5.025-0.749-5.698-3.44
	c-1.567-6.439-4.038-12.879-4.788-19.234c-0.912-7.521-6.583-13.492-5.409-21.576c0.477-3.195-1.507-5.809-5.451-1.542
	c-3.008,3.271-8.178,4.515-11.337,7.692c-4.651,4.658-7.854,0.886-11.117-1.108c-3.594-2.196,0.111-4.897,0.597-7.205
	c1.542-7.344,7.163-12.786,9.924-19.652c1.149-2.854,1.396-4.223-2.292-4.77c-12.982-1.925-23.221-10.963-35.768-14.08
	c-1.192-0.299-2.666-1.585-2.002-2.838c0.597-1.166,2.181-2.291,3.501-2.546c12.649-2.479,25.222-5.281,38.203-9.071
	c-5.153-4.941-9.166-10.529-13.032-16.27c-1.567-2.317-3.433-4.6-1.993-6.934c1.738-2.819,4.318-0.375,6.133,0.622
	c2.453,1.354,4.931,1.559,7.513,1.354c4.523-0.348,8.731,0.026,12.351,5.725c1.858-10.222,4.354-18.825,4.797-27.53
	c0.706-13.604,2.41-27.003,4.948-40.352c0.308-1.609,0.741-3.304,2.709-2.818c1.626,0.391,1.124,1.754,0.638,3.101
	c-0.425,1.158-0.382,3.663-0.135,3.722c9.931,2.242,4.601,11.61,7.793,17.123c3.255,5.613,3.886,12.785,5.505,19.311
	C154.581,104.778,156.547,113.245,158.968,123.323 M140.593,160.078c-0.229,3.459,0.025,6.832,5.444,6.728
	c6.064-0.094,9.753-4.827,9.931-13.202c0.085-4.522-2.503-7.316-6.472-8.194C145.603,144.54,140.602,152.862,140.593,160.078"/>
<path fill-rule="evenodd" clip-rule="evenodd" fill="#FFFFFF" d="M-250.5-119.5"/>
</svg>
