<?xml version="1.0" encoding="utf-8"?>
<!-- Generator: Adobe Illustrator 14.0.0, SVG Export Plug-In . SVG Version: 6.00 Build 43363)  -->
<!DOCTYPE svg PUBLIC "-//W3C//DTD SVG 1.1//EN" "http://www.w3.org/Graphics/SVG/1.1/DTD/svg11.dtd">
<svg version="1.1" id="Layer_1" xmlns="http://www.w3.org/2000/svg" xmlns:xlink="http://www.w3.org/1999/xlink" x="0px" y="0px"
	 width="30px" height="30px" viewBox="0 0 30 30" enable-background="new 0 0 30 30" xml:space="preserve">
<path fill="#FFFFFF" d="M17.143,15.491c-1.119,0.731-2.171,1.221-3.21,1.716c-0.376,0.179-0.853,0.154-1.278-0.18
	c0.008,0.254,0.078,0.416,0.011,0.555c-0.227,0.467-0.383,0.898,0.163,1.345c0.27,0.218,0.308,0.783,0.172,0.796
	c-0.562,0.041-1.011,0.307-1.711,0.168c-1.845-0.365-2.68-1.306-3.757-2.185c-1.25-1.019-0.712-2.108-0.823-3.188
	c-0.094-0.925,0.668-1.641,1.205-2.425c0.293-0.428,0.904-0.642,1.344-0.967c0.253-0.184,0.67-0.081,0.964-0.019
	c0.284,0.061,0.067,0.262,0.067,0.403c-0.005,0.452-0.278,0.918,0.332,1.328c0.811,0.543,1.611,0.252,2.23-0.072
	c0.902-0.473,1.646-1.031,2.081-1.782c1.171-2.026,0.817-4.018,0.021-6.023c-0.057-0.147-0.209-0.301,0.131-0.358
	c0.231-0.04,0.459-0.009,0.503,0.204c0.054,0.271,0.315,0.419,0.707,0.557c0.399,0.142,0.64,0.426,0.84,0.712
	c0.745,1.074,1.777,2.06,2.556,3.115c0.453,0.611,1.199,1.24,0.912,2.014c-0.129,0.351,0.308,0.605,0.398,0.936
	c0.551,1.989,0.027,3.88-0.895,5.769c-0.672,1.374-2.479,1.887-4.338,2.357c-0.76,0.191-1.2-0.229-1.629-0.496
	c-0.295-0.184,0.175-0.336,0.37-0.449c0.557-0.327,1.081-0.67,1.514-1.065C16.889,17.461,16.684,16.512,17.143,15.491"/>
<path fill="#2A2942" d="M1.643,27.812c-0.238-0.736,0.449-1.158,1.298-1.515c0.751-0.313,1.494-0.606,1.936-1.153
	c0.256-0.318,0.856-0.479,1.408-0.567c3.014-0.479,5.53-1.64,8.201-2.548c1.686-0.57,3.452-1.108,5.071-1.797
	c0.924-0.394,2.202-0.496,3.325-0.67c0.771-0.117,1.16,0.566,1.099,0.886c-0.182,0.92-0.931,1.729-2.131,2.291
	c-1.408,0.659-2.826,1.344-4.383,1.84c-1.3,0.411-2.501,0.933-3.885,1.278c-1.457,0.365-2.895,0.838-4.271,1.346
	c-0.613,0.227-1.251,0.408-1.916,0.55c-0.855,0.179-1.551,0.509-2.206,0.875c-1.208,0.679-2.223,0.679-3.226,0.024
	C1.556,28.389,1.703,28.096,1.643,27.812"/>
<path fill="#FFFFFF" d="M11.103,1.232c0.661,0.718,0.646,1.562,1.001,2.339c0.613,1.339,1.188,2.737,0.677,4.2
	c-0.112,0.317-0.108,0.685-0.217,1.029c-0.113,0.346-0.258,0.392-0.823,0.229c-1.146-0.333-1.63-1.052-2.494-1.537
	C8.009,6.8,8.252,5.811,7.895,4.943c-0.061-0.145,0-0.321-0.106-0.441c-0.241-0.278-0.124-0.436,0.302-0.56
	c0.556-0.164,0.568,0.201,0.732,0.337C9.114,4.515,8.899,5.055,9.87,4.806c0.928-0.238,0.981-0.531,0.735-1.133
	c-0.26-0.628-0.086-1.332-0.226-2.003C10.329,1.419,10.725,1.271,11.103,1.232"/>
<path fill="#2A2942" d="M19.359,28.635c-1.933,0.34-3.51-0.395-5.124-1.051c-0.3-0.121-0.419-0.288-0.185-0.491
	c0.523-0.448,1.021-0.915,1.604-1.329c0.359-0.254,0.822-0.395,1.468-0.305c1.642,0.225,3.233,0.531,4.711,1.025
	c0.45,0.15,0.444,0.66,1.082,0.773c0.009,0.001,0.002,0.128-0.051,0.167C21.984,28.085,21.131,28.777,19.359,28.635"/>
<path fill="#2A2942" d="M2.771,20.113c2.687,0.01,5.005,0.33,7.092,1.174c1.154,0.465,1.172,0.541,0.136,1.13
	c-0.591,0.337-1.22,0.649-1.761,1.019c-0.199,0.135-0.287,0.041-0.399,0.02c-1.987-0.368-3.829-0.95-5.655-1.549
	c-0.584-0.191-0.503-0.592-0.308-0.92C2.101,20.611,2.345,20.227,2.771,20.113"/>
</svg>
