<?xml version="1.0" encoding="utf-8"?>
<!-- Generator: Adobe Illustrator 14.0.0, SVG Export Plug-In . SVG Version: 6.00 Build 43363)  -->
<!DOCTYPE svg PUBLIC "-//W3C//DTD SVG 1.1//EN" "http://www.w3.org/Graphics/SVG/1.1/DTD/svg11.dtd">
<svg version="1.1" id="Layer_1" xmlns="http://www.w3.org/2000/svg" xmlns:xlink="http://www.w3.org/1999/xlink" x="0px" y="0px"
	 width="171.506px" height="139.379px" viewBox="0 0 171.506 139.379" enable-background="new 0 0 171.506 139.379"
	 xml:space="preserve">
<g transform="translate(-282.32053,-396.30734)" display="none">
	<path display="inline" fill="#FFFFFF" d="M453.826,412.806c-6.31,2.799-13.092,4.689-20.209,5.54
		c7.265-4.354,12.845-11.249,15.471-19.466c-6.799,4.032-14.329,6.96-22.345,8.538c-6.417-6.839-15.562-11.111-25.683-11.111
		c-19.432,0-35.187,15.754-35.187,35.186c0,2.758,0.311,5.443,0.911,8.019c-29.243-1.467-55.17-15.476-72.524-36.764
		c-3.029,5.196-4.765,11.24-4.765,17.688c0,12.208,6.212,22.978,15.653,29.287c-5.768-0.183-11.193-1.766-15.938-4.4
		c-0.004,0.146-0.004,0.294-0.004,0.442c0,17.048,12.129,31.269,28.226,34.503c-2.952,0.804-6.061,1.233-9.27,1.233
		c-2.268,0-4.472-0.221-6.62-0.631c4.478,13.979,17.472,24.151,32.87,24.435c-12.043,9.438-27.214,15.063-43.7,15.063
		c-2.84,0-5.641-0.167-8.394-0.492c15.572,9.984,34.067,15.81,53.938,15.81c64.721,0,100.113-53.615,100.113-100.114
		c0-1.525-0.034-3.043-0.102-4.553C443.144,426.059,449.108,419.863,453.826,412.806L453.826,412.806z"/>
</g>
<g id="_x23_020201ff">
	<path fill="#3B5998" d="M102.71,13.398c4.3-4.834,10.415-6.467,16.184-6.67c6.1-0.065,12.199-0.025,18.3-0.023
		c0.023,7.6,0.025,15.203-0.003,22.802c-3.943-0.008-7.888,0.012-11.831-0.008c-2.499-0.184-5.067,2.054-5.521,4.98
		c-0.061,5.085-0.022,10.173-0.02,15.259c5.782,0.028,11.564-0.008,17.348,0.017c-0.423,7.356-1.196,14.68-2.103,21.974
		c-5.108,0.057-10.219-0.006-15.327,0.031c-0.046,21.698,0.024,43.396-0.035,65.093c-7.587,0.037-15.179-0.017-22.765,0.025
		c-0.144-21.7,0.012-43.412-0.079-65.115c-3.701-0.045-7.404,0.031-11.105-0.036c0.014-7.295,0.005-14.589,0.007-21.881
		c3.698-0.054,7.399,0.011,11.099-0.031c0.112-7.092-0.113-14.191,0.118-21.277C97.346,22.927,99.158,17.273,102.71,13.398z"/>
</g>
</svg>
