<?xml version="1.0" encoding="utf-8"?>
<!-- Generator: Adobe Illustrator 14.0.0, SVG Export Plug-In . SVG Version: 6.00 Build 43363)  -->
<!DOCTYPE svg PUBLIC "-//W3C//DTD SVG 1.1//EN" "http://www.w3.org/Graphics/SVG/1.1/DTD/svg11.dtd">
<svg version="1.1" id="Layer_1" xmlns="http://www.w3.org/2000/svg" xmlns:xlink="http://www.w3.org/1999/xlink" x="0px" y="0px"
	 width="30px" height="30px" viewBox="0 0 30 30" enable-background="new 0 0 30 30" xml:space="preserve">
<path fill="#FFFFFF" d="M25.426,11.035c0.024-0.045-0.195-0.24,0.055-0.302c0.203-0.05,0.205,0.147,0.265,0.252
	c0.063,0.118,0.101,0.254,0.127,0.386c0.46,2.087,1.239,4.08,1.812,6.135c0.111,0.402,0.349,0.771,0.273,1.225
	c-0.048,0.28,0.357,0.235,0.396,0.516c0.102,0.719,0.426,1.374,0.646,2.061c0.232,0.721-0.062,1.059-0.773,1.201
	c-0.91,0.186-1.836,0.194-2.746,0.248c-0.643,0.039-1.316,0.002-1.979-0.002c-1.285-0.007-2.568-0.057-3.854-0.046
	c-1.709,0.017-3.416,0.074-5.125,0.114c-0.052,0.001-0.115-0.02-0.154,0.003c-0.672,0.368-0.945-0.193-1.074-0.599
	c-0.405-1.272-1.215-2.354-1.636-3.61c-0.38-1.14-0.723-2.289-1.142-3.413c-0.415-1.109-0.899-2.193-1.366-3.283
	c-0.107-0.251-0.115-0.525-0.236-0.777c-0.042-0.09-0.104-0.406,0.329-0.404c1.3,0.008,2.597-0.177,3.895-0.221
	c0.482-0.017,0.998-0.025,1.501,0.021c1.063,0.096,2.144,0.121,3.207,0.037c0.801-0.063,1.588,0.008,2.381,0.003
	c0.912-0.005,1.82,0.013,2.732-0.038c0.461-0.026,0.992-0.242,1.455,0.08c0.014,0.01,0.033,0.035,0.038,0.033
	C25.029,10.274,24.973,11.1,25.426,11.035"/>
<path fill="#FFFFFF" d="M6.639,19.195c-0.373,0.49-0.521,1.045-0.779,1.535c-0.254,0.485-0.529,0.945-0.922,1.334
	c-0.341,0.338-0.815,0.268-1.173,0.238c-0.405-0.031-0.784-0.029-1.167,0.062c-0.533,0.126-1.05-0.061-1.575-0.067
	c-0.168-0.003-0.086-0.169-0.042-0.282c0.477-1.254,1.131-2.426,1.752-3.607c0.295-0.562,0.644-1.127,1.037-1.635
	c0.297-0.383,0.411-0.834,0.65-1.231c0.892-1.479,1.779-2.963,2.677-4.44c0.156-0.257,0.352-0.466,0.719-0.413
	c0.325,0.047,0.3,0.334,0.379,0.517c0.63,1.46,1.299,2.909,1.82,4.409c0.308,0.881,0.637,1.763,0.909,2.662
	c0.209,0.693,0.504,1.395,0.759,2.092c0.232,0.637,0.391,1.302,0.577,1.955c0.1,0.352,0.021,0.574-0.404,0.58
	c-0.885,0.017-1.77,0.062-2.655,0.068c-0.495,0.002-0.87-0.257-1.086-0.697C7.625,21.275,7.152,20.27,6.639,19.195"/>
<path fill="#2A2942" d="M7.836,8.715C7.695,9.081,7.574,9.417,7.374,9.718C7.294,9.839,7.218,9.897,7.088,9.87
	C6.969,9.846,6.956,9.742,6.919,9.64C6.772,9.233,6.911,8.81,7.091,8.527c0.508-0.795,0.06-1.392-0.266-2.036
	C6.74,6.325,6.662,6.152,6.559,5.997C6.416,5.782,6.457,5.63,6.673,5.501c0.204-0.123,0.374-0.131,0.52,0.091
	C7.406,5.92,7.721,6.188,7.776,6.627C8.462,6.1,8.116,4.923,9.125,4.598C9.138,4.944,9.082,5.254,8.95,5.522
	C8.678,6.074,8.606,6.704,8.268,7.226C8.163,7.389,8.227,7.507,8.306,7.673c0.229,0.476,0.686,0.81,0.81,1.355
	c0.037,0.164,0.191,0.3,0.021,0.462C8.991,9.631,8.824,9.689,8.613,9.63C8.163,9.505,7.99,9.145,7.836,8.715"/>
<path fill="#2A2942" d="M24.869,8.842c-0.217,0.127-0.26,0.326-0.354,0.486c-0.111,0.185-0.289,0.311-0.474,0.231
	c-0.209-0.09-0.235-0.318-0.157-0.537c0.047-0.129,0.063-0.285,0.148-0.382c0.592-0.671,0.21-1.304-0.079-1.928
	c-0.075-0.162-0.218-0.288-0.038-0.448c0.193-0.171,0.305,0.073,0.453,0.115c0.083,0.024,0.129,0.159,0.208,0.222
	c0.235,0.19,0.476,0.495,0.719-0.006c0.037-0.078,0.159-0.12,0.249-0.165c0.173-0.09,0.251-0.494,0.475-0.29
	c0.19,0.175,0.049,0.564-0.103,0.728c-0.617,0.673-0.551,1.374-0.216,2.124c0.056,0.125,0.093,0.263,0.109,0.398
	c0.026,0.188-0.136,0.282-0.256,0.358c-0.139,0.085-0.246-0.074-0.275-0.162C25.188,9.307,24.848,9.189,24.869,8.842"/>
</svg>
