<?xml version="1.0" encoding="utf-8"?>
<!-- Generator: Adobe Illustrator 14.0.0, SVG Export Plug-In . SVG Version: 6.00 Build 43363)  -->
<!DOCTYPE svg PUBLIC "-//W3C//DTD SVG 1.1//EN" "http://www.w3.org/Graphics/SVG/1.1/DTD/svg11.dtd">
<svg version="1.1" id="Layer_1" xmlns="http://www.w3.org/2000/svg" xmlns:xlink="http://www.w3.org/1999/xlink" x="0px" y="0px"
	 width="300px" height="300px" viewBox="0 0 300 300" enable-background="new 0 0 300 300" xml:space="preserve">
<g>
	<path fill="#C8AD8F" d="M290.078,153.787c0,77.74-63.027,140.768-140.768,140.768c-77.742,0-140.765-63.027-140.765-140.768
		s63.024-140.76,140.766-140.76C227.053,13.027,290.078,76.047,290.078,153.787z"/>
	<g>
		<g>
			<g>
				<path fill="#C8AD8F" d="M289.771,184.402c1.049-4.443-3.395,12.264-1.27,2.764c-1.754,6.506-5.754,20.02-9.648,27.652
					c-1.078,0.568,2.049-6.184-5.275,7.051c-10.82,17.061,0.096,3.049-10.221,18.008c2.512-3.309,4.953-6.674,7.186-10.184
					c-5.227,11.5-25.549,34.15-44.135,45.199c-14.031,7.949-27.787,12.953-47.949,17.68c1.1-0.344,6.02-1.688,4.945-1.748
					c-3.746,0.664-10.281,2.117-14.174,2.73c-10.662,2.004,3.127,0.508-0.854,1.521c-8.953,1.453-17.648,2.529-30.434,1.264
					c-5.261-0.777-10.445-1.957-15.536-3.33c-10.733-0.422-26.943-6.322-45.659-16.758c-3.48-2.35-21.962-14.785-24.162-18.715
					c-7.249-6.936,0.103-2.85-5.049-9.02c-8.953-10.684,6.707,6.92-2.201-3.775c10.649,10.65,1.208,5.51,16.896,18.711l-0.602-0.855
					c6.687,5.074,18.581,13.58,24.224,15.303c19.787,9.49-0.894,0.984,8.677,6.104c5.924,2.512,30.191,8.598,31.347,7.082
					c-5.601-0.902-11.123-2.246-16.564-3.844c2.662,0.729,0.675-0.057,1.778,0.166c5.489,2.188,16.149,3.672,24.212,3.904
					c8.067,0.244,13.582-0.107,9.239,1.312c-2.258,0.223-8.223-0.441-10.015-0.258c0.782,0.805,12.497,1.564,21.281,1.031
					c9.018-1.158,19.023-3.445,32.561-6.957c4.709-1.174,2.066-0.006,6.746-1.344c13.389-5.207,19.41-8.592,25.682-11.877
					c6.09-3.545,12.676-7.029,23.771-17.408c14.68-12.211,27.729-32.072,35.309-49.561c-1.531,2.51,4.303-11.885,5.072-15.742
					c1.059-2.508,3.922-12.725,4.463-20.363c-0.555,4.463,0.068,1.781-0.176,4.918c1.85-17.119,2-20.307,2.824-21.277
					C292.008,167.197,293.088,168.812,289.771,184.402z"/>
				<path fill="#C8AD8F" d="M20.228,214.178c1.845,2.875-10.167-27.428-3.596-13.49c-3.203-9.955-4.318-14.586-5.845-20.258
					c2.105,11.85-0.888-2.812-0.017,3.611c-8.94-37.86-0.864-77.306,18.963-107.354C45.21,54.833,62.857,38.075,85.552,25.6
					c14.589-6.414,5.545-1.163,2.592,0.853c5.967-2.778,12.075-5.259,18.353-7.243c-6.254,2.26-12.295,5.022-18.161,8.062
					c-0.366,0.685,7.698-3.012,12.422-4.333c1.698-0.682,3.433-1.266,5.149-1.905c-2.741,2.036-11.886,5.205-21.895,10.298
					c-10.03,5.011-20.656,12.292-27.332,18.755c17.097-14.409-3.218,1.585,3.778-4.807l-5.398,4.547
					c4.618-4.202,13.777-12.889,28.191-20.732C42.113,49.961,16.567,92.816,12.074,129.284c0.05-1.079,0.38-3.964-0.363-0.697
					c-2.373,13.129-1.055,21.073-0.73,26.788c-0.218-1.919-0.199-3.843-0.298-5.772c-0.892,8.186,0.778,21.577,2.901,31.149
					c1.705,10.527,2.684,17.916,10.741,34.312l-0.713-0.344c2.124,4.449,4.399,8.836,6.962,13.061
					c-2.04-3.062-1.374-1.699-1.078-0.975c-0.685-0.848-0.961-1.572-2.216-3.857c-1.099-0.479,1.696,6.789,6.253,13.885
					c-1.511-2.172-2.955-4.381-3.968-5.961c2.922,6.273,18.271,24.691,9.988,16.086C27.164,231.094,28.83,230.33,20.228,214.178z"/>
				<path fill="#C8AD8F" d="M79.238,274.102c-11.829-7.67,3.653,1.693,1.283-0.432c3.609,2.109,7.356,3.986,11.162,5.711
					C91.714,280.195,80.5,274.482,79.238,274.102z"/>
				<path fill="#C8AD8F" d="M172.586,12.431c1.164,0.595,10.432,2.09,15.465,3.796c10.068,2.775,12.873,2.804,26.426,9.68
					c-11.053-4.191,10.621,6.699,18.377,14.143c-6.012-4.386-17.951-10.813-28.43-15.938c1.473,0.136-8.188-3.993-13.188-5.612
					c-8.025-0.942,5.807,2.077-26.031-3.169c-5.869-1.116-20.526-0.884-19.604-1.441c-4.14-0.205-7.912,1.024-12.49,0.917
					l-2.317-0.007c6.664-1.105,13.428-1.547,20.194-1.666c0.746,0.119,2.275,0.356,4.119,0.361
					c-3.82-1.192,22.088,0.989,8.994-1.325c-9.338-0.945-18.763-0.966-28.104-0.086c-6.84,0.479,2.703-1.393,12.92-1.499
					C163.725,11.404,162.885,11.627,172.586,12.431z"/>
				<path fill="#C8AD8F" d="M103.448,19.822l-1.512,0.301c7.705-2.838,15.681-4.951,23.782-6.345
					C118.124,15.126,110.675,17.202,103.448,19.822z"/>
				<path fill="#C8AD8F" d="M253.137,54.714c-3.506-3.382-6.396-6.487-10.236-9.475l0.154-1.082
					C246.605,47.504,249.996,51.01,253.137,54.714z"/>
				<path fill="#C8AD8F" d="M33.144,78.698c-3.001,5.628-10.653,19.8-11.652,25.106c1.614-4.035,0.867-2.721,1.146-3.757
					c-1.099,2.575-2.3,5.12-3.282,7.75C22.251,97.766,26.99,88.538,33.144,78.698z"/>
				<path fill="#C8AD8F" d="M280.361,95.416c6.402,15.246,8.506,18.168,11.512,37.444c0.293,4.228-1.137-5.09-0.557,1.008
					c0.609,6.057,0.982,7.448,1.41,10.421l0.117-2.37c0.113,4.757-0.695,19.554-1.545,11.868
					c-0.373-24.163-5.545-34.573-10.92-52.06l-0.289-3.37c-1.6-3.366-3.184-6.732-5.018-9.97c-0.291-0.708,0.172-0.597-1.748-3.796
					c-4.182-6.54,2.43,5.19,1.562,4.918c-3.432-6.269-7.299-12.29-11.672-17.912c-1.469-2.164,1.482,1.599,1.119,0.917
					c-5.58-8.542-10.859-12.379-16.391-19.13c3.262,2.976,6.408,6.093,9.396,9.366c-10.307-12.312-19.557-20.211-28.656-26.926
					C254.471,54.708,268.215,68.233,280.361,95.416z"/>
			</g>
		</g>
	</g>
</g>
<path display="none" fill="#FFFFFF" d="M256.34,171.785l20.254-20.172L256.34,131.44c-3.898-20.563-13.811-40.207-29.783-56.121
	c-15.965-15.918-35.688-25.799-56.326-29.688l-20.232-20.178l-20.243,20.178c-20.644,3.877-40.356,13.764-56.326,29.674
	c-15.975,15.916-25.896,35.572-29.793,56.135l-20.24,20.173l20.24,20.172c3.908,20.562,13.824,40.218,29.793,56.133
	c15.974,15.909,35.683,25.78,56.316,29.675l20.249,20.175l20.249-20.175c20.628-3.896,40.351-13.774,56.313-29.688
	C242.529,211.993,252.441,192.35,256.34,171.785z M150.142,240.064c-49.03,0-88.77-39.603-88.77-88.451
	c0-48.85,39.74-88.464,88.77-88.464c49.02,0,88.774,39.614,88.774,88.464C238.916,200.463,199.162,240.064,150.142,240.064z"/>
<path display="none" fill="#E6E6E6" d="M174.734,145.795l-18.629-60.808c-0.828-2.98-1.957-4.46-3.088-4.446
	c-1.109-0.015-2.236,1.461-3.065,4.439l-18.61,60.8c-1.68,5.541-1.52,3.691-0.003,8.625l18.614,60.807
	c0.843,2.975,1.958,4.473,3.074,4.467c1.115,0,2.25-1.492,3.08-4.467l18.613-60.807C176.225,149.46,176.402,151.32,174.734,145.795z
	"/>
<polygon display="none" fill="#F47F54" points="153.02,150.1 166.379,150.103 153.02,97.233 139.659,150.103 "/>
<g display="none">
	<path display="inline" fill="#273246" d="M222.541,63.237H76.792c-9.308,0-16.851,7.543-16.851,16.848v118.304
		c0,9.307,7.543,16.852,16.851,16.852h56.327c-0.01,0.138-5.226,25.604-5.226,25.604h-16.641c-5.168,0-5.092,8.551-5.092,8.551
		h87.009c0,0,0.077-8.551-5.086-8.551h-16.646c0,0-5.217-25.467-5.229-25.604h56.332c9.309,0,16.852-7.545,16.852-16.852V80.085
		C239.393,70.78,231.848,63.237,222.541,63.237z M149.663,211.032c-4.138,0-7.485-3.356-7.485-7.486
		c0-4.138,3.347-7.496,7.485-7.496c4.14,0,7.495,3.358,7.495,7.496C157.158,207.676,153.803,211.032,149.663,211.032z
		 M226.288,184.911c0,2.062-1.679,3.739-3.747,3.739H76.792c-2.065,0-3.743-1.678-3.743-3.739V80.085c0-2.064,1.678-3.74,3.743-3.74
		h145.75c2.069,0,3.747,1.676,3.747,3.74L226.288,184.911L226.288,184.911z"/>
	<rect x="82.408" y="85.705" display="inline" fill="#FFFFFF" width="134.516" height="93.59"/>
</g>
<g>
	<path id="path2830_2_" fill="#273246" stroke="#273246" stroke-width="2" d="M182.558,134.253
		c-8.645,0.043-16.978,1.983-25.462,2.758c-3.544,0.324-7.195,0.402-10.741,0.102c-4.716-0.4-9.284-1.464-13.999-1.942
		c-4.214-0.425-8.48-0.867-12.715-0.887c-7.41-0.031-14.577,1.634-21.84,2.535c0,1.523-0.432,3.483,0.656,4.553
		c1.117,1.105,3.007,2.119,3.497,3.619c1.165,3.554,2.816,7.038,4.925,10.378c1.025,1.624,2.959,2.755,5.12,3.533
		c5.204,1.877,11.363,2.153,17.073,1.563c8.127-0.842,12.538-5.222,15.906-10.225c1.26-2.034,1.397-4.382,3.058-6.242
		c0.984-1.104,3.271-0.639,4.905-0.645c1.636-0.002,3.022,1.949,3.526,3.25c1.799,4.599,4.792,9.479,10.743,11.889
		c8.886,3.601,22.887,2.926,28.653-3.564c2.254-2.538,2.876-5.624,4.011-8.498c0.688-1.752,1.305-3.838,3.758-4.802
		c0.984-0.387,0.29-1.938,0.435-2.84c0.162-0.982,0.468-1.849-1.475-2.042c-3.398-0.337-6.687-1.36-10.157-1.705
		C189.141,134.71,185.917,134.239,182.558,134.253L182.558,134.253z M125.397,135.886c2.458-0.009,4.899,0.118,7.287,0.481
		c14.211,2.159,14.501,6.364,8.648,15.057c-4.768,7.085-14.644,8.859-24.594,7.162c-4.589-0.784-7.725-3.083-9.206-6.232
		c-1.56-3.323-2.744-6.855-2.475-10.347c0.361-4.681,7.726-5.335,13.004-5.761C120.48,136.049,122.942,135.898,125.397,135.886
		L125.397,135.886z M177.296,135.886c2.454,0.012,4.92,0.163,7.342,0.359c5.273,0.425,12.642,1.083,12.999,5.761
		c0.268,3.492-0.91,7.024-2.478,10.347c-1.476,3.149-4.612,5.449-9.199,6.232c-9.956,1.697-19.831-0.077-24.599-7.161
		c-5.852-8.692-5.564-12.896,8.649-15.055C172.396,136.005,174.843,135.877,177.296,135.886L177.296,135.886z"/>
	<path id="path4735_2_" fill="#273246" stroke="#273246" d="M138.163,47.51c-7.045,1.725-14.82-2.445-21.643,1.496
		c-14.683,6.909-13.364,21.469-15.921,32.52c-5.139,2.206-1.241,7.12-5.186,10.125c2.081,5.726-6.612,5.365-12.47,6.242
		c-10.661,1.811-14.654,0.232-23.854,5.098c1.515,12.695,13.823,17.141,28.427,20.205c39.429,6.939,82.993,8.462,124.029,2.866
		c12.577-1.974,31.064-5.856,30.462-17.14c-2.882-10.848-22.032-13.542-35.12-11.478c-6.674-11.124-4.381-23.695-10.122-35.021
		C186.408,46.794,159.379,44.958,138.163,47.51L138.163,47.51z"/>
	<path fill="#C6C6C6" d="M206.112,153.645c0,0-5.863,26.401-8.964,30.701c-4.346,6.036-17.12,11.104-18.524,9.88
		c-7.857-6.836-15.842-15.452-25.033-7.896c-2.161,1.774-5.937,0-5.937,0c-11.875-9.883-30.902,8.658-30.902,8.658
		c-5.935-2.279-14.149-11.69-17.806-15.96c-3.656-4.275-6.287-24.822-6.287-24.822s-7.74,61.553,8.446,77.517
		c16.188,15.958,41.613,28.174,59.421,22.853c53.358-5.476,49.907-91.812,45.582-100.931L206.112,153.645L206.112,153.645z
		 M161.683,212.426c-8.445-3.282-11.87-3.551-17.269-1.014c-5.396,2.534-14.749,3.039-17.988-13.175c0,0,22.665-12.919,48.565,0
		C174.993,198.236,172.121,216.477,161.683,212.426L161.683,212.426L161.683,212.426z"/>
	<path fill="#273246" stroke="#273246" d="M206.112,153.645c0,0-5.863,26.401-8.964,30.701c-4.346,6.036-17.12,11.104-18.524,9.88
		c-7.857-6.836-15.842-15.452-25.033-7.896c-2.161,1.774-5.937,0-5.937,0c-11.875-9.883-30.902,8.658-30.902,8.658
		c-5.935-2.279-14.149-11.69-17.806-15.96c-3.656-4.275-6.287-24.822-6.287-24.822s-7.74,61.553,8.446,77.517
		c16.188,15.958,41.613,28.174,59.421,22.853c53.358-5.476,49.907-91.812,45.582-100.931L206.112,153.645L206.112,153.645z
		 M161.683,212.426c-8.445-3.282-11.87-3.551-17.269-1.014c-5.396,2.534-14.749,3.039-17.988-13.175c0,0,22.665-12.919,48.565,0
		C174.993,198.236,172.121,216.477,161.683,212.426L161.683,212.426L161.683,212.426z"/>
	<path fill="#273246" d="M205.287,157.232c-1.625,5.349-3.174,10.234-4.759,14.896c-1.688,4.386-3.031,9.761-5.594,12.021
		c-2.92,2.656-6.673,4.626-10.685,6.213c-1.008,0.392-2.043,0.732-3.078,1.008c-0.918,0.263-2.378,0.376-1.74,0.211
		c-1.949-1.741-4.005-3.675-6.36-5.562c-2.514-1.812-6.596-5.636-13.079-5.42c-1.567,0.196-3.242,0.575-4.784,1.483
		c-1.681,0.823-3.109,2.285-3.597,2.144c-0.803,0.194-2.812-0.247-3.34-0.729c-1.687-1.279-3.612-2.15-5.594-2.567
		c-8.101-1.503-15.918,2.865-22.901,8.09c-0.877,0.678-1.749,1.384-2.609,2.124l-1.288,1.144l-0.328,0.306l-0.085,0.082
		c0.863-0.192-2.008,0.488,1.925-0.413l-0.037-0.014l-0.148-0.07l-0.599-0.267c-1.617-0.768-3.275-2.008-4.874-3.337
		c-3.211-2.701-6.272-5.93-9.208-9.25c-0.71-0.812-1.519-1.717-2.131-2.482c-0.341-0.445-0.806-1.372-1.166-2.362
		c-0.751-1.997-1.349-4.289-1.875-6.556c-1.043-4.566-1.816-9.229-2.438-13.662l-0.055-0.41l-0.014-0.098
		c-8.724,0-2.421,0.033-4.371,0.047l-0.007,0.061l-0.025,0.225l-0.103,0.871l-0.186,1.719l-0.328,3.37
		c-0.205,2.218-0.37,4.384-0.517,6.486c-0.292,4.206-0.479,8.166-0.583,11.812c-0.446,14.59,0.589,24.095,0.583,24.086
		c0.349-0.118-0.223,9.766,5.307,23.72c1.402,3.331,3.996,7.035,6.759,9.334c2.674,2.57,5.671,4.97,8.843,7.36
		c6.399,4.626,13.66,8.902,21.503,11.828c7.806,2.962,16.244,4.76,24.567,3.652c7.628-1.455,16.016-2.541,22.666-6.72
		c13.745-8.074,20.493-22.405,23.079-29.026c4.988-12.725,6.53-23.808,7.222-34.081c0.468-10.292,0.297-20.241-2.173-31.331
		c1.075,11.384,0.13,20.973-1.035,30.834c-1.383,9.806-3.261,20.188-7.918,31.979c-2.436,6.191-8.6,19.172-21.002,26.444
		c-6.202,3.821-13.337,4.735-21.307,6.246c-7.461,1.008-15.43-0.616-22.841-3.444c-7.462-2.778-14.443-6.884-20.564-11.301
		c-6.018-4.76-11.759-8.912-13.979-14.608c-4.768-11.88-4.494-21.771-4.749-21.529c0.009,0.013-0.983-9.003-0.547-23.222
		c0.103-3.551,0.287-7.415,0.571-11.524c0.146-2.053,0.309-4.167,0.509-6.329l0.319-3.277l0.181-1.654l0.095-0.826l0.026-0.199
		l0.003-0.051c-1.943-0.002,4.359-0.059-4.356-0.021l0.016,0.117l0.058,0.44c0.653,4.647,1.432,9.403,2.55,14.297
		c0.572,2.449,1.194,4.914,2.147,7.456c0.492,1.267,1.016,2.569,2.065,3.944c0.804,1.001,1.498,1.763,2.274,2.653
		c3.036,3.427,6.202,6.79,9.717,9.756c1.774,1.46,3.602,2.867,5.739,3.895l0.817,0.366l0.204,0.088l0.052,0.021
		c3.957-0.925,1.113-0.269,2.003-0.485l0.06-0.058l0.282-0.261l1.168-1.041l2.424-1.97c6.476-4.952,13.792-8.608,19.892-7.357
		c1.497,0.314,2.872,0.946,4.077,1.857c2.412,1.521,3.833,1.61,6.138,1.464c2.719-0.624,3.626-2.189,4.734-2.535
		c1.133-0.684,2.287-0.898,3.379-1.062c4.461-0.235,8.146,2.78,10.474,4.554c2.179,1.737,4.229,3.598,6.253,5.331
		c2.631,1.969,3.828,0.521,5.063,0.502c1.215-0.379,2.348-0.814,3.437-1.31c4.335-2.017,8.159-4.35,11.483-7.995
		c3.606-4.444,3.926-9.584,5.297-14.41C203.373,167.982,204.338,162.844,205.287,157.232z"/>
	<path fill="#273246" d="M161.683,212.426c-4.496-3.298-8.093-6.613-15.201-4.771c-2.029,0.519-4.832,2.53-8.293,2.212
		c-3.511-0.025-6.867-3.131-8.464-8.1c-0.43-1.193-0.752-2.46-1.033-3.73l-0.111-0.466l-0.009-0.033
		c1.113-2.954-1.52,4.007-1.245,3.289l0.01-0.006l0.027-0.012l0.082-0.048l0.169-0.09l0.709-0.356l1.439-0.659
		c1.902-0.829,3.707-1.452,5.245-1.929c3.083-0.936,5.113-1.304,5.112-1.308c-0.025,0.015,8.144-1.893,17.121-0.682
		c4.477,0.53,9.085,1.795,12.872,3.336c0.948,0.392,1.854,0.75,2.686,1.162l1.21,0.566l0.15,0.068l0.016,0.012l0.008,0.003
		c0.304,0.702-2.583-6.073-1.366-3.2l-0.009,0.033l-0.009,0.065l-0.061,0.324l-0.138,0.661c-0.375,1.757-0.836,3.122-1.137,4.008
		C169.006,208.963,167.249,212.304,161.683,212.426c4.573,4.191,11.199,0.768,13.791-7.287c0.379-1.09,0.935-2.718,1.392-4.844
		l0.177-0.833l0.086-0.449l0.023-0.137l0.013-0.064c1.219,2.861-1.664-3.921-1.371-3.222l-0.011-0.005l-0.02-0.011l-0.155-0.074
		l-1.296-0.61c-0.888-0.438-1.856-0.829-2.87-1.251c-4.053-1.655-8.992-3.003-13.771-3.561c-9.587-1.279-18.263,0.779-18.236,0.762
		c0,0.006-2.157,0.39-5.449,1.381c-1.643,0.502-3.565,1.163-5.636,2.062l-1.585,0.726l-0.818,0.409l-0.215,0.112l-0.11,0.057
		l-0.066,0.037l-0.018,0.01c0.264-0.713-2.362,6.258-1.247,3.316l0.01,0.034l0.129,0.558c0.33,1.507,0.717,3.033,1.262,4.553
		c1.796,6.274,7.32,11.607,12.271,11.447c4.897,0.311,8.323-2.225,9.579-2.412C152.734,211.598,156.282,212.452,161.683,212.426z"/>
	<path fill="#273246" stroke="#273246" d="M90.745,153.86c0.082-0.249,1.883-6.424,1.883-6.424l1.962,6.459
		C94.589,153.895,90.661,154.111,90.745,153.86z"/>
</g>
</svg>
