<?xml version="1.0" encoding="utf-8"?>
<!-- Generator: Adobe Illustrator 14.0.0, SVG Export Plug-In . SVG Version: 6.00 Build 43363)  -->
<!DOCTYPE svg PUBLIC "-//W3C//DTD SVG 1.1//EN" "http://www.w3.org/Graphics/SVG/1.1/DTD/svg11.dtd">
<svg version="1.1" id="Layer_1" xmlns="http://www.w3.org/2000/svg" xmlns:xlink="http://www.w3.org/1999/xlink" x="0px" y="0px"
	 width="345px" height="398px" viewBox="0 0 345 398" enable-background="new 0 0 345 398" xml:space="preserve">
<path id="path2830_2_" fill="#273246" stroke="#273246" stroke-width="2" d="M223.762,159.046
	c-15.627,0.077-30.693,3.584-46.035,4.986c-6.406,0.584-13.006,0.728-19.417,0.185c-8.527-0.725-16.785-2.648-25.31-3.511
	c-7.619-0.769-15.332-1.568-22.989-1.604c-13.396-0.056-26.355,2.954-39.484,4.583c0,2.755-0.781,6.297,1.185,8.232
	c2.02,1.999,5.437,3.831,6.322,6.543c2.106,6.425,5.091,12.724,8.904,18.762c1.855,2.937,5.351,4.981,9.257,6.389
	c9.408,3.393,20.543,3.893,30.866,2.824c14.695-1.52,22.669-9.438,28.757-18.485c2.277-3.678,2.528-7.922,5.528-11.285
	c1.782-1.995,5.916-1.155,8.869-1.166c2.957-0.003,5.465,3.523,6.377,5.875c3.252,8.315,8.663,17.138,19.422,21.495
	c16.066,6.51,41.381,5.29,51.805-6.445c4.074-4.588,5.199-10.167,7.25-15.364c1.246-3.167,2.359-6.937,6.796-8.68
	c1.78-0.7,0.524-3.504,0.786-5.136c0.293-1.776,0.845-3.343-2.666-3.693c-6.146-0.609-12.092-2.459-18.367-3.083
	C235.665,159.873,229.836,159.019,223.762,159.046L223.762,159.046z M120.419,161.998c4.442-0.016,8.857,0.214,13.173,0.87
	c25.695,3.902,26.216,11.505,15.636,27.222c-8.62,12.809-26.476,16.018-44.466,12.947c-8.296-1.416-13.967-5.572-16.644-11.266
	c-2.819-6.01-4.96-12.395-4.474-18.709c0.653-8.462,13.968-9.645,23.511-10.415C111.528,162.292,115.981,162.02,120.419,161.998
	L120.419,161.998z M214.251,161.998c4.435,0.021,8.894,0.294,13.271,0.649c9.535,0.77,22.857,1.958,23.504,10.417
	c0.483,6.313-1.646,12.699-4.479,18.708c-2.67,5.692-8.341,9.85-16.632,11.266c-18.002,3.069-35.854-0.14-44.474-12.947
	c-10.578-15.715-10.061-23.316,15.636-27.218C205.391,162.213,209.812,161.982,214.251,161.998L214.251,161.998z"/>
<path id="path4735_2_" fill="#C6C6C6" stroke="#D3D3D3" d="M143.498,2.218c-12.736,3.119-26.793-4.421-39.13,2.705
	c-26.545,12.492-24.16,38.814-28.784,58.795c-9.29,3.988-2.243,12.873-9.375,18.305c3.762,10.352-11.955,9.699-22.545,11.286
	c-19.275,3.275-26.494,0.42-43.127,9.217c2.739,22.952,24.992,30.988,51.394,36.529c71.287,12.546,150.047,15.299,224.241,5.182
	c22.736-3.57,56.16-10.589,55.071-30.988c-5.209-19.614-39.831-24.483-63.497-20.752c-12.062-20.111-7.918-42.84-18.299-63.318
	C230.725,0.924,181.855-2.396,143.498,2.218L143.498,2.218z"/>
<path fill="#C6C6C6" d="M266.348,194.104c0,0-10.599,47.733-16.205,55.507c-7.859,10.912-30.951,20.074-33.492,17.861
	c-14.205-12.358-28.644-27.937-45.26-14.277c-3.906,3.209-10.734,0-10.734,0c-21.469-17.867-55.869,15.654-55.869,15.654
	c-10.729-4.119-25.582-21.135-32.192-28.854c-6.611-7.729-11.367-44.879-11.367-44.879s-13.992,111.286,15.27,140.147
	c29.268,28.854,75.235,50.938,107.43,41.319c96.469-9.901,90.233-165.993,82.413-182.481L266.348,194.104L266.348,194.104z
	 M186.021,300.379c-15.268-5.934-21.461-6.42-31.221-1.834c-9.756,4.584-26.665,5.495-32.52-23.818c0,0,40.976-23.359,87.803,0
	C210.086,274.725,204.895,307.702,186.021,300.379L186.021,300.379L186.021,300.379z"/>
<path fill="#C6C6C6" d="M266.348,194.104c0,0-10.599,47.733-16.205,55.507c-7.859,10.912-30.951,20.074-33.492,17.861
	c-14.205-12.358-28.644-27.937-45.26-14.277c-3.906,3.209-10.734,0-10.734,0c-21.469-17.867-55.869,15.654-55.869,15.654
	c-10.729-4.119-25.582-21.135-32.192-28.854c-6.611-7.729-11.367-44.879-11.367-44.879s-13.992,111.286,15.27,140.147
	c29.268,28.854,75.235,50.938,107.43,41.319c96.469-9.901,90.233-165.993,82.413-182.481L266.348,194.104L266.348,194.104z
	 M186.021,300.379c-15.268-5.934-21.461-6.42-31.221-1.834c-9.756,4.584-26.665,5.495-32.52-23.818c0,0,40.976-23.359,87.803,0
	C210.086,274.725,204.895,307.702,186.021,300.379L186.021,300.379L186.021,300.379z"/>
<path fill="#C6C6C6" d="M264.855,200.592c-2.936,9.67-5.736,18.504-8.604,26.93c-3.05,7.929-5.478,17.646-10.112,21.732
	c-5.277,4.803-12.064,8.364-19.318,11.232c-1.821,0.707-3.694,1.324-5.562,1.822c-1.663,0.476-4.303,0.68-3.149,0.381
	c-3.523-3.146-7.24-6.641-11.498-10.055c-4.545-3.279-11.926-10.189-23.648-9.799c-2.833,0.354-5.859,1.039-8.65,2.68
	c-3.039,1.49-5.621,4.133-6.503,3.875c-1.449,0.354-5.082-0.445-6.039-1.317c-3.048-2.313-6.529-3.888-10.112-4.642
	c-14.646-2.717-28.78,5.18-41.405,14.625c-1.586,1.227-3.161,2.502-4.716,3.84l-2.329,2.068l-0.593,0.553l-0.152,0.148
	c1.559-0.346-3.63,0.885,3.479-0.746l-0.067-0.025l-0.267-0.127l-1.083-0.482c-2.924-1.389-5.92-3.631-8.812-6.033
	c-5.806-4.884-11.34-10.72-16.647-16.723c-1.285-1.469-2.746-3.104-3.854-4.489c-0.616-0.806-1.456-2.479-2.107-4.271
	c-1.36-3.61-2.438-7.754-3.392-11.852c-1.885-8.257-3.282-16.684-4.406-24.701l-0.099-0.742l-0.024-0.176
	c-15.774,0-4.379,0.06-7.903,0.086l-0.014,0.108l-0.046,0.407l-0.185,1.576l-0.337,3.107l-0.592,6.092
	c-0.371,4.009-0.668,7.925-0.935,11.729c-0.529,7.603-0.865,14.763-1.055,21.354c-0.806,26.377,1.065,43.562,1.055,43.546
	c0.631-0.214-0.403,17.655,9.595,42.885c2.534,6.021,7.224,12.717,12.22,16.875c4.834,4.646,10.252,8.985,15.987,13.305
	c11.571,8.367,24.698,16.097,38.877,21.387c14.112,5.354,29.369,8.604,44.417,6.602c13.791-2.631,28.957-4.594,40.978-12.148
	c24.854-14.598,37.053-40.508,41.728-52.479c9.018-23.006,11.805-43.045,13.057-61.617c0.844-18.608,0.535-36.596-3.93-56.646
	c1.945,20.582,0.235,37.918-1.871,55.746c-2.5,17.73-5.896,36.498-14.315,57.816c-4.406,11.195-15.548,34.662-37.972,47.811
	c-11.213,6.909-24.112,8.562-38.522,11.293c-13.487,1.822-27.896-1.113-41.294-6.229c-13.491-5.021-26.113-12.443-37.18-20.43
	c-10.88-8.606-21.26-16.113-25.272-26.412c-8.62-21.477-8.124-39.361-8.587-38.924c0.017,0.024-1.777-16.277-0.988-41.984
	c0.185-6.418,0.519-13.405,1.033-20.834c0.262-3.713,0.557-7.535,0.918-11.443l0.578-5.925l0.325-2.991l0.172-1.494l0.046-0.361
	l0.006-0.09c-3.513-0.006,7.882-0.107-7.875-0.037l0.029,0.21l0.105,0.797c1.18,8.403,2.588,17,4.609,25.848
	c1.034,4.43,2.158,8.884,3.882,13.48c0.889,2.291,1.838,4.645,3.734,7.131c1.454,1.81,2.707,3.188,4.112,4.797
	c5.486,6.195,11.213,12.277,17.567,17.638c3.209,2.64,6.513,5.185,10.377,7.043l1.478,0.662l0.368,0.157l0.094,0.039
	c7.153-1.672,2.012-0.485,3.622-0.877l0.108-0.104l0.51-0.47l2.112-1.883l4.383-3.562c11.707-8.954,24.934-15.563,35.962-13.301
	c2.706,0.569,5.193,1.711,7.37,3.358c4.364,2.75,6.932,2.912,11.098,2.647c4.917-1.129,6.558-3.959,8.56-4.584
	c2.049-1.235,4.135-1.625,6.109-1.92c8.066-0.427,14.729,5.024,18.938,8.231c3.938,3.142,7.643,6.504,11.305,9.638
	c4.754,3.562,6.92,0.942,9.152,0.909c2.196-0.686,4.246-1.473,6.213-2.369c7.84-3.645,14.752-7.864,20.762-14.454
	c6.521-8.035,7.099-17.326,9.578-26.054C261.395,220.027,263.139,210.736,264.855,200.592z"/>
<path fill="#C6C6C6" d="M186.021,300.379c-8.129-5.963-14.633-11.957-27.482-8.627c-3.668,0.938-8.736,4.575-14.994,3.998
	c-6.347-0.045-12.415-5.66-15.301-14.643c-0.778-2.157-1.36-4.448-1.868-6.744l-0.2-0.844l-0.017-0.059
	c2.014-5.34-2.747,7.243-2.25,5.947l0.018-0.01l0.048-0.023l0.15-0.086l0.305-0.162l1.283-0.646l2.602-1.189
	c3.439-1.5,6.702-2.628,9.483-3.488c5.574-1.691,9.245-2.357,9.241-2.363c-0.045,0.025,14.723-3.422,30.953-1.233
	c8.093,0.957,16.425,3.245,23.273,6.03c1.715,0.709,3.355,1.357,4.856,2.102l2.188,1.025l0.269,0.123l0.03,0.02l0.015,0.006
	c0.547,1.27-4.671-10.98-2.468-5.787l-0.016,0.06l-0.017,0.118l-0.11,0.586l-0.25,1.195c-0.677,3.178-1.512,5.646-2.056,7.248
	C199.262,294.117,196.085,300.157,186.021,300.379c8.268,7.578,20.248,1.387,24.932-13.176c0.688-1.969,1.689-4.912,2.52-8.758
	l0.319-1.506l0.153-0.812l0.044-0.246l0.021-0.117c2.204,5.174-3.007-7.088-2.479-5.824l-0.018-0.01l-0.037-0.019l-0.278-0.134
	l-2.345-1.104c-1.604-0.793-3.355-1.498-5.189-2.261c-7.326-2.991-16.256-5.43-24.896-6.438c-17.333-2.312-33.019,1.41-32.969,1.377
	c0,0.01-3.9,0.705-9.851,2.496c-2.971,0.91-6.446,2.104-10.191,3.729l-2.866,1.312l-1.48,0.74l-0.386,0.203l-0.2,0.104l-0.119,0.067
	l-0.032,0.017c0.477-1.289-4.271,11.315-2.255,5.996l0.018,0.062l0.234,1.009c0.595,2.722,1.296,5.485,2.28,8.231
	c3.247,11.343,13.234,20.986,22.185,20.695c8.855,0.562,15.049-4.021,17.319-4.359C169.843,298.881,176.257,300.426,186.021,300.379
	z"/>
<path fill="#C6C6C6" stroke="#C6C6C6" d="M57.769,194.495c0.148-0.45,3.404-11.615,3.404-11.615l3.547,11.678
	C64.719,194.557,57.617,194.949,57.769,194.495z"/>
</svg>
