<?xml version="1.0" encoding="utf-8"?>
<!-- Generator: Adobe Illustrator 14.0.0, SVG Export Plug-In . SVG Version: 6.00 Build 43363)  -->
<!DOCTYPE svg PUBLIC "-//W3C//DTD SVG 1.1//EN" "http://www.w3.org/Graphics/SVG/1.1/DTD/svg11.dtd">
<svg version="1.1" id="Layer_1" xmlns="http://www.w3.org/2000/svg" xmlns:xlink="http://www.w3.org/1999/xlink" x="0px" y="0px"
	 width="30px" height="30px" viewBox="0 0 30 30" enable-background="new 0 0 30 30" xml:space="preserve">
<polyline fill="#FFFFFF" points="3.375,7 3.513,6.994 10.688,6.625 12.207,6.188 16,6.188 18.438,6.594 19.997,6.594 23.438,5.812 
	27.188,4.938 27.688,4.938 28.25,10.676 27.938,14.568 27.875,18.188 28.25,22.062 27.938,23.062 24.938,23.062 21.125,22.625 
	16.566,23.688 13.036,24.188 9.916,23.5 5.5,24.188 3.375,23.938 2.375,21.023 1.938,17.438 1.938,15 3,12.706 3.312,9.188 
	2.938,7.375 "/>
<path fill="#231F20" d="M25.314,5.168c0.162-0.248-0.248-0.33-0.072-0.526c0.16-0.182,0.357-0.024,0.535-0.029
	c0.832-0.019,1.693,0.185,2.584-0.375c-0.168,0.826,0.279,1.468,0.168,2.299c-0.166,1.247-0.111,2.548,0.156,3.807
	c0.03,0.142,0.082,0.347,0.019,0.433c-0.658,0.88-0.021,1.724,0.083,2.561c0.111,0.881,0.146,1.718-0.18,2.544
	c-0.11,0.279-0.088,0.545-0.073,0.845c0.04,0.854-0.13,1.729-0.032,2.57c0.123,1.057-0.122,2.174,0.26,3.153
	c0.279,0.713-0.346,0.75-0.478,1.13c-0.187,0.529-0.65,0.182-0.985,0.262c-1.676,0.396-3.331-0.188-5.006-0.165
	c-0.837,0.011-1.652,0.103-2.48,0.156c-0.709,0.045-1.422,0.106-2.131,0.13c-1.084,0.037-2.104,0.35-3.134,0.637
	c-0.167,0.045-0.355,0.021-0.533,0.012c-1.392-0.071-2.762-0.364-4.148-0.476c-0.989-0.081-1.941,0.192-2.888,0.54
	c-1.201,0.44-2.413,0.143-3.595-0.199c-0.386-0.113-0.405-0.608-0.665-0.891c-0.531-0.578-0.503-1.415-0.628-2.172
	c-0.194-1.17-0.519-2.316-0.566-3.514c-0.017-0.424-0.001-0.852-0.035-1.272c-0.022-0.272,0.18-0.644-0.289-0.767
	C1.06,15.827,1.177,15.616,1.23,15.48c0.268-0.693,0.513-1.395,0.789-2.083c0.627-1.565,0.8-3.207,0.64-4.876
	c-0.036-0.376,0.008-0.874-0.371-1.2C2.107,7.165,2.496,6.489,2.734,6.323c0.777-0.537,1.559-0.257,2.359-0.119
	C6.179,6.39,7.276,6.427,8.362,6.198c0.853-0.181,1.789,0.156,2.558-0.284c0.67-0.384,1.28-0.006,1.915-0.131
	c1.695-0.334,3.371,0.007,5.043,0.279c0.28,0.045,0.586,0.049,0.858-0.02c0.354-0.09,0.664-0.096,0.977,0.126
	c0.086,0.06,0.245,0.062,0.35,0.025c1.449-0.507,2.988-0.583,4.439-1.07C24.809,5.023,25.066,5.095,25.314,5.168 M27.535,7.415
	c-0.051-0.359,0.011-0.735-0.062-1.122c-0.072-0.4-0.216-0.508-0.574-0.488c-0.438,0.025-0.848,0.125-1.272,0.241
	c-0.808,0.22-1.634,0.353-2.428,0.647c-0.233,0.087-0.417,0.252-0.693,0.299c-0.794,0.137-1.631,0.089-2.366,0.58
	c-0.195,0.13-0.603,0.137-0.601-0.334c0-0.423-0.34-0.246-0.388-0.199c-0.535,0.525-1.161,0.206-1.69,0.128
	c-1.515-0.223-3.014-0.384-4.532-0.105c-0.177,0.032-0.399,0.113-0.515-0.026c-0.515-0.616-0.895-0.114-1.288,0.162
	c-0.201,0.141-0.382,0.271-0.634,0.283c-0.668,0.032-1.356-0.008-2,0.149c-0.683,0.167-1.384-0.037-2.05,0.22
	C6.305,7.902,6.075,7.905,5.98,7.818c-0.488-0.453-1.004-0.125-1.49-0.07C3.419,7.869,4.177,8.661,4.145,9.116
	c-0.053,0.763-0.087,1.521-0.45,2.185c-0.233,0.425,0.196,0.877-0.157,1.283c-0.321,0.367-0.388,0.902-0.587,1.35
	c-0.628,1.412-0.501,2.919-0.332,4.431c0.158,1.393,0.751,2.658,0.939,4.046c0.041,0.307-0.04,1.011,0.595,0.925
	c0.534-0.072,1.087-0.105,1.593-0.355c0.191-0.097,0.371-0.1,0.604-0.062c0.738,0.116,1.528,0.297,2.227,0.12
	c0.609-0.154,1.193-0.151,1.79-0.202c0.254-0.021,0.47,0.031,0.627,0.266c0.141,0.213,0.338,0.239,0.57,0.258
	c0.895,0.067,1.776-0.202,2.662-0.123c0.846,0.076,1.648-0.221,2.499-0.192c0.731,0.024,1.549-0.116,2.234-0.392
	c1.866-0.75,3.7-0.104,5.527,0.021c0.869,0.06,1.771,0.159,2.654,0.294c0.393,0.059,0.479-0.158,0.521-0.558
	c0.076-0.698,0.172-1.374,0.15-2.093c-0.014-0.461-0.033-0.885-0.172-1.312c-0.043-0.138-0.089-0.277-0.111-0.418
	c-0.23-1.454-0.084-2.906,0.013-4.361c0.054-0.806,0.317-1.608,0.206-2.408C27.548,10.357,27.49,8.901,27.535,7.415"/>
<path fill="#231F20" d="M23.342,10.447c0.282,0.448-0.128,0.727-0.271,0.767c-0.379,0.108-0.435,0.541-0.771,0.693
	c-0.237,0.107-0.299,0.426,0.089,0.577c0.36,0.14,0.521,0.516,0.68,0.837c0.156,0.315-0.073,0.522-0.336,0.696
	c-0.332,0.22-0.393-0.027-0.512-0.254c-0.443-0.843-0.562-0.857-1.168-0.23c-0.172,0.178-0.453,0.154-0.601,0.036
	c-0.179-0.145-0.138-0.424,0.015-0.618c0.11-0.139,0.246-0.258,0.383-0.367c0.198-0.161,0.309-0.308,0.041-0.511
	c-0.199-0.152-0.302-0.383-0.402-0.612c-0.213-0.481,0.025-0.968,0.507-1.025c0.188-0.021,0.34,0.108,0.308,0.293
	c-0.085,0.496,0.35,0.685,0.547,0.675c0.301-0.016,0.573-0.277,0.623-0.736c0.043-0.419,0.483-0.616,0.786-0.699
	C23.508,9.899,23.447,10.273,23.342,10.447"/>
<path fill="#231F20" d="M16.363,20.717c-0.154-0.604-0.443-0.16-0.672-0.199c-0.104-0.019-0.092-0.117-0.103-0.197
	c-0.063-0.523,0.851-1.612,1.33-1.486c0.188,0.051,0.558,0.127,0.619,0.439c0.055,0.269-0.138,0.436-0.374,0.537
	c-0.199,0.086-0.371,0.205-0.453,0.457C16.663,20.414,16.516,20.527,16.363,20.717"/>
<path fill="#231F20" d="M9.915,11.271c-0.031,0.041-0.081,0.126-0.147,0.197c-0.483,0.527-1.136,0.721-1.75,0.982
	c-0.189,0.08-0.212-0.089-0.115-0.265c0.321-0.583,0.705-1.106,1.256-1.45C9.472,10.541,9.937,10.852,9.915,11.271"/>
<path fill="#231F20" d="M19.688,17.009c-0.049,0.407-0.355,0.626-0.647,0.815c-0.142,0.089-0.368-0.063-0.319-0.245
	c0.152-0.589,0.25-1.19,0.357-1.791c0.033-0.183,0.334-0.241,0.49-0.202c0.183,0.045,0.453,0.117,0.427,0.432
	c-0.021,0.226-0.083,0.443-0.126,0.666C19.568,16.59,19.645,16.812,19.688,17.009"/>
<path fill="#231F20" d="M12.382,17.154c-0.014-0.758-0.083-1.381,0.094-1.997c0.035-0.122,0.033-0.263,0.142-0.328
	c0.244-0.147,0.554-0.597,0.71-0.385c0.208,0.28-0.024,0.762-0.083,1.154c-0.199-0.037-0.147,0.062-0.121,0.203
	C13.239,16.417,12.843,16.729,12.382,17.154"/>
<path fill="#231F20" d="M13.364,19.05c0.271,0.519,0.59,0.986,0.71,1.569c0.083,0.393,0.03,0.492-0.328,0.329
	c-0.386-0.175-0.876-0.284-0.983-0.755C12.653,19.712,12.981,19.346,13.364,19.05"/>
<path fill="#231F20" d="M12.595,12.666c-0.509-0.029-0.726-0.578-1.144-0.804c-0.185-0.1,0.015-0.509,0.189-0.709
	c0.176-0.201,0.362,0.014,0.44,0.122c0.124,0.17,0.56,0.198,0.293,0.591c0.36-0.099,0.335,0.201,0.409,0.422
	c0.006,0.02,0.341-0.191,0.231,0.152C12.971,12.575,12.841,12.798,12.595,12.666"/>
<path fill="#231F20" d="M6.069,17.729c0.135,0.095,0.305,0.153,0.388,0.28c0.176,0.267-0.16,0.069-0.189,0.208
	c-0.056,0.262-0.163,0.51-0.234,0.766c-0.034,0.119,0,0.271-0.053,0.371c-0.126,0.24-0.202,0.688-0.503,0.584
	c-0.296-0.102-0.178-0.51-0.109-0.791c0.09-0.359,0.197-0.717,0.321-1.062C5.751,17.908,5.871,17.758,6.069,17.729"/>
<path fill="#231F20" d="M6.414,16.355c-0.146-0.774,0.38-1.345,0.538-2.009c0.057-0.009,0.077-0.02,0.089-0.014
	c0.659,0.285,0.333,0.73,0.159,1.147c-0.024,0.058-0.093,0.123-0.082,0.164C7.33,16.369,6.829,16.312,6.414,16.355"/>
</svg>
