<?xml version="1.0" encoding="utf-8"?>
<!-- Generator: Adobe Illustrator 14.0.0, SVG Export Plug-In . SVG Version: 6.00 Build 43363)  -->
<!DOCTYPE svg PUBLIC "-//W3C//DTD SVG 1.1//EN" "http://www.w3.org/Graphics/SVG/1.1/DTD/svg11.dtd">
<svg version="1.1" id="Layer_1" xmlns="http://www.w3.org/2000/svg" xmlns:xlink="http://www.w3.org/1999/xlink" x="0px" y="0px"
	 width="50px" height="50px" viewBox="0 0 50 50" enable-background="new 0 0 50 50" xml:space="preserve">
<path fill-rule="evenodd" clip-rule="evenodd" fill="#FFFFFF" d="M17.139,3.817c5.026,0.552,9.94,1.588,14.691,3.337
	c0.691,0.253,0.904,0.734,0.658,1.378c-0.641,1.673-0.797,3.471-1.315,5.143c-0.209,0.676-0.266,1.505-0.69,2.221
	c-0.256,0.43-0.188,1.33-0.313,2.006c-0.299,1.619-0.543,3.259-1.343,4.745c-0.118,0.222-0.239,0.223-0.424,0.303
	c-1.351,0.584-2.588,0.594-4.096,0.201c-1.354-0.352-2.9-0.479-4.381-0.57c-0.963-0.06-2.099,0.121-3.127-0.459
	c-0.826-0.466-1.885-0.579-2.857-0.717c-2.347-0.335-2.665-0.767-2.106-2.989c0.6-2.376,1.045-4.799,1.775-7.133
	c0.695-2.217,1.539-4.391,2.19-6.628C15.996,3.981,16.475,3.749,17.139,3.817"/>
<path fill-rule="evenodd" clip-rule="evenodd" fill="#FFFFFF" d="M27.95,29.667c0.1-1.282,0.925-2.313,1.223-3.543
	c0.322-1.322,0.836-2.6,1.298-3.886c0.547-1.524,1.073-3.061,1.714-4.546c0.545-1.262,1.499-1.571,2.681-0.898
	c0.693,0.395,1.48,0.389,2.181,0.733c1.357,0.667,2.718,1.369,4.149,1.832c1.044,0.338,1.994,0.853,3.009,1.235
	c1.165,0.441,2.32,0.913,3.504,1.3c0.321,0.105,0.583,0.298,0.736,0.498c0.213,0.279,0.279,0.699-0.283,0.835
	c-0.756,0.183-1.494,0.414-2.035,1.031c-0.083,0.093-0.201,0.201-0.314,0.213c-1.494,0.176-2.623,1.267-4.054,1.614
	c-0.308,0.075-0.427,0.258-0.193,0.715c1.204,2.355,2.505,4.652,3.843,6.931c0.226,0.385,0.48,0.755,0.68,1.153
	c0.195,0.39,0.154,0.864-0.023,1.193c-0.229,0.422-0.59-0.054-0.897-0.081c-0.868-0.078-1.891-0.125-2.545-0.474
	c-1.281-0.682-2.704-0.813-4.013-1.365c-1.499-0.63-3.176-1.03-4.798-1.45c-1.707-0.44-3.376-1.01-5.014-1.674
	C28.177,30.782,27.869,30.354,27.95,29.667"/>
<path fill-rule="evenodd" clip-rule="evenodd" fill="#FFFFFF" d="M2.244,47.568c-0.373,0.166-0.344,0.588-0.677,0.854
	c-0.592-0.982-0.29-2.004-0.05-2.916c0.548-2.071,0.734-4.192,1.115-6.285c0.127-0.692,0.458-1.339,0.587-2.049
	c0.24-1.325,0.462-2.666,0.854-3.95c0.833-2.726,1.113-5.562,1.769-8.327c0.674-2.838,1.071-5.747,1.654-8.615
	c0.338-1.676,0.921-3.284,1.174-4.972c0.348-2.337,1.263-4.542,1.598-6.885c0.078-0.545,0.372-1.208,0.875-1.356
	c0.746-0.22,1.621-0.042,2.153,0.558c0.422,0.474,0.25,1.141-0.105,1.706C12.598,6.282,12.5,7.416,12.221,8.46
	c-0.329,1.228-0.766,2.432-0.98,3.698c-0.663,3.904-1.772,7.713-2.473,11.613c-0.406,2.263-0.88,4.513-1.284,6.776
	c-0.425,2.382-0.882,4.779-1.38,7.155c-0.337,1.613-0.45,3.342-0.895,4.926c-0.308,1.096-0.812,2.175-1.063,3.318
	c-0.136,0.623-0.102,1.281-0.42,1.867c-0.163,0.303-0.079,0.835-0.632,0.766c-0.406-0.053-0.64-0.351-0.698-0.771
	C2.383,47.728,2.302,47.657,2.244,47.568"/>
<path fill-rule="evenodd" clip-rule="evenodd" fill="#FFFFFF" d="M27.78,25.902c-0.183,0.996-0.632,2.031-1.214,2.999
	c-0.38,0.624-1.132,0.485-1.677,0.473c-1.464-0.031-2.773-0.756-4.108-1.269c-0.585-0.226-0.126-0.851,0.271-1.093
	c1.112-0.677,2.266-1.29,3.398-1.934c0.622-0.354,1.124-0.898,1.986-0.783C27.448,24.432,27.852,24.771,27.78,25.902"/>
</svg>
