<?xml version="1.0" encoding="utf-8"?>
<!-- Generator: Adobe Illustrator 14.0.0, SVG Export Plug-In . SVG Version: 6.00 Build 43363)  -->
<!DOCTYPE svg PUBLIC "-//W3C//DTD SVG 1.1//EN" "http://www.w3.org/Graphics/SVG/1.1/DTD/svg11.dtd">
<svg version="1.1" id="Layer_1" xmlns="http://www.w3.org/2000/svg" xmlns:xlink="http://www.w3.org/1999/xlink" x="0px" y="0px"
	 width="30px" height="30px" viewBox="0 0 30 30" enable-background="new 0 0 30 30" xml:space="preserve">
<path fill="#FFFFFF" d="M9.377,2.129c2.989,0.329,5.912,0.944,8.737,1.985c0.411,0.151,0.538,0.437,0.392,0.819
	c-0.381,0.995-0.474,2.064-0.781,3.059c-0.125,0.402-0.158,0.895-0.41,1.321c-0.151,0.256-0.111,0.791-0.188,1.193
	c-0.178,0.963-0.322,1.938-0.799,2.822c-0.07,0.132-0.143,0.133-0.252,0.181c-0.803,0.347-1.539,0.353-2.436,0.12
	c-0.806-0.209-1.725-0.285-2.606-0.339c-0.572-0.036-1.248,0.072-1.859-0.273c-0.491-0.277-1.121-0.344-1.699-0.427
	c-1.396-0.199-1.584-0.456-1.252-1.777C6.581,9.4,6.846,7.959,7.28,6.571C7.694,5.253,8.196,3.96,8.583,2.63
	C8.698,2.226,8.983,2.088,9.377,2.129"/>
<path fill="#FFFFFF" d="M15.807,17.502c0.062-0.764,0.551-1.377,0.729-2.107c0.19-0.787,0.497-1.546,0.771-2.312
	c0.325-0.906,0.639-1.82,1.021-2.703c0.323-0.751,0.892-0.934,1.594-0.534c0.413,0.234,0.881,0.231,1.298,0.436
	c0.809,0.397,1.615,0.814,2.469,1.09c0.621,0.201,1.187,0.507,1.789,0.735c0.691,0.262,1.381,0.542,2.084,0.773
	c0.189,0.062,0.348,0.177,0.438,0.296c0.126,0.167,0.166,0.416-0.169,0.497c-0.448,0.109-0.89,0.246-1.21,0.614
	c-0.051,0.055-0.119,0.119-0.188,0.126c-0.889,0.105-1.561,0.753-2.41,0.96c-0.184,0.045-0.254,0.152-0.115,0.425
	c0.717,1.4,1.49,2.767,2.287,4.121c0.134,0.229,0.285,0.449,0.404,0.688c0.113,0.229,0.092,0.514-0.017,0.709
	c-0.138,0.252-0.353-0.031-0.533-0.049c-0.519-0.045-1.125-0.074-1.514-0.281c-0.765-0.406-1.608-0.482-2.388-0.812
	c-0.892-0.373-1.89-0.611-2.854-0.861c-1.016-0.262-2.007-0.602-2.98-0.996C15.941,18.166,15.759,17.91,15.807,17.502"/>
<path fill="#2A2942" d="M0.519,28.148c-0.221,0.098-0.205,0.35-0.403,0.508c-0.352-0.586-0.172-1.193-0.029-1.734
	c0.326-1.232,0.437-2.494,0.663-3.738c0.076-0.412,0.272-0.797,0.349-1.219c0.143-0.787,0.274-1.586,0.508-2.35
	c0.496-1.621,0.662-3.307,1.052-4.951c0.401-1.688,0.637-3.418,0.984-5.124c0.201-0.997,0.548-1.953,0.698-2.957
	c0.207-1.39,0.751-2.701,0.95-4.094c0.047-0.324,0.221-0.718,0.521-0.807c0.443-0.13,0.963-0.025,1.28,0.332
	C7.344,2.296,7.241,2.693,7.03,3.029c-0.353,0.565-0.411,1.24-0.577,1.86c-0.196,0.73-0.456,1.446-0.583,2.2
	c-0.394,2.321-1.054,4.586-1.471,6.906c-0.241,1.346-0.523,2.685-0.764,4.03c-0.252,1.416-0.524,2.842-0.821,4.254
	c-0.201,0.961-0.268,1.988-0.532,2.932c-0.183,0.65-0.483,1.293-0.632,1.973c-0.081,0.371-0.06,0.762-0.25,1.111
	c-0.097,0.18-0.047,0.496-0.376,0.453c-0.242-0.029-0.381-0.207-0.416-0.457C0.602,28.242,0.554,28.201,0.519,28.148"/>
<path fill="#FFFFFF" d="M15.706,15.263c-0.108,0.592-0.376,1.208-0.722,1.784c-0.227,0.371-0.673,0.289-0.998,0.281
	c-0.871-0.02-1.649-0.449-2.443-0.756c-0.348-0.133-0.075-0.506,0.161-0.649c0.661-0.403,1.347-0.767,2.021-1.15
	c0.37-0.211,0.668-0.534,1.181-0.466C15.509,14.389,15.748,14.59,15.706,15.263"/>
</svg>
