<?xml version="1.0" encoding="utf-8"?>
<!-- Generator: Adobe Illustrator 14.0.0, SVG Export Plug-In . SVG Version: 6.00 Build 43363)  -->
<!DOCTYPE svg PUBLIC "-//W3C//DTD SVG 1.1//EN" "http://www.w3.org/Graphics/SVG/1.1/DTD/svg11.dtd">
<svg version="1.1" id="Layer_1" xmlns="http://www.w3.org/2000/svg" xmlns:xlink="http://www.w3.org/1999/xlink" x="0px" y="0px"
	 width="171.506px" height="139.379px" viewBox="0 0 171.506 139.379" enable-background="new 0 0 171.506 139.379"
	 xml:space="preserve">
<g transform="translate(-282.32053,-396.30734)" display="none">
	<path display="inline" fill="#FFFFFF" d="M453.825,412.806c-6.31,2.799-13.092,4.689-20.209,5.54
		c7.266-4.354,12.846-11.249,15.472-19.466c-6.8,4.032-14.329,6.96-22.345,8.538c-6.418-6.839-15.562-11.111-25.684-11.111
		c-19.432,0-35.187,15.754-35.187,35.186c0,2.758,0.311,5.443,0.911,8.019c-29.243-1.467-55.17-15.476-72.524-36.764
		c-3.029,5.196-4.765,11.24-4.765,17.688c0,12.208,6.212,22.978,15.653,29.287c-5.768-0.183-11.193-1.766-15.938-4.4
		c-0.004,0.146-0.004,0.294-0.004,0.442c0,17.048,12.129,31.269,28.226,34.503c-2.952,0.804-6.061,1.232-9.27,1.232
		c-2.268,0-4.472-0.221-6.62-0.631c4.478,13.979,17.472,24.15,32.87,24.436c-12.043,9.438-27.214,15.063-43.7,15.063
		c-2.84,0-5.641-0.167-8.394-0.492c15.572,9.984,34.067,15.811,53.938,15.811c64.721,0,100.112-53.615,100.112-100.114
		c0-1.525-0.033-3.043-0.102-4.553C443.144,426.059,449.109,419.863,453.825,412.806L453.825,412.806z"/>
</g>
<path fill="#FFFFFF" d="M126.78,4.175H45.447c-14.128,0-25.622,11.491-25.622,25.619v27.063v54.273
	c0,14.128,11.494,25.619,25.622,25.619h81.336c14.128,0,25.619-11.491,25.619-25.619V56.854V29.792
	C152.399,15.663,140.909,4.175,126.78,4.175z M134.129,19.452l2.931-0.011v2.917v19.555l-22.396,0.073l-0.075-22.47L134.129,19.452z
	 M67.191,56.854c4.246-5.875,11.135-9.728,18.923-9.728c7.788,0,14.676,3.852,18.917,9.728c2.764,3.834,4.419,8.524,4.419,13.607
	c0,12.866-10.478,23.331-23.339,23.331c-12.867,0-23.334-10.465-23.334-23.331C62.78,65.378,64.43,60.688,67.191,56.854z
	 M139.483,111.127c0,7.01-5.699,12.703-12.703,12.703H45.447c-7.007,0-12.705-5.693-12.705-12.703V56.854h19.79
	c-1.71,4.205-2.668,8.796-2.668,13.607c0,19.982,16.259,36.254,36.25,36.254c19.991,0,36.251-16.271,36.251-36.254
	c0-4.811-0.968-9.402-2.676-13.607h19.794V111.127z"/>
</svg>
