<?xml version="1.0" encoding="utf-8"?>
<!-- Generator: Adobe Illustrator 14.0.0, SVG Export Plug-In . SVG Version: 6.00 Build 43363)  -->
<!DOCTYPE svg PUBLIC "-//W3C//DTD SVG 1.1//EN" "http://www.w3.org/Graphics/SVG/1.1/DTD/svg11.dtd">
<svg version="1.1" id="Layer_1" xmlns="http://www.w3.org/2000/svg" xmlns:xlink="http://www.w3.org/1999/xlink" x="0px" y="0px"
	 width="300px" height="300px" viewBox="0 0 300 300" enable-background="new 0 0 300 300" xml:space="preserve">
<g>
	<path fill="#C8AD8F" d="M290.552,150.809c0,77.74-63.026,140.767-140.768,140.767c-77.742,0-140.765-63.026-140.765-140.767
		c0-77.74,63.024-140.76,140.766-140.76S290.552,73.069,290.552,150.809z"/>
	<g>
		<g>
			<g>
				<path fill="#C8AD8F" d="M290.246,181.424c1.048-4.443-3.394,12.264-1.269,2.763c-1.754,6.506-5.755,20.021-9.65,27.654
					c-1.077,0.567,2.049-6.185-5.275,7.049c-10.819,17.062,0.096,3.049-10.221,18.008c2.512-3.307,4.954-6.673,7.187-10.182
					c-5.227,11.499-25.549,34.149-44.135,45.199c-14.031,7.949-27.788,12.952-47.949,17.68c1.098-0.345,6.019-1.689,4.944-1.749
					c-3.746,0.665-10.28,2.118-14.173,2.73c-10.662,2.005,3.126,0.508-0.853,1.521c-8.954,1.455-17.649,2.531-30.435,1.265
					c-5.261-0.777-10.445-1.958-15.536-3.331c-10.733-0.421-26.943-6.321-45.659-16.757c-3.48-2.349-21.962-14.786-24.162-18.716
					c-7.249-6.935,0.103-2.849-5.049-9.019c-8.953-10.684,6.707,6.921-2.201-3.776c10.649,10.652,1.208,5.51,16.896,18.711
					l-0.602-0.854c6.687,5.073,18.581,13.579,24.224,15.302c19.787,9.491-0.894,0.985,8.677,6.103
					c5.924,2.513,30.191,8.599,31.347,7.082c-5.601-0.901-11.123-2.245-16.564-3.843c2.662,0.728,0.675-0.056,1.778,0.165
					c5.489,2.188,16.149,3.673,24.212,3.906c8.067,0.243,13.582-0.109,9.239,1.312c-2.258,0.223-8.223-0.442-10.015-0.258
					c0.782,0.805,12.497,1.565,21.28,1.031c9.019-1.158,19.025-3.445,32.562-6.957c4.709-1.174,2.065-0.005,6.745-1.344
					c13.39-5.206,19.41-8.592,25.682-11.877c6.09-3.544,12.676-7.028,23.771-17.407c14.681-12.212,27.73-32.074,35.309-49.561
					c-1.531,2.509,4.303-11.885,5.072-15.743c1.059-2.507,3.923-12.725,4.463-20.363c-0.554,4.464,0.069,1.782-0.175,4.919
					c1.85-17.12,1.999-20.308,2.823-21.279C292.482,164.219,293.563,165.834,290.246,181.424z"/>
				<path fill="#C8AD8F" d="M20.702,211.199c1.845,2.875-10.167-27.428-3.596-13.489c-3.203-9.956-4.318-14.587-5.845-20.258
					c2.105,11.849-0.888-2.814-0.017,3.61c-8.94-37.859-0.864-77.305,18.963-107.353c15.477-21.854,33.124-38.612,55.819-51.087
					c14.589-6.414,5.545-1.163,2.592,0.853c5.967-2.778,12.075-5.259,18.353-7.243c-6.254,2.26-12.295,5.022-18.161,8.062
					c-0.366,0.685,7.698-3.012,12.422-4.333c1.698-0.682,3.433-1.266,5.149-1.905c-2.741,2.036-11.886,5.205-21.895,10.298
					c-10.03,5.011-20.656,12.292-27.332,18.755c17.097-14.409-3.218,1.585,3.778-4.807l-5.398,4.547
					c4.618-4.202,13.777-12.889,28.191-20.732C42.587,46.983,17.041,89.838,12.548,126.306c0.05-1.079,0.38-3.964-0.363-0.697
					c-2.373,13.129-1.055,21.073-0.73,26.788c-0.218-1.919-0.199-3.843-0.298-5.772c-0.892,8.186,0.778,21.577,2.901,31.149
					c1.705,10.528,2.684,17.916,10.741,34.312l-0.713-0.343c2.124,4.449,4.399,8.836,6.962,13.06c-2.04-3.062-1.374-1.7-1.078-0.975
					c-0.685-0.847-0.961-1.572-2.216-3.858c-1.099-0.477,1.696,6.79,6.253,13.885c-1.511-2.171-2.955-4.381-3.968-5.96
					c2.922,6.274,18.271,24.692,9.988,16.086C27.638,228.116,29.304,227.351,20.702,211.199z"/>
				<path fill="#C8AD8F" d="M79.712,271.124c-11.829-7.67,3.653,1.692,1.283-0.432c3.609,2.11,7.356,3.986,11.162,5.71
					C92.188,277.218,80.974,271.504,79.712,271.124z"/>
				<path fill="#C8AD8F" d="M173.061,9.453c1.164,0.595,10.431,2.09,15.464,3.796c10.069,2.775,12.874,2.804,26.425,9.68
					c-11.052-4.191,10.622,6.699,18.378,14.143c-6.011-4.386-17.952-10.813-28.429-15.938c1.472,0.136-8.188-3.993-13.188-5.612
					c-8.025-0.942,5.807,2.077-26.031-3.169c-5.869-1.116-20.527-0.884-19.605-1.441c-4.14-0.205-7.912,1.024-12.49,0.917
					l-2.317-0.007c6.664-1.105,13.428-1.547,20.194-1.666c0.746,0.119,2.277,0.356,4.12,0.361
					c-3.821-1.192,22.087,0.989,8.994-1.325c-9.338-0.945-18.763-0.966-28.104-0.086c-6.84,0.479,2.703-1.393,12.92-1.499
					C164.199,8.426,163.36,8.649,173.061,9.453z"/>
				<path fill="#C8AD8F" d="M103.922,16.844l-1.512,0.301c7.705-2.838,15.681-4.951,23.782-6.345
					C118.598,12.148,111.149,14.224,103.922,16.844z"/>
				<path fill="#C8AD8F" d="M253.612,51.736c-3.507-3.382-6.397-6.487-10.237-9.475l0.154-1.082
					C247.079,44.526,250.471,48.032,253.612,51.736z"/>
				<path fill="#C8AD8F" d="M33.618,75.72c-3.001,5.628-10.653,19.8-11.652,25.106c1.614-4.035,0.867-2.721,1.146-3.757
					c-1.099,2.575-2.3,5.12-3.282,7.75C22.725,94.788,27.464,85.56,33.618,75.72z"/>
				<path fill="#C8AD8F" d="M280.835,92.438c6.403,15.246,8.506,18.168,11.512,37.444c0.293,4.228-1.137-5.09-0.556,1.008
					c0.61,6.057,0.982,7.448,1.409,10.421l0.119-2.37c0.112,4.757-0.696,19.554-1.546,11.867
					c-0.373-24.162-5.545-34.572-10.92-52.059l-0.289-3.37c-1.6-3.366-3.183-6.732-5.017-9.97c-0.291-0.708,0.171-0.597-1.748-3.796
					c-4.182-6.54,2.43,5.19,1.562,4.918c-3.431-6.269-7.299-12.29-11.671-17.912c-1.469-2.164,1.482,1.599,1.118,0.917
					c-5.58-8.542-10.86-12.379-16.39-19.13c3.262,2.976,6.407,6.093,9.397,9.366c-10.307-12.312-19.558-20.211-28.657-26.926
					C254.946,51.73,268.69,65.255,280.835,92.438z"/>
			</g>
		</g>
	</g>
</g>
<path display="none" fill="#FFFFFF" d="M256.34,171.785l20.254-20.172L256.34,131.44c-3.898-20.563-13.811-40.207-29.783-56.121
	c-15.965-15.918-35.688-25.799-56.326-29.688l-20.233-20.178l-20.243,20.178c-20.644,3.877-40.356,13.764-56.326,29.674
	c-15.975,15.916-25.896,35.572-29.793,56.135l-20.24,20.173l20.24,20.172c3.908,20.562,13.824,40.218,29.793,56.133
	c15.974,15.909,35.683,25.78,56.316,29.675l20.249,20.175l20.249-20.175c20.628-3.895,40.351-13.774,56.314-29.688
	C242.529,211.993,252.441,192.35,256.34,171.785z M150.142,240.064c-49.03,0-88.77-39.602-88.77-88.451
	c0-48.85,39.74-88.464,88.77-88.464c49.02,0,88.774,39.614,88.774,88.464C238.916,200.463,199.162,240.064,150.142,240.064z"/>
<path display="none" fill="#E6E6E6" d="M174.734,145.795l-18.629-60.808c-0.828-2.98-1.957-4.46-3.088-4.446
	c-1.109-0.015-2.236,1.461-3.065,4.439l-18.61,60.8c-1.68,5.541-1.52,3.691-0.003,8.625l18.614,60.806
	c0.843,2.974,1.958,4.472,3.074,4.467c1.115,0,2.25-1.493,3.08-4.467l18.613-60.806C176.225,149.46,176.402,151.32,174.734,145.795z
	"/>
<polygon display="none" fill="#F47F54" points="153.02,150.1 166.379,150.103 153.02,97.233 139.659,150.103 "/>
<g display="none">
	<path display="inline" fill="#273246" d="M222.541,63.237H76.792c-9.308,0-16.851,7.543-16.851,16.848v118.304
		c0,9.307,7.543,16.851,16.851,16.851h56.327c-0.01,0.138-5.226,25.604-5.226,25.604h-16.641c-5.168,0-5.092,8.55-5.092,8.55h87.009
		c0,0,0.077-8.55-5.086-8.55h-16.646c0,0-5.217-25.467-5.228-25.604h56.332c9.308,0,16.851-7.544,16.851-16.851V80.085
		C239.393,70.78,231.848,63.237,222.541,63.237z M149.663,211.032c-4.138,0-7.485-3.356-7.485-7.486
		c0-4.138,3.347-7.496,7.485-7.496c4.14,0,7.495,3.358,7.495,7.496C157.158,207.676,153.803,211.032,149.663,211.032z
		 M226.288,184.911c0,2.062-1.679,3.739-3.747,3.739H76.792c-2.065,0-3.743-1.678-3.743-3.739V80.085c0-2.064,1.678-3.74,3.743-3.74
		h145.75c2.069,0,3.747,1.676,3.747,3.74L226.288,184.911L226.288,184.911z"/>
	<rect x="82.408" y="85.705" display="inline" fill="#FFFFFF" width="134.516" height="93.59"/>
</g>
<polyline fill-rule="evenodd" clip-rule="evenodd" fill="#FFFFFF" points="48.412,86.332 100.764,86.332 126.17,76.101 
	150.127,81.216 172.812,81.216 191.459,86.332 218.481,76.101 243.406,66.345 255.382,66.345 264.812,216.093 250.709,220.405 
	204.969,220.405 179.492,217.773 160.039,221.068 138.289,222.678 104.694,219.323 64.474,220.528 47.156,222.678 27.566,164.895 
	"/>
<path fill-rule="evenodd" clip-rule="evenodd" fill="#273246" d="M235.218,70.796c1.427-2.02-2.15-2.686-0.627-4.285
	c1.403-1.48,3.117-0.2,4.683-0.235c7.248-0.15,14.756,1.503,22.529-3.053c-1.456,6.727,2.433,11.951,1.464,18.715
	c-1.455,10.154-0.975,20.737,1.366,30.991c0.267,1.151,0.713,2.822,0.158,3.52c-5.741,7.166-0.193,14.033,0.726,20.844
	c0.972,7.172,1.263,13.988-1.57,20.715c-0.964,2.269-0.762,4.431-0.646,6.871c0.353,6.964-1.114,14.073-0.271,20.926
	c1.071,8.597-1.066,17.691,2.263,25.669c2.431,5.802-3.013,6.095-4.168,9.195c-1.617,4.31-5.678,1.479-8.599,2.126
	c-14.613,3.219-29.049-1.517-43.658-1.339c-7.303,0.077-14.421,0.826-21.63,1.268c-6.188,0.369-12.407,0.863-18.589,1.058
	c-9.463,0.306-18.343,2.848-27.337,5.177c-1.456,0.375-3.094,0.178-4.644,0.102c-12.142-0.58-24.089-2.967-36.178-3.871
	c-8.631-0.656-16.935,1.562-25.189,4.393c-10.474,3.592-21.042,1.165-31.358-1.62c-3.365-0.917-3.536-4.956-5.802-7.244
	c-4.633-4.71-4.387-11.521-5.477-17.68c-1.698-9.522-4.528-18.854-4.939-28.587c-0.147-3.459-0.011-6.934-0.311-10.37
	c-0.195-2.221,1.567-5.236-2.513-6.235c-1.228-0.281-0.212-1.997,0.251-3.106c2.343-5.642,4.476-11.354,6.883-16.958
	c5.473-12.741,6.975-26.107,5.577-39.688c-0.31-3.071,0.065-7.118-3.235-9.776c-1.574-1.274,1.815-6.775,3.899-8.123
	c6.775-4.372,13.593-2.087,20.572-0.966c9.472,1.51,19.042,1.813,28.513-0.049c7.432-1.473,15.593,1.262,22.305-2.313
	c5.842-3.12,11.167-0.043,16.703-1.065c14.784-2.719,29.399,0.058,43.995,2.266c2.442,0.373,5.108,0.402,7.486-0.155
	c3.094-0.734,5.786-0.787,8.52,1.021c0.746,0.495,2.13,0.505,3.035,0.212c12.653-4.13,26.073-4.75,38.733-8.712
	C230.797,69.609,233.062,70.195,235.218,70.796 M254.594,89.074c-0.439-2.921,0.087-5.982-0.54-9.126
	c-0.642-3.26-1.89-4.138-5.013-3.972c-3.818,0.202-7.395,1.021-11.11,1.963c-7.034,1.794-14.25,2.875-21.172,5.267
	c-2.044,0.71-3.645,2.052-6.048,2.438c-6.928,1.112-14.231,0.725-20.644,4.716c-1.704,1.061-5.256,1.113-5.244-2.72
	c0.008-3.447-2.956-2.001-3.373-1.618c-4.668,4.269-10.13,1.677-14.738,1.039c-13.212-1.814-26.298-3.126-39.539-0.854
	c-1.539,0.265-3.482,0.925-4.492-0.208c-4.491-5.014-7.809-0.927-11.231,1.321c-1.756,1.149-3.336,2.201-5.533,2.302
	c-5.829,0.258-11.824-0.064-17.449,1.215c-5.947,1.359-12.06-0.305-17.867,1.786c-1.191,0.428-3.194,0.451-4.021-0.265
	c-4.258-3.683-8.761-1.015-12.994-0.569c-9.342,0.986-2.737,7.436-3.013,11.139c-0.458,6.211-0.757,12.387-3.922,17.786
	c-2.038,3.461,1.709,7.137-1.374,10.442c-2.796,2.989-3.382,7.342-5.12,10.992c-5.478,11.489-4.375,23.773-2.889,36.067
	c1.375,11.33,6.552,21.646,8.197,32.933c0.351,2.489-0.354,8.225,5.184,7.526c4.655-0.598,9.482-0.862,13.896-2.899
	c1.669-0.775,3.236-0.799,5.267-0.5c6.436,0.946,13.33,2.414,19.417,0.97c5.314-1.245,10.41-1.229,15.617-1.639
	c2.221-0.17,4.098,0.253,5.466,2.161c1.228,1.719,2.954,1.941,4.974,2.091c7.803,0.558,15.495-1.649,23.221-1
	c7.375,0.617,14.379-1.79,21.793-1.56c6.384,0.203,13.517-0.951,19.493-3.193c16.275-6.108,32.275-0.847,48.204,0.162
	c7.598,0.475,15.459,1.299,23.157,2.388c3.423,0.483,4.186-1.29,4.558-4.531c0.662-5.684,1.502-11.189,1.314-17.036
	c-0.114-3.748-0.282-7.198-1.493-10.688c-0.381-1.115-0.781-2.255-0.973-3.399c-2.016-11.837-0.746-23.668,0.097-35.497
	c0.465-6.554,2.78-13.089,1.804-19.595C254.706,113.032,254.2,101.172,254.594,89.074"/>
<path fill-rule="evenodd" clip-rule="evenodd" fill="#273246" d="M218.021,113.764c2.462,3.642-1.121,5.915-2.359,6.241
	c-3.318,0.878-3.793,4.406-6.728,5.639c-2.079,0.873-2.608,3.467,0.763,4.695c3.152,1.135,4.55,4.203,5.941,6.819
	c1.356,2.56-0.652,4.245-2.948,5.663c-2.881,1.784-3.412-0.223-4.455-2.069c-3.871-6.864-4.892-6.978-10.184-1.876
	c-1.501,1.449-3.956,1.257-5.24,0.291c-1.546-1.174-1.205-3.453,0.135-5.026c0.956-1.13,2.137-2.099,3.328-2.988
	c1.739-1.306,2.689-2.507,0.365-4.165c-1.739-1.234-2.637-3.116-3.523-4.98c-1.851-3.911,0.235-7.883,4.42-8.341
	c1.662-0.174,2.971,0.877,2.685,2.382c-0.74,4.038,3.047,5.573,4.762,5.496c2.642-0.127,5.013-2.255,5.436-5.989
	c0.387-3.42,4.228-5.02,6.871-5.693C219.459,109.301,218.936,112.346,218.021,113.764"/>
<path fill-rule="evenodd" clip-rule="evenodd" fill="#273246" d="M157.146,197.359c-1.345-4.92-3.868-1.314-5.854-1.631
	c-0.903-0.146-0.811-0.951-0.892-1.61c-0.552-4.255,7.415-13.116,11.606-12.094c1.633,0.411,4.85,1.034,5.397,3.569
	c0.469,2.188-1.198,3.547-3.266,4.381c-1.738,0.691-3.236,1.661-3.952,3.711C159.758,194.894,158.475,195.816,157.146,197.359"/>
<path fill-rule="evenodd" clip-rule="evenodd" fill="#273246" d="M100.906,120.464c-0.271,0.336-0.711,1.026-1.281,1.605
	c-4.215,4.292-9.911,5.868-15.266,7.991c-1.655,0.654-1.849-0.729-1.009-2.158c2.807-4.738,6.154-9.002,10.957-11.8
	C97.036,114.524,101.092,117.061,100.906,120.464"/>
<path fill-rule="evenodd" clip-rule="evenodd" fill="#273246" d="M186.156,167.171c-0.44,3.32-3.111,5.095-5.665,6.633
	c-1.227,0.728-3.205-0.517-2.795-1.983c1.346-4.804,2.191-9.7,3.129-14.585c0.289-1.48,2.913-1.961,4.281-1.644
	c1.591,0.358,3.963,0.949,3.718,3.511c-0.179,1.827-0.724,3.611-1.099,5.412C185.111,163.765,185.764,165.572,186.156,167.171"/>
<path fill-rule="evenodd" clip-rule="evenodd" fill="#273246" d="M122.424,168.361c-0.124-6.171-0.723-11.235,0.816-16.258
	c0.305-0.993,0.286-2.139,1.238-2.664c2.131-1.202,4.832-4.862,6.194-3.136c1.808,2.283-0.212,6.2-0.723,9.405
	c-1.737-0.316-1.285,0.494-1.05,1.645C129.897,162.355,126.44,164.896,122.424,168.361"/>
<path fill-rule="evenodd" clip-rule="evenodd" fill="#273246" d="M130.99,183.785c2.36,4.217,5.144,8.027,6.2,12.771
	c0.717,3.191,0.259,4.014-2.864,2.683c-3.365-1.421-7.645-2.314-8.572-6.143C124.79,189.176,127.648,186.182,130.99,183.785"/>
<path fill-rule="evenodd" clip-rule="evenodd" fill="#273246" d="M124.284,131.818c-4.444-0.235-6.335-4.7-9.98-6.547
	c-1.616-0.813,0.129-4.142,1.65-5.771c1.538-1.642,3.158,0.113,3.84,0.992c1.073,1.383,4.884,1.611,2.559,4.808
	c3.142-0.805,2.924,1.635,3.564,3.435c0.054,0.161,2.977-1.558,2.014,1.239C127.561,131.078,126.422,132.902,124.284,131.818"/>
<path fill-rule="evenodd" clip-rule="evenodd" fill="#273246" d="M67.355,173.035c1.181,0.763,2.666,1.258,3.389,2.283
	c1.532,2.173-1.398,0.564-1.656,1.691c-0.486,2.127-1.414,4.145-2.043,6.233c-0.294,0.978,0.006,2.197-0.463,3.026
	c-1.104,1.954-1.763,5.585-4.388,4.751c-2.583-0.822-1.555-4.151-0.95-6.437c0.786-2.936,1.72-5.837,2.8-8.665
	C64.591,174.499,65.629,173.265,67.355,173.035"/>
<path fill-rule="evenodd" clip-rule="evenodd" fill="#273246" d="M70.368,161.855c-1.28-6.306,3.312-10.938,4.691-16.356
	c0.493-0.074,0.669-0.159,0.775-0.109c5.753,2.314,2.906,5.932,1.391,9.333c-0.211,0.47-0.811,0.996-0.715,1.325
	C78.353,161.969,73.984,161.498,70.368,161.855"/>
</svg>
