<?xml version="1.0" encoding="utf-8"?>
<!-- Generator: Adobe Illustrator 14.0.0, SVG Export Plug-In . SVG Version: 6.00 Build 43363)  -->
<!DOCTYPE svg PUBLIC "-//W3C//DTD SVG 1.1//EN" "http://www.w3.org/Graphics/SVG/1.1/DTD/svg11.dtd">
<svg version="1.1" id="Layer_1" xmlns="http://www.w3.org/2000/svg" xmlns:xlink="http://www.w3.org/1999/xlink" x="0px" y="0px"
	 width="400px" height="150px" viewBox="0 0 400 150" enable-background="new 0 0 400 150" xml:space="preserve">
<g>
	<path fill-rule="evenodd" clip-rule="evenodd" fill="#849D9A" d="M328.101,109.921c0.63,0.052,0.849-0.107,1.45-0.068
		c1.76,0.158,2.45,0.867,4.354,0.952c1.371,0.358,2.099,1.049,3.561,1.36c0.535,0.789,2.123,1.036,2.637,1.835
		c1.385,0.602,2.772,1.201,3.43,2.178c1.359,0.342,2.491,0.801,3.561,1.292c0.396,0,0.791,0,1.188,0
		c0.933,0.29,1.69,0.67,2.375,1.089c0.579,1.582,2.262,2.596,3.296,3.944c0.966,0.5,2.459,0.727,3.033,1.428
		c0.687,0.01,1.158,0.129,1.581,0.272c0.108,0.158,0.425,0.387,0.134,0.543c0.788,0.07,1.19,0.339,1.45,0.681
		c2.973,0.508,5.466,1.264,7.255,2.381c0.229,0.88,1.431,1.256,1.713,2.109c1.318,0.838,2.063,1.974,3.694,2.651
		c-0.016,0.87,1.134,1.138,1.318,1.904c1.592,0.29,1.917,1.233,3.825,1.361c1.241,0.696,2.841,1.21,3.561,2.176
		c0.027,0.734,0.801,1.083,1.319,1.564c2.002,0.192,1.993,1.421,3.824,1.7c0.689,0.756,1.586,1.405,2.769,1.905
		c0.721,0.921,0.884,2.129,2.639,2.517c0.011,0.267,0.232,0.423,0.396,0.61c0.217,0.274,0.999,0.256,1.32,0.478
		c0.178,0.791,1.567,0.958,1.978,1.632c1.812,0.086,2.577,0.711,3.165,1.429c-0.213,0.548-1.336,0.626-2.377,0.747
		c-1.574-0.434-2.86-1.018-4.351-1.495c-0.228-0.246-0.245-0.598-0.527-0.817c-1.207-0.329-1.922-0.913-2.638-1.495
		c-3.909-0.568-5.8-2.179-10.418-2.381c-0.292-0.234-0.784-0.367-0.791-0.748c0.173-0.522,0.86-0.78,0.791-1.429
		c0.542-0.264,1.365-0.383,2.507-0.34c1.07,0.808,3.479,0.927,3.297,2.38c0.228,0.269,0.968,0.272,1.583,0.34
		c0.275-0.936-0.797-1.765-2.376-1.972c-1.206-1.146-3.041-1.969-3.825-3.333c-0.682-0.169-1.468-0.285-1.977-0.544
		c-0.562-0.595-0.186-1.673-1.584-1.836c-0.021,1.011,2.461,2.598,0.265,3.537c-0.265,0-0.528,0-0.791,0
		c-0.335,0.394-0.996,0.62-1.583,0.884c-0.77,0.692,0.29,1.543-0.528,2.177c0.077,0.437,0.73,0.575,0.661,1.087
		c-0.13,0.003-0.103,0.084-0.133,0.137c-0.388,0.224-0.896,0.207-1.582,0.136c-0.925,1.124,0.334,1.835,2.11,2.108
		c3.352-0.033,6.541,0.557,7.385,2.041c-0.269,0.384-1.332,0.355-2.109,0.476c-1.933-0.658-5.062-0.7-6.859-1.427
		c-1.291,0.21-1.978,0.458-3.562,0.407c-0.851-0.604-2.5-0.796-4.088-1.021c-0.064-0.238-0.195-0.443-0.132-0.747
		c-0.188-0.244-0.73-0.304-1.45-0.273c-1.092-0.524-2.253-1.015-4.09-1.156c-0.811-0.443-1.756-0.817-2.372-1.36
		c0.222-1.001,2.223-0.178,3.43-0.407c0.952,0.279,1.78,0.622,3.429,0.543c1.038,0.683,3.162,1.854,5.273,0.953
		c-0.239-0.308-1.418-0.131-1.713-0.409c-0.174-0.59,0.026-1.042-0.265-1.632c0.195-0.239,0.872-0.23,1.055-0.477
		c-0.018-1.229-1.057-3.801,0.793-4.624c-0.111-1.531,0.834-2.518,1.977-3.401c-0.274-0.628-0.735-1.162-1.714-1.428
		c-1.695,0.281-0.929,1.834-3.033,1.904c-0.125-1.044,1.977-2.314-0.265-3.06c-1.173,0.143-1.942,0.494-2.637,0.884
		c0.172,0.875-0.391,1.794-1.584,2.176c-0.709,1.465,0.619,2.843-0.262,4.285c-1.674,0.452-1.232,1.994-2.507,2.652
		c-0.805,0.053-1.152-0.131-1.583-0.272c-0.671-1.15,0.994-1.655,1.187-2.585c-0.803-1.035-1.187-2.241-0.526-3.537
		c-0.206-0.436-0.794-0.678-1.188-1.02c0.211-1.362-1.702-1.893-0.923-3.332c-0.781-0.552-1.795-1.595-0.527-2.244
		c-0.172-0.251-0.896-0.22-1.187-0.408c-0.926-0.34-0.244-1.507-1.32-1.77c-0.111,1.29,0.611,2.757,0.529,4.149
		c1.922,1.292,1.373,4.023-1.318,4.624c-0.361,0.449-0.637,1.229-1.717,1.089c-0.247-1.061,1.009-1.926,1.583-2.788
		c-0.684-0.767-1.44-1.831-0.924-2.992c-0.373-0.375-0.697-0.773-1.186-1.089c0.052-1.001-0.323-1.784-1.055-2.381
		c0.182-0.66-0.331-0.962-1.057-1.155c0.003-0.296,0.081-0.631-0.264-0.749c-0.722,0.308-1.231,0.726-2.372,0.816
		c0.041,0.158-0.023,0.262-0.133,0.341c0.08,0.366,0.865,0.37,1.714,0.339c1.151,0.537,0.061,1.576,0,2.312
		c0.421,0.479,0.451,1.124,0.131,1.701c-1.38,0.473-2.106,1.805-1.318,2.788c-0.392,0.651-0.884,1.33-0.658,2.041
		c0.128,0.404,0.912,0.846,1.054,1.36c0.29,1.047,1.13,1.926,1.716,2.925c-0.165,0.277-0.335,0.552-0.924,0.61
		c-2.714-0.617-2.184-2.908-3.956-4.012c0.152-0.85-0.4-1.335-0.924-1.837c0.003-1.404,1.033-2.277,1.716-3.332
		c-0.219-0.409-1.285-0.381-1.583-0.749c0.451-0.797-0.355-1.463-1.188-1.972c-0.645,0.052-1.151,0.177-1.449,0.408
		c0.834,0.775,0.645,2.574-0.792,2.992c-0.674-0.603-0.953-1.413-2.11-1.769c0.222-0.624-0.498-1.088-0.13-1.563
		c-0.263-0.206-0.868-0.232-1.057-0.477c0.179-0.52-0.056-1.254,0.526-1.564c-0.937-0.856-0.928-1.881-2.24-2.448
		c0.825-1.847-1.835-2.667-3.957-3.4c-0.126,0.435-0.224,0.882-0.925,1.021c0.597,0.979,2.962,1.925,1.847,3.127
		c0.055,0.291,0.673,0.29,0.66,0.613c-0.807,0.893,0.25,2.152-0.921,2.856c0.416,0.772-0.57,1.132-0.793,1.769
		c-1.343-0.078-1.854-0.585-2.902-0.816c-0.061-0.694-0.676-1.102-1.187-1.564c0.608-1.062-0.459-1.727-0.396-2.72
		c-1.592-1.175-2.135-2.889-4.484-3.673c-1.421,0.076-2.266-0.146-2.9-0.477c0.127-0.858-1.564-0.78-1.716-1.496
		c-0.996,0.061-1.344-0.214-2.373-0.137c-0.837-0.496-2.997-1.633-1.188-2.243c-0.913-0.596-1.706-1.252-2.506-1.905
		c0.069-0.439,0.989-0.442,1.188-0.815c-0.065-0.267-0.275-0.727-0.132-0.884c0.57-0.947,1.845-1.31,4.088-1.09
		c0.41,0.357,0.826,0.708,1.849,0.749c0.722,0.67,1.47,1.328,2.108,2.04c0.801-0.05,1.279,0.066,1.716,0.205
		c0.189,0.15,0.331,0.327,0.264,0.611c0.42,0.102,1.026,0.104,1.317,0.271c0.066,0.239,0.197,0.443,0.132,0.748
		c1.041,0.438,1.346,1.257,2.638,1.564c0.242,0.76,1.507,0.992,2.771,1.225c0.57-0.574-0.431-1.71,0.131-2.517
		c-0.725-0.856-1.59-2.268-1.187-3.265c-0.415-0.534-1.113-0.921-1.715-1.359c-0.14-0.368,0.359-0.405,0.264-0.749
		c-0.007-0.313-0.375-0.441-0.527-0.681c0.055-2.226-1.957-3.388-3.692-4.692c-0.466-0.031-0.762-0.15-1.317-0.136
		c-1.029-0.784-3.07-1.048-4.881-1.429c-0.08,0.473,0.791,0.455,0.924,0.817c-0.012,0.243-0.206,0.392-0.265,0.611
		c0.82,0.552,0.681,1.599,1.45,2.176c-0.096,0.155-0.118,0.349-0.264,0.477c0.39,0.412,0.252,0.852,0.527,1.224
		c0.295,0.396,1.019,0.526,1.584,0.885c0.225,0.143,0.201,0.36,0.396,0.476c0.971,0.581,2.601,0.896,3.56,1.361
		c0.104,0.256,0.232,0.576,0,0.816c-2.608,0.078-3.509-1.561-5.405-2.178c-1.035-0.236-2.099-0.458-3.298-0.611
		c-0.314-0.155-0.455-0.401-0.66-0.612c-0.396,0-0.792,0-1.188,0c-0.723-0.557-1.327-1.175-3.163-1.157
		c-0.422-0.519,0.468-1.317-0.66-1.495c-0.415-0.032-0.35,0.183-0.66,0.203c-0.099,0.499,0.719,0.754,0.265,1.226
		c-1.686,0.265-2.885,0.778-3.299,1.699c-2.215,0.763-3.219,2.149-6.196,2.518c-0.541,0.469-1.379,0.785-1.188,1.632
		c-0.415,0.307-1.212,0.418-1.583,0.749c0.437,1.14,1.545,2.559-0.659,3.06c0.528,0.333,1.213,0.575,0.792,1.225
		c0.2,0.35,1.21,0.282,1.318,0.681c-0.083,0.705-1.278,0.837-1.715,1.359c0.229,0.592,1.116,1.237,0.133,1.7
		c0.449,0.086,1.135,0.05,1.449,0.205c0.641,1.157-1.431,1.941-1.978,2.924c0.027,0.44,0.786,0.502,1.057,0.816
		c0.226,1.023-1.562,1.009-1.057,2.176c-0.577,0.406-1.089,0.845-1.848,1.157c-1.838-0.241-2.532,0.501-3.823,0.748
		c-1.114-0.195-1.905-0.561-2.77-0.885c-0.05-0.501,0.465-0.712,0.659-1.088c-0.167-0.764-1.511-1.327-0.659-2.041
		c-0.188-0.4-1.089-0.436-1.188-0.884c0.677-0.739,1.892-1.201,3.166-1.633c-0.099-0.496-0.244-0.971,0.265-1.291
		c-1.066-0.533-0.634-1.478,0.396-1.837c-0.089-0.453-0.776-0.597-0.661-1.156c0.237-0.264,0.95-0.281,1.452-0.408
		c0.133-0.364-0.487-0.339-0.396-0.68c0.053-0.336,0.786-0.319,1.054-0.544c0.043-0.658-0.363-1.083-0.658-1.565
		c-0.046-0.362,0.529-0.405,0.658-0.68c0.268-1.631,1.993-2.509,3.956-3.266c0.125-0.566,1.117-0.906,0.661-1.562
		c0.468-0.485,1.104-0.882,2.11-1.09c-0.056-0.299,0.035-0.525,0.262-0.68c1.728-0.107,2.061-0.933,3.694-1.088
		c-1.091-0.216-3.121,0.245-4.221,0.476c-1.822,1.01-3.215,2.242-4.748,3.401c-2.011,0.232-2.526,1.236-4.484,1.496
		c-0.599,0.281-0.729,0.803-1.055,1.225c-1.28,0.223-1.848,0.814-2.901,1.155c-0.323,1.059-0.612,2.134-1.583,2.857
		c-0.104,0.303,0.176,0.408,0.131,0.681c-1.351,1.051-1.606,2.361-1.318,4.012c-1.241,0.629-1.31,1.864-2.769,2.381
		c-0.062,0.402,0.221,0.564,0,0.885c-1.612,0.393-1.779,1.53-2.77,2.243c0.113,0.351,1.282,0.155,1.45,0.477
		c-0.922,1.292-3.822,1.565-5.142,2.652c-2.116,0.315-3.582,0.966-4.749,1.769c-1.807,0.431-2.896,1.227-4.089,1.973
		c-0.595,0.102-1.039,0.281-1.451,0.477c-0.223,0.791-1.509,1.035-2.242,1.563c-0.182,0.359-0.164,0.822-0.396,1.157
		c3.03-0.568,3.899-2.253,7.122-2.721c2.294-1.197,4.564-2.408,7.913-3.062c0.424-0.189,0.589-0.512,0.925-0.747
		c2.161-0.359,3.498-1.144,5.934-1.361c0.074,0.098,0.206,0.167,0.396,0.205c-0.751,1.584-3.942,1.911-5.671,2.992
		c-1.082,0.146-1.792,0.481-2.769,0.68c-0.525,0.045-0.532-0.18-1.057-0.137c-0.575,0.112-1.021,0.289-1.583,0.408
		c-2.241,1.521-5.735,2.393-7.912,3.944c-1.519,0.511-2.778,1.152-4.353,1.634c0.039,0.252,0.581,0.246,0.395,0.611
		c0.781-0.164,2.208-0.584,2.506-1.225c1.551-0.129,1.524-1.071,3.166-1.155c0.103-0.265,0.228-0.518,0.528-0.68
		c2.471-0.312,3.259-1.492,5.011-2.177c1.32,0.173,1.537-0.479,2.506-0.271c0.795,1.645-3.336,1.897-3.956,3.263
		c0.964,0.022,1.194-0.335,1.714-0.543c0.614-0.113,1.036-0.327,1.583-0.476c0.997-0.325,1.413-0.948,2.637-1.156
		c0.817-0.735,2.326-1.113,3.43-1.7c1.399-0.413,2.118-1.176,3.825-1.429c0.004,0.065,0.161,0.053,0.263,0.068
		c0.767,0.526-0.586,0.844-0.791,1.291c1.258,0.293,2.473-0.57,3.562-0.815c-0.05-0.333-0.313-0.451-0.133-0.748
		c0.382-0.236,0.692-0.506,1.584-0.477c0.702-0.635,2.165-0.878,3.561-1.156c1.363,0.068,1.467,0.784,2.374,1.089
		c0.081,0.608,0.006,1.136-0.527,1.428c0.185,1.513-1.027,2.863-1.847,4.081c-0.731,0.167-1.129,0.507-2.374,0.408
		c-0.464,0.328-0.733,0.756-1.449,0.952c-0.542-0.007-1.082-0.013-1.453,0.068c-0.321,0.174,0.06,0.71-0.262,0.884
		c-0.888,0.392-2.54-0.11-3.299,0c-0.644,0.189-0.425,0.824-0.924,1.089c-0.417,0.102-1.163,0.033-1.581,0.136
		c-0.585,0.446-1.321,0.814-2.506,0.951c-0.659,0.341-0.869,0.911-1.978,1.021c-0.733-0.031-1.055-0.274-1.188-0.612
		c0.204-0.642,1.729-0.605,1.847-1.293c-1.088-0.574-1.915,0.768-3.43,0.409c-1.045,0.512-1.974,1.418-4.352,1.02
		c-1.461-1.033,1.033-1.874,2.505-2.245c0.163-0.392,0.354-0.77,0.396-1.225c-2.098,0.284-2.767,1.649-5.146,1.565
		c-0.296-0.741,1.092-1.147,1.584-1.7c-1.121,0.146-2.285,0.86-3.164,1.359c-1.478,0.326-2.304,0.989-3.562,1.43
		c-0.227,0.289-0.547,0.534-0.922,0.747c-0.854,0.173-1.424,0.49-2.638,0.477c-0.253-0.097-0.472-0.211-0.66-0.341
		c-0.062-0.848,1.316-0.954,1.978-1.427c-2.456,0.5-4.695,1.703-7.648,2.175c-0.663,0.136-0.559,0.664-1.45,0.682
		c-1.724-1.425,2.942-1.555,3.824-2.382c0.231-0.152,0.063-0.511,0.265-0.68c2.392-0.897,5.578-1.385,6.857-2.855
		c-1.817,0.229-3.788,1.298-6.198,1.223c-0.857,0.397-1.713,0.795-3.033,0.952c-0.712,0.562-1.845,0.907-3.561,0.953
		c-0.004-0.066-0.163-0.053-0.264-0.067c-1.297-1.107,1.199-1.82,2.241-2.382c-0.414-0.141-1.103,0.227-1.715,0
		c-0.356-0.792,1.159-1.157,1.318-1.904c3.674-1.302,6.854-2.857,10.946-3.945c0.601-0.551,1.81-0.789,2.506-1.292
		c1.653-0.034,2.158-1.012,3.825-0.815c-1.646,2.257-6.329,2.948-9.1,4.624c0.846,0.378,1.737-0.302,2.506-0.407
		c3.126-1.516,6.353-2.98,9.495-4.489c-1.022-0.424-1.646-1.056-2.638-1.496c0.455-0.831,1.808-1.199,2.507-1.903
		c-0.297-0.34,0.004-0.765,0.395-0.953c0.6-0.096,1.021,0.043,1.848,0c0.438-0.091,0.374-0.441,0.659-0.612
		c2.021-0.386,2.537-1.548,3.166-2.652c2.86,0,5.496-1.316,5.011-2.925c1.32-0.806,2.308-1.946,2.241-3.265
		c-0.164-0.143-0.382-0.256-0.659-0.339c-1.202,0.313-2.646,0.901-4.351,0.543c-0.89,0.59-0.69,1.447-1.847,1.973
		c-1.027,0.06-1.943,0.178-2.376,0.544c0.004,0.318,0.766,0.601,0.265,0.951c-2,0.669-3.51,1.59-4.089,2.994
		c-0.283,0.17-0.813,0.214-1.055,0.407c-0.159,0.394-0.395,0.748-0.528,1.156c-2.127,1.17-5.103,1.901-6.066,3.673
		c-1.124,0.418-1.325,1.312-3.165,1.36c-0.764-0.725,0.747-1.469,0-2.245c1.457-0.744,2.708-1.596,3.956-2.448
		c0.029-0.982,1.401-1.272,1.849-2.04c-0.428-0.675,0.038-1.048,0-1.837c0.296-0.187,0.977-0.175,1.317-0.34
		c0.174-0.432,0.141-0.971,0.528-1.291c-1.973,1.364-5.432-0.24-8.31-0.068c-1.863,0.672-1.321,2.583-3.824,2.924
		c-0.094,0.298,0.225,0.384,0.131,0.68c-0.424,0.234-1.114,0.334-1.45,0.613c0.959,2.035-1.373,3.129-3.429,4.012
		c-0.213,0.775-0.872,1.318-1.715,1.769c-0.111,0.244,0.07,0.729,0,1.156c-0.476,0.549-1.36,0.887-3.165,0.748
		c-2.649,0.312-3.137,1.738-4.88,2.518c-0.819-0.1-2.053,0.016-2.638-0.205c-1.737-1.507,1.605-2.085,1.847-3.4
		c-1.856,0.017-1.409,1.224-2.902,1.429c-0.026,0.349-0.347,0.546-0.396,0.883c-1.398,0.277-1.857,1.038-3.297,1.294
		c0.034,0.449-0.395,0.657-0.264,1.155c-0.871,0.585-3.704,0.967-5.408,0.477c-0.281,0.874-0.711,1.674-2.769,1.633
		c-0.391,0.342-0.242,0.964-1.057,1.087c0.426,0.213,0.809,0.445,1.057,0.749c1.617-0.187,1.597-1.217,2.638-1.7
		c0.752-0.202,1.325-0.496,1.714-0.885c0.88-0.046,1.191-0.383,2.111-0.407c0.63,0.038,1.001,0.208,1.186,0.477
		c-1.685,2.53-6.515,3.44-9.362,5.372c-3.271,0.331-3.562,2.199-6.99,2.448c-0.41-0.281-0.085-0.525,0-0.885
		c-1.854,0.217-2.504,1.728-4.88,1.225c0.36-1.105,2.523-1.282,3.165-2.244c1.646-0.352,2.557-1.085,3.562-1.768
		c1.501-0.292,2.24-0.976,3.297-1.497c-1.271-0.659-2.35,0.588-3.957,0.204c-0.752,0.089-1.441,0.209-2.109,0.34
		c-1.786,1.278-3.026,2.839-4.749,4.15c-0.862,0.098-1.387,0.373-1.714,0.747c-1.272,0.183-2.247,0.52-2.901,1.021
		c-1.269,0.033-2.129,0.822-3.43,0.407c0.022-0.079-0.028-0.121-0.131-0.136c0.409-1.172,2.585-1.433,3.561-2.312
		c3.71-0.92,5.539-2.811,6.462-5.169c0.099-0.312,0.856-0.284,1.056-0.543c-0.034-1.084,1.758-1.226,2.241-2.041
		c-0.082-0.544-0.744-1.091,0-1.496c0.348-0.071,0.81-0.082,1.319-0.068c0.078-0.526,0.4-0.928,1.45-0.953
		c0.412-0.807,1.038-1.505,1.979-2.04c1.357,0.223,1.818-0.468,3.427-0.477c0.582,0.087,0.517,0.506,0.926,0.681
		c0.371,0.157,0.823-0.078,1.449,0c0.766,0.558,2.154,0.794,3.297,1.155c0.343,0.21,0.247,0.646,0.793,0.75
		c3.013-0.872,4.292-2.638,6.725-3.81c-0.201-1.374,0.856-2.098,1.585-2.991c3.237-0.331,2.396-3.109,6.593-2.723
		c0.456,0.196,0.662,0.521,1.318,0.612c1.31-0.42,2.784-1.271,1.848-2.245c-0.094-0.363,0.651-0.297,0.658-0.611
		c-0.202-0.567-0.608-1.45,0.529-1.631c0.738,0.004,0.995,0.256,1.449,0.407c0.735-0.12,1.425-0.264,2.505-0.205
		c0.461-0.102,0.531-0.406,0.792-0.61c1.741-0.077,2.233-0.8,3.297-1.225c2.183,0.038,3.735-0.13,5.803-0.272
		c0.622,0.02,0.78,0.278,1.32,0.34c0.977-0.245,1.735-0.602,2.769-0.816c3.391,0.436,3.589-1.006,5.804-1.36
		c0.604-0.062,0.637,0.17,1.188,0.137c3.79-1.764,10.681-1.927,12-4.965c1.513-0.241,2.353-0.828,3.166-1.43
		c1.844-0.159,2.335-1.017,4.088-1.223c1.069-0.56,1.693-1.35,3.299-1.633c0.521-0.411,0.653-1.022,1.318-1.36
		c1.317-0.343,3.032-0.645,4.879-0.34c1.321-0.295,1.673-1.088,3.561-1.088c1.092-0.345,1.523-1.029,2.901-1.225
		c1.036,0.093,1.446,0.114,2.639,0.067c0.834-0.544,1.619-1.114,1.847-1.973c0.764-0.529,2.485-0.553,3.956-0.543
		c2.663,0.688,5.306,1.389,7.782,2.176c0.44,0.793,1.572,1.229,2.504,1.77C326.23,108.526,327.865,108.862,328.101,109.921z
		 M332.322,111.621c-1.34-0.012-3.398-0.592-4.222-0.205c0.938,0.65,1.431,1.53,2.109,2.312c0.197,1.031-0.605,1.547-0.395,2.584
		c1.47,0.671,1.832,1.913,4.089,2.178c0.666-0.064,0.938-0.332,1.45-0.477c0.161-1.353-0.359-3.131,0-4.761
		C334.04,112.866,333.393,112.133,332.322,111.621z M341.025,119.374c0.196-0.595-0.682-1.957,1.319-1.429
		c0.125-0.472-0.712-0.449-1.188-0.612c-0.486-0.291-0.743-0.704-1.449-0.884C339.057,117.486,339.851,118.836,341.025,119.374z
		 M348.279,120.19c-0.192-0.423-0.332-0.872-0.659-1.225c-1.917-0.032-2.384-0.812-4.747-0.612
		C343.093,119.701,345.184,120.984,348.279,120.19z M340.235,121.006c0.425,0.436-0.201,1.117,0.132,1.497
		c0.969,0.047,0.856-0.465,1.713-0.478c1.807,0.095,2.376,1.065,2.111,1.838c0.544-0.331,1.3-0.554,2.242-0.68
		c-1.077-1.35-2.353-2.597-4.748-3.266C341.447,120.407,340.45,120.507,340.235,121.006z M344.454,125.631
		c0.076-0.333-0.17-0.501-0.658-0.545C343.823,125.368,344.031,125.555,344.454,125.631z M352.896,126.243
		c-0.249-0.007-0.092-0.224-0.395-0.203C352.32,126.233,352.736,126.448,352.896,126.243z M241.978,129.441
		c1.152,0.026,1.025-0.607,1.452-0.953c-0.381-0.121-0.337-0.462-0.924-0.477C242.44,128.509,241.329,129.008,241.978,129.441z
		 M238.155,132.705c0.877-0.08,1.429,0.18,1.979,0.068c-1.131-0.561,0.091-1.115,0.263-1.77
		C238.493,130.976,238.302,131.827,238.155,132.705z M278.775,137.874c0.32-0.039,0.679-0.058,0.66-0.272
		C279.048,137.606,278.946,137.758,278.775,137.874z M253.453,139.098c0.286,0.058,0.449,0.177,0.923,0.137
		c0.211-0.276,0.791-0.363,0.791-0.748C254.378,138.578,254.065,138.915,253.453,139.098z M221.403,142.498
		C221.213,142.541,221.418,142.581,221.403,142.498C221.598,142.457,221.392,142.417,221.403,142.498z M217.977,144.199
		C217.785,144.241,217.989,144.281,217.977,144.199C218.167,144.157,217.963,144.117,217.977,144.199z"/>
	<path fill-rule="evenodd" clip-rule="evenodd" fill="#849D9A" d="M273.962,123.295c-0.335,1.111-1.259,1.809-2.476,2.3
		c-0.361-0.062-0.615-0.2-0.785-0.396C271.067,124.194,272.626,122.103,273.962,123.295z"/>
	<path fill-rule="evenodd" clip-rule="evenodd" fill="#849D9A" d="M325.914,124.009c-0.196,1.237-1.539,1.664-1.912,2.775
		c0.047,0.465,0.384,0.797,0.112,1.27c-0.518,0.329-1.562,0.375-2.137,0.078c-0.527-1.956,0.932-3.818,2.699-4.679
		C325.447,123.385,325.621,123.739,325.914,124.009z"/>
	<path fill-rule="evenodd" clip-rule="evenodd" fill="#849D9A" d="M338.171,127.578c-0.7-0.036-0.834-0.469-0.899-0.952
		C337.897,125.926,339.106,127.187,338.171,127.578z"/>
	<path fill-rule="evenodd" clip-rule="evenodd" fill="#849D9A" d="M274.636,127.418c-0.018,0.569-0.31,0.944-1.012,1.031
		C273.382,127.703,273.906,126.757,274.636,127.418z"/>
	<path fill-rule="evenodd" clip-rule="evenodd" fill="#849D9A" d="M341.319,127.26c0.438,0.722,1.114,1.276,2.136,1.587
		c0.302,0.897,1.053,1.479,2.476,1.585c1.04,1.275,2.487,2.265,3.036,3.887c0.031,0.394-0.379,0.475-0.45,0.793
		c0.056,0.33,0.393,0.464,0.45,0.794c-0.109,0.61-1.668,0.864-0.899,1.586c0.533,0.032,0.59-0.271,1.123-0.237
		c0.491-0.057,0.5,0.229,0.9,0.237c1.071-0.04,1.81-0.266,2.812-0.158c0.773,0.751,2.793,0.62,3.71,1.269c0.45,0,0.9,0,1.35,0
		c0.611,0.256,1.217,0.518,1.462,1.032c-0.202,0.466-0.588,0.801-1.012,1.11c-1.788-0.416-3.964-0.221-5.622-0.872
		c-0.508,0.156-0.007,0.661,0.112,0.872c0.582,0.063,1.137,0.15,1.686,0.237c0.26,1.298,2.53,1.177,2.925,2.379
		c-0.039,0.475-0.558,0.611-1.013,0.795c-1.5-0.167-2.713-0.133-3.261-1.032c-0.479,0.047-0.744-0.058-1.125-0.079
		c-0.256-0.454-0.723-0.759-1.574-0.793c-0.538-0.812-1.536-1.297-2.811-1.587c-0.339-0.846-1.38-1.194-2.586-1.428
		c-0.151-0.766-1.321-0.812-2.025-1.19c-1.886,0.307-3.193-0.731-4.723,0c-1.451-0.403-2.686-0.96-4.723-0.951
		c-0.701-1.062-2.845-0.617-4.048-0.158c-1.327-0.57-3.859-0.293-5.174-0.873c-0.793-0.057-0.814,0.43-1.687,0.317
		c-0.58-0.119-1.093-0.287-1.124-0.793c-0.561,0.186-1.35,0.212-1.574,0.635c-0.311-0.204-0.882-0.224-1.236-0.396
		c-0.696,0.039-0.741,0.535-1.462,0.555c-1.004-0.138-1.057-0.946-1.574-1.427c-1.144-0.146-2.462-0.169-3.036-0.714
		c-1.015-0.079-1.964-0.203-2.249-0.793c-1.397,0.64-2.162,1.428-2.025,3.014c-0.017,0.303,0.283,0.382,0.337,0.634
		c-0.315,0.993-1.626,1.285-2.359,1.983c0.296,0.266,1.127,0.155,1.235,0.556c0.028,0.363-0.151,0.579-0.449,0.713
		c-0.643,0.083-0.658-0.276-1.126-0.317c-1.618,0.181-1.697,1.446-3.484,1.508c-0.346,0.152-0.509,0.434-0.787,0.634
		c-1.006-0.127-1.062,0.415-1.574,0.635c-0.345-0.058-0.331,0.137-0.675,0.079c-1.48,0.755-3.601,1.056-5.062,1.824
		c-0.541,0.401-1.49,1.215-2.473,0.793c0.146-0.69,0.688-1.101,1.687-1.189c1.877-1.955,4.639-3.286,7.422-4.601
		c0.59-0.563,1.296-1.042,2.361-1.269c0.095-0.461,0.385-0.786,0.675-1.11c-0.128-0.411-0.728-0.491-0.675-1.03
		c0.034-0.453,0.82-0.375,1.237-0.556c-0.316-0.574,0.362-1.012,0-1.587c1.345-1.113,1.684-2.936,3.148-3.966
		c1.634,0.042,2.133-0.716,3.036-1.189c0.625-0.07,0.834,0.152,1.35,0.158c0.868-0.597,3.567-1.222,4.16,0
		c2.299-0.299,2.609,0.805,4.16,1.031c0.25,0.195,0.442,0.43,0.563,0.714c1.283,0.275,2.118-0.32,3.035-0.555
		c0.317,0.226,0.681,0.419,1.125,0.555c1.202-0.658,3.029-0.877,4.61-1.269c0.783-0.267,1.081-0.877,2.137-0.952
		c1.942,0.401,3.812,0.854,4.498,2.142c-1.486,0.465-3.045-0.86-4.273-1.348c-1.863,0.351-2.922,1.27-3.712,2.379
		c0.293,0.201,0.812-0.112,1.351,0c0.377,0.211,0.309,0.733,0.562,1.031c1.497-0.608,2.069,0.371,3.261,0.634
		c0.095,0.198,0.147,0.426,0.112,0.715c0.418,0.26,1.103,0.333,1.913,0.317c0.26,0.212,0.453,0.472,0.561,0.793
		c0.826,0.295,1.641,0.206,2.362-0.079c0.868,0.127,1.184,0.645,2.023,0.792c0.425,0.035,0.528-0.156,0.788-0.237
		c0.139-1.446,0.198-2.493-0.676-3.49c0.177-0.484,0.864-0.606,1.013-1.11c-0.672-0.559-1.257-1.177-1.688-1.902
		C340.779,128.784,339.703,127.072,341.319,127.26z"/>
	<path fill-rule="evenodd" clip-rule="evenodd" fill="#849D9A" d="M273.062,128.847c0.875,0.974,0.301,2.494-0.562,3.251
		c-0.604,0.057-0.921-0.09-1.349-0.158C270.536,130.359,271.47,129.288,273.062,128.847z"/>
	<path fill-rule="evenodd" clip-rule="evenodd" fill="#849D9A" d="M268.563,131.782c-0.524,1.268-2.266,1.68-3.373,2.536
		c0.399,0.253,1.234-0.201,1.687,0.08c0.122,0.535-0.412,0.608-0.562,0.952c-2.122,0.566-3.647,1.973-6.072,2.062
		c-0.378-0.275-0.043-0.492,0-0.872c-1.65,0.39-2.014,2.464-4.499,1.745c0.018-0.093-0.024-0.141-0.111-0.158
		c0.467-1.68,2.782-2.057,3.823-3.332c0.742-0.296,1.314-0.712,2.36-0.794c0.73-0.277,1.419-0.584,2.137-0.871
		C264.852,132.357,266.999,130.815,268.563,131.782z"/>
	<path fill-rule="evenodd" clip-rule="evenodd" fill="#849D9A" d="M367.745,131.701c0.268,0.574-0.049,1.383-0.676,1.588
		C366.18,133.017,366.646,131.559,367.745,131.701z"/>
	<path fill-rule="evenodd" clip-rule="evenodd" fill="#849D9A" d="M323.215,149.071c-0.963-0.801-2.29-1.346-3.036-2.3
		c-0.921-0.091-1.78-0.225-2.248-0.635c0.246-0.967-0.573-1.183-1.126-1.585c0.533-1.323-1.146-1.431-1.687-2.222
		c-0.082-0.401,0.309-0.47,0.337-0.793c-0.069-0.586-0.489-0.924-0.786-1.349c0.047-1.989-1.967-2.526-1.911-4.52
		c0.552-0.779,2.069-0.233,2.36,0.315c-0.13,1.388,0.688,2.107,1.237,3.015c2.873,1.438,4.722,3.596,7.759,4.917
		c0.396,1.121,1.807,1.528,2.474,2.458C326.784,148.206,325.968,149.321,323.215,149.071z"/>
	<path fill-rule="evenodd" clip-rule="evenodd" fill="#849D9A" d="M254.62,137.491c-0.294,2.252-3.653,2.341-5.173,3.729
		c-0.539,0.016-0.846,0.197-1.237,0.317c-1.404,0.839-2.747,2.126-4.835,2.221c-0.34-0.359,0.063-0.773,0.225-1.031
		c2.29-1.002,3.594-2.7,6.297-3.411c0.479-0.217,0.712-0.609,1.014-0.951C252.216,138.095,253.113,136.206,254.62,137.491z"/>
	<path fill-rule="evenodd" clip-rule="evenodd" fill="#849D9A" d="M264.403,138.602c0.134,0.757-0.408,1.035-0.787,1.428
		c-0.903,0.184-1.611,0.504-2.025,1.031c-1.784,0.538-3.795,0.919-5.06,1.824c-0.625,0.018-1.172-0.02-1.349-0.316
		c0.301-0.872,1.466-1.135,2.024-1.824c1.83-0.612,3.421-1.395,4.723-2.38C262.713,137.968,263.969,137.977,264.403,138.602z"/>
	<path fill-rule="evenodd" clip-rule="evenodd" fill="#849D9A" d="M335.811,142.806c1.186-0.15,1.684,0.186,2.248,0.475
		c1.134-0.254,2.42-0.128,3.036,0.397c0.089,0.354-0.149,0.478-0.112,0.793c2.515-0.056,3.971,1.022,6.072,0.794
		c0.409-0.135,0.261-0.661,0.562-0.873c2.977-0.086,5.725,0.664,7.196,1.903c0.357,0.171,1.022,0.125,1.351,0.318
		c0.353,0.463,0.149,1.32,0.448,1.824c-0.468,0.541-1.622,0.6-2.586,0.793c-0.568,0.233-0.676,0.792-1.462,0.872
		c-0.879-0.015-0.906-0.631-1.462-0.872c-2.671-0.02-4.98-0.009-7.871-0.08c-0.803-0.413-1.501-0.897-2.475-1.189
		c-1.174-0.055-1.896,0.115-2.812,0.396c-0.545-0.038-0.84-0.252-1.349-0.315c-0.681,0.046-0.699,0.562-1.349,0.632
		c-1.781-0.436-1.612-2.245-2.925-3.013c-0.585,0.006-0.834,0.128-1.349,0c-0.259-0.294-0.389-0.679-0.562-1.03
		c-0.402-0.087-0.914-0.097-1.237-0.239c-0.477-0.646-1.163-1.62-0.337-2.3c-0.497-0.919-2.208-0.981-2.586-1.982
		c-0.023-0.678-0.109-1.398,0.898-1.349c1.316,0.79,2.575,1.62,4.049,2.3C333.168,141.047,335.25,141.568,335.811,142.806z"/>
	<path fill-rule="evenodd" clip-rule="evenodd" fill="#849D9A" d="M255.52,139.951c-0.185,1.085-1.199,1.586-2.586,1.823
		c-0.743,0.455-1.384,0.981-2.811,0.952c-0.871,0.203-1.607,1.324-2.588,0.714c0.087-0.706,0.84-0.941,1.237-1.428
		c1.228-0.351,2.337-0.785,3.26-1.349C253.046,140.4,254.259,139.276,255.52,139.951z"/>
	<path fill-rule="evenodd" clip-rule="evenodd" fill="#849D9A" d="M307.134,141.378c0.765,0.176,0.351,1.181,0.788,1.587
		c0.448,0.266,1.146,0.354,1.461,0.713c-0.295,0.792,0.003,1.617,0.562,2.38c-1.332,0.965,1.383,2.847-0.673,3.41
		c-0.764,0.062-0.812-0.379-1.35-0.476c-0.935,0.293-1.567,0.798-3.148,0.635c-0.319-0.753-1.502-0.898-2.587-1.11
		c-0.577-0.76-0.285-1.246,0.338-1.825c-0.131-0.357-0.612-0.467-0.562-0.951c0.4-0.67,1.698-0.706,2.923-0.793
		c0.143-0.587,0.272-1.183,0.45-1.745c0.264-0.185,0.728-0.227,1.014-0.396C306.479,142.289,306.391,141.198,307.134,141.378z"/>
	<path fill-rule="evenodd" clip-rule="evenodd" fill="#849D9A" d="M286.893,145.582c-0.375,1.107-2.028,1.317-2.923,2.062
		c-0.679,0.003-1.191-0.11-1.35-0.475C283.515,146.406,285.284,144.812,286.893,145.582z"/>
	<path fill-rule="evenodd" clip-rule="evenodd" fill="#849D9A" d="M291.954,145.819c-0.22,0.788-2.284,1.36-3.036,0.794
		C289.336,146.021,290.989,145.019,291.954,145.819z"/>
	<g>
		<path fill-rule="evenodd" clip-rule="evenodd" fill="#849D9A" d="M150.202,147.297c0.284-0.139,0.75-0.173,1.014-0.323v-0.52
			c0.922-1.2,2.494-2.025,3.717-3.053c0.043-0.802,2.021-1.363,1.013-2.142c-1.335,0.183-1.57,0.999-2.478,1.428
			c-0.239-0.101-0.501-0.188-0.789-0.26c-1.222,0.356-1.947,0.999-2.927,1.494c0.018,0.637-0.288,1.088-0.563,1.559
			c-0.331,0.112-0.786,0.151-1.352,0.129c-0.535,0.104-0.842,0.338-1.239,0.52c-2.558,0.213-2.706,1.816-4.73,2.338
			c-0.186,0.557-0.729,0.91-1.23,1.286c2.566,0.069,5.128,0.304,7.688,0.62c0.152-0.381,0.064-0.537-0.151-0.933
			C148.299,148.408,150.207,148.404,150.202,147.297z"/>
		<path fill-rule="evenodd" clip-rule="evenodd" fill="#849D9A" d="M230.273,130.286c-0.294-0.155-0.258-0.501-0.675-0.585
			c-0.928-0.037-1.325,0.231-2.253,0.194c-0.268-0.517-0.592-1.001-1.125-1.363c-2.008-0.271-2.524-1.401-4.167-1.883
			c-0.112-0.303-0.279-0.575-0.226-0.974c-0.827-0.281-1.649-0.564-1.688-1.3c-0.45-0.196-1.164-0.238-1.691-0.389
			c-0.11-0.305-0.338-0.541-0.45-0.845c-0.69-0.229-1.341-0.481-1.688-0.909c-4.342-1.024-6.504-3.306-11.824-3.767
			c-0.392-0.229-0.75-0.477-1.015-0.779c-1.551,0.133-2.531,0.085-3.941-0.064c-1.441-0.923-3.451-1.517-5.744-1.947
			c-0.648-0.406-1.1-0.925-2.14-1.104c-2.235,0.571-3.529-1.063-5.856-0.846c-0.344-0.082-0.301-0.389-0.788-0.389
			c-1.165,0-1.87,0.096-2.815-0.065c-1.006,0.742-3.002,1.196-5.068,0.779c-0.796,0.233-1.319,0.625-1.802,1.039h-1.013
			c-1.852,1.334-5.573,1.591-9.235,1.884c-0.832,0.32-1.237,0.888-2.252,1.104c-0.576,0.05-0.818-0.092-1.352-0.065
			c-1.432,0.127-2.025,0.737-3.04,1.104c-0.29,0.612-0.769,1.114-1.689,1.364c-1.783-0.228-4.595-0.804-6.307-0.261
			c-0.409,0.824-1.736,1.12-2.026,2.013c-2.04,0.794-3.548,1.895-4.956,3.052c-0.97,0.178-1.592,0.554-2.365,0.845
			c-2.336,0.038-3.584,0.704-5.181,1.169c-0.224,0.606-0.825,0.995-1.576,1.298c-0.142,0.524-0.145,1.129-0.788,1.364
			c-1.185-1.348-4.717-0.354-4.843,0.974c-2.251,0.124-0.307,2.276-2.815,2.208c-0.441,0.372-0.257,0.821-0.226,1.364
			c-0.733,0.291-1.682,0.458-2.929,0.454c-1.753,0.439-2.838,1.263-4.955,1.493c-1.021,0.688-2.003,1.397-3.265,1.947
			c-0.27-0.082-0.416-0.236-0.901-0.193c-1.556,0.444-0.779,2.234-2.478,2.597c-0.583,1.092-1.86,1.785-2.366,2.921
			c-0.361,0.16-0.716,0.324-1.238,0.39c-0.359-0.009-0.495-0.146-0.901-0.129c-1.358,0.477-0.682,2.227,0,2.856
			c1.131-0.2,2.309,0.125,3.267,0.39c0.807-0.818,3.929-0.117,5.518-0.584c0.145-0.11,0.232-0.255,0.563-0.26
			c-0.145,0.111-0.232,0.255-0.563,0.26c-0.725,0.794-2.585,0.934-2.703,2.077c0.149,0.282,0.803,0.274,1.126,0.455
			c-0.829,0.819-0.239,1.62,0.896,2.057c0.303,0.004,0.606,0.01,0.909,0.013c4.855-1.234,10.5-1.141,15.129-0.796
			c0.631-0.082,1.262-0.165,1.894-0.262c0.046-0.007,0.092-0.01,0.138-0.017c1.636-0.505,3.061-1.132,4.007-2.034
			c-0.076-0.389-0.906-0.342-1.013-0.714c0.522,0.042,0.696-0.119,0.9-0.26c0.029-0.373-0.084-0.827,0.112-1.104
			c0.804-0.229,1.81-0.343,2.367-0.715c0.06-0.251-0.202-0.316-0.113-0.584c0.6-0.304,1.503-0.432,1.801-0.909
			c-0.717-0.595-0.193-1.435,0.564-1.883c-0.164-0.452-0.432-0.793-0.226-1.299c0.694,0.032,0.811,0.398,1.464,0.454
			c0.722-0.363,1.797-0.522,2.703-0.778c0.435,0.073,0.424,0.404,0.788,0.519c1.685,0.042,1.875-0.78,2.14-1.559
			c1.472-0.559,2.136-1.581,2.479-2.791c1.195-0.307,2.046-0.812,3.49-0.975c0.266-0.104,0.241-0.381,0.451-0.519
			c1.828-0.007,2.454-0.707,3.941-0.909c1.093,0.387,1.48,1.181,3.154,1.233c0.21,0.159,0.352,0.36,0.563,0.52h1.013
			c0.044,0.523-0.565,0.668-0.788,1.039c0.946,0.658-0.046,2.042,1.238,2.467c-0.292,0.503-1.393,0.54-1.577,1.104
			c-0.149,0.475,0.74,0.353,0.789,0.713h-1.014c-1.174,0.645-2.493,1.203-3.491,1.948c0.064,0.114-0.137,0.382,0.112,0.39
			c-0.638,0.736-1.268,1.478-1.689,2.338c-1.076,0.678-2.59,1.104-3.829,1.688c-0.173,0.463-0.446,0.869-0.789,1.233h-0.901
			c-0.93,0.199-0.004,1.47-0.901,1.688c-0.425-0.196-1.163-0.129-1.783-0.056c2.65,0.336,5.299,0.742,7.95,1.115
			c4.232-0.335,8.47-0.626,12.73-0.736c0.146-0.223,0.233-0.479,0.36-0.713c0.373-0.132,1.117-0.049,1.127-0.39
			c-0.515-1.11,1.456-1.587,1.801-2.597c-0.183-0.264-0.834-0.256-1.126-0.455c-0.054-0.66-0.743-0.957-1.351-1.299
			c-0.109-0.326,0.064-0.816-0.563-0.843c-0.792,0.084-0.547,0.766-1.014,1.038c-2.063,0.112-2.253,1.242-4.054,1.559
			c-0.05,0.75-1.223,0.853-1.802,1.298v1.234c-1.514,0.493-3.189-0.396-4.956,0.129c-0.339-1.178,1.594-1.585,2.478-2.271
			c0.248-0.442-0.065-1.208,0.339-1.56c0.256-0.262,1.114-0.18,1.238-0.519c0.345-0.204-0.098-0.504,0-0.779
			c0.175-0.375,0.94-0.41,1.238-0.714c0.209-0.649-0.39-1.147-0.112-1.623c0.886,0.196,1.173,0.565,1.126,1.169
			c0.379,0.149,0.864,0.237,1.577,0.194c1.464-0.433,3.077-0.78,3.941-1.559c0.07-0.425-1.087-0.433-0.675-0.844
			c1.348,0.305,1.748,1.156,3.266,1.363c0.687-0.06,0.457-0.646,1.351-0.585c0.805,0.034,0.396,0.769,0.901,0.975
			c0.416,0.132,0.671-0.045,1.238,0c0.292,0.199,0.431,0.486,0.563,0.779c-0.696,0.557-1.198,1.325-2.815,1.169
			c-0.38,0.147-0.451,0.475-0.562,0.778c0.239,0.706,0.727,1.27,1.463,1.688c0.62,0.486,0.756,1.253,2.253,1.234
			c0.489-0.566,1.328-0.62,2.59-0.649c0.676,0.713,1.405,1.396,2.703,1.752c0.564-0.02,0.475-0.418,1.126-0.389
			c0.677,0.26,1.702,0.281,2.478,0.324c0.482,0.394,0.539,1.032,1.465,1.169c0.856,0.061,0.689-0.468,1.462-0.455
			c0.879,0.034,0.863,0.584,1.465,0.78c1.533-0.349,3.122,0.109,3.941-0.65c0.141,0.086,0.31,0.153,0.492,0.211
			c2.619-1.036,4.959-2.623,7.172-4.427c-1.127,0.015-2.647,0.001-3.272-0.395c-0.771,0.119-1.158,0.459-2.365,0.325
			c-1.995-1.035-5.182-1.384-7.545-2.208c-0.194-0.277-0.353-0.574-0.788-0.714c-0.58,0.064-0.825,0.023-1.352-0.064
			c-0.441-0.266-0.419-0.798-0.9-1.04c-0.567-0.097-0.889,0.049-1.352-0.129c-0.196-0.385,0.022-1.009-0.675-1.104
			c-0.577-0.029-0.743,0.178-1.239,0.193c-0.258-0.109-0.483-0.239-0.675-0.389c1.506-0.369,4.627-0.505,5.969,0.064
			c1.313-0.437,2.138,0.266,3.604-0.13c1.702,0.339,1.615,1.71,3.378,2.014c0.794,0.003,0.704-0.503,1.238-0.649
			c1.238,0.045,1.979,0.374,2.478,0.844c1.75,0.009,2.09,0.831,3.717,0.909c0.383,0.442,0.729,0.907,1.121,1.346
			c2.059-1.782,4.032-3.692,6.051-5.444c-0.077-0.097-0.144-0.201-0.19-0.316c0.208-0.058,0.452-0.095,0.708-0.126
			c0.521-0.441,1.044-0.872,1.575-1.286c0.01-0.271,0.076-0.561-0.031-0.926c-0.323-0.181-0.782-0.283-1.463-0.26
			c-1.036-0.854-3.26-1.367-2.928-2.792c0.547,0.183,0.469,0.726,0.787,1.039c0.646,0.169,1.151,0.419,1.915,0.521
			c0.201,0.207,0.4,0.417,0.676,0.583c0.734,0.161,1.254,0.446,1.689,0.78c0.05,0.147,0.115,0.287,0.189,0.421
			c0.484-0.354,0.974-0.693,1.471-1.013c0.459-0.295,0.934-0.608,1.417-0.923c-0.361-0.201-0.665-0.42-0.487-0.758
			c0.405-0.048,1.079,0.012,1.69-0.066c0.021,0.012,0.032,0.028,0.053,0.04c1.374-0.822,2.839-1.544,4.405-1.81
			c3.192-0.54,4.992,0.299,8.005,0.811c1.893,0.322,4.939-2.667,6.289-3.585c0-0.001,0.001-0.001,0.002-0.002
			C233.211,130.083,231.674,130.035,230.273,130.286z M196.264,147.493c-0.609-0.169-1.174-0.362-2.027-0.39
			C194.579,146.473,196.037,147.086,196.264,147.493z M123.962,149.636c-0.074-0.779,1.373-0.681,2.141-0.974
			C126.434,149.077,124.931,149.539,123.962,149.636z M129.706,142.947c-1.828,1.089-5.283,1.24-7.32,2.208
			c-0.802-0.239-1.56-0.038-2.478,0c-0.56-0.206-0.322-0.529-1.013-0.648c-0.857-0.15-1.996,0.223-2.703,0.324
			c-1.73-0.352-4.141,0.017-5.406-0.521c0.331-0.233,0.954-0.377,1.577-0.26c0.941-0.496,2.052-0.895,3.041-1.363
			c0.104-0.298-0.282-0.313-0.226-0.584c1.219-0.683,2.175-1.518,1.915-3.052c0.367-0.2,0.552-0.505,1.013-0.65
			c1.49,0.455,1.165,1.399,1.127,2.532c-2.263,0.479-1.911,2.513-0.113,3.117c0.874-0.168,1.361-0.558,2.365-0.649
			c0.152-0.345,0.245-0.725,0.563-0.974c0.371-0.067,0.922-0.031,1.239-0.129c0.477-1.402,2.328-2.92,1.239-4.415
			c0.545-0.142,1.331-0.144,1.465-0.521c-0.093-0.402-0.699-0.507-0.902-0.844c1.027-0.75,1.876-1.603,3.266-2.143
			c0.467-0.792,1.33-1.354,2.14-1.948c-0.011-0.635,0.298-1.085,1.125-1.234c0.144,0.603-0.182,0.935-0.676,1.169
			c0.07,0.863-0.558,1.324-0.45,2.208c0.101,0.113,0.252,0.201,0.45,0.26c1.809-0.018,1.519-1.245,3.603-1.104
			c1.145-0.726,1.461-1.93,3.042-2.404c0.469-0.031,0.497,0.19,1.013,0.131c1.057-0.11,0.661-1.085,0.788-1.559
			c1.28-0.201,1.582-1.406,3.153-1.039c-0.489,0.984-1.291,2.098-1.013,3.312c-0.301,0.497-1.113,0.7-1.577,1.104
			c-2.416-0.394-3.122,0.691-3.492,1.688c-1.01,0.002-1.164,0.496-1.689,0.778c-0.653,0.03-0.793-0.234-1.463-0.194
			c-1.34,0.357-0.21,1.132,0.112,1.624c-0.206,0.162-0.678,0.172-0.789,0.389c0.114,0.735,0.048,1.575,0.226,2.273
			c-0.737,0.419-0.839,1.204-0.901,2.013c0.028,0.352,1.022,0.146,1.24,0.389c-0.012,0.423-0.776,0.312-1.352,0.26
			C131.016,142.577,130.928,143.09,129.706,142.947z M131.733,145.805c-0.55,0.101-0.533-0.323-0.337-0.455
			c0.26-0.021,0.432,0.011,0.563,0.065C131.982,145.602,131.929,145.745,131.733,145.805z M147.162,135.87
			c-1.118,1.064-3.323,1.502-5.18,2.143c0.704,0.917-0.571,1.547-0.789,2.338c-0.343-0.083-0.301-0.39-0.788-0.39
			c-0.774,0.246-1.265,0.655-1.465,1.232c-0.984,0.493-2,0.969-2.252,1.884c-1.265,0.201-1.375,1.068-2.703,1.233
			c-0.013,0.188,0.062,0.426-0.112,0.521c-0.304,0.127-0.984,0.037-1.464,0.064c0.243-0.885,2.126-1.366,2.59-2.338
			c0.549-0.246,1.193-0.438,1.352-0.909c-0.008-0.19-0.257-0.24-0.451-0.324c-0.71-0.063-0.626,0.332-1.238,0.324
			c0.586-0.787,2.059-1.063,3.492-1.363c0.348-0.882,2.255-0.864,2.139-2.013c0.153-0.302,0.795-0.32,0.901-0.649
			c-0.146-0.305-0.521-0.478-0.788-0.714c0.001-0.324,0.403-0.417,0.338-0.78c1,0.072,1.807,0.257,2.589,0.455
			c0.694-0.229,0.548-0.939,1.465-1.039c0.103-0.373,0.48-0.588,0.45-1.038c0.267-0.172,0.907-0.127,1.126-0.325
			c0.629,0.309,0.833,0.862,1.689,1.038c0.445-0.089,0.774-0.246,1.464-0.193C149.132,135.534,148.081,135.664,147.162,135.87z
			 M150.991,127.493c-1.651-0.021-2.233,0.574-2.14,1.559c-0.025,0.31-0.643,0.279-0.789,0.52c-0.022,0.99-1.125,1.528-0.562,2.662
			c-0.103,0.244-0.243,0.467-0.451,0.65c0.268,0.369,0.317,0.89-0.339,1.037c-1.279-0.375,0.045-1.576-1.012-1.947
			c0.351-0.534,0.75-1.039,1.012-1.623c-0.265-0.496-0.858-0.804-1.463-1.104c-0.793-0.163-1.823,0.064-2.364-0.325
			c0.804-0.458,0.303-1.299,0.675-1.946c1.204-0.259,1.935-0.79,3.379-0.909c0.583-0.421,0.48-1.238,1.576-1.364
			c0.556-0.017,0.179,0.503,0.451,0.649c0.723,0.514,2.174,0.608,2.59,1.299C151.606,127.069,151.227,127.239,150.991,127.493z
			 M159.887,132.104c-0.273,0.542,0.759,0.623,0.564,0.909c-1.445,0.011-1.843-0.582-2.929-0.779
			c-2.349,0.117-3.033,1.196-5.406,1.299c-0.468-0.81,1.249-0.867,1.24-1.624c2.127,0.878,5.234,0.049,5.067-1.298
			c-1.315-0.304-1.359,0.687-2.815,0.519c0.529-0.95,1.558-1.612,2.703-2.208c0.964,0.483,1.499,1.214,2.59,1.624
			C161.011,131.323,160.249,131.597,159.887,132.104z M189.168,138.143c-0.656-0.01-0.533,0.429-1.238,0.39
			c-0.715-0.324-1.459-0.631-2.929-0.52c-0.834-0.104-1.366-0.382-2.14-0.52c-0.922,0.008-1.265,0.051-2.027-0.065
			c-0.29-0.85-2.139-0.802-3.604-0.974c-0.388-0.296-0.031-1.021-0.451-1.299c-0.762-0.055-1.661,0.024-2.365-0.194
			c-0.63,0.026-0.71,0.369-1.126,0.52c-0.516-0.005-0.765-0.165-1.352-0.13c-0.915-0.446-1.647-0.998-2.703-1.363
			c-0.624-0.731-0.626-1.757-0.45-2.793c-0.192-0.328-1.023-0.389-1.689-0.26c-0.311-0.167-0.518-0.395-0.901-0.521
			c-0.749,0.133-1.89,0.037-2.816,0.066c-0.521-0.111-0.712-0.413-1.24-0.52c-0.124-0.275-0.357-0.486-0.45-0.779
			c-1.362-0.839-2.229-1.961-3.829-2.662c-0.711-0.085-0.626,0.411-1.238,0.194c-0.052-0.509-0.649-0.904-0.451-1.494
			c-0.485-0.867-2.791-0.685-3.378-1.493c0.042-0.37-0.206-0.574-0.451-0.778c-0.568-0.104-0.981,0.12-1.576,0
			c-0.133-0.098-0.14-0.266-0.339-0.325c0.291-0.459,0.968-0.697,0.902-1.363c0.855,0.328,2.243,0.302,3.039-0.065
			c1.678-0.058,1.781,0.792,3.717,0.585c1.323-0.535,1.558-1.699,3.604-1.818c0.356,0.185,0.097,0.724,0.677,0.779
			c1.436-0.225,2.921,0.42,3.378,1.168c1.692,0.085,3,0.392,3.604,1.104c-0.538,0.742,0.008,1.467,0.677,1.884
			c-0.162,0.687-1.262,0.832-1.127,1.688c0.217,0.308,0.93,0.33,1.465,0.455c0.293,0.999,2.55,0.866,3.829,1.298
			c0.389,0.643,1.487,0.874,2.589,1.104c0.062,0.267,0.323,0.42,0.338,0.715c-0.024,0.374-0.657,0.4-0.789,0.713
			c0.099,0.594,0.086,1.25,0.676,1.56c2.259,0.601,3.158,1.989,4.618,3.052c1.18,0.077,1.834,0.458,2.815,0.648
			c0.587,0.015,0.733-0.227,1.014-0.39c0.127-1.449-2.279-1.705-1.578-3.116c0.888,0.225,1.136,0.818,2.027,1.039
			c0.366,0.075,0.693-0.198,0.901,0c0.763,0.707,1.772,1.272,3.717,1.299c0.397,0.399,0.835,0.773,1.577,0.974
			c-0.147,0.67,0.287,1.003,0.789,1.299c0.564,0.058,1.038-0.182,1.463,0C194.325,138.881,190.882,138.671,189.168,138.143z
			 M197.84,134.377c-0.083-0.308,0.127-0.447,0.113-0.715c-1.103-0.668-4.332-0.438-3.83-1.818c-0.125-0.296-0.681-0.343-0.9-0.584
			c0.355-0.81,0.211-1.943-0.789-2.339c0.019-0.183,0.207-0.27,0.226-0.453c-0.138-0.225-0.456-0.344-0.676-0.52
			c0.326-0.415-0.289-0.705-0.112-1.234c-0.606-0.473-0.856-1.151-1.689-1.494c-0.117-0.755-0.888-1.133-2.028-1.299
			c-0.366,0.027-0.59,0.137-0.788,0.261c0.347,1.488,1.898,2.281,2.252,3.767c-0.361,0.44-0.66,0.918-1.127,1.298
			c-2.021-0.19-3.662-0.218-5.63-0.39c-0.323-0.202-0.113-0.714-0.563-0.844c-0.526-0.043-0.723,0.102-1.126,0.13
			c-1.296-0.897-3.051-1.531-4.504-2.337c0.758-0.842-0.909-0.965-1.014-1.689c0.887-1.436,4.419-1.348,4.279-3.376
			c0.405-0.221,0.624-0.55,0.789-0.909c0.088-0.268-0.173-0.333-0.112-0.584c0.213-0.678,1.135-0.947,1.238-1.689
			c-0.028-0.199-0.404-0.198-0.563-0.324c-0.503,0.078-0.877,0.229-0.788,0.649c-0.589,0.786-1.504,1.384-2.139,2.144
			c-0.495,0.233-0.896,0.522-1.577,0.649c-0.147,0.152-0.046,0.448-0.225,0.584c-1.376,0.051-1.611,0.759-2.478,1.104
			c-0.504-0.012-0.816-0.136-1.126-0.261c0.033-0.82-0.57-1.272-1.577-1.493c0.23-0.911-1.113-0.917-2.478-0.909
			c-0.584-0.312-0.611-0.945-1.464-1.104c-0.577,0.159-1.722,0.487-2.026-0.064c0.404-0.48,2.194-0.163,2.815-0.52
			c0.417-0.046,0.482,0.11,0.9,0.065c2.734-0.395,5.397-0.828,7.658-1.494c1.027,0.235,1.426-0.366,2.027-0.584
			c0.912,0.05,1.566-0.049,2.028-0.26c0.891,0.256,1.315-0.024,2.252-0.064c0.737,0.549,2.656,0.416,2.815,1.299
			c0.37,0.349,1.415,0.309,1.803,0.648c-0.544,0.38-1.426,0.563-1.352,1.299c0.273,0.448,1.269,0.48,1.577,0.909
			c-0.055,0.444-0.305,0.777-0.226,1.299c0.302,0.323,1.128,0.345,1.577,0.584c-0.017,0.746,0.603,1.124,1.463,1.364
			c-0.399,0.663,0.325,1.007,0.901,1.298c0.855,0.082,1.053-0.215,1.802-0.194c0.844,0.12,0.997,0.875,0.338,1.169
			c0.283,0.354,0.573,0.602,0.337,1.104c0.526,0.302,0.752,0.778,1.126,1.168c0.502,0.095,0.698-0.022,1.127,0.064
			c-0.189,0.455-0.313,0.946-0.452,1.429c0.603,0.497,0.469,1.418,1.577,1.623c0.303,0.952,1.316,1.493,1.915,2.273
			c-0.849,0.594,0.182,1.164,0.563,1.623C199.178,134.94,198.379,134.6,197.84,134.377z M202.57,135.48
			c0.645-0.048,0.852,0.157,1.126,0.324C203.411,136.106,202.215,135.764,202.57,135.48z"/>
		<path fill-rule="evenodd" clip-rule="evenodd" fill="#849D9A" d="M159.775,138.013c-0.087,0.268,0.173,0.333,0.112,0.584
			c-1.705,0.598-1.722,2.168-3.941,2.468c-0.617-1.229,0.591-2.062,0.45-3.441c0.217-0.156,0.573-0.233,0.789-0.39
			c-0.097-0.527-0.267-1.216-0.226-1.622c1.464-0.246,2.948-0.426,4.167,0.193c0.234,0.352-0.129,0.71,0.112,1.104
			C160.86,137.34,160.232,137.626,159.775,138.013z"/>
		<path fill-rule="evenodd" clip-rule="evenodd" fill="#849D9A" d="M155.946,136.065c0.699,1.502-0.634,2.388-0.675,3.57
			c-0.352,0.253-0.775,0.462-1.578,0.455c-0.577-0.072-0.979-0.54-0.675-0.909c-0.289-0.358-0.723-0.889-0.563-1.298
			C153.476,137.273,153.993,135.509,155.946,136.065z"/>
	</g>
	<g>
		<path fill-rule="evenodd" clip-rule="evenodd" fill="#849D9A" d="M90.957,151.253c2.332-1.354,4.731-2.508,7.191-3.487
			c1.225-1.422,2.529-2.735,3.899-3.947c-0.518-0.079-0.987-0.199-1.244-0.495c-0.716,0.23-1.598-0.121-2.209,0.086
			c-0.994,0.67-1.359,1.73-2.208,2.493c-0.628-0.325-1.834-0.291-2.345-0.688c-0.186-0.562,0.796-0.903,1.104-1.378
			c0.192-0.293,0.157-0.766,0.277-1.116c0.292-0.859,1.599-2.019,1.794-2.923c0.203-0.944,0.589-1.294,0.828-1.979
			c-0.139-0.038-0.448-0.248-0.692-0.258c-0.702-0.03-2.284,1.765-2.482,2.149c-0.084,0.166,0.08,0.403,0,0.518
			c-0.431,0.609-1.682,1.447-1.933,1.977c-0.351,0.744-0.143,1.599-0.828,2.236c-0.418,0.391-2.808,1.594-3.449,1.549
			c-1.545-0.113-1.272-2.456,0.69-2.495c0.058-1.575,2.089-3.52,0-4.645c-1.419,0.063-1.927,0.692-1.794,1.721
			c-0.749,1.025-1.91,1.792-2.621,2.839c-2.844,0.521-3.245,2.565-3.727,4.557c-0.277,0.258-1.012,0.229-1.104,0.603
			c0.42,0.663,0.543,1.571,0.4,2.268C83.988,150.938,87.473,151.074,90.957,151.253z M90.452,148.312
			c0.681,0.276,1.45,1.437,0.551,1.891C89.672,150.147,90.419,148.954,90.452,148.312z M87.693,146.676
			c0.255,0.314,0.172,1.054,0,1.376c-0.528,0.165-1.148,0.228-1.656,0C85.966,147.204,86.5,146.736,87.693,146.676z"/>
		<path fill-rule="evenodd" clip-rule="evenodd" fill="#849D9A" d="M80.103,133.862c0.024-0.967-0.17-1.638-0.138-2.32
			c0.251-0.246,0.758-0.331,1.104-0.518c0.398,0.009,0.239,0.366,0.691,0.344c0.052-0.321,0.409-0.779,0.138-1.031
			c-0.143-0.273-0.548,0.446-0.691,0.171c0.413-1.981-1.101-4.186,0.413-6.104c-0.229-0.374-0.393-0.787-0.827-1.032
			c-0.29-0.191-1.012-0.114-1.243-0.344c-0.072-0.819,0.002-2.238-0.413-2.84c1.188,0.12,1.485,0.796,1.793,1.463
			c0.938,0.132,1.248,0.656,1.657,1.117c0.443,0.039,0.747,0.166,1.241,0.175c0.318,1.069,3.256,0.777,3.312,1.805
			c0.022,0.412-0.848,0.638-1.243,0.945c-0.393,0.308-0.625,0.823-1.103,1.29c-0.852,0.834-2.726,1.889-2.76,3.01
			c1.222-0.752,2.769-1.451,4.002-2.407c0.645-0.501,0.899-1.218,1.656-1.636c0.96-0.527,2.378-0.72,2.483-1.718
			c1.155-0.112,1.564-0.688,2.346-1.033c0.677,0.181,1.409,0.325,2.483,0.26c0.252,0.683,1.091,1.427,1.242,1.891
			c-1.039,0.104-1.266-0.3-1.931-0.43c0.676,0.744,2.079,0.922,1.519,2.236c0.736,0.48,0.622,1.062,0.966,1.719
			c0.245,0.47,0.917,0.775,1.242,1.203c0.74,0.981,0.089,1.426-0.139,2.409c0.85,0.241,0.518,0.857,0.828,1.376
			c0.346,0.578,1.357,1.06,1.104,1.977c0.417,0.117,1.101,0.117,1.517,0c0.158-0.301,0.107-0.735,0.553-0.858
			c1.003,0.006,1.183,0.522,1.379,1.032c0.593,0.193,1.962,0.188,2.208,0.945c0.071,0.224-0.332,0.724-0.277,0.946
			c0.167,0.663,1.152,0.743,0.967,1.29c-0.249,0.731-2.098,0.833-2.761,1.29c-0.301,0.644-0.036,1.316,0.144,2.055
			c3.239-2.585,6.825-4.589,10.679-5.924c-0.344-0.342-1.147-0.397-1.438-0.776c-0.115-0.472,0.345-0.585,0.276-1.03
			c-0.847-0.568-2.416-1.123-2.482-1.892c0.469-0.23,1.047,0.047,1.517,0.086c0.362,0.434,0.687,0.891,1.242,1.204
			c1.73-0.281,3.13,0.684,4.14,0.773c0.766,0.068,1.497-0.062,2.031,0.255c0.062-0.011,0.123-0.025,0.185-0.036
			c0.519-0.089,1-0.082,1.463-0.035c0.268-0.14,0.543-0.254,0.813-0.385c-1.77-0.309-3.35-1.384-5.735-1.261
			c-0.987-1.249-3.783-1.369-5.105-2.408c-1.625-0.307-3.159-0.668-4.554-1.118c0.084-0.532-0.921-0.647-1.38-0.945
			c-0.857-0.557-1.315-1.193-2.069-1.806c-0.451-0.367-0.871-0.867-1.241-1.118c-0.452-0.306-1.226-0.454-1.519-0.774
			c-0.516-0.561-0.367-1.292-0.414-1.978c-0.774-0.958-3.062-1.017-4.691-1.289c-0.659-0.111-0.942-0.402-1.657-0.345
			c-0.458,0.035-0.968,0.456-1.656,0.603c-1.427,0.304-2.306,0.603-3.173,1.031c-0.633-0.208-0.905-0.64-0.966-1.203
			c-1.72-0.764-3.382-1.562-5.381-2.151c-0.506-1.548-3.091-1.801-3.863-3.182c-2.69,0.016-4.226,0.75-5.382,1.721
			c-0.023,0.271,0.366,0.287,0.274,0.602c-1.281,1.064-2.985,1.866-4.415,2.836c-1.511-0.175-1.734,0.758-3.45,0.691
			c-0.596,0.37-0.937,0.905-1.38,1.372c-1.963,0.384-2.08,1.916-4.415,2.066c-2.057-0.936-3.092,1.124-4.416,1.204
			c-2.349,0.143-4.22,0.737-5.934,1.461c-0.381,1.258-1.941,1.178-3.588,1.72c-1.268,0.419-1.986,1.191-3.587,0.86
			c-0.509,0.2-0.93,0.452-1.932,0.344c-0.902,0.701-2.065,1.236-3.312,1.721c-1.416,0.069-2.452,0.802-3.311,1.117
			c-0.469,0.174-1.011,0.174-1.519,0.345c-0.944,0.319-1.771,0.848-2.759,1.205c-1.927,0.694-3.695,1.258-4.416,2.579
			c-1.409,0.74-3.097,1.049-4.832,1.549c-1.341,0.386-2.45,1.303-4.552,1.115c-0.971,0.314-1.75,0.745-3.036,0.861
			c-0.311,0.352-0.707,0.649-0.69,1.205c-0.975,0.575-2.212,0.526-3.45,0.858c-1.469,0.396-2.528,1.251-4,1.55
			c-0.794,0.159-2.214-0.085-2.485,0.688c3.166,1.022,5.232-1.03,7.867-1.203c0.418-0.03,0.765,0.175,1.103,0.171
			c0.71-0.006,0.999-0.407,1.793-0.346c0.143,0.921-0.257,1.505-0.551,2.151c-1.809,0.524-3.288,1.251-5.096,1.773
			c1.028,0.212,2.055,0.451,3.077,0.733c0.317,0.087,0.629,0.191,0.945,0.284c1.136-0.122,2.223-0.145,3.004-0.383
			c1.371-0.42,1.986-1.396,3.035-1.635c-0.619,0.818-0.427,2.142-2.896,1.807c-0.027,0.444-0.5,0.653-0.856,0.899
			c1.096,0.354,2.186,0.727,3.272,1.108c0.199-0.124,0.403-0.235,0.614-0.326c3.031-1.312,6.408-1.382,9.76-1.246
			c0.165-0.173,0.391-0.302,0.734-0.349c0.832-0.115,1.51,0.201,2.262,0.499c0.885,0.045,1.76,0.081,2.619,0.092
			c0.842-0.376,2.41-0.168,3.674-0.076c0.658-0.449,1.276-0.925,2.485-1.03c0.811-0.662,1.716-1.465,3.173-1.979
			c0.308-0.107,0.807-0.107,1.242-0.258c1.073-0.371,1.576-1.126,2.484-1.203c0.539-0.047,1.078,0.212,1.518,0.171
			c1.081-0.1,1.455-0.95,2.76-0.773c0.523-0.735,1.278-1.324,1.933-1.978c0.534-0.046,0.673,0.152,1.24,0.085
			c1.089-1.116,0.947-2.481,1.657-3.696c0.294-0.506,1.127-0.866,1.379-1.379c0.097-0.192-0.056-0.486,0-0.687
			c0.526-1.804,3.601-3.057,2.761-4.987c-3.561,0.246-1.613,3.925-4.83,4.384c-0.379,1.285-1.227,2.275-3.036,2.669
			c-0.307,0.633-1.124,1.791-2.483,1.202c0.146-0.567,0.699-0.882,0.69-1.547c-1.226-0.108-1.389,0.837-2.07,1.375
			c-0.79,0.624-2.882,1.045-2.346,2.063c1.016,0.146,0.958-0.377,1.794-0.345c0.466,1.047-1.001,1.607-1.657,2.237
			c-3.296,0.194-3.521,2.718-7.174,2.408c-1.362,1.094-4.573,0.536-6.762,0.773c-0.033-0.123-0.228-0.144-0.276-0.257
			c0.853-1.963,2.592-3.374,3.173-5.505c1.54-0.043,1.807-0.88,3.312-0.946c0.374-0.6,0.783-1.174,1.793-1.375
			c-0.006-1.122,0.979-1.626,2.071-2.064c0.183,0.086,0.512,0.082,0.551,0.258c-0.439,0.835-0.057,1.67-0.276,2.579
			c2.088,0.269,2.137-0.732,4.002-0.602c0.326-0.713,0.975-1.226,2.071-1.46c0.005-1.002,0.348-1.79,1.104-2.323
			c-0.128-0.35-0.519-0.537-0.552-0.945c0.792-0.969,1.188-2.183,1.795-3.27c2.697,0.299,2.065-2.367,4.276-1.804
			c-0.04,0.548-0.907,0.579-1.243,0.943c0.144,0.228,0.167,0.53,0.14,0.86c-0.348,0.187-0.919,0.232-1.243,0.431
			c-0.037,1.401-1.802,2.317-1.793,3.613c0.001,0.279,0.357,0.516,0.414,0.773c0.14,0.635-0.353,1.031-0.414,1.721
			c1.826-0.183,1.437-1.742,3.589-1.721c-0.052-1.236,1.633-1.39,1.517-2.666c1.823-0.784,2.775-2.112,3.864-3.354
			c-0.487-0.558-1.102-1.033-0.967-1.979c-0.21-0.296-1.023-0.222-0.965-0.688c2.544-0.477,4.597-1.262,7.312-1.634
			c0.698-0.482,1.347-0.994,2.071-1.462c1.054-0.001,1.397-0.447,2.07-0.688c1.314,0.186,2.148-0.511,3.173-0.774
			c0-0.345,0.276-0.516,0.276-0.861c0.85-0.168,1.126-0.748,1.656-1.117c0.156-0.107,0.636-0.147,0.828-0.257
			c0.689-0.394,0.466-0.663,1.105-0.689c1.56-0.062,1.571,1.127,1.103,2.238c-0.405,0.263-0.914,0.463-1.517,0.601
			c-0.046,1.262-2.039,1.31-1.933,2.666c-0.32,0.23-1.058,0.2-1.105,0.603c-0.188,0.141,0.113,0.501,0,0.859
			c-0.663,0.618-1.715,0.996-2.897,1.291c-0.375,0.531-0.697,1.083-0.413,1.804c-1.449,0.844-0.493,2.714-2.761,3.097
			c0.201,0.763,0.5,1.466,1.105,1.977c-0.393,0.131-0.945,0.158-1.242,0.346c-0.506,0.947-0.306,2.331-1.519,2.838
			c0.747,0.83-3.331,2.992-0.827,3.354c1.061,0.154,2.618-1.308,2.622-1.893c2.362-0.708,1.9-3.172,5.104-3.355
			c-0.166,2.312-3.28,3.516-3.449,6.109c-0.31,0.236-1.025,0.22-1.38,0.429c0.199,1.096-0.769,2.062-2.346,2.322
			c0.041,0.741-0.206,1.304-1.105,1.461c-0.035-0.941-1.894-1.29-1.654-2.235c0.118-0.472,0.755-0.47,1.104-0.947
			c-0.019-0.474-0.314-0.777-0.553-1.118c-2.462,0.157-3.305,1.324-5.659,1.55c1.073,2.383-3.48,2.527-5.932,3.267
			c-0.346,0.186-0.435,0.532-0.829,0.689c-0.701,0.192-1.444,0.359-2.069,0.601c-2.528-0.024-3.978,0.621-5.426,1.267
			c3.412-0.01,6.824-0.023,10.236-0.022c4.968,0.001,9.938,0.026,14.906,0.078c0.36-0.328,0.619-0.691,0.291-1.322
			c0.353-0.296,1.334-0.202,1.519-0.601c0.069-0.874,0.321-1.635,1.38-1.893c0.102-0.637-0.155-1.05-0.139-1.636
			c0.346-0.472,1.429-0.481,1.656-1.03c-0.982-0.575-0.734-1.666,0.276-2.064c-0.548-1.088,0.511-1.626,0.69-2.322
			c0.077-0.298-0.176-0.647-0.138-0.946c0.03-0.225,0.342-0.442,0.414-0.688c0.211-0.712-0.013-1.524,0.139-2.237
			c0.043-0.202,0.354-0.419,0.413-0.6c0.238-0.729,0.148-1.429,0.828-1.98c-0.585-0.818,0.53-1.615,0.692-2.493
			c-0.229-0.315-0.645-0.514-0.553-1.031c0.147-0.48,1.412-0.266,2.07-0.429c0.277-0.321-0.141-0.54,0.138-0.861
			c0.314-0.149,1.192-0.399,1.518-0.258c0.297,0.87-0.432,1.707-0.689,2.579c-0.145,0.49,0.091,0.953-0.139,1.379
			c-0.136,0.251-0.561,0.408-0.689,0.687c-0.477,1.03-0.649,2.266-0.967,3.269c-0.199,0.632-0.988,1.395,0.277,1.805
			c1.237-0.405,1.988-1.112,3.036-1.634C79.108,135.25,78.908,134.122,80.103,133.862z M108.391,137.046
			c-0.447-0.521-0.265-1.27,0.276-1.635c0.694,0.04-0.071,0.326,0,0.516c0.681,0.493,1.771,0.73,1.656,1.719
			c-0.867,0.13-1.674,0.625-2.623,0.431C107.609,137.53,108.296,137.473,108.391,137.046z M97.627,125.949
			c0.827-0.044,1.089,0.746,0.553,1.033C97.482,126.948,97.086,126.241,97.627,125.949z M35.533,136.615
			c1.233,1.082-1.179,1.376-1.794,1.979c-0.339,0.328-0.344,1.521-0.552,1.977c-0.298,0.646-1.167,1.997-1.38,2.753
			c-0.091,0.319,0.069,0.647,0,0.944c-2.32,0.647-3.849,1.788-4.691,3.354c-0.446,0.04-0.747,0.167-1.243,0.173
			c-1.087,0.956-2.775,1.998-4.829,2.064c-0.726-0.064-0.297-0.847-0.414-1.29c0.265-0.209,0.7-0.309,0.966-0.517
			c-0.38-2.339,0.792-3.895,2.208-5.331c-1.321,0.179-2.04,0.736-3.037,1.116c-0.294,1.137-1.458,1.729-2.069,2.668
			c-0.516,0.109-0.699,0.424-1.52,0.343c0.013-1.268-0.972-1.914-2.346-2.32c-0.692-0.06-0.641,0.345-1.379,0.257
			c-0.085-0.599,0.159-0.99,0.553-1.29c0.946,0.128,1.554-0.225,3.036-0.171c0.342,0.101,0.139,0.545,0.553,0.603
			c1.735,0.05,1.807-0.938,3.035-1.205c0.144-1.044,1.333-1.618,2.483-2.15c1.052-0.486,1.323-1.162,2.207-1.807
			c0.949-0.688,2.485-0.97,3.451-1.635c1.147-0.219,2.253-0.323,3.311-0.6c1.749-0.461,3.214-1.853,5.383-1.032
			C37.291,136.162,35.867,136.05,35.533,136.615z M42.018,137.389c-0.036-0.548,0.116-1.62,1.519-1.55
			C44.623,136.49,43.414,137.77,42.018,137.389z M57.335,148.999c0.169-0.469,2.072-1.031,1.931,0
			C58.881,149.311,57.811,149.136,57.335,148.999z M70.995,136.356c-0.506-0.245-0.301-0.958,0.276-1.031
			c0.181,0.029,0.218,0.15,0.415,0.172C71.677,135.921,71.618,136.315,70.995,136.356z M77.896,119.242
			c0.449-0.022,0.664,0.103,0.69,0.344C78.167,119.802,77.564,119.529,77.896,119.242z"/>
		<path fill-rule="evenodd" clip-rule="evenodd" fill="#849D9A" d="M94.454,134.55c-0.828,0.46-1.615,0.945-2.346,1.463
			c-2.22-0.628,0.369-2.27,0.69-3.182c-0.111-1.106,0.313-1.871-0.139-2.839c-0.334-0.719-1.588-1.283-1.24-2.579
			c2.653-1.775,2.273,1.204,2.76,3.095C94.42,131.447,95.052,133.605,94.454,134.55z"/>
		<path fill-rule="evenodd" clip-rule="evenodd" fill="#849D9A" d="M100.525,139.71c0.633,0.782,0.945,1.762,1.242,2.753
			c-0.408,0.146-0.484,0.502-1.242,0.429c-0.004-0.083-0.168-0.066-0.275-0.085c0.167-1.021-0.665-2.225-0.138-3.097
			C100.25,139.71,100.387,139.71,100.525,139.71z"/>
		<path fill-rule="evenodd" clip-rule="evenodd" fill="#849D9A" d="M40.638,141.602c-0.596,0.748-1.746,1.147-3.449,1.205
			C37.974,142.259,39.523,141.384,40.638,141.602z"/>
		<path fill-rule="evenodd" clip-rule="evenodd" fill="#849D9A" d="M28.495,142.463c-0.835,1.915-3.197,2.88-4.14,4.729
			c-1.208-1.266,0.696-1.736,1.517-2.408c0.946-0.773,1.172-1.945,2.209-2.407C28.303,142.352,28.319,142.456,28.495,142.463z"/>
	</g>
</g>
</svg>
