<?xml version="1.0" encoding="utf-8"?>
<!-- Generator: Adobe Illustrator 14.0.0, SVG Export Plug-In . SVG Version: 6.00 Build 43363)  -->
<!DOCTYPE svg PUBLIC "-//W3C//DTD SVG 1.1//EN" "http://www.w3.org/Graphics/SVG/1.1/DTD/svg11.dtd">
<svg version="1.1" id="Layer_1" xmlns="http://www.w3.org/2000/svg" xmlns:xlink="http://www.w3.org/1999/xlink" x="0px" y="0px"
	 width="50px" height="50px" viewBox="0 0 50 50" enable-background="new 0 0 50 50" xml:space="preserve">
<path fill-rule="evenodd" clip-rule="evenodd" fill="#FFFFFF" stroke="#FFFDFE" stroke-width="2" d="M1.207,25.706
	c0.524-0.871,1.155-1.744,2.022-2.296c0.428-0.271,0.786-0.627,0.971-0.977c1.225-2.323,3.26-3.923,5.037-5.743
	c1.364-1.397,2.687-2.847,4.195-4.101c0.056-0.046,0.065-0.144,0.109-0.208c0.802-1.137,1.432-1.173,2.392-0.187
	c0.674,0.692,1.383,1.367,2.214,1.857c0.316,0.188,0.274,0.369,0.214,0.575c-0.074,0.252-0.209,0.426-0.563,0.436
	c-0.71,0.02-1.178-0.509-1.796-0.707c-1.354-0.433-2.25,0.166-3.124,0.999c-0.788,0.752-1.609,1.475-2.333,2.285
	c-1.345,1.508-2.654,3.051-4.135,4.43c-1.377,1.284-2.656,2.641-3.601,4.365"/>
<path fill-rule="evenodd" clip-rule="evenodd" fill="#FFFFFF" stroke="#FFFDFE" stroke-width="2" d="M2.81,26.434
	c1.221-0.368,2.4-0.408,3.576-0.475c1.584-0.089,3.171-0.072,4.754-0.258c0.652-0.077,1.321-0.065,1.971-0.2
	c0.222-0.046,0.374,0.093,0.5,0.189c0.351,0.267,0.575,0.638,1.097,0.749c0.427,0.091,0.643,0.615,0.533,1.086
	c-0.05,0.216-0.081,0.41-0.066,0.799c0.782-1.029,1.782-1.47,2.828-1.909c1.228-0.515,2.278-0.237,3.359,0.305
	c0.644,0.323,1.234,0.718,1.756,1.221c0.141,0.135,0.312,0.319,0.567,0.178c0.224-0.124,0.235-0.328,0.264-0.552
	c0.073-0.537-0.179-1.052-0.072-1.595c0.07-0.357,0.21-0.54,0.584-0.501c1.09,0.109,2.145-0.248,3.277-0.07
	c1.072,0.168,2.225-0.14,3.338-0.271c1.484-0.176,2.964-0.422,4.451-0.554c0.424-0.038,0.812-0.197,0.976-0.449
	c1.03-1.594,2.691-2.479,4.048-3.7c1.53-1.375,2.943-2.882,4.627-4.084c0.194-0.139,0.296-0.344,0.574-0.078
	c0.769,0.737,1.841,0.907,2.747,1.393c0.22,0.116,0.284,0.291,0.403,0.462c0.09,0.126,0.062,0.35,0.365,0.339
	c0.469-0.015,0.693,0.266,0.718,0.769c0.023,0.443,0.068,1.021-0.33,1.123c-0.495,0.124-1.14,0.219-1.582-0.303
	c-0.307-0.359-0.677-0.677-0.91-1.078c-0.537-0.92-1.387-0.963-2.139-0.067c-0.614,0.731-1.272,1.451-2.149,1.837
	c-0.98,0.432-1.756,1.192-2.631,1.751c-0.938,0.602-1.971,1.368-2.668,2.368c-0.101,0.146-0.126,0.353-0.157,0.538
	c-0.263,1.628-0.471,3.265-0.793,4.88c-0.218,1.083-0.397,2.206-0.963,3.177c-0.477,0.815-1.148,1.491-1.944,2.018
	c-2.08,1.378-4.321,0.897-6.522,0.465c-0.638-0.125-1.2-0.615-1.804-0.929c-1.329-0.691-1.38-2.073-1.774-3.27
	c-0.351-1.061-0.969-1.951-1.86-2.598c-0.34-0.247-0.668-0.52-0.963-0.794c-0.842-0.78-1.964-0.781-2.779,0.006
	c-0.671,0.649-1.436,1.213-2.174,1.776c-0.545,0.415-0.757,0.922-0.831,1.463c-0.174,1.274-0.802,2.301-1.505,3.325
	c-0.488,0.712-1.299,0.914-1.971,1.242c-1.831,0.893-3.814,0.724-5.696,0.185c-1.021-0.292-2.054-0.775-2.828-1.61
	c-0.26-0.281-0.404-0.606-0.574-0.941c-0.911-1.797-0.97-3.767-1.314-5.688"/>
<path fill-rule="evenodd" clip-rule="evenodd" fill="#273246" stroke="#FFFDFE" d="M8.071,35.438
	c2.039,0.116,3.068-0.804,3.89-2.018c1.178-1.741,1.793-3.609,1.265-5.754c-0.103-0.419-0.152-0.581-0.608-0.588
	c-1.242-0.018-2.464,0.243-3.712,0.198c-0.435-0.015-0.841-0.157-1.316-0.104c-1.086,0.126-2.189,0.104-3.288,0.225
	c-0.923,0.104-1.348,0.572-1.202,1.5c0.145,0.929,0.291,1.87,0.31,2.809c0.016,0.845,1.054,2.86,1.849,3.094
	C6.315,35.111,7.411,35.293,8.071,35.438"/>
<path fill-rule="evenodd" clip-rule="evenodd" fill="#273246" stroke="#FFFDFE" d="M29.705,34.6c0.213,0.271,0.437,0.048,0.64-0.02
	c1.714-0.582,3.245-1.246,4.172-3.08c0.82-1.621,1.129-3.154,0.744-4.876c-0.073-0.326-0.176-0.498-0.633-0.448
	c-0.995,0.107-1.905,0.591-2.959,0.487c-0.909-0.09-1.838-0.164-2.775,0.074c-0.637,0.161-1.367,0.468-2.007-0.112
	c-0.076-0.068-0.31-0.043-0.324,0.124c-0.048,0.568-0.328,1.092-0.25,1.688c0.184,1.396,0.556,2.753,0.942,4.092
	C27.588,33.669,28.183,34.77,29.705,34.6"/>
<path fill-rule="evenodd" clip-rule="evenodd" fill="#FFFDFE" d="M3.968,29.711c0.789-0.805,1.867-0.736,2.772-1.128
	c0.226-0.098,0.567-0.089,0.797,0.01c0.63,0.267,1.288,0.194,1.871,0.035c0.697-0.191,1.12,0.22,1.643,0.438
	c0.244,0.104,0.009,0.27,0.013,0.402c0.008,0.298-0.248,0.22-0.417,0.222c-1.07,0.015-2.14-0.006-3.208,0.038
	c-0.799,0.034-1.594,0.152-2.391,0.224C4.68,29.986,4.346,29.857,3.968,29.711"/>
<path fill-rule="evenodd" clip-rule="evenodd" fill="#FFFDFE" d="M6.13,32.105c-0.369,0.015-0.398-0.237-0.419-0.529
	c-0.026-0.376,0.363-0.68,0.474-0.603c0.501,0.346,1.42-0.182,1.61,0.768c0.004,0.018,0.162-0.074,0.166,0.064
	c0.003,0.14-0.128,0.123-0.214,0.173C7.228,32.276,6.65,31.711,6.13,32.105"/>
<path fill-rule="evenodd" clip-rule="evenodd" fill="#FFFDFE" d="M28.209,28.471c0.502-0.598,1.135-0.72,1.862-0.758
	c0.892-0.046,1.812,0.111,2.671-0.228c0.463-0.18,0.621,0.006,0.708,0.42c0.11,0.518-0.234,0.461-0.555,0.491
	c-1.023,0.098-2.047,0.194-3.066,0.33C29.271,28.802,28.758,28.705,28.209,28.471"/>
<path fill-rule="evenodd" clip-rule="evenodd" fill="#FFFDFE" d="M32.232,30.774c-0.061,0.371-0.407,0.598-0.688,0.809
	c-0.548,0.413-1.552,0.456-2.002-0.092c-0.255-0.31-0.143-0.627,0.032-0.756c0.707-0.525,1.531-0.567,2.369-0.362
	C32.105,30.411,32.216,30.541,32.232,30.774"/>
</svg>
