<?xml version="1.0" encoding="utf-8"?>
<!-- Generator: Adobe Illustrator 14.0.0, SVG Export Plug-In . SVG Version: 6.00 Build 43363)  -->
<!DOCTYPE svg PUBLIC "-//W3C//DTD SVG 1.1//EN" "http://www.w3.org/Graphics/SVG/1.1/DTD/svg11.dtd">
<svg version="1.1" id="Layer_1" xmlns="http://www.w3.org/2000/svg" xmlns:xlink="http://www.w3.org/1999/xlink" x="0px" y="0px"
	 width="300px" height="300px" viewBox="0 0 300 300" enable-background="new 0 0 300 300" xml:space="preserve">
<g>
	<path fill="#C8AD8F" d="M290.552,150.809c0,77.74-63.026,140.767-140.768,140.767c-77.742,0-140.765-63.026-140.765-140.767
		c0-77.74,63.024-140.76,140.766-140.76S290.552,73.069,290.552,150.809z"/>
	<g>
		<g>
			<g>
				<path fill="#C8AD8F" d="M290.246,181.424c1.048-4.443-3.394,12.264-1.269,2.763c-1.754,6.506-5.755,20.021-9.65,27.654
					c-1.077,0.567,2.049-6.185-5.275,7.049c-10.819,17.062,0.096,3.049-10.221,18.008c2.512-3.307,4.954-6.673,7.187-10.182
					c-5.227,11.499-25.549,34.149-44.135,45.199c-14.031,7.949-27.788,12.952-47.949,17.68c1.098-0.345,6.019-1.689,4.944-1.749
					c-3.746,0.665-10.28,2.118-14.173,2.73c-10.662,2.005,3.126,0.508-0.853,1.521c-8.954,1.455-17.649,2.531-30.435,1.265
					c-5.261-0.777-10.445-1.958-15.536-3.331c-10.733-0.421-26.943-6.321-45.659-16.757c-3.48-2.349-21.962-14.786-24.162-18.716
					c-7.249-6.935,0.103-2.849-5.049-9.019c-8.953-10.684,6.707,6.921-2.201-3.776c10.649,10.652,1.208,5.51,16.896,18.711
					l-0.602-0.854c6.687,5.073,18.581,13.579,24.224,15.302c19.787,9.491-0.894,0.985,8.677,6.103
					c5.924,2.513,30.191,8.599,31.347,7.082c-5.601-0.901-11.123-2.245-16.564-3.843c2.662,0.728,0.675-0.056,1.778,0.165
					c5.489,2.188,16.149,3.673,24.212,3.906c8.067,0.243,13.582-0.109,9.239,1.312c-2.258,0.223-8.223-0.442-10.015-0.258
					c0.782,0.805,12.497,1.565,21.28,1.031c9.019-1.158,19.025-3.445,32.562-6.957c4.709-1.174,2.065-0.005,6.745-1.344
					c13.39-5.206,19.41-8.592,25.682-11.877c6.09-3.544,12.676-7.028,23.771-17.407c14.681-12.212,27.73-32.074,35.309-49.561
					c-1.531,2.509,4.303-11.885,5.072-15.743c1.059-2.507,3.923-12.725,4.463-20.363c-0.554,4.464,0.069,1.782-0.175,4.919
					c1.85-17.12,1.999-20.308,2.823-21.279C292.482,164.219,293.563,165.834,290.246,181.424z"/>
				<path fill="#C8AD8F" d="M20.702,211.199c1.845,2.875-10.167-27.428-3.596-13.489c-3.203-9.956-4.318-14.587-5.845-20.258
					c2.105,11.849-0.888-2.814-0.017,3.61c-8.94-37.859-0.864-77.305,18.963-107.353c15.477-21.854,33.124-38.612,55.819-51.087
					c14.589-6.414,5.545-1.163,2.592,0.853c5.967-2.778,12.075-5.259,18.353-7.243c-6.254,2.26-12.295,5.022-18.161,8.062
					c-0.366,0.685,7.698-3.012,12.422-4.333c1.698-0.682,3.433-1.266,5.149-1.905c-2.741,2.036-11.886,5.205-21.895,10.298
					c-10.03,5.011-20.656,12.292-27.332,18.755c17.097-14.409-3.218,1.585,3.778-4.807l-5.398,4.547
					c4.618-4.202,13.777-12.889,28.191-20.732C42.587,46.983,17.041,89.838,12.548,126.306c0.05-1.079,0.38-3.964-0.363-0.697
					c-2.373,13.129-1.055,21.073-0.73,26.788c-0.218-1.919-0.199-3.843-0.298-5.772c-0.892,8.186,0.778,21.577,2.901,31.149
					c1.705,10.528,2.684,17.916,10.741,34.312l-0.713-0.343c2.124,4.449,4.399,8.836,6.962,13.06c-2.04-3.062-1.374-1.7-1.078-0.975
					c-0.685-0.847-0.961-1.572-2.216-3.858c-1.099-0.477,1.696,6.79,6.253,13.885c-1.511-2.171-2.955-4.381-3.968-5.96
					c2.922,6.274,18.271,24.692,9.988,16.086C27.638,228.116,29.304,227.351,20.702,211.199z"/>
				<path fill="#C8AD8F" d="M79.712,271.124c-11.829-7.67,3.653,1.692,1.283-0.432c3.609,2.11,7.356,3.986,11.162,5.71
					C92.188,277.218,80.974,271.504,79.712,271.124z"/>
				<path fill="#C8AD8F" d="M173.061,9.453c1.164,0.595,10.431,2.09,15.464,3.796c10.069,2.775,12.874,2.804,26.425,9.68
					c-11.052-4.191,10.622,6.699,18.378,14.143c-6.011-4.386-17.952-10.813-28.429-15.938c1.472,0.136-8.188-3.993-13.188-5.612
					c-8.025-0.942,5.807,2.077-26.031-3.169c-5.869-1.116-20.527-0.884-19.605-1.441c-4.14-0.205-7.912,1.024-12.49,0.917
					l-2.317-0.007c6.664-1.105,13.428-1.547,20.194-1.666c0.746,0.119,2.277,0.356,4.12,0.361
					c-3.821-1.192,22.087,0.989,8.994-1.325c-9.338-0.945-18.763-0.966-28.104-0.086c-6.84,0.479,2.703-1.393,12.92-1.499
					C164.199,8.426,163.36,8.649,173.061,9.453z"/>
				<path fill="#C8AD8F" d="M103.922,16.844l-1.512,0.301c7.705-2.838,15.681-4.951,23.782-6.345
					C118.598,12.148,111.149,14.224,103.922,16.844z"/>
				<path fill="#C8AD8F" d="M253.612,51.736c-3.507-3.382-6.397-6.487-10.237-9.475l0.154-1.082
					C247.079,44.526,250.471,48.032,253.612,51.736z"/>
				<path fill="#C8AD8F" d="M33.618,75.72c-3.001,5.628-10.653,19.8-11.652,25.106c1.614-4.035,0.867-2.721,1.146-3.757
					c-1.099,2.575-2.3,5.12-3.282,7.75C22.725,94.788,27.464,85.56,33.618,75.72z"/>
				<path fill="#C8AD8F" d="M280.835,92.438c6.403,15.246,8.506,18.168,11.512,37.444c0.293,4.228-1.137-5.09-0.556,1.008
					c0.61,6.057,0.982,7.448,1.409,10.421l0.119-2.37c0.112,4.757-0.696,19.554-1.546,11.867
					c-0.373-24.162-5.545-34.572-10.92-52.059l-0.289-3.37c-1.6-3.366-3.183-6.732-5.017-9.97c-0.291-0.708,0.171-0.597-1.748-3.796
					c-4.182-6.54,2.43,5.19,1.562,4.918c-3.431-6.269-7.299-12.29-11.671-17.912c-1.469-2.164,1.482,1.599,1.118,0.917
					c-5.58-8.542-10.86-12.379-16.39-19.13c3.262,2.976,6.407,6.093,9.397,9.366c-10.307-12.312-19.558-20.211-28.657-26.926
					C254.946,51.73,268.69,65.255,280.835,92.438z"/>
			</g>
		</g>
	</g>
</g>
<path display="none" fill="#FFFFFF" d="M256.34,171.785l20.254-20.172L256.34,131.44c-3.898-20.563-13.811-40.207-29.783-56.121
	c-15.965-15.918-35.688-25.799-56.326-29.688l-20.233-20.178l-20.243,20.178c-20.644,3.877-40.356,13.764-56.326,29.674
	c-15.975,15.916-25.896,35.572-29.793,56.135l-20.24,20.173l20.24,20.172c3.908,20.562,13.824,40.218,29.793,56.133
	c15.974,15.909,35.683,25.78,56.316,29.675l20.249,20.175l20.249-20.175c20.628-3.895,40.351-13.774,56.314-29.688
	C242.529,211.993,252.441,192.35,256.34,171.785z M150.142,240.064c-49.03,0-88.77-39.602-88.77-88.451
	c0-48.85,39.74-88.464,88.77-88.464c49.02,0,88.774,39.614,88.774,88.464C238.916,200.463,199.162,240.064,150.142,240.064z"/>
<path display="none" fill="#E6E6E6" d="M174.734,145.795l-18.629-60.808c-0.828-2.98-1.957-4.46-3.088-4.446
	c-1.109-0.015-2.236,1.461-3.065,4.439l-18.61,60.8c-1.68,5.541-1.52,3.691-0.003,8.625l18.614,60.806
	c0.843,2.974,1.958,4.472,3.074,4.467c1.115,0,2.25-1.493,3.08-4.467l18.613-60.806C176.225,149.46,176.402,151.32,174.734,145.795z
	"/>
<polygon display="none" fill="#F47F54" points="153.02,150.1 166.379,150.103 153.02,97.233 139.659,150.103 "/>
<g display="none">
	<path display="inline" fill="#273246" d="M222.541,63.237H76.792c-9.308,0-16.851,7.543-16.851,16.848v118.304
		c0,9.307,7.543,16.851,16.851,16.851h56.327c-0.01,0.138-5.226,25.604-5.226,25.604h-16.641c-5.168,0-5.092,8.55-5.092,8.55h87.009
		c0,0,0.077-8.55-5.086-8.55h-16.646c0,0-5.217-25.467-5.228-25.604h56.332c9.308,0,16.851-7.544,16.851-16.851V80.085
		C239.393,70.78,231.848,63.237,222.541,63.237z M149.663,211.032c-4.138,0-7.485-3.356-7.485-7.486
		c0-4.138,3.347-7.496,7.485-7.496c4.14,0,7.495,3.358,7.495,7.496C157.158,207.676,153.803,211.032,149.663,211.032z
		 M226.288,184.911c0,2.062-1.679,3.739-3.747,3.739H76.792c-2.065,0-3.743-1.678-3.743-3.739V80.085c0-2.064,1.678-3.74,3.743-3.74
		h145.75c2.069,0,3.747,1.676,3.747,3.74L226.288,184.911L226.288,184.911z"/>
	<rect x="82.408" y="85.705" display="inline" fill="#FFFFFF" width="134.516" height="93.59"/>
</g>
<path fill-rule="evenodd" clip-rule="evenodd" fill="#273246" d="M225.624,119.013c0.188-0.346-1.485-1.824,0.41-2.292
	c1.538-0.383,1.558,1.114,2.003,1.915c0.483,0.892,0.755,1.922,0.968,2.924c3.481,15.824,9.403,30.925,13.727,46.499
	c0.848,3.053,2.642,5.858,2.075,9.287c-0.357,2.124,2.718,1.785,3.014,3.904c0.765,5.45,3.227,10.414,4.904,15.608
	c1.766,5.471-0.482,8.024-5.866,9.118c-6.903,1.402-13.916,1.471-20.814,1.877c-4.874,0.299-9.992,0.018-15.003-0.01
	c-9.737-0.055-19.474-0.437-29.206-0.349c-12.953,0.115-25.896,0.56-38.852,0.86c-0.393,0.01-0.866-0.141-1.168,0.024
	c-5.099,2.791-7.169-1.465-8.144-4.532c-3.071-9.654-9.212-17.839-12.402-27.377c-2.877-8.629-5.478-17.355-8.653-25.868
	c-3.146-8.406-6.815-16.626-10.358-24.888c-0.811-1.901-0.871-3.983-1.787-5.894c-0.322-0.684-0.792-3.076,2.496-3.062
	c9.857,0.061,19.688-1.347,29.526-1.678c3.654-0.128,7.558-0.193,11.381,0.155c8.059,0.725,16.252,0.919,24.301,0.281
	c6.075-0.479,12.049,0.065,18.061,0.024c6.908-0.039,13.796,0.097,20.712-0.285c3.492-0.198,7.521-1.833,11.028,0.604
	c0.106,0.073,0.257,0.266,0.29,0.247C222.63,113.242,222.194,119.504,225.624,119.013"/>
<path fill-rule="evenodd" clip-rule="evenodd" fill="#273246" d="M83.213,180.882c-2.828,3.715-3.947,7.913-5.903,11.638
	c-1.927,3.677-4.013,7.163-6.994,10.109c-2.585,2.562-6.177,2.022-8.891,1.809c-3.071-0.246-5.939-0.228-8.842,0.465
	c-4.041,0.953-7.959-0.449-11.942-0.513c-1.272-0.02-0.652-1.282-0.321-2.147c3.615-9.5,8.573-18.381,13.28-27.344
	c2.239-4.271,4.878-8.546,7.859-12.387c2.25-2.908,3.111-6.327,4.929-9.341c6.765-11.217,13.488-22.462,20.293-33.662
	c1.183-1.947,2.663-3.536,5.451-3.129c2.467,0.355,2.279,2.532,2.874,3.917c4.776,11.069,9.848,22.054,13.8,33.421
	c2.329,6.68,4.83,13.359,6.89,20.18c1.589,5.253,3.824,10.573,5.756,15.859c1.763,4.823,2.96,9.862,4.377,14.816
	c0.758,2.67,0.153,4.353-3.066,4.407c-6.711,0.115-13.417,0.469-20.125,0.507c-3.753,0.028-6.597-1.935-8.237-5.282
	C90.686,196.641,87.102,189.008,83.213,180.882"/>
<path fill-rule="evenodd" clip-rule="evenodd" fill="#273246" d="M92.287,101.426c-1.069,2.769-1.991,5.315-3.507,7.604
	c-0.605,0.911-1.182,1.352-2.169,1.153c-0.902-0.184-1.001-0.97-1.282-1.743c-1.115-3.086-0.06-6.291,1.306-8.441
	c3.855-6.027,0.452-10.55-2.015-15.432c-0.644-1.265-1.233-2.571-2.017-3.751c-1.083-1.63-0.771-2.777,0.864-3.758
	c1.545-0.931,2.836-0.996,3.937,0.694c1.619,2.486,4.008,4.515,4.428,7.846c5.2-3.993,2.576-12.913,10.228-15.379
	c0.094,2.62-0.331,4.973-1.333,7.004c-2.061,4.184-2.605,8.953-5.171,12.912c-0.793,1.233-0.312,2.133,0.292,3.393
	c1.736,3.608,5.2,6.14,6.136,10.271c0.278,1.238,1.451,2.274,0.165,3.507c-1.11,1.059-2.377,1.501-3.973,1.054
	C94.763,107.409,93.451,104.681,92.287,101.426"/>
<path fill-rule="evenodd" clip-rule="evenodd" fill="#273246" d="M221.411,102.386c-1.645,0.965-1.965,2.472-2.69,3.687
	c-0.841,1.4-2.195,2.353-3.583,1.753c-1.582-0.684-1.795-2.409-1.195-4.073c0.349-0.974,0.484-2.162,1.128-2.897
	c4.483-5.09,1.591-9.882-0.601-14.614c-0.57-1.224-1.649-2.18-0.285-3.393c1.46-1.299,2.302,0.553,3.429,0.875
	c0.629,0.185,0.978,1.205,1.577,1.684c1.794,1.441,3.608,3.75,5.45-0.044c0.281-0.59,1.21-0.907,1.888-1.252
	c1.315-0.683,1.905-3.744,3.599-2.198c1.44,1.328,0.367,4.273-0.778,5.516c-4.678,5.098-4.171,10.412-1.636,16.097
	c0.421,0.946,0.702,1.993,0.843,3.018c0.198,1.425-1.031,2.138-1.95,2.714c-1.044,0.648-1.867-0.556-2.09-1.224
	C223.814,105.912,221.237,105.015,221.411,102.386"/>
</svg>
