<?xml version="1.0" encoding="utf-8"?>
<!-- Generator: Adobe Illustrator 14.0.0, SVG Export Plug-In . SVG Version: 6.00 Build 43363)  -->
<!DOCTYPE svg PUBLIC "-//W3C//DTD SVG 1.1//EN" "http://www.w3.org/Graphics/SVG/1.1/DTD/svg11.dtd">
<svg version="1.1" id="Layer_1" xmlns="http://www.w3.org/2000/svg" xmlns:xlink="http://www.w3.org/1999/xlink" x="0px" y="0px"
	 width="800px" height="103.495px" viewBox="0 26.093 800 103.495" enable-background="new 0 26.093 800 103.495"
	 xml:space="preserve">
<g>
	<path fill="#FFFFFF" d="M53.978,109.6l-16.28,0.479c-0.11-4.138-0.192-8.239-0.246-12.312c-0.055-4.07-0.137-8.176-0.245-12.312
		l-15.38,0.857c-0.056,0.637-0.082,1.258-0.082,1.86c0,0.604,0,1.192,0,1.767c0,3.562,0.123,7.108,0.368,10.642
		c0.245,3.53,0.503,7.048,0.777,10.546c-1.092,0.062-2.197,0.109-3.313,0.145c-1.118,0.031-2.223,0.049-3.313,0.049
		c-2.127,0-4.268-0.049-6.422-0.145c-2.155-0.096-4.294-0.144-6.422-0.144c0.108-5.916,0.246-11.771,0.409-17.562
		c0.164-5.789,0.299-11.644,0.41-17.562C4.347,70.12,4.415,64.395,4.442,58.73c0.027-5.663,0.068-11.357,0.123-17.083h13.662
		c0.436,4.772,0.736,9.529,0.9,14.269s0.409,9.495,0.736,14.269c2.618-0.064,5.208-0.096,7.771-0.096s5.181-0.03,7.854-0.095
		l0.818-30.923c0.763-0.063,1.513-0.096,2.25-0.096c0.736,0,1.485,0,2.25,0c2.181,0,4.322,0.064,6.422,0.191
		c2.099,0.128,4.213,0.415,6.34,0.859c0.272,11.644,0.381,23.24,0.327,34.787C53.841,86.359,53.868,97.956,53.978,109.6z"/>
	<path fill="#FFFFFF" d="M76.638,46.036c0,1.274-0.232,2.467-0.695,3.579c-0.464,1.115-1.092,2.085-1.881,2.911
		c-0.792,0.829-1.678,1.48-2.66,1.958c-0.981,0.477-1.963,0.715-2.945,0.715c-1.091,0-2.114-0.287-3.068-0.859
		c-0.955-0.573-1.787-1.304-2.495-2.195c-0.709-0.891-1.255-1.923-1.636-3.102c-0.383-1.177-0.573-2.369-0.573-3.579
		c0-1.209,0.204-2.338,0.613-3.389c0.409-1.049,0.954-1.957,1.636-2.719c0.681-0.763,1.473-1.367,2.373-1.813
		c0.9-0.445,1.868-0.669,2.904-0.669c1.035,0,2.059,0.239,3.067,0.717c1.008,0.477,1.909,1.145,2.7,2.003
		c0.791,0.86,1.432,1.847,1.923,2.959C76.393,43.667,76.638,44.828,76.638,46.036z M79.993,62.261
		c-0.274,3.375-0.491,6.713-0.655,10.021c-0.164,3.311-0.327,6.619-0.49,9.927c-0.219,3.882-0.587,7.73-1.104,11.548
		c-0.52,3.817-1.105,7.636-1.759,11.453l-12.518,1.526c0-2.035,0.013-4.038,0.041-6.014c0.027-1.973,0.041-3.977,0.041-6.013
		c0-5.217-0.082-10.437-0.246-15.653c-0.164-5.217-0.326-10.435-0.49-15.651c2.89-0.127,5.739-0.319,8.549-0.574
		C74.17,62.581,77.047,62.39,79.993,62.261z"/>
	<path fill="#FFFFFF" d="M141.266,57.299l-21.025,17.752c0.164,0.762,0.491,1.989,0.981,3.674c0.491,1.687,1.035,3.435,1.637,5.25
		c0.599,1.812,1.239,3.5,1.922,5.06c0.682,1.562,1.322,2.562,1.922,3.007c0.381,0.318,0.872,0.57,1.472,0.766
		c0.6,0.188,1.213,0.35,1.841,0.478c0.626,0.127,1.254,0.206,1.881,0.237c0.626,0.031,1.158,0.049,1.596,0.049
		c0.762,0,1.554-0.032,2.373-0.096c0.817-0.063,1.608-0.158,2.372-0.287c-0.11,0.828-0.192,1.67-0.245,2.527
		c-0.055,0.86-0.082,1.734-0.082,2.625c0,1.527,0.027,3.057,0.082,4.581c0.053,1.527,0.081,3.021,0.081,4.483
		c-0.382,0.066-1.05,0.146-2.004,0.24c-0.955,0.096-2.045,0.19-3.272,0.285c-1.228,0.096-2.523,0.209-3.886,0.336
		c-1.364,0.127-2.631,0.236-3.803,0.332c-1.174,0.096-2.183,0.145-3.027,0.145c-0.846,0-1.378-0.062-1.596-0.191
		c-0.928-0.506-1.828-1.049-2.699-1.619c-0.874-0.572-1.61-1.367-2.209-2.388c-0.273-0.444-0.724-1.651-1.35-3.627
		c-0.628-1.974-1.282-4.135-1.963-6.49c-0.683-2.353-1.308-4.549-1.881-6.586c-0.573-2.032-0.941-3.34-1.105-3.913l-7.853,5.92
		v16.605l-16.198,1.622c0.326-8.907,0.681-17.769,1.063-26.58c0.381-8.813,0.572-17.705,0.572-26.676
		c0-2.735-0.014-5.44-0.041-8.112c-0.028-2.672-0.069-5.408-0.123-8.208c2.236,0.509,4.458,0.828,6.667,0.954
		c2.209,0.128,4.43,0.319,6.667,0.573V75.72c4.253-3.054,8.412-6.171,12.476-9.353c4.062-3.181,8.003-6.681,11.822-10.499
		c2.89,0.381,5.712,0.667,8.467,0.859C135.552,56.917,138.375,57.108,141.266,57.299z"/>
	<path fill="#FFFFFF" d="M198.123,74.479c-7.146,0.445-14.263,0.811-21.353,1.097c-7.09,0.286-14.208,0.589-21.352,0.907
		c-0.055,0.256-0.082,0.51-0.082,0.764s0,0.51,0,0.764c0,2.163,0.421,3.818,1.268,4.964c0.845,1.146,1.895,1.955,3.15,2.435
		c1.254,0.478,2.645,0.745,4.172,0.81c1.526,0.065,2.945,0.098,4.254,0.098c3.653,0,7.308-0.144,10.962-0.43
		c3.653-0.285,7.334-0.588,11.043-0.906l0.655,15.176c-3.6,0.191-7.187,0.351-10.758,0.478c-3.573,0.128-7.158,0.19-10.758,0.19
		c-0.764,0-2.167-0.016-4.213-0.049c-2.045-0.03-4.227-0.125-6.544-0.285c-2.319-0.158-4.486-0.364-6.504-0.62
		c-2.018-0.255-3.354-0.604-4.008-1.05c-1.691-1.146-3.014-2.608-3.967-4.393c-0.956-1.779-1.692-3.722-2.209-5.82
		c-0.519-2.102-0.873-4.246-1.064-6.442c-0.191-2.194-0.314-4.309-0.367-6.347c-0.055-0.316-0.069-0.652-0.042-1.002
		c0.027-0.349,0.042-0.683,0.042-1.001c0-3.372,0.313-6.505,0.94-9.402c0.626-2.894,1.786-5.709,3.477-8.445
		c1.146-1.909,2.835-3.499,5.072-4.773c2.236-1.271,4.664-2.273,7.281-3.005c2.618-0.73,5.236-1.241,7.854-1.527
		c2.617-0.287,4.88-0.429,6.79-0.429c1.69,0,3.763,0.175,6.217,0.525c2.454,0.35,4.895,0.939,7.322,1.765
		c2.426,0.828,4.623,1.894,6.586,3.198c1.964,1.303,3.3,2.91,4.008,4.818c0.108,0.382,0.231,1.036,0.369,1.958
		c0.136,0.922,0.286,1.972,0.45,3.148c0.164,1.179,0.313,2.434,0.45,3.77c0.135,1.337,0.258,2.611,0.368,3.818
		c0.108,1.21,0.204,2.29,0.286,3.246C198,73.427,198.068,74.096,198.123,74.479z M186.997,67.511c-0.328-2.8-0.941-5.011-1.84-6.633
		c-0.9-1.623-2.019-2.831-3.354-3.626c-1.338-0.795-2.864-1.305-4.582-1.528c-1.718-0.223-3.559-0.333-5.522-0.333
		c-0.654,0-1.472,0.015-2.454,0.048c-0.982,0.032-1.964,0.127-2.946,0.285c-0.981,0.161-1.909,0.398-2.781,0.716
		c-0.873,0.319-1.555,0.764-2.045,1.336c-0.382,0.382-0.695,0.906-0.94,1.575c-0.246,0.667-0.45,1.384-0.614,2.147
		c-0.164,0.763-0.287,1.512-0.369,2.243c-0.082,0.732-0.122,1.354-0.122,1.861c0,1.019,0.082,2.005,0.246,2.959L186.997,67.511z"/>
	<path fill="#FFFFFF" d="M293.833,44.796c-1.582,8.971-3.096,17.912-4.541,26.819c-1.445,8.908-2.985,17.847-4.623,26.82
		l-17.016,0.188l-6.217-25.77l-14.235,25.77l-18.571,1.622c-0.438-4.391-0.9-8.812-1.39-13.268
		c-0.491-4.453-1.038-8.875-1.637-13.267c-0.601-4.582-1.2-9.114-1.799-13.601c-0.602-4.486-1.201-8.986-1.8-13.504l16.853-0.574
		l5.399,29.873c1.09-2.862,2.209-5.693,3.355-8.493c1.145-2.8,2.29-5.632,3.436-8.495c1.199-3.18,2.508-6.203,3.927-9.066
		l9.245,0.19c1.581,4.646,3.122,9.274,4.622,13.887c1.5,4.614,3.122,9.179,4.868,13.696c0.981-3.055,1.84-5.9,2.577-8.542
		c0.736-2.639,1.404-5.249,2.004-7.826c0.6-2.577,1.172-5.217,1.719-7.921c0.544-2.704,1.09-5.646,1.636-8.829L293.833,44.796z"/>
	<path fill="#FFFFFF" d="M312.73,46.036c0,1.274-0.232,2.467-0.695,3.579c-0.464,1.115-1.092,2.085-1.881,2.911
		c-0.792,0.829-1.679,1.48-2.659,1.958c-0.982,0.477-1.964,0.715-2.945,0.715c-1.092,0-2.114-0.287-3.068-0.859
		c-0.955-0.573-1.788-1.304-2.495-2.195c-0.709-0.891-1.255-1.923-1.636-3.102c-0.382-1.177-0.573-2.369-0.573-3.579
		c0-1.209,0.205-2.338,0.614-3.389c0.409-1.049,0.954-1.957,1.636-2.719c0.681-0.763,1.473-1.367,2.373-1.813
		c0.899-0.445,1.867-0.669,2.904-0.669c1.035,0,2.057,0.239,3.067,0.717c1.008,0.477,1.908,1.145,2.7,2.003
		c0.79,0.86,1.432,1.847,1.922,2.959C312.486,43.667,312.73,44.828,312.73,46.036z M316.085,62.261
		c-0.273,3.375-0.491,6.713-0.654,10.021c-0.164,3.311-0.327,6.619-0.489,9.927c-0.22,3.882-0.589,7.73-1.104,11.548
		c-0.519,3.817-1.104,7.636-1.758,11.453l-12.517,1.526c0-2.035,0.013-4.038,0.041-6.014c0.026-1.973,0.042-3.977,0.042-6.013
		c0-5.217-0.082-10.437-0.246-15.653c-0.164-5.217-0.327-10.435-0.49-15.651c2.89-0.127,5.739-0.319,8.548-0.574
		C310.263,62.581,313.14,62.39,316.085,62.261z"/>
	<path fill="#FFFFFF" d="M363.042,92.992l-1.39,16.798c-1.747,0.128-3.492,0.239-5.236,0.335c-1.747,0.096-3.491,0.145-5.236,0.145
		c-0.929,0-2.153-0.033-3.682-0.096c-1.527-0.064-3.108-0.178-4.745-0.336c-1.636-0.156-3.191-0.381-4.664-0.667
		c-1.472-0.286-2.646-0.651-3.518-1.098c-1.311-0.7-2.388-1.622-3.231-2.769c-0.846-1.146-1.542-2.4-2.086-3.771
		c-0.546-1.366-0.98-2.83-1.309-4.391c-0.327-1.561-0.573-3.104-0.737-4.629c-0.163-1.464-0.287-3.039-0.368-4.726
		c-0.082-1.687-0.136-3.421-0.164-5.202c-0.026-1.78-0.041-3.515-0.041-5.201c0-1.686,0-3.26,0-4.724V69.8h-5.07
		c0.217-2.864,0.34-5.694,0.366-8.495c0.027-2.799,0.149-5.631,0.368-8.494l4.909,0.191V38.878c3.109,0.701,6.204,1.066,9.285,1.099
		c3.081,0.032,6.176,0.175,9.286,0.428l-0.164,14.603l6.871,0.478c0,0.447,0.013,0.858,0.041,1.241
		c0.025,0.382,0.041,0.797,0.041,1.24c0,1.783-0.122,3.518-0.368,5.203c-0.245,1.686-0.562,3.387-0.94,5.105h-5.972
		c-0.11,2.928-0.192,5.855-0.246,8.781c-0.055,2.927-0.082,5.854-0.082,8.78c0,1.4,0.041,2.657,0.122,3.771
		c0.082,1.113,0.299,2.052,0.655,2.812c0.354,0.766,0.939,1.337,1.759,1.721c0.818,0.381,1.964,0.571,3.437,0.571
		c2.019,0,4.035-0.157,6.055-0.479C359.006,93.917,361.024,93.503,363.042,92.992z"/>
	<path fill="#FFFFFF" d="M418.427,72.665c0,2.354-0.122,4.724-0.367,7.11c-0.243,2.385-0.505,4.756-0.775,7.11
		c-0.438,4.137-0.931,8.227-1.475,12.264c-0.546,4.043-1.092,8.131-1.636,12.267c-2.674,0.062-5.292,0.19-7.854,0.383
		c-2.562,0.188-5.152,0.411-7.771,0.668c0-4.646,0-9.239,0-13.792c0-4.548-0.082-9.111-0.246-13.693
		c0-0.893-0.014-2.035-0.042-3.438c-0.026-1.399-0.149-2.544-0.368-3.436c-0.325-1.463-0.734-2.465-1.227-3.006
		c-0.491-0.54-1.445-0.812-2.863-0.812c-0.981,0-2.128,0.127-3.437,0.381c-1.311,0.255-2.646,0.573-4.009,0.955
		c-1.364,0.381-2.659,0.811-3.888,1.289c-1.228,0.477-2.25,0.97-3.065,1.479c-0.439,5.154-0.971,10.276-1.598,15.366
		c-0.628,5.093-1.021,10.245-1.187,15.464l-11.535-0.672c-0.601-11.449-1.173-22.855-1.718-34.214
		c-0.546-11.358-1.063-22.762-1.555-34.216l17.998-1.335c-0.11,4.199-0.221,8.384-0.327,12.549c-0.11,4.168-0.22,8.352-0.328,12.551
		c1.037-1.017,2.209-1.797,3.518-2.339c1.311-0.54,2.659-0.906,4.051-1.098c1.392-0.19,2.793-0.286,4.214-0.286
		c1.418,0,2.779,0,4.09,0c1.965,0,4.187,0.081,6.668,0.238c2.479,0.161,4.854,0.606,7.118,1.337
		c2.264,0.733,4.267,1.894,6.014,3.484c1.744,1.591,2.916,3.817,3.518,6.681c0.056,0.128,0.08,0.254,0.08,0.381
		C418.427,72.412,418.427,72.538,418.427,72.665z"/>
	<path fill="#FFFFFF" d="M499.819,111.413c-6.603-0.128-13.352-0.319-20.248-0.572c-6.9-0.256-13.65-0.827-20.246-1.718
		c-0.768-0.127-1.625-0.238-2.577-0.334c-0.955-0.098-1.815-0.301-2.577-0.621c-1.584-0.697-2.824-1.479-3.723-2.337
		c-0.9-0.858-1.598-1.847-2.087-2.96c-0.49-1.112-0.848-2.354-1.064-3.723c-0.219-1.367-0.408-2.91-0.571-4.629
		c-0.489-4.453-0.872-8.922-1.146-13.408c-0.274-4.486-0.407-8.986-0.407-13.505c0-0.826,0.012-1.829,0.039-3.006
		c0.027-1.178,0.083-2.402,0.164-3.674c0.082-1.272,0.204-2.482,0.368-3.627c0.164-1.146,0.381-2.1,0.655-2.864
		c1.309-3.307,3.229-5.965,5.768-7.969c2.535-2.005,5.33-3.562,8.384-4.677c3.057-1.112,6.205-1.845,9.45-2.196
		c3.244-0.348,6.229-0.524,8.957-0.524c5.836,0,11.672,0.668,17.509,2.005l0.653,20.424c-5.563-2.036-11.317-3.054-17.261-3.054
		c-1.095,0-2.537,0.063-4.337,0.19c-1.802,0.129-3.643,0.367-5.521,0.717c-1.882,0.35-3.641,0.858-5.277,1.527
		c-1.636,0.667-2.779,1.574-3.437,2.72c-0.326,0.572-0.613,1.369-0.857,2.386c-0.247,1.02-0.438,2.086-0.571,3.197
		c-0.139,1.114-0.233,2.211-0.286,3.293c-0.057,1.083-0.081,1.972-0.081,2.672c0,1.465,0.094,3.197,0.286,5.202
		c0.188,2.003,0.421,4.057,0.692,6.155c0.272,2.101,0.602,4.104,0.981,6.015c0.382,1.907,0.79,3.467,1.228,4.676h14.48
		l-0.737-18.419c3.767,0.32,7.54,0.462,11.332,0.43c3.789-0.032,7.567-0.048,11.33-0.048c0.381,5.408,0.6,10.783,0.655,16.129
		C499.791,100.629,499.819,106.007,499.819,111.413z"/>
	<path fill="#FFFFFF" d="M551.52,69.609v2.196l-15.787,0.859c0.162-0.826,0.244-1.781,0.244-2.863c0-1.59-0.19-2.625-0.571-3.103
		c-0.384-0.477-1.229-0.715-2.537-0.715c-1.854,0-3.899,0.382-6.135,1.146c-2.236,0.762-4.2,1.495-5.893,2.194
		c-0.271,2.801-0.491,5.6-0.653,8.399c-0.162,2.8-0.244,5.6-0.244,8.399c0,3.117,0.013,6.22,0.039,9.305
		c0.027,3.088,0.067,6.188,0.125,9.307l-14.071,1.051c-0.274-4.071-0.545-8.127-0.818-12.169c-0.272-4.039-0.519-8.097-0.734-12.171
		c-0.273-5.404-0.629-10.797-1.063-16.174c-0.437-5.376-0.873-10.8-1.309-16.273c3.106,0.254,6.203,0.62,9.284,1.096
		c3.079,0.478,6.177,1.067,9.284,1.766l-0.408,8.017c1.638-1.526,3.202-2.847,4.702-3.96c1.501-1.114,3.027-2.053,4.582-2.816
		c1.558-0.763,3.203-1.32,4.95-1.669c1.745-0.35,3.684-0.526,5.811-0.526c1.417,0,2.89,0.176,4.418,0.526
		c1.523,0.349,2.834,1.161,3.927,2.433c0.544,0.702,1.007,1.751,1.39,3.15c0.382,1.401,0.684,2.88,0.9,4.438
		c0.217,1.56,0.368,3.087,0.45,4.581C551.479,67.528,551.52,68.72,551.52,69.609z"/>
	<path fill="#FFFFFF" d="M613.695,66.842c0,5.344-0.164,10.658-0.49,15.94c-0.327,5.28-0.655,10.562-0.982,15.843
		c-6.107,0.637-12.188,1.178-18.244,1.622c-6.053,0.446-12.136,0.668-18.24,0.668c-0.547,0-1.558-0.015-3.028-0.048
		c-1.472-0.03-3.026-0.096-4.662-0.19c-1.636-0.097-3.188-0.222-4.662-0.382c-1.473-0.158-2.456-0.396-2.943-0.716
		c-1.803-1.146-3.059-2.593-3.767-4.343c-0.71-1.75-1.062-3.736-1.062-5.965c0-0.766,0.026-1.78,0.081-3.058
		c0.055-1.271,0.165-2.604,0.328-4.007c0.162-1.399,0.381-2.704,0.652-3.914c0.272-1.207,0.602-2.099,0.982-2.671
		c0.489-0.764,1.605-1.415,3.354-1.956c1.744-0.542,3.831-0.971,6.258-1.289c2.428-0.319,5.045-0.573,7.854-0.764
		c2.808-0.19,5.494-0.333,8.059-0.429c2.562-0.095,4.854-0.144,6.872-0.144c2.019,0,3.462,0,4.336,0
		c0.164-1.399,0.245-2.768,0.245-4.104c0-0.126,0-0.461,0-1.002c0-0.54-0.026-0.874-0.081-1.002
		c-0.164-0.381-0.683-0.699-1.556-0.954c-0.873-0.253-1.95-0.445-3.231-0.572c-1.279-0.127-2.673-0.239-4.173-0.335
		c-1.5-0.096-2.959-0.144-4.376-0.144c-1.418,0-2.672,0-3.763,0c-1.093,0-1.882,0-2.372,0c-3.438,0-6.873,0.082-10.309,0.24
		c-3.438,0.16-6.872,0.302-10.31,0.429c0.217-2.417,0.396-4.868,0.531-7.349c0.136-2.482,0.149-4.929,0.04-7.349
		c3.979-0.827,7.979-1.416,11.984-1.766c4.011-0.349,8.061-0.524,12.147-0.524c1.473,0,3.082,0.017,4.827,0.047
		c1.745,0.032,3.489,0.096,5.237,0.191c1.741,0.095,3.476,0.238,5.192,0.429c1.719,0.191,3.312,0.446,4.785,0.764
		c1.526,0.319,3.039,0.892,4.54,1.717c1.501,0.828,2.903,1.846,4.213,3.055c1.312,1.209,2.456,2.592,3.438,4.151
		c0.979,1.559,1.688,3.23,2.126,5.011c0.054,0.191,0.096,0.51,0.123,0.953c0.024,0.446,0.041,0.94,0.041,1.479
		c0,0.542,0,1.036,0,1.479C613.695,66.334,613.695,66.651,613.695,66.842z M595.451,89.271V77.055
		c-1.581-0.063-3.164-0.111-4.743-0.143c-1.584-0.032-3.165-0.048-4.747-0.048c-0.326,0-1.24,0.017-2.74,0.048
		c-1.5,0.031-3.107,0.111-4.826,0.238c-1.718,0.129-3.284,0.287-4.703,0.478c-1.417,0.191-2.236,0.478-2.453,0.858
		c-0.273,0.511-0.45,1.035-0.532,1.575c-0.081,0.542-0.121,1.097-0.121,1.669c0,0.445,0.026,1.052,0.081,1.812
		c0.052,0.766,0.149,1.561,0.285,2.387c0.135,0.826,0.287,1.592,0.451,2.291c0.163,0.7,0.381,1.209,0.653,1.526
		c0.219,0.315,0.584,0.56,1.104,0.715c0.517,0.159,1.074,0.287,1.676,0.384c0.6,0.096,1.198,0.158,1.8,0.19
		c0.602,0.03,1.063,0.047,1.393,0.047c1.309,0,2.712-0.063,4.213-0.188c1.499-0.129,3.024-0.271,4.582-0.433
		c1.554-0.155,3.065-0.348,4.54-0.571C592.834,89.67,594.197,89.462,595.451,89.271z"/>
	<path fill="#FFFFFF" d="M672.761,56.058c-2.018,4.389-4.007,8.637-5.971,12.741s-3.968,8.145-6.014,12.121
		c-2.045,3.977-4.159,7.938-6.343,11.883c-2.181,3.945-4.499,7.954-6.95,12.024l-14.236,0.669L617.05,55.581l18.162-0.573
		c1.091,5.918,2.139,11.821,3.148,17.704c1.009,5.887,2.059,11.819,3.148,17.802c2.071-5.6,4.076-11.167,6.015-16.703
		c1.936-5.537,3.692-11.23,5.275-17.084c3.381,0,6.707-0.032,9.981-0.095C666.054,56.567,669.379,56.377,672.761,56.058z"/>
	<path fill="#FFFFFF" d="M689.532,46.036c0,1.274-0.232,2.467-0.695,3.579c-0.464,1.115-1.092,2.085-1.882,2.911
		c-0.792,0.829-1.677,1.48-2.658,1.958c-0.982,0.477-1.964,0.715-2.945,0.715c-1.093,0-2.113-0.287-3.066-0.859
		c-0.955-0.573-1.786-1.304-2.494-2.195c-0.711-0.891-1.256-1.923-1.637-3.102c-0.385-1.177-0.573-2.369-0.573-3.579
		c0-1.209,0.205-2.338,0.612-3.389c0.408-1.049,0.952-1.957,1.638-2.719c0.682-0.763,1.473-1.367,2.373-1.813
		c0.897-0.445,1.866-0.669,2.902-0.669c1.034,0,2.059,0.239,3.066,0.717c1.011,0.477,1.909,1.145,2.701,2.003
		c0.788,0.86,1.432,1.847,1.922,2.959C689.287,43.667,689.532,44.828,689.532,46.036z M692.885,62.261
		c-0.271,3.375-0.487,6.713-0.651,10.021c-0.164,3.311-0.327,6.619-0.491,9.927c-0.218,3.882-0.586,7.73-1.104,11.548
		c-0.52,3.817-1.104,7.636-1.759,11.453l-12.517,1.526c0-2.035,0.013-4.038,0.04-6.014c0.025-1.973,0.041-3.977,0.041-6.013
		c0-5.217-0.081-10.437-0.245-15.653c-0.164-5.217-0.328-10.435-0.491-15.651c2.89-0.127,5.739-0.319,8.55-0.574
		C687.062,62.581,689.94,62.39,692.885,62.261z"/>
	<path fill="#FFFFFF" d="M738.78,92.992l-1.392,16.798c-1.748,0.128-3.49,0.239-5.235,0.335s-3.491,0.145-5.235,0.145
		c-0.928,0-2.155-0.033-3.682-0.096c-1.527-0.064-3.109-0.178-4.745-0.336c-1.638-0.156-3.19-0.381-4.663-0.667
		s-2.646-0.651-3.52-1.098c-1.309-0.7-2.387-1.622-3.23-2.769c-0.845-1.146-1.541-2.4-2.085-3.771
		c-0.546-1.366-0.982-2.83-1.312-4.391c-0.326-1.561-0.57-3.104-0.733-4.629c-0.164-1.464-0.288-3.039-0.369-4.726
		s-0.137-3.421-0.163-5.202c-0.028-1.78-0.041-3.515-0.041-5.201c0-1.686,0-3.26,0-4.724V69.8h-5.072
		c0.217-2.864,0.34-5.694,0.368-8.495c0.028-2.799,0.149-5.631,0.367-8.494l4.91,0.191V38.878c3.105,0.701,6.202,1.066,9.282,1.099
		c3.081,0.032,6.18,0.175,9.286,0.428l-0.164,14.603l6.872,0.478c0,0.447,0.015,0.858,0.041,1.241c0.026,0.382,0.04,0.797,0.04,1.24
		c0,1.783-0.121,3.518-0.368,5.203c-0.242,1.686-0.56,3.387-0.938,5.105h-5.974c-0.107,2.928-0.189,5.855-0.243,8.781
		c-0.059,2.927-0.083,5.854-0.083,8.78c0,1.4,0.042,2.657,0.125,3.771c0.08,1.113,0.297,2.052,0.65,2.812
		c0.354,0.766,0.941,1.337,1.762,1.721c0.815,0.381,1.963,0.571,3.436,0.571c2.018,0,4.035-0.157,6.054-0.479
		C734.743,93.917,736.762,93.503,738.78,92.992z"/>
	<path fill="#FFFFFF" d="M795.229,91.085c0,0.701,0,1.718,0,3.054s-0.025,2.851-0.08,4.533c-0.057,1.688-0.123,3.438-0.203,5.25
		c-0.083,1.812-0.18,3.531-0.287,5.153c-0.11,1.623-0.26,3.054-0.451,4.295c-0.191,1.239-0.396,2.114-0.612,2.625
		c-0.928,1.717-1.786,3.037-2.577,3.96c-0.792,0.922-1.648,1.574-2.575,1.956c-0.93,0.383-1.979,0.589-3.149,0.62
		c-1.173,0.031-2.551,0.048-4.132,0.048c-5.235,0-10.444-0.237-15.625-0.715c-5.186-0.479-10.363-1.035-15.544-1.671v-13.074
		c0.49,0,1.564-0.016,3.229-0.049c1.662-0.031,3.612-0.078,5.852-0.145c2.232-0.062,4.605-0.156,7.118-0.285
		c2.507-0.127,4.854-0.285,7.033-0.479c2.183-0.189,4.062-0.413,5.646-0.668c1.58-0.253,2.562-0.573,2.943-0.954
		c0.489-0.444,0.887-1.129,1.188-2.052c0.299-0.924,0.519-1.895,0.654-2.911c0.137-1.019,0.23-2.035,0.287-3.056
		c0.052-1.018,0.08-1.846,0.08-2.48s0-1.24,0-1.812s-0.028-1.211-0.08-1.91c-0.818,2.164-1.91,3.785-3.273,4.867
		c-1.363,1.084-2.893,1.849-4.581,2.291c-1.69,0.445-3.464,0.686-5.317,0.715c-1.854,0.035-3.627,0.051-5.315,0.051
		c-3.546,0-6.969-0.176-10.27-0.525c-3.301-0.349-6.217-1.257-8.754-2.721c-2.534-1.463-4.58-3.674-6.135-6.633
		s-2.332-7.047-2.332-12.264c0-5.154,0.299-10.292,0.9-15.413c0.6-5.121,1.36-10.197,2.291-15.223l17.261,0.19
		c-0.928,4.009-1.746,8.082-2.454,12.217c-0.71,4.136-1.062,8.303-1.062,12.502c0,2.228,0.137,4.041,0.408,5.44
		c0.272,1.401,0.766,2.529,1.475,3.389c0.708,0.858,1.688,1.448,2.944,1.765c1.253,0.319,2.834,0.478,4.743,0.478
		c0.766,0,1.704-0.062,2.824-0.188c1.116-0.127,2.261-0.301,3.435-0.526c1.173-0.222,2.291-0.524,3.354-0.906
		c1.062-0.381,1.896-0.859,2.496-1.432c0.217-0.19,0.408-0.826,0.57-1.909c0.164-1.08,0.302-2.369,0.409-3.865
		c0.11-1.495,0.19-3.102,0.245-4.821c0.056-1.717,0.096-3.339,0.123-4.868c0.026-1.526,0.041-2.845,0.041-3.96
		c0-1.113,0-1.829,0-2.147c0-2.163,0-4.31,0-6.442c0-2.131-0.055-4.278-0.164-6.442c2.672,0.318,5.305,0.589,7.896,0.811
		c2.591,0.224,5.223,0.398,7.896,0.525c0.217,6.172,0.45,12.281,0.695,18.325c0.245,6.045,0.503,12.154,0.776,18.324
		c0.107,1.527,0.162,3.071,0.162,4.629C795.229,88.111,795.229,89.621,795.229,91.085z"/>
</g>
</svg>
