<?xml version="1.0" encoding="utf-8"?>
<!-- Generator: Adobe Illustrator 14.0.0, SVG Export Plug-In . SVG Version: 6.00 Build 43363)  -->
<!DOCTYPE svg PUBLIC "-//W3C//DTD SVG 1.1//EN" "http://www.w3.org/Graphics/SVG/1.1/DTD/svg11.dtd">
<svg version="1.1" id="Layer_1" xmlns="http://www.w3.org/2000/svg" xmlns:xlink="http://www.w3.org/1999/xlink" x="0px" y="0px"
	 width="300px" height="75px" viewBox="0 0 300 75" enable-background="new 0 0 300 75" xml:space="preserve">
<path fill-rule="evenodd" clip-rule="evenodd" fill="#528450" d="M163.042,29.211c-0.511,3.306-1.812,6.07-3.833,8.334
	c-1.337,1.493-2.177,3.333-3.845,4.605c-2.234,1.698-3.678,4.088-5.324,6.279c-0.793,1.055-0.466,1.842,0.793,1.755
	c1.935-0.13,3.87-0.479,5.786-0.654c2.096-0.192,3.67-1.27,5.578-1.878c-0.696,0.871-0.257,2.497-2.027,2.585
	c-0.146,0.009-0.379,0.022-0.312,0.27c0.576,2.129-1.977,2.164-2.468,3.412c-0.57,1.473-2.036,2.187-2.572,3.524
	c-0.164,0.405-0.372,0.651-0.641,0.887c-2.905,2.564-6.055,4.874-8.169,8.205c-0.425,0.669-1.296,1.076-1.646,1.968
	c-0.102,0.257-0.642,0.588-0.462,0.992c0.184,0.415,0.724,0.405,1.172,0.541c2.761,0.839,5.241-0.097,7.799-0.867
	c1.398-0.422,2.911,0.104,4.345-0.087c3.138-0.415,6.26-0.947,9.393-1.436c0.371,0.335,0.3,0.824,0.149,1.078
	c-1.092,1.876,0.034,3.976-0.686,5.884c-0.169,0.44,1.16,1.253,2.033,1.25c2.497-0.013,4.977,0.374,7.495,0.113
	c1.726-0.182,2.525-0.643,1.713-2.097c-0.967-1.724,0.417-3.561-0.812-5.165c-0.392-0.507,0.405-0.763,0.969-0.828
	c1.951-0.221,3.903,0.028,5.799,0.285c1.863,0.253,3.724,0.378,5.586,0.543c1.408,0.125,2.812,0.13,4.203,0.584
	c1.541,0.508,3.146-0.053,4.717-0.22c0.28-0.027,0.469-0.444,0.781-0.246c0.776,0.494,1.501,0.236,1.768-0.438
	c0.301-0.767-0.392-1.545-0.948-1.891c-0.875-0.546-1.623-1.149-2.396-1.784c-0.493-0.408-1.226-0.792-1.843-1.184
	c-3.377-2.137-5.392-5.447-8.117-8.119c-1.372-1.339-2.841-2.613-3.738-4.333c-0.295-0.56-1.002-0.507-1.529-1.003
	c0.642-0.406,1.049-0.602,1.874-0.315c2.354,0.819,4.837,0.646,7.291,0.477c0.514-0.036,1.179-0.132,1.279-0.654
	c0.118-0.605-0.165-1.256-0.731-1.635c-1.529-1.028-2.659-2.434-3.963-3.675c-1.603-1.517-3.506-2.848-5.201-4.237
	c-1.821-1.495-3.65-3.464-4.729-5.769c-0.452-0.978-0.946-1.937-1.414-2.907c-0.086-0.188-0.291-0.397-0.039-0.593
	c0.109-0.085,0.277-0.103,0.416-0.154c0.327,1.06,1.487,0.667,2.188,1.149c1.991,1.356,4.188,2.225,6.744,1.638
	c0.516-0.121,0.897-0.234,1.007-0.771c0.106-0.502-0.256-0.717-0.529-1.084c-2.916-3.885-6.929-6.831-9.758-10.797
	c-1.825-2.556-4.133-4.791-5.586-7.597c-0.743-1.438-1.324-2.955-2.08-4.383c-0.371-0.706-0.858-1.419-1.344-2.006
	c-0.488-0.598-1.656-0.719-2.018,0.529c-0.346,1.192-0.602,2.409-0.975,3.589c-1.167,3.657-2.846,7.148-4.061,10.756
	c-1.171,3.458-3.722,6.154-4.787,9.589c-0.168,0.543-0.424,1.042,0.145,1.33c0.487,0.247,0.995,0.591,1.72,0.118
	C159.013,31.487,160.927,30.447,163.042,29.211"/>
<path fill-rule="evenodd" clip-rule="evenodd" fill="#528450" d="M211.972,44.144c0.342,2.246,1.187,4.127,2.519,5.667
	c0.873,1.016,1.427,2.268,2.517,3.131c1.463,1.155,2.412,2.777,3.492,4.271c0.519,0.716,0.304,1.25-0.524,1.191
	c-1.263-0.086-2.538-0.326-3.789-0.444c-1.376-0.129-2.409-0.865-3.655-1.28c0.455,0.593,0.163,1.697,1.327,1.76
	c0.097,0.007,0.247,0.016,0.205,0.183c-0.383,1.451,1.293,1.473,1.612,2.323c0.378,0.999,1.339,1.481,1.695,2.394
	c0.104,0.275,0.239,0.447,0.415,0.604c1.903,1.742,3.97,3.312,5.358,5.577c0.274,0.454,0.846,0.731,1.078,1.339
	c0.068,0.177,0.42,0.401,0.304,0.672c-0.124,0.285-0.475,0.275-0.767,0.369c-1.816,0.571-3.442-0.063-5.118-0.587
	c-0.915-0.29-1.903,0.068-2.845-0.061c-2.057-0.282-4.105-0.645-6.16-0.974c-0.247,0.223-0.194,0.559-0.099,0.73
	c0.715,1.276-0.022,2.705,0.45,4.003c0.108,0.298-0.759,0.852-1.337,0.847c-1.637-0.005-3.258,0.258-4.914,0.076
	c-1.124-0.12-1.653-0.435-1.117-1.421c0.631-1.176-0.279-2.422,0.531-3.51c0.255-0.349-0.267-0.522-0.635-0.566
	c-1.283-0.149-2.561,0.018-3.804,0.193c-1.224,0.174-2.442,0.257-3.666,0.368c-0.922,0.084-1.839,0.086-2.753,0.399
	c-1.009,0.34-2.062-0.037-3.095-0.151c-0.181-0.021-0.304-0.302-0.509-0.169c-0.511,0.336-0.989,0.162-1.16-0.297
	c-0.194-0.522,0.256-1.049,0.621-1.284c0.572-0.372,1.065-0.783,1.573-1.216c0.324-0.275,0.8-0.536,1.206-0.805
	c2.217-1.453,3.534-3.701,5.32-5.519c0.902-0.912,1.862-1.774,2.454-2.947c0.193-0.38,0.655-0.343,1.001-0.679
	c-0.42-0.279-0.687-0.412-1.229-0.218c-1.542,0.559-3.171,0.442-4.781,0.324c-0.338-0.025-0.769-0.091-0.839-0.445
	c-0.076-0.411,0.108-0.852,0.482-1.112c1.001-0.694,1.742-1.653,2.595-2.495c1.051-1.029,2.3-1.938,3.411-2.882
	c1.193-1.015,2.395-2.359,3.097-3.926c0.302-0.663,0.625-1.315,0.932-1.975c0.06-0.127,0.193-0.27,0.024-0.403
	c-0.068-0.06-0.18-0.071-0.271-0.104c-0.215,0.722-0.974,0.453-1.436,0.782c-1.308,0.921-2.746,1.511-4.42,1.109
	c-0.336-0.078-0.589-0.157-0.66-0.522c-0.068-0.341,0.165-0.484,0.349-0.735c1.911-2.641,4.543-4.645,6.396-7.343
	c1.194-1.737,2.704-3.258,3.661-5.165c0.486-0.976,0.87-2.008,1.364-2.98c0.242-0.479,0.563-0.965,0.877-1.363
	c0.326-0.408,1.093-0.487,1.325,0.359c0.228,0.81,0.397,1.639,0.643,2.44c0.764,2.486,1.863,4.861,2.662,7.312
	c0.766,2.353,2.441,4.184,3.136,6.521c0.114,0.371,0.279,0.707-0.089,0.903c-0.323,0.168-0.657,0.403-1.129,0.082
	C214.614,45.69,213.358,44.986,211.972,44.144"/>
<path fill-rule="evenodd" clip-rule="evenodd" fill="#528450" d="M144.186,43.144c0.339,2.246,1.185,4.127,2.518,5.667
	c0.872,1.016,1.426,2.268,2.516,3.131c1.466,1.155,2.412,2.777,3.49,4.271c0.521,0.716,0.305,1.25-0.521,1.191
	c-1.265-0.086-2.536-0.326-3.79-0.444c-1.376-0.129-2.409-0.865-3.656-1.28c0.455,0.593,0.167,1.697,1.327,1.76
	c0.098,0.007,0.246,0.016,0.207,0.183c-0.384,1.451,1.292,1.473,1.611,2.323c0.378,0.999,1.34,1.481,1.695,2.394
	c0.104,0.275,0.238,0.447,0.415,0.604c1.903,1.742,3.97,3.312,5.356,5.577c0.279,0.454,0.848,0.731,1.079,1.339
	c0.07,0.177,0.421,0.401,0.305,0.672c-0.123,0.285-0.475,0.275-0.766,0.369c-1.817,0.571-3.443-0.063-5.119-0.587
	c-0.916-0.29-1.904,0.068-2.845-0.061c-2.058-0.282-4.105-0.645-6.159-0.974c-0.247,0.223-0.196,0.559-0.099,0.73
	c0.714,1.276-0.022,2.705,0.448,4.003c0.11,0.298-0.759,0.852-1.336,0.847c-1.638-0.005-3.26,0.258-4.913,0.076
	c-1.126-0.12-1.654-0.435-1.119-1.421c0.632-1.176-0.277-2.422,0.531-3.51c0.254-0.349-0.266-0.522-0.636-0.566
	c-1.28-0.149-2.56,0.018-3.802,0.193c-1.224,0.174-2.441,0.257-3.665,0.368c-0.924,0.084-1.839,0.086-2.754,0.399
	c-1.008,0.34-2.062-0.037-3.095-0.151c-0.18-0.021-0.303-0.302-0.509-0.169c-0.511,0.336-0.989,0.162-1.159-0.297
	c-0.195-0.522,0.255-1.049,0.622-1.284c0.569-0.372,1.063-0.783,1.57-1.216c0.323-0.275,0.801-0.536,1.209-0.805
	c2.215-1.453,3.531-3.701,5.318-5.519c0.902-0.912,1.861-1.774,2.455-2.947c0.192-0.38,0.654-0.343,1.001-0.679
	c-0.419-0.279-0.688-0.412-1.229-0.218c-1.543,0.559-3.171,0.442-4.783,0.324c-0.338-0.025-0.769-0.091-0.838-0.445
	c-0.077-0.411,0.109-0.852,0.481-1.112c1.003-0.694,1.743-1.653,2.596-2.495c1.05-1.029,2.299-1.938,3.411-2.882
	c1.194-1.015,2.393-2.359,3.097-3.926c0.3-0.663,0.623-1.315,0.931-1.975c0.061-0.127,0.194-0.27,0.023-0.403
	c-0.066-0.06-0.178-0.071-0.27-0.104c-0.215,0.722-0.974,0.453-1.436,0.782c-1.308,0.921-2.746,1.511-4.419,1.109
	c-0.337-0.078-0.591-0.157-0.66-0.522c-0.07-0.341,0.163-0.484,0.349-0.735c1.908-2.641,4.541-4.645,6.396-7.343
	c1.196-1.737,2.704-3.258,3.659-5.165c0.488-0.976,0.871-2.008,1.365-2.98c0.242-0.479,0.563-0.965,0.878-1.363
	c0.323-0.408,1.09-0.487,1.324,0.359c0.228,0.81,0.396,1.639,0.642,2.44c0.764,2.486,1.863,4.861,2.661,7.312
	c0.769,2.353,2.444,4.184,3.139,6.521c0.113,0.371,0.276,0.707-0.089,0.903c-0.323,0.168-0.659,0.403-1.13,0.082
	C146.826,44.69,145.57,43.986,144.186,43.144"/>
<path fill-rule="evenodd" clip-rule="evenodd" fill="#528450" d="M53.459,53.545c2.468,3.26,5.825,5.51,8.64,8.322
	c0.549,0.551,1.254,0.797,1.771,1.363c0.415,0.457,1.051,0.006,1.436-0.152c0.403-0.166,0.283-0.785-0.001-1.273
	c-1.607-2.742-3.352-5.311-5.732-7.529c-1.703-1.586-2.864-3.791-4.091-5.826c-0.692-1.148-1.284-2.361-2.048-3.549
	c1.252,1.082,2.891,1.648,3.929,2.855c1.077,1.25,2.771,1.521,3.764,2.814c0.481,0.623,0.946,0.164,1.367-0.252
	c0.634-0.629,0.514-1.15-0.048-1.781c-1.914-2.143-3.779-4.324-5.668-6.486c-1.422-1.625-2.668-3.359-3.604-5.631
	c1.625,0.356,2.25,1.55,3.184,2.303c0.614,0.496,1.361,0.85,1.986,0.615c0.772-0.291,1.188-1.178,1.227-2.013
	c0.055-1.259-0.213-2.325-1.223-3.382c-3.67-3.83-7.059-7.898-8.945-12.985c-0.199-0.54-0.306-0.999-0.012-1.633
	c1.794,1.468,3.03,3.338,4.288,5.153c0.481,0.696,1.068,1.246,1.601,1.867c0.367,0.429,0.869,0.556,1.289,0.222
	c0.369-0.292,0.539-0.704,0.693-1.26c0.57-2.013-0.77-2.888-1.742-4.199c-2.084-2.806-4.15-5.661-5.107-9.136
	c-0.476-1.735-1.675-1.985-2.855-0.606c-0.551,0.645-1.211,1.223-1.377,2.234c-0.518,3.102-2.805,5.359-4.15,8.074
	c-0.221,0.443-1.106,0.679-1.646,1.125c-1.214,1.009-0.858,2.332-0.679,3.466c0.143,0.874,0.949,0.463,1.397-0.008
	c1.507-1.589,3.354-2.898,4.2-5.046c0.172-0.439,0.312-0.917,0.848-1.079c0.373,3.688-2.279,9.371-5.346,11.473
	c-0.561,0.385-1.12,0.782-1.635,1.226c-0.307,0.261-0.523,0.627-0.784,0.946c2.171,1.52-1.737,2.564-0.048,4.211
	c1.289-0.836,2.816-1.487,3.982-2.814c1.137-1.292,2.416-2.459,4.045-4.094c-0.179,2.836-0.994,4.936-2.145,6.898
	c-1.354,2.311-3.525,3.956-5.218,6.004c-1.262,1.529-1.788,3.486-3.28,4.801c-0.299,0.264-0.328,0.566-0.041,0.895
	c0.377,0.426,0.869,0.572,1.293,0.248c0.99-0.758,2.238-0.963,3.226-1.824c2.178-1.898,4.545-3.578,6.999-5.473
	c0.539,1.299,0.471,2.207-0.479,3.088c-1.992,1.854-3.383,4.17-4.936,6.383c-1.211,1.721-2.549,3.387-3.861,5.053
	c-0.885,1.121-0.844,2.287,0.062,3.107c1.031,0.938,2.134,0.453,3.06-0.561c2.442-2.682,5.473-4.758,7.701-7.861
	c1.267,3.1,0.931,5.246-1.6,7.316c-2.639,2.154-5.039,4.627-7.736,6.74c-0.472,0.371-1.045,0.816-1.598,0.852
	c-1.723,0.111-1.842,0.871-1.242,2.252c0.584,1.336,1.082,2.574,2.935,1.795c0.747-0.316,1.55-0.488,2.317-0.762
	c1.651-0.59,3.232-1.104,4.159-2.951c0.451-0.9,1.472-1.922,2.856-1.961c1.175-0.031,0.544-1.477,1.576-1.812
	c-0.025,3.467,1.303,6.879,0.107,10.389c-0.281,0.824-0.111,1.432,1.058,1.426c0.894-0.008,1.881-0.443,2.722,0.529
	c0.289,0.336,0.627-0.295,0.639-0.848c0.062-2.719-0.354-5.385-0.988-8c-0.295-1.211,0.182-2.381-0.279-3.611
	c1.604,1.873,3.602,3.127,5.203,4.84c1.219,1.309,2.783,2.352,4.086,3.643c0.121,0.123,1.027,0.643,1.131,0.076
	c0.174-0.926,1.388-1.762,0.196-2.898c-2.635-2.512-5.425-4.85-7.72-7.744C54.763,58.84,54.387,56.148,53.459,53.545"/>
<path fill-rule="evenodd" clip-rule="evenodd" fill="#528450" d="M117.059,60.925c-1.676,2.213-3.955,3.74-5.869,5.65
	c-0.373,0.375-0.851,0.541-1.2,0.926c-0.281,0.312-0.712,0.004-0.978-0.104c-0.271-0.109-0.193-0.533,0.004-0.863
	c1.089-1.861,2.276-3.607,3.891-5.115c1.156-1.074,1.947-2.572,2.779-3.955c0.471-0.779,0.871-1.604,1.391-2.408
	c-0.85,0.732-1.965,1.117-2.666,1.938c-0.734,0.85-1.881,1.033-2.559,1.91c-0.326,0.426-0.645,0.113-0.93-0.17
	c-0.431-0.428-0.346-0.781,0.034-1.211c1.3-1.453,2.563-2.936,3.851-4.404c0.963-1.105,1.811-2.281,2.445-3.824
	c-1.104,0.242-1.527,1.053-2.16,1.566c-0.418,0.336-0.928,0.576-1.352,0.414c-0.521-0.193-0.807-0.799-0.83-1.365
	c-0.037-0.854,0.143-1.576,0.828-2.295c2.492-2.604,4.795-5.363,6.074-8.818c0.137-0.366,0.207-0.681,0.008-1.107
	c-1.219,0.994-2.057,2.264-2.912,3.497c-0.324,0.476-0.725,0.845-1.084,1.267c-0.248,0.293-0.59,0.379-0.875,0.15
	c-0.252-0.195-0.367-0.477-0.473-0.854c-0.387-1.367,0.523-1.961,1.184-2.854c1.412-1.904,2.82-3.843,3.467-6.204
	c0.322-1.177,1.137-1.347,1.941-0.41c0.375,0.438,0.82,0.829,0.932,1.518c0.354,2.105,1.906,3.638,2.82,5.483
	c0.148,0.299,0.752,0.46,1.119,0.764c0.824,0.686,0.582,1.582,0.457,2.354c-0.096,0.594-0.645,0.314-0.945-0.006
	c-1.025-1.079-2.281-1.969-2.854-3.426c-0.115-0.299-0.213-0.621-0.574-0.733c-0.258,2.503,1.547,6.364,3.631,7.788
	c0.379,0.264,0.76,0.535,1.109,0.834c0.207,0.18,0.355,0.428,0.529,0.643c-1.473,1.031,1.184,1.74,0.033,2.861
	c-0.875-0.566-1.91-1.01-2.703-1.91c-0.77-0.877-1.639-1.672-2.748-2.781c0.123,1.928,0.676,3.352,1.459,4.686
	c0.918,1.566,2.395,2.684,3.541,4.076c0.857,1.037,1.215,2.369,2.229,3.26c0.203,0.182,0.225,0.385,0.027,0.605
	c-0.258,0.293-0.59,0.389-0.879,0.168c-0.672-0.512-1.52-0.65-2.191-1.236c-1.475-1.289-3.084-2.43-4.748-3.715
	c-0.371,0.881-0.322,1.498,0.322,2.094c1.355,1.26,2.297,2.834,3.354,4.336c0.822,1.168,1.73,2.299,2.619,3.432
	c0.602,0.762,0.574,1.553-0.041,2.109c-0.697,0.637-1.447,0.311-2.076-0.381c-1.658-1.82-3.717-3.229-5.23-5.338
	c-0.861,2.105-0.633,3.562,1.086,4.967c1.791,1.463,3.422,3.143,5.254,4.582c0.32,0.25,0.709,0.553,1.086,0.576
	c1.17,0.074,1.248,0.59,0.842,1.529c-0.396,0.906-0.736,1.748-1.992,1.219c-0.508-0.215-1.055-0.332-1.574-0.518
	c-1.121-0.4-2.193-0.75-2.824-2.004c-0.307-0.609-1.002-1.307-1.941-1.332c-0.797-0.021-0.369-1.002-1.068-1.232
	c0.018,2.355-0.885,4.674-0.07,7.057c0.189,0.559,0.074,0.973-0.719,0.969c-0.607-0.004-1.279-0.301-1.854,0.359
	c-0.193,0.229-0.424-0.203-0.43-0.576c-0.041-1.846,0.24-3.656,0.672-5.43c0.195-0.824-0.127-1.623,0.186-2.455
	c-1.086,1.27-2.445,2.121-3.531,3.289c-0.827,0.885-1.889,1.594-2.773,2.473c-0.082,0.082-0.699,0.43-0.771,0.051
	c-0.116-0.629-0.943-1.195-0.132-1.969c1.787-1.709,3.684-3.295,5.244-5.256C116.174,64.521,116.432,62.692,117.059,60.925"/>
<path fill-rule="evenodd" clip-rule="evenodd" fill="#528450" d="M26.907,60.295c-1.676,2.213-3.955,3.74-5.867,5.65
	c-0.374,0.375-0.853,0.541-1.202,0.926c-0.283,0.312-0.714,0.004-0.976-0.104c-0.273-0.109-0.193-0.533,0.001-0.863
	c1.091-1.861,2.277-3.607,3.892-5.115c1.157-1.074,1.945-2.572,2.779-3.955c0.471-0.779,0.872-1.604,1.389-2.408
	c-0.849,0.732-1.962,1.117-2.667,1.938c-0.732,0.85-1.879,1.033-2.557,1.91c-0.327,0.426-0.643,0.113-0.928-0.17
	c-0.431-0.428-0.349-0.781,0.033-1.211c1.297-1.453,2.565-2.936,3.849-4.404c0.965-1.105,1.811-2.281,2.446-3.824
	c-1.103,0.242-1.528,1.053-2.16,1.566c-0.419,0.336-0.926,0.576-1.35,0.414c-0.524-0.193-0.807-0.799-0.833-1.365
	c-0.037-0.854,0.144-1.576,0.83-2.295c2.492-2.603,4.794-5.363,6.073-8.818c0.138-0.366,0.209-0.68,0.009-1.107
	c-1.217,0.994-2.058,2.264-2.911,3.497c-0.326,0.476-0.726,0.845-1.087,1.267c-0.249,0.294-0.591,0.379-0.875,0.151
	c-0.25-0.196-0.365-0.478-0.473-0.854c-0.386-1.367,0.524-1.961,1.184-2.854c1.414-1.904,2.819-3.843,3.468-6.204
	c0.323-1.177,1.138-1.347,1.94-0.41c0.375,0.438,0.819,0.829,0.934,1.518c0.351,2.105,1.903,3.638,2.818,5.483
	c0.15,0.299,0.75,0.46,1.116,0.764c0.827,0.686,0.584,1.582,0.461,2.354c-0.096,0.594-0.645,0.314-0.946-0.006
	c-1.024-1.079-2.28-1.969-2.854-3.426c-0.116-0.299-0.214-0.621-0.575-0.733c-0.255,2.503,1.548,6.364,3.629,7.788
	c0.38,0.264,0.761,0.535,1.111,0.834c0.208,0.181,0.355,0.428,0.531,0.643c-1.475,1.031,1.18,1.74,0.033,2.861
	c-0.875-0.566-1.913-1.01-2.705-1.91c-0.771-0.877-1.639-1.671-2.748-2.781c0.123,1.928,0.676,3.352,1.457,4.686
	c0.921,1.566,2.396,2.684,3.543,4.076c0.856,1.037,1.216,2.369,2.229,3.26c0.202,0.182,0.222,0.385,0.028,0.605
	c-0.258,0.293-0.592,0.389-0.88,0.168c-0.671-0.512-1.52-0.65-2.189-1.236c-1.478-1.289-3.086-2.43-4.752-3.715
	c-0.368,0.881-0.32,1.498,0.323,2.094c1.357,1.26,2.298,2.834,3.354,4.336c0.822,1.168,1.73,2.299,2.621,3.432
	c0.599,0.762,0.572,1.553-0.043,2.109c-0.699,0.637-1.447,0.311-2.076-0.381c-1.659-1.82-3.717-3.229-5.23-5.338
	c-0.859,2.105-0.633,3.562,1.085,4.967c1.791,1.463,3.422,3.143,5.254,4.582c0.321,0.25,0.711,0.553,1.086,0.576
	c1.17,0.074,1.25,0.59,0.842,1.529c-0.396,0.906-0.734,1.748-1.992,1.219c-0.506-0.215-1.052-0.332-1.573-0.518
	c-1.122-0.4-2.195-0.75-2.824-2.004c-0.306-0.609-1-1.307-1.939-1.332c-0.797-0.021-0.371-1.002-1.072-1.232
	c0.018,2.355-0.883,4.674-0.071,7.057c0.19,0.559,0.074,0.973-0.719,0.969c-0.606-0.004-1.278-0.301-1.85,0.359
	c-0.196,0.229-0.426-0.203-0.433-0.576c-0.042-1.846,0.24-3.656,0.671-5.43c0.199-0.824-0.124-1.623,0.189-2.455
	c-1.087,1.27-2.445,2.121-3.533,3.289c-0.829,0.885-1.889,1.594-2.773,2.473c-0.084,0.082-0.699,0.43-0.77,0.051
	c-0.118-0.629-0.943-1.195-0.133-1.969c1.789-1.709,3.683-3.295,5.244-5.256C26.021,63.891,26.278,62.062,26.907,60.295"/>
<path fill-rule="evenodd" clip-rule="evenodd" fill="#528450" d="M95.1,26.092c0.526,3.521,1.859,6.468,3.94,8.877
	c1.372,1.592,2.234,3.554,3.948,4.906c2.292,1.81,3.772,4.354,5.471,6.69c0.81,1.121,0.475,1.963-0.819,1.868
	c-1.986-0.136-3.976-0.512-5.939-0.696c-2.156-0.205-3.774-1.353-5.733-1.998c0.717,0.925,0.263,2.66,2.083,2.75
	c0.147,0.01,0.391,0.025,0.32,0.291c-0.594,2.264,2.031,2.305,2.533,3.633c0.592,1.569,2.095,2.33,2.645,3.752
	c0.17,0.432,0.381,0.696,0.657,0.948c2.981,2.729,6.222,5.192,8.392,8.739c0.438,0.711,1.33,1.146,1.694,2.096
	c0.104,0.274,0.658,0.625,0.473,1.056c-0.195,0.44-0.742,0.432-1.202,0.577c-2.842,0.892-5.388-0.102-8.014-0.923
	c-1.438-0.45-2.992,0.11-4.464-0.095c-3.223-0.44-6.427-1.009-9.649-1.529c-0.381,0.357-0.306,0.877-0.152,1.148
	c1.125,1.999-0.034,4.234,0.708,6.268c0.169,0.471-1.192,1.334-2.095,1.334c-2.565-0.017-5.11,0.395-7.699,0.12
	c-1.766-0.196-2.594-0.686-1.757-2.233c0.987-1.835-0.43-3.794,0.836-5.504c0.4-0.54-0.415-0.812-0.999-0.882
	c-2.001-0.235-4.01,0.03-5.955,0.305c-1.913,0.272-3.823,0.401-5.737,0.577c-1.448,0.136-2.887,0.141-4.32,0.62
	c-1.578,0.543-3.231-0.053-4.846-0.229c-0.284-0.03-0.476-0.478-0.796-0.266c-0.804,0.526-1.549,0.254-1.819-0.466
	c-0.307-0.816,0.403-1.645,0.977-2.014c0.895-0.582,1.665-1.224,2.461-1.899c0.504-0.437,1.253-0.843,1.892-1.265
	c3.471-2.273,5.534-5.802,8.337-8.65c1.407-1.42,2.915-2.78,3.841-4.614c0.302-0.596,1.029-0.535,1.57-1.066
	c-0.661-0.432-1.076-0.641-1.924-0.337c-2.418,0.872-4.972,0.688-7.491,0.508c-0.526-0.037-1.208-0.141-1.313-0.697
	c-0.12-0.641,0.17-1.338,0.751-1.739c1.572-1.097,2.731-2.594,4.069-3.917c1.647-1.615,3.604-3.031,5.342-4.514
	c1.872-1.592,3.753-3.69,4.859-6.145c0.463-1.041,0.975-2.063,1.455-3.097c0.09-0.201,0.295-0.421,0.039-0.632
	c-0.114-0.09-0.284-0.11-0.43-0.163c-0.337,1.13-1.523,0.708-2.248,1.225c-2.047,1.443-4.301,2.37-6.925,1.744
	c-0.529-0.13-0.92-0.25-1.036-0.821c-0.109-0.534,0.262-0.762,0.547-1.153c2.997-4.139,7.117-7.279,10.023-11.503
	c1.871-2.724,4.241-5.104,5.733-8.093c0.766-1.53,1.361-3.148,2.139-4.668c0.385-0.752,0.884-1.512,1.38-2.137
	c0.504-0.637,1.702-0.765,2.072,0.563c0.355,1.27,0.618,2.566,1.003,3.824c1.196,3.895,2.921,7.613,4.171,11.457
	c1.202,3.686,3.829,6.557,4.916,10.215c0.173,0.578,0.436,1.11-0.146,1.416c-0.501,0.266-1.027,0.631-1.769,0.125
	C99.237,28.518,97.271,27.408,95.1,26.092"/>
<path fill-rule="evenodd" clip-rule="evenodd" fill="#528450" d="M15.818,54.81c0.175,1.494,0.613,2.745,1.302,3.77
	c0.451,0.675,0.737,1.508,1.301,2.082c0.757,0.769,1.247,1.848,1.804,2.842c0.27,0.476,0.158,0.831-0.27,0.792
	c-0.653-0.057-1.311-0.217-1.959-0.296c-0.711-0.085-1.246-0.575-1.891-0.852c0.235,0.395,0.087,1.129,0.687,1.171
	c0.051,0.005,0.127,0.011,0.107,0.121c-0.198,0.966,0.668,0.98,0.833,1.546c0.196,0.664,0.693,0.985,0.876,1.592
	c0.054,0.184,0.124,0.298,0.215,0.402c0.984,1.159,2.053,2.203,2.77,3.71c0.145,0.302,0.438,0.486,0.558,0.891
	c0.036,0.117,0.218,0.267,0.158,0.446c-0.064,0.189-0.245,0.184-0.396,0.246c-0.939,0.38-1.78-0.043-2.646-0.391
	c-0.474-0.193-0.985,0.045-1.471-0.04c-1.064-0.188-2.123-0.429-3.185-0.648c-0.128,0.148-0.102,0.372-0.051,0.486
	c0.369,0.849-0.012,1.799,0.231,2.662c0.057,0.198-0.392,0.566-0.691,0.563c-0.847-0.003-1.685,0.172-2.54,0.051
	c-0.582-0.08-0.856-0.289-0.579-0.945c0.327-0.782-0.144-1.61,0.275-2.334c0.131-0.232-0.138-0.348-0.329-0.377
	c-0.662-0.1-1.324,0.012-1.966,0.129c-0.632,0.115-1.262,0.17-1.895,0.244c-0.478,0.057-0.951,0.058-1.424,0.266
	c-0.521,0.227-1.066-0.024-1.6-0.101c-0.093-0.014-0.157-0.2-0.263-0.112c-0.264,0.224-0.511,0.108-0.599-0.197
	c-0.101-0.348,0.131-0.697,0.321-0.854c0.294-0.247,0.55-0.521,0.812-0.809c0.167-0.183,0.414-0.356,0.625-0.535
	c1.146-0.967,1.826-2.462,2.75-3.671c0.467-0.606,0.962-1.18,1.269-1.96c0.1-0.253,0.339-0.229,0.518-0.451
	c-0.217-0.187-0.355-0.274-0.636-0.146c-0.797,0.372-1.639,0.295-2.473,0.216c-0.175-0.017-0.397-0.061-0.433-0.296
	c-0.04-0.273,0.056-0.566,0.249-0.74c0.519-0.462,0.902-1.1,1.342-1.659c0.543-0.685,1.189-1.29,1.764-1.917
	c0.617-0.675,1.237-1.569,1.601-2.611c0.155-0.441,0.322-0.875,0.481-1.313c0.031-0.085,0.101-0.18,0.012-0.269
	c-0.034-0.039-0.092-0.047-0.14-0.068c-0.111,0.479-0.503,0.301-0.742,0.52c-0.676,0.613-1.42,1.005-2.285,0.738
	c-0.174-0.052-0.306-0.104-0.342-0.348c-0.036-0.227,0.084-0.322,0.181-0.489c0.987-1.756,2.348-3.089,3.308-4.885
	c0.618-1.154,1.398-2.167,1.892-3.435c0.252-0.649,0.451-1.336,0.706-1.982c0.125-0.318,0.292-0.642,0.454-0.906
	c0.167-0.271,0.563-0.324,0.685,0.238c0.118,0.539,0.205,1.09,0.332,1.623c0.395,1.653,0.963,3.233,1.376,4.865
	c0.397,1.563,1.264,2.782,1.623,4.337c0.059,0.247,0.143,0.471-0.046,0.601c-0.167,0.112-0.341,0.269-0.583,0.055
	C17.184,55.838,16.535,55.37,15.818,54.81"/>
<path fill-rule="evenodd" clip-rule="evenodd" fill="#528450" d="M244.301,62.135c1.513,1.998,3.571,3.378,5.297,5.102
	c0.336,0.338,0.769,0.489,1.085,0.836c0.255,0.28,0.645,0.004,0.88-0.094c0.248-0.102,0.174-0.48,0-0.78
	c-0.985-1.682-2.055-3.256-3.515-4.616c-1.044-0.972-1.756-2.324-2.508-3.571c-0.425-0.704-0.787-1.448-1.256-2.176
	c0.768,0.663,1.772,1.011,2.409,1.75c0.66,0.767,1.698,0.933,2.308,1.726c0.295,0.382,0.58,0.101,0.838-0.154
	c0.389-0.386,0.314-0.705-0.029-1.092c-1.174-1.313-2.317-2.651-3.476-3.977c-0.871-0.996-1.635-2.06-2.209-3.452
	c0.996,0.218,1.38,0.95,1.952,1.411c0.376,0.305,0.834,0.521,1.218,0.378c0.474-0.179,0.728-0.723,0.752-1.234
	c0.033-0.771-0.131-1.426-0.75-2.073c-2.25-2.349-4.327-4.843-5.483-7.961c-0.123-0.331-0.188-0.612-0.008-1.001
	c1.1,0.899,1.858,2.047,2.629,3.159c0.295,0.427,0.655,0.764,0.981,1.145c0.226,0.263,0.533,0.341,0.79,0.136
	c0.227-0.179,0.331-0.432,0.426-0.772c0.35-1.234-0.473-1.771-1.068-2.574c-1.277-1.72-2.545-3.471-3.132-5.601
	c-0.291-1.064-1.026-1.218-1.75-0.372c-0.338,0.395-0.742,0.749-0.845,1.369c-0.317,1.901-1.719,3.286-2.544,4.95
	c-0.136,0.271-0.679,0.416-1.009,0.689c-0.744,0.619-0.526,1.43-0.416,2.126c0.087,0.535,0.582,0.283,0.856-0.006
	c0.924-0.974,2.057-1.776,2.575-3.093c0.105-0.27,0.191-0.562,0.52-0.662c0.229,2.262-1.397,5.745-3.277,7.034
	c-0.344,0.235-0.687,0.479-1.002,0.751c-0.188,0.16-0.321,0.385-0.481,0.581c1.331,0.932-1.064,1.572-0.029,2.581
	c0.791-0.513,1.727-0.911,2.441-1.726c0.697-0.791,1.481-1.507,2.48-2.51c-0.109,1.739-0.609,3.026-1.315,4.229
	c-0.829,1.417-2.161,2.425-3.198,3.681c-0.773,0.938-1.097,2.138-2.011,2.943c-0.184,0.162-0.201,0.348-0.025,0.549
	c0.23,0.261,0.532,0.351,0.792,0.152c0.607-0.465,1.373-0.591,1.978-1.119c1.336-1.164,2.787-2.193,4.291-3.354
	c0.331,0.796,0.289,1.353-0.293,1.893c-1.222,1.137-2.074,2.557-3.026,3.913c-0.742,1.055-1.562,2.076-2.367,3.098
	c-0.542,0.688-0.517,1.402,0.038,1.905c0.632,0.575,1.309,0.278,1.876-0.344c1.497-1.644,3.354-2.917,4.722-4.819
	c0.776,1.9,0.57,3.216-0.981,4.485c-1.617,1.321-3.089,2.837-4.743,4.133c-0.289,0.228-0.641,0.5-0.979,0.521
	c-1.056,0.068-1.129,0.534-0.761,1.381c0.357,0.819,0.663,1.578,1.799,1.101c0.458-0.194,0.95-0.3,1.421-0.467
	c1.013-0.362,1.981-0.677,2.55-1.81c0.276-0.552,0.902-1.179,1.751-1.202c0.721-0.02,0.334-0.905,0.967-1.111
	c-0.016,2.125,0.798,4.217,0.065,6.369c-0.172,0.505-0.068,0.878,0.648,0.874c0.548-0.005,1.153-0.271,1.669,0.324
	c0.177,0.206,0.384-0.181,0.392-0.52c0.037-1.667-0.217-3.301-0.606-4.904c-0.181-0.742,0.111-1.46-0.171-2.214
	c0.983,1.147,2.208,1.917,3.189,2.967c0.747,0.803,1.707,1.441,2.505,2.233c0.075,0.075,0.63,0.394,0.693,0.047
	c0.107-0.568,0.852-1.08,0.121-1.777c-1.615-1.54-3.326-2.974-4.733-4.748C245.1,65.381,244.869,63.73,244.301,62.135"/>
<path fill-rule="evenodd" clip-rule="evenodd" fill="#528450" d="M226.021,65.758c-1.027,1.356-2.424,2.293-3.597,3.464
	c-0.229,0.23-0.522,0.332-0.737,0.568c-0.174,0.191-0.438,0.002-0.598-0.063c-0.168-0.067-0.119-0.327,0-0.529
	c0.67-1.142,1.396-2.212,2.387-3.137c0.709-0.658,1.192-1.576,1.703-2.425c0.289-0.478,0.535-0.982,0.852-1.476
	c-0.52,0.448-1.203,0.685-1.635,1.188c-0.449,0.521-1.152,0.634-1.567,1.171c-0.2,0.261-0.394,0.069-0.569-0.104
	c-0.264-0.262-0.213-0.479,0.021-0.742c0.795-0.891,1.572-1.8,2.359-2.7c0.592-0.678,1.11-1.398,1.5-2.345
	c-0.676,0.148-0.938,0.646-1.324,0.961c-0.257,0.206-0.568,0.354-0.828,0.254c-0.32-0.119-0.494-0.49-0.511-0.837
	c-0.022-0.523,0.089-0.967,0.509-1.407c1.527-1.596,2.939-3.288,3.724-5.406c0.084-0.225,0.128-0.417,0.005-0.679
	c-0.746,0.609-1.262,1.388-1.784,2.144c-0.2,0.292-0.444,0.518-0.667,0.776c-0.152,0.181-0.361,0.232-0.535,0.093
	c-0.154-0.12-0.225-0.293-0.291-0.523c-0.236-0.839,0.322-1.202,0.727-1.75c0.867-1.167,1.729-2.355,2.126-3.803
	c0.198-0.722,0.698-0.826,1.19-0.251c0.229,0.268,0.502,0.508,0.572,0.93c0.215,1.291,1.167,2.23,1.728,3.361
	c0.092,0.184,0.46,0.282,0.685,0.469c0.507,0.42,0.358,0.97,0.282,1.442c-0.059,0.364-0.395,0.193-0.58-0.004
	c-0.628-0.661-1.397-1.207-1.749-2.1c-0.071-0.184-0.131-0.381-0.353-0.45c-0.156,1.535,0.949,3.902,2.225,4.775
	c0.233,0.161,0.467,0.328,0.682,0.511c0.127,0.111,0.218,0.263,0.325,0.395c-0.904,0.632,0.724,1.066,0.021,1.754
	c-0.536-0.348-1.173-0.619-1.658-1.171c-0.473-0.538-1.005-1.024-1.685-1.705c0.075,1.182,0.415,2.055,0.894,2.872
	c0.564,0.961,1.469,1.646,2.172,2.499c0.525,0.636,0.746,1.453,1.366,1.999c0.124,0.111,0.136,0.235,0.018,0.371
	c-0.158,0.18-0.362,0.238-0.539,0.103c-0.412-0.313-0.932-0.398-1.343-0.758c-0.906-0.79-1.892-1.489-2.913-2.277
	c-0.227,0.54-0.196,0.918,0.198,1.283c0.831,0.772,1.408,1.738,2.056,2.658c0.504,0.717,1.062,1.41,1.607,2.104
	c0.366,0.467,0.351,0.952-0.026,1.293c-0.429,0.391-0.888,0.19-1.273-0.233c-1.017-1.116-2.278-1.979-3.206-3.272
	c-0.526,1.291-0.389,2.184,0.665,3.045c1.099,0.896,2.099,1.927,3.222,2.81c0.196,0.152,0.436,0.339,0.665,0.353
	c0.718,0.046,0.767,0.362,0.517,0.938c-0.242,0.556-0.45,1.072-1.222,0.747c-0.31-0.131-0.645-0.203-0.964-0.316
	c-0.688-0.246-1.346-0.46-1.731-1.229c-0.188-0.373-0.613-0.801-1.189-0.816c-0.488-0.013-0.227-0.614-0.657-0.755
	c0.011,1.443-0.541,2.865-0.043,4.326c0.116,0.342,0.045,0.596-0.441,0.594c-0.372-0.003-0.783-0.185-1.134,0.22
	c-0.12,0.141-0.261-0.124-0.265-0.353c-0.025-1.132,0.146-2.242,0.41-3.329c0.123-0.505-0.076-0.995,0.116-1.505
	c-0.666,0.778-1.499,1.3-2.165,2.017c-0.509,0.542-1.158,0.977-1.701,1.516c-0.051,0.05-0.428,0.264-0.472,0.031
	c-0.071-0.386-0.578-0.733-0.081-1.207c1.096-1.048,2.258-2.021,3.215-3.223C225.479,67.963,225.637,66.842,226.021,65.758"/>
</svg>
